%TF.GenerationSoftware,KiCad,Pcbnew,7.99.0-3522-gc5520b3eef-dirty*%
%TF.CreationDate,2023-12-17T14:55:43+00:00*%
%TF.ProjectId,lamp-controller,6c616d70-2d63-46f6-9e74-726f6c6c6572,rev?*%
%TF.SameCoordinates,Original*%
%TF.FileFunction,Legend,Top*%
%TF.FilePolarity,Positive*%
%FSLAX46Y46*%
G04 Gerber Fmt 4.6, Leading zero omitted, Abs format (unit mm)*
G04 Created by KiCad (PCBNEW 7.99.0-3522-gc5520b3eef-dirty) date 2023-12-17 14:55:43*
%MOMM*%
%LPD*%
G01*
G04 APERTURE LIST*
%ADD10C,0.150000*%
%ADD11C,0.120000*%
G04 APERTURE END LIST*
D10*
X139794819Y-95133333D02*
X140509104Y-95133333D01*
X140509104Y-95133333D02*
X140651961Y-95180952D01*
X140651961Y-95180952D02*
X140747200Y-95276190D01*
X140747200Y-95276190D02*
X140794819Y-95419047D01*
X140794819Y-95419047D02*
X140794819Y-95514285D01*
X139794819Y-94180952D02*
X139794819Y-94657142D01*
X139794819Y-94657142D02*
X140271009Y-94704761D01*
X140271009Y-94704761D02*
X140223390Y-94657142D01*
X140223390Y-94657142D02*
X140175771Y-94561904D01*
X140175771Y-94561904D02*
X140175771Y-94323809D01*
X140175771Y-94323809D02*
X140223390Y-94228571D01*
X140223390Y-94228571D02*
X140271009Y-94180952D01*
X140271009Y-94180952D02*
X140366247Y-94133333D01*
X140366247Y-94133333D02*
X140604342Y-94133333D01*
X140604342Y-94133333D02*
X140699580Y-94180952D01*
X140699580Y-94180952D02*
X140747200Y-94228571D01*
X140747200Y-94228571D02*
X140794819Y-94323809D01*
X140794819Y-94323809D02*
X140794819Y-94561904D01*
X140794819Y-94561904D02*
X140747200Y-94657142D01*
X140747200Y-94657142D02*
X140699580Y-94704761D01*
X142504167Y-88994700D02*
X142647024Y-89042319D01*
X142647024Y-89042319D02*
X142885119Y-89042319D01*
X142885119Y-89042319D02*
X142980357Y-88994700D01*
X142980357Y-88994700D02*
X143027976Y-88947080D01*
X143027976Y-88947080D02*
X143075595Y-88851842D01*
X143075595Y-88851842D02*
X143075595Y-88756604D01*
X143075595Y-88756604D02*
X143027976Y-88661366D01*
X143027976Y-88661366D02*
X142980357Y-88613747D01*
X142980357Y-88613747D02*
X142885119Y-88566128D01*
X142885119Y-88566128D02*
X142694643Y-88518509D01*
X142694643Y-88518509D02*
X142599405Y-88470890D01*
X142599405Y-88470890D02*
X142551786Y-88423271D01*
X142551786Y-88423271D02*
X142504167Y-88328033D01*
X142504167Y-88328033D02*
X142504167Y-88232795D01*
X142504167Y-88232795D02*
X142551786Y-88137557D01*
X142551786Y-88137557D02*
X142599405Y-88089938D01*
X142599405Y-88089938D02*
X142694643Y-88042319D01*
X142694643Y-88042319D02*
X142932738Y-88042319D01*
X142932738Y-88042319D02*
X143075595Y-88089938D01*
X143408929Y-88042319D02*
X143647024Y-89042319D01*
X143647024Y-89042319D02*
X143837500Y-88328033D01*
X143837500Y-88328033D02*
X144027976Y-89042319D01*
X144027976Y-89042319D02*
X144266072Y-88042319D01*
X144599405Y-88137557D02*
X144647024Y-88089938D01*
X144647024Y-88089938D02*
X144742262Y-88042319D01*
X144742262Y-88042319D02*
X144980357Y-88042319D01*
X144980357Y-88042319D02*
X145075595Y-88089938D01*
X145075595Y-88089938D02*
X145123214Y-88137557D01*
X145123214Y-88137557D02*
X145170833Y-88232795D01*
X145170833Y-88232795D02*
X145170833Y-88328033D01*
X145170833Y-88328033D02*
X145123214Y-88470890D01*
X145123214Y-88470890D02*
X144551786Y-89042319D01*
X144551786Y-89042319D02*
X145170833Y-89042319D01*
X157004761Y-95554819D02*
X156671428Y-95078628D01*
X156433333Y-95554819D02*
X156433333Y-94554819D01*
X156433333Y-94554819D02*
X156814285Y-94554819D01*
X156814285Y-94554819D02*
X156909523Y-94602438D01*
X156909523Y-94602438D02*
X156957142Y-94650057D01*
X156957142Y-94650057D02*
X157004761Y-94745295D01*
X157004761Y-94745295D02*
X157004761Y-94888152D01*
X157004761Y-94888152D02*
X156957142Y-94983390D01*
X156957142Y-94983390D02*
X156909523Y-95031009D01*
X156909523Y-95031009D02*
X156814285Y-95078628D01*
X156814285Y-95078628D02*
X156433333Y-95078628D01*
X157290476Y-94554819D02*
X157623809Y-95554819D01*
X157623809Y-95554819D02*
X157957142Y-94554819D01*
X158195238Y-94554819D02*
X158814285Y-94554819D01*
X158814285Y-94554819D02*
X158480952Y-94935771D01*
X158480952Y-94935771D02*
X158623809Y-94935771D01*
X158623809Y-94935771D02*
X158719047Y-94983390D01*
X158719047Y-94983390D02*
X158766666Y-95031009D01*
X158766666Y-95031009D02*
X158814285Y-95126247D01*
X158814285Y-95126247D02*
X158814285Y-95364342D01*
X158814285Y-95364342D02*
X158766666Y-95459580D01*
X158766666Y-95459580D02*
X158719047Y-95507200D01*
X158719047Y-95507200D02*
X158623809Y-95554819D01*
X158623809Y-95554819D02*
X158338095Y-95554819D01*
X158338095Y-95554819D02*
X158242857Y-95507200D01*
X158242857Y-95507200D02*
X158195238Y-95459580D01*
X153904761Y-95554819D02*
X153571428Y-95078628D01*
X153333333Y-95554819D02*
X153333333Y-94554819D01*
X153333333Y-94554819D02*
X153714285Y-94554819D01*
X153714285Y-94554819D02*
X153809523Y-94602438D01*
X153809523Y-94602438D02*
X153857142Y-94650057D01*
X153857142Y-94650057D02*
X153904761Y-94745295D01*
X153904761Y-94745295D02*
X153904761Y-94888152D01*
X153904761Y-94888152D02*
X153857142Y-94983390D01*
X153857142Y-94983390D02*
X153809523Y-95031009D01*
X153809523Y-95031009D02*
X153714285Y-95078628D01*
X153714285Y-95078628D02*
X153333333Y-95078628D01*
X154190476Y-94554819D02*
X154523809Y-95554819D01*
X154523809Y-95554819D02*
X154857142Y-94554819D01*
X155142857Y-94650057D02*
X155190476Y-94602438D01*
X155190476Y-94602438D02*
X155285714Y-94554819D01*
X155285714Y-94554819D02*
X155523809Y-94554819D01*
X155523809Y-94554819D02*
X155619047Y-94602438D01*
X155619047Y-94602438D02*
X155666666Y-94650057D01*
X155666666Y-94650057D02*
X155714285Y-94745295D01*
X155714285Y-94745295D02*
X155714285Y-94840533D01*
X155714285Y-94840533D02*
X155666666Y-94983390D01*
X155666666Y-94983390D02*
X155095238Y-95554819D01*
X155095238Y-95554819D02*
X155714285Y-95554819D01*
X150804761Y-95554819D02*
X150471428Y-95078628D01*
X150233333Y-95554819D02*
X150233333Y-94554819D01*
X150233333Y-94554819D02*
X150614285Y-94554819D01*
X150614285Y-94554819D02*
X150709523Y-94602438D01*
X150709523Y-94602438D02*
X150757142Y-94650057D01*
X150757142Y-94650057D02*
X150804761Y-94745295D01*
X150804761Y-94745295D02*
X150804761Y-94888152D01*
X150804761Y-94888152D02*
X150757142Y-94983390D01*
X150757142Y-94983390D02*
X150709523Y-95031009D01*
X150709523Y-95031009D02*
X150614285Y-95078628D01*
X150614285Y-95078628D02*
X150233333Y-95078628D01*
X151090476Y-94554819D02*
X151423809Y-95554819D01*
X151423809Y-95554819D02*
X151757142Y-94554819D01*
X152614285Y-95554819D02*
X152042857Y-95554819D01*
X152328571Y-95554819D02*
X152328571Y-94554819D01*
X152328571Y-94554819D02*
X152233333Y-94697676D01*
X152233333Y-94697676D02*
X152138095Y-94792914D01*
X152138095Y-94792914D02*
X152042857Y-94840533D01*
X157642261Y-77200057D02*
X157547023Y-77152438D01*
X157547023Y-77152438D02*
X157451785Y-77057200D01*
X157451785Y-77057200D02*
X157308928Y-76914342D01*
X157308928Y-76914342D02*
X157213690Y-76866723D01*
X157213690Y-76866723D02*
X157118452Y-76866723D01*
X157166071Y-77104819D02*
X157070833Y-77057200D01*
X157070833Y-77057200D02*
X156975595Y-76961961D01*
X156975595Y-76961961D02*
X156927976Y-76771485D01*
X156927976Y-76771485D02*
X156927976Y-76438152D01*
X156927976Y-76438152D02*
X156975595Y-76247676D01*
X156975595Y-76247676D02*
X157070833Y-76152438D01*
X157070833Y-76152438D02*
X157166071Y-76104819D01*
X157166071Y-76104819D02*
X157356547Y-76104819D01*
X157356547Y-76104819D02*
X157451785Y-76152438D01*
X157451785Y-76152438D02*
X157547023Y-76247676D01*
X157547023Y-76247676D02*
X157594642Y-76438152D01*
X157594642Y-76438152D02*
X157594642Y-76771485D01*
X157594642Y-76771485D02*
X157547023Y-76961961D01*
X157547023Y-76961961D02*
X157451785Y-77057200D01*
X157451785Y-77057200D02*
X157356547Y-77104819D01*
X157356547Y-77104819D02*
X157166071Y-77104819D01*
X158547023Y-77104819D02*
X157975595Y-77104819D01*
X158261309Y-77104819D02*
X158261309Y-76104819D01*
X158261309Y-76104819D02*
X158166071Y-76247676D01*
X158166071Y-76247676D02*
X158070833Y-76342914D01*
X158070833Y-76342914D02*
X157975595Y-76390533D01*
X150320833Y-86259580D02*
X150273214Y-86307200D01*
X150273214Y-86307200D02*
X150130357Y-86354819D01*
X150130357Y-86354819D02*
X150035119Y-86354819D01*
X150035119Y-86354819D02*
X149892262Y-86307200D01*
X149892262Y-86307200D02*
X149797024Y-86211961D01*
X149797024Y-86211961D02*
X149749405Y-86116723D01*
X149749405Y-86116723D02*
X149701786Y-85926247D01*
X149701786Y-85926247D02*
X149701786Y-85783390D01*
X149701786Y-85783390D02*
X149749405Y-85592914D01*
X149749405Y-85592914D02*
X149797024Y-85497676D01*
X149797024Y-85497676D02*
X149892262Y-85402438D01*
X149892262Y-85402438D02*
X150035119Y-85354819D01*
X150035119Y-85354819D02*
X150130357Y-85354819D01*
X150130357Y-85354819D02*
X150273214Y-85402438D01*
X150273214Y-85402438D02*
X150320833Y-85450057D01*
X150654167Y-85354819D02*
X151320833Y-85354819D01*
X151320833Y-85354819D02*
X150892262Y-86354819D01*
X145988095Y-77954819D02*
X145988095Y-78764342D01*
X145988095Y-78764342D02*
X146035714Y-78859580D01*
X146035714Y-78859580D02*
X146083333Y-78907200D01*
X146083333Y-78907200D02*
X146178571Y-78954819D01*
X146178571Y-78954819D02*
X146369047Y-78954819D01*
X146369047Y-78954819D02*
X146464285Y-78907200D01*
X146464285Y-78907200D02*
X146511904Y-78859580D01*
X146511904Y-78859580D02*
X146559523Y-78764342D01*
X146559523Y-78764342D02*
X146559523Y-77954819D01*
X146988095Y-78050057D02*
X147035714Y-78002438D01*
X147035714Y-78002438D02*
X147130952Y-77954819D01*
X147130952Y-77954819D02*
X147369047Y-77954819D01*
X147369047Y-77954819D02*
X147464285Y-78002438D01*
X147464285Y-78002438D02*
X147511904Y-78050057D01*
X147511904Y-78050057D02*
X147559523Y-78145295D01*
X147559523Y-78145295D02*
X147559523Y-78240533D01*
X147559523Y-78240533D02*
X147511904Y-78383390D01*
X147511904Y-78383390D02*
X146940476Y-78954819D01*
X146940476Y-78954819D02*
X147559523Y-78954819D01*
X150008333Y-89654819D02*
X149675000Y-89178628D01*
X149436905Y-89654819D02*
X149436905Y-88654819D01*
X149436905Y-88654819D02*
X149817857Y-88654819D01*
X149817857Y-88654819D02*
X149913095Y-88702438D01*
X149913095Y-88702438D02*
X149960714Y-88750057D01*
X149960714Y-88750057D02*
X150008333Y-88845295D01*
X150008333Y-88845295D02*
X150008333Y-88988152D01*
X150008333Y-88988152D02*
X149960714Y-89083390D01*
X149960714Y-89083390D02*
X149913095Y-89131009D01*
X149913095Y-89131009D02*
X149817857Y-89178628D01*
X149817857Y-89178628D02*
X149436905Y-89178628D01*
X150913095Y-88654819D02*
X150436905Y-88654819D01*
X150436905Y-88654819D02*
X150389286Y-89131009D01*
X150389286Y-89131009D02*
X150436905Y-89083390D01*
X150436905Y-89083390D02*
X150532143Y-89035771D01*
X150532143Y-89035771D02*
X150770238Y-89035771D01*
X150770238Y-89035771D02*
X150865476Y-89083390D01*
X150865476Y-89083390D02*
X150913095Y-89131009D01*
X150913095Y-89131009D02*
X150960714Y-89226247D01*
X150960714Y-89226247D02*
X150960714Y-89464342D01*
X150960714Y-89464342D02*
X150913095Y-89559580D01*
X150913095Y-89559580D02*
X150865476Y-89607200D01*
X150865476Y-89607200D02*
X150770238Y-89654819D01*
X150770238Y-89654819D02*
X150532143Y-89654819D01*
X150532143Y-89654819D02*
X150436905Y-89607200D01*
X150436905Y-89607200D02*
X150389286Y-89559580D01*
X140033333Y-90459580D02*
X139985714Y-90507200D01*
X139985714Y-90507200D02*
X139842857Y-90554819D01*
X139842857Y-90554819D02*
X139747619Y-90554819D01*
X139747619Y-90554819D02*
X139604762Y-90507200D01*
X139604762Y-90507200D02*
X139509524Y-90411961D01*
X139509524Y-90411961D02*
X139461905Y-90316723D01*
X139461905Y-90316723D02*
X139414286Y-90126247D01*
X139414286Y-90126247D02*
X139414286Y-89983390D01*
X139414286Y-89983390D02*
X139461905Y-89792914D01*
X139461905Y-89792914D02*
X139509524Y-89697676D01*
X139509524Y-89697676D02*
X139604762Y-89602438D01*
X139604762Y-89602438D02*
X139747619Y-89554819D01*
X139747619Y-89554819D02*
X139842857Y-89554819D01*
X139842857Y-89554819D02*
X139985714Y-89602438D01*
X139985714Y-89602438D02*
X140033333Y-89650057D01*
X140890476Y-89888152D02*
X140890476Y-90554819D01*
X140652381Y-89507200D02*
X140414286Y-90221485D01*
X140414286Y-90221485D02*
X141033333Y-90221485D01*
X153733333Y-77154819D02*
X153400000Y-76678628D01*
X153161905Y-77154819D02*
X153161905Y-76154819D01*
X153161905Y-76154819D02*
X153542857Y-76154819D01*
X153542857Y-76154819D02*
X153638095Y-76202438D01*
X153638095Y-76202438D02*
X153685714Y-76250057D01*
X153685714Y-76250057D02*
X153733333Y-76345295D01*
X153733333Y-76345295D02*
X153733333Y-76488152D01*
X153733333Y-76488152D02*
X153685714Y-76583390D01*
X153685714Y-76583390D02*
X153638095Y-76631009D01*
X153638095Y-76631009D02*
X153542857Y-76678628D01*
X153542857Y-76678628D02*
X153161905Y-76678628D01*
X154304762Y-76583390D02*
X154209524Y-76535771D01*
X154209524Y-76535771D02*
X154161905Y-76488152D01*
X154161905Y-76488152D02*
X154114286Y-76392914D01*
X154114286Y-76392914D02*
X154114286Y-76345295D01*
X154114286Y-76345295D02*
X154161905Y-76250057D01*
X154161905Y-76250057D02*
X154209524Y-76202438D01*
X154209524Y-76202438D02*
X154304762Y-76154819D01*
X154304762Y-76154819D02*
X154495238Y-76154819D01*
X154495238Y-76154819D02*
X154590476Y-76202438D01*
X154590476Y-76202438D02*
X154638095Y-76250057D01*
X154638095Y-76250057D02*
X154685714Y-76345295D01*
X154685714Y-76345295D02*
X154685714Y-76392914D01*
X154685714Y-76392914D02*
X154638095Y-76488152D01*
X154638095Y-76488152D02*
X154590476Y-76535771D01*
X154590476Y-76535771D02*
X154495238Y-76583390D01*
X154495238Y-76583390D02*
X154304762Y-76583390D01*
X154304762Y-76583390D02*
X154209524Y-76631009D01*
X154209524Y-76631009D02*
X154161905Y-76678628D01*
X154161905Y-76678628D02*
X154114286Y-76773866D01*
X154114286Y-76773866D02*
X154114286Y-76964342D01*
X154114286Y-76964342D02*
X154161905Y-77059580D01*
X154161905Y-77059580D02*
X154209524Y-77107200D01*
X154209524Y-77107200D02*
X154304762Y-77154819D01*
X154304762Y-77154819D02*
X154495238Y-77154819D01*
X154495238Y-77154819D02*
X154590476Y-77107200D01*
X154590476Y-77107200D02*
X154638095Y-77059580D01*
X154638095Y-77059580D02*
X154685714Y-76964342D01*
X154685714Y-76964342D02*
X154685714Y-76773866D01*
X154685714Y-76773866D02*
X154638095Y-76678628D01*
X154638095Y-76678628D02*
X154590476Y-76631009D01*
X154590476Y-76631009D02*
X154495238Y-76583390D01*
X151133333Y-72554819D02*
X150800000Y-72078628D01*
X150561905Y-72554819D02*
X150561905Y-71554819D01*
X150561905Y-71554819D02*
X150942857Y-71554819D01*
X150942857Y-71554819D02*
X151038095Y-71602438D01*
X151038095Y-71602438D02*
X151085714Y-71650057D01*
X151085714Y-71650057D02*
X151133333Y-71745295D01*
X151133333Y-71745295D02*
X151133333Y-71888152D01*
X151133333Y-71888152D02*
X151085714Y-71983390D01*
X151085714Y-71983390D02*
X151038095Y-72031009D01*
X151038095Y-72031009D02*
X150942857Y-72078628D01*
X150942857Y-72078628D02*
X150561905Y-72078628D01*
X151990476Y-71888152D02*
X151990476Y-72554819D01*
X151752381Y-71507200D02*
X151514286Y-72221485D01*
X151514286Y-72221485D02*
X152133333Y-72221485D01*
X138634580Y-82241666D02*
X138682200Y-82289285D01*
X138682200Y-82289285D02*
X138729819Y-82432142D01*
X138729819Y-82432142D02*
X138729819Y-82527380D01*
X138729819Y-82527380D02*
X138682200Y-82670237D01*
X138682200Y-82670237D02*
X138586961Y-82765475D01*
X138586961Y-82765475D02*
X138491723Y-82813094D01*
X138491723Y-82813094D02*
X138301247Y-82860713D01*
X138301247Y-82860713D02*
X138158390Y-82860713D01*
X138158390Y-82860713D02*
X137967914Y-82813094D01*
X137967914Y-82813094D02*
X137872676Y-82765475D01*
X137872676Y-82765475D02*
X137777438Y-82670237D01*
X137777438Y-82670237D02*
X137729819Y-82527380D01*
X137729819Y-82527380D02*
X137729819Y-82432142D01*
X137729819Y-82432142D02*
X137777438Y-82289285D01*
X137777438Y-82289285D02*
X137825057Y-82241666D01*
X137729819Y-81384523D02*
X137729819Y-81574999D01*
X137729819Y-81574999D02*
X137777438Y-81670237D01*
X137777438Y-81670237D02*
X137825057Y-81717856D01*
X137825057Y-81717856D02*
X137967914Y-81813094D01*
X137967914Y-81813094D02*
X138158390Y-81860713D01*
X138158390Y-81860713D02*
X138539342Y-81860713D01*
X138539342Y-81860713D02*
X138634580Y-81813094D01*
X138634580Y-81813094D02*
X138682200Y-81765475D01*
X138682200Y-81765475D02*
X138729819Y-81670237D01*
X138729819Y-81670237D02*
X138729819Y-81479761D01*
X138729819Y-81479761D02*
X138682200Y-81384523D01*
X138682200Y-81384523D02*
X138634580Y-81336904D01*
X138634580Y-81336904D02*
X138539342Y-81289285D01*
X138539342Y-81289285D02*
X138301247Y-81289285D01*
X138301247Y-81289285D02*
X138206009Y-81336904D01*
X138206009Y-81336904D02*
X138158390Y-81384523D01*
X138158390Y-81384523D02*
X138110771Y-81479761D01*
X138110771Y-81479761D02*
X138110771Y-81670237D01*
X138110771Y-81670237D02*
X138158390Y-81765475D01*
X138158390Y-81765475D02*
X138206009Y-81813094D01*
X138206009Y-81813094D02*
X138301247Y-81860713D01*
X138654819Y-78166666D02*
X138178628Y-78499999D01*
X138654819Y-78738094D02*
X137654819Y-78738094D01*
X137654819Y-78738094D02*
X137654819Y-78357142D01*
X137654819Y-78357142D02*
X137702438Y-78261904D01*
X137702438Y-78261904D02*
X137750057Y-78214285D01*
X137750057Y-78214285D02*
X137845295Y-78166666D01*
X137845295Y-78166666D02*
X137988152Y-78166666D01*
X137988152Y-78166666D02*
X138083390Y-78214285D01*
X138083390Y-78214285D02*
X138131009Y-78261904D01*
X138131009Y-78261904D02*
X138178628Y-78357142D01*
X138178628Y-78357142D02*
X138178628Y-78738094D01*
X138654819Y-77214285D02*
X138654819Y-77785713D01*
X138654819Y-77499999D02*
X137654819Y-77499999D01*
X137654819Y-77499999D02*
X137797676Y-77595237D01*
X137797676Y-77595237D02*
X137892914Y-77690475D01*
X137892914Y-77690475D02*
X137940533Y-77785713D01*
X138634580Y-80166666D02*
X138682200Y-80214285D01*
X138682200Y-80214285D02*
X138729819Y-80357142D01*
X138729819Y-80357142D02*
X138729819Y-80452380D01*
X138729819Y-80452380D02*
X138682200Y-80595237D01*
X138682200Y-80595237D02*
X138586961Y-80690475D01*
X138586961Y-80690475D02*
X138491723Y-80738094D01*
X138491723Y-80738094D02*
X138301247Y-80785713D01*
X138301247Y-80785713D02*
X138158390Y-80785713D01*
X138158390Y-80785713D02*
X137967914Y-80738094D01*
X137967914Y-80738094D02*
X137872676Y-80690475D01*
X137872676Y-80690475D02*
X137777438Y-80595237D01*
X137777438Y-80595237D02*
X137729819Y-80452380D01*
X137729819Y-80452380D02*
X137729819Y-80357142D01*
X137729819Y-80357142D02*
X137777438Y-80214285D01*
X137777438Y-80214285D02*
X137825057Y-80166666D01*
X137729819Y-79261904D02*
X137729819Y-79738094D01*
X137729819Y-79738094D02*
X138206009Y-79785713D01*
X138206009Y-79785713D02*
X138158390Y-79738094D01*
X138158390Y-79738094D02*
X138110771Y-79642856D01*
X138110771Y-79642856D02*
X138110771Y-79404761D01*
X138110771Y-79404761D02*
X138158390Y-79309523D01*
X138158390Y-79309523D02*
X138206009Y-79261904D01*
X138206009Y-79261904D02*
X138301247Y-79214285D01*
X138301247Y-79214285D02*
X138539342Y-79214285D01*
X138539342Y-79214285D02*
X138634580Y-79261904D01*
X138634580Y-79261904D02*
X138682200Y-79309523D01*
X138682200Y-79309523D02*
X138729819Y-79404761D01*
X138729819Y-79404761D02*
X138729819Y-79642856D01*
X138729819Y-79642856D02*
X138682200Y-79738094D01*
X138682200Y-79738094D02*
X138634580Y-79785713D01*
X160583333Y-86859580D02*
X160535714Y-86907200D01*
X160535714Y-86907200D02*
X160392857Y-86954819D01*
X160392857Y-86954819D02*
X160297619Y-86954819D01*
X160297619Y-86954819D02*
X160154762Y-86907200D01*
X160154762Y-86907200D02*
X160059524Y-86811961D01*
X160059524Y-86811961D02*
X160011905Y-86716723D01*
X160011905Y-86716723D02*
X159964286Y-86526247D01*
X159964286Y-86526247D02*
X159964286Y-86383390D01*
X159964286Y-86383390D02*
X160011905Y-86192914D01*
X160011905Y-86192914D02*
X160059524Y-86097676D01*
X160059524Y-86097676D02*
X160154762Y-86002438D01*
X160154762Y-86002438D02*
X160297619Y-85954819D01*
X160297619Y-85954819D02*
X160392857Y-85954819D01*
X160392857Y-85954819D02*
X160535714Y-86002438D01*
X160535714Y-86002438D02*
X160583333Y-86050057D01*
X161154762Y-86383390D02*
X161059524Y-86335771D01*
X161059524Y-86335771D02*
X161011905Y-86288152D01*
X161011905Y-86288152D02*
X160964286Y-86192914D01*
X160964286Y-86192914D02*
X160964286Y-86145295D01*
X160964286Y-86145295D02*
X161011905Y-86050057D01*
X161011905Y-86050057D02*
X161059524Y-86002438D01*
X161059524Y-86002438D02*
X161154762Y-85954819D01*
X161154762Y-85954819D02*
X161345238Y-85954819D01*
X161345238Y-85954819D02*
X161440476Y-86002438D01*
X161440476Y-86002438D02*
X161488095Y-86050057D01*
X161488095Y-86050057D02*
X161535714Y-86145295D01*
X161535714Y-86145295D02*
X161535714Y-86192914D01*
X161535714Y-86192914D02*
X161488095Y-86288152D01*
X161488095Y-86288152D02*
X161440476Y-86335771D01*
X161440476Y-86335771D02*
X161345238Y-86383390D01*
X161345238Y-86383390D02*
X161154762Y-86383390D01*
X161154762Y-86383390D02*
X161059524Y-86431009D01*
X161059524Y-86431009D02*
X161011905Y-86478628D01*
X161011905Y-86478628D02*
X160964286Y-86573866D01*
X160964286Y-86573866D02*
X160964286Y-86764342D01*
X160964286Y-86764342D02*
X161011905Y-86859580D01*
X161011905Y-86859580D02*
X161059524Y-86907200D01*
X161059524Y-86907200D02*
X161154762Y-86954819D01*
X161154762Y-86954819D02*
X161345238Y-86954819D01*
X161345238Y-86954819D02*
X161440476Y-86907200D01*
X161440476Y-86907200D02*
X161488095Y-86859580D01*
X161488095Y-86859580D02*
X161535714Y-86764342D01*
X161535714Y-86764342D02*
X161535714Y-86573866D01*
X161535714Y-86573866D02*
X161488095Y-86478628D01*
X161488095Y-86478628D02*
X161440476Y-86431009D01*
X161440476Y-86431009D02*
X161345238Y-86383390D01*
X137958095Y-72059819D02*
X137958095Y-72869342D01*
X137958095Y-72869342D02*
X138005714Y-72964580D01*
X138005714Y-72964580D02*
X138053333Y-73012200D01*
X138053333Y-73012200D02*
X138148571Y-73059819D01*
X138148571Y-73059819D02*
X138339047Y-73059819D01*
X138339047Y-73059819D02*
X138434285Y-73012200D01*
X138434285Y-73012200D02*
X138481904Y-72964580D01*
X138481904Y-72964580D02*
X138529523Y-72869342D01*
X138529523Y-72869342D02*
X138529523Y-72059819D01*
X139529523Y-73059819D02*
X138958095Y-73059819D01*
X139243809Y-73059819D02*
X139243809Y-72059819D01*
X139243809Y-72059819D02*
X139148571Y-72202676D01*
X139148571Y-72202676D02*
X139053333Y-72297914D01*
X139053333Y-72297914D02*
X138958095Y-72345533D01*
X141353333Y-73064580D02*
X141305714Y-73112200D01*
X141305714Y-73112200D02*
X141162857Y-73159819D01*
X141162857Y-73159819D02*
X141067619Y-73159819D01*
X141067619Y-73159819D02*
X140924762Y-73112200D01*
X140924762Y-73112200D02*
X140829524Y-73016961D01*
X140829524Y-73016961D02*
X140781905Y-72921723D01*
X140781905Y-72921723D02*
X140734286Y-72731247D01*
X140734286Y-72731247D02*
X140734286Y-72588390D01*
X140734286Y-72588390D02*
X140781905Y-72397914D01*
X140781905Y-72397914D02*
X140829524Y-72302676D01*
X140829524Y-72302676D02*
X140924762Y-72207438D01*
X140924762Y-72207438D02*
X141067619Y-72159819D01*
X141067619Y-72159819D02*
X141162857Y-72159819D01*
X141162857Y-72159819D02*
X141305714Y-72207438D01*
X141305714Y-72207438D02*
X141353333Y-72255057D01*
X141686667Y-72159819D02*
X142305714Y-72159819D01*
X142305714Y-72159819D02*
X141972381Y-72540771D01*
X141972381Y-72540771D02*
X142115238Y-72540771D01*
X142115238Y-72540771D02*
X142210476Y-72588390D01*
X142210476Y-72588390D02*
X142258095Y-72636009D01*
X142258095Y-72636009D02*
X142305714Y-72731247D01*
X142305714Y-72731247D02*
X142305714Y-72969342D01*
X142305714Y-72969342D02*
X142258095Y-73064580D01*
X142258095Y-73064580D02*
X142210476Y-73112200D01*
X142210476Y-73112200D02*
X142115238Y-73159819D01*
X142115238Y-73159819D02*
X141829524Y-73159819D01*
X141829524Y-73159819D02*
X141734286Y-73112200D01*
X141734286Y-73112200D02*
X141686667Y-73064580D01*
X151133333Y-74854819D02*
X150800000Y-74378628D01*
X150561905Y-74854819D02*
X150561905Y-73854819D01*
X150561905Y-73854819D02*
X150942857Y-73854819D01*
X150942857Y-73854819D02*
X151038095Y-73902438D01*
X151038095Y-73902438D02*
X151085714Y-73950057D01*
X151085714Y-73950057D02*
X151133333Y-74045295D01*
X151133333Y-74045295D02*
X151133333Y-74188152D01*
X151133333Y-74188152D02*
X151085714Y-74283390D01*
X151085714Y-74283390D02*
X151038095Y-74331009D01*
X151038095Y-74331009D02*
X150942857Y-74378628D01*
X150942857Y-74378628D02*
X150561905Y-74378628D01*
X151990476Y-73854819D02*
X151800000Y-73854819D01*
X151800000Y-73854819D02*
X151704762Y-73902438D01*
X151704762Y-73902438D02*
X151657143Y-73950057D01*
X151657143Y-73950057D02*
X151561905Y-74092914D01*
X151561905Y-74092914D02*
X151514286Y-74283390D01*
X151514286Y-74283390D02*
X151514286Y-74664342D01*
X151514286Y-74664342D02*
X151561905Y-74759580D01*
X151561905Y-74759580D02*
X151609524Y-74807200D01*
X151609524Y-74807200D02*
X151704762Y-74854819D01*
X151704762Y-74854819D02*
X151895238Y-74854819D01*
X151895238Y-74854819D02*
X151990476Y-74807200D01*
X151990476Y-74807200D02*
X152038095Y-74759580D01*
X152038095Y-74759580D02*
X152085714Y-74664342D01*
X152085714Y-74664342D02*
X152085714Y-74426247D01*
X152085714Y-74426247D02*
X152038095Y-74331009D01*
X152038095Y-74331009D02*
X151990476Y-74283390D01*
X151990476Y-74283390D02*
X151895238Y-74235771D01*
X151895238Y-74235771D02*
X151704762Y-74235771D01*
X151704762Y-74235771D02*
X151609524Y-74283390D01*
X151609524Y-74283390D02*
X151561905Y-74331009D01*
X151561905Y-74331009D02*
X151514286Y-74426247D01*
X156933333Y-85754819D02*
X156600000Y-85278628D01*
X156361905Y-85754819D02*
X156361905Y-84754819D01*
X156361905Y-84754819D02*
X156742857Y-84754819D01*
X156742857Y-84754819D02*
X156838095Y-84802438D01*
X156838095Y-84802438D02*
X156885714Y-84850057D01*
X156885714Y-84850057D02*
X156933333Y-84945295D01*
X156933333Y-84945295D02*
X156933333Y-85088152D01*
X156933333Y-85088152D02*
X156885714Y-85183390D01*
X156885714Y-85183390D02*
X156838095Y-85231009D01*
X156838095Y-85231009D02*
X156742857Y-85278628D01*
X156742857Y-85278628D02*
X156361905Y-85278628D01*
X157266667Y-84754819D02*
X157885714Y-84754819D01*
X157885714Y-84754819D02*
X157552381Y-85135771D01*
X157552381Y-85135771D02*
X157695238Y-85135771D01*
X157695238Y-85135771D02*
X157790476Y-85183390D01*
X157790476Y-85183390D02*
X157838095Y-85231009D01*
X157838095Y-85231009D02*
X157885714Y-85326247D01*
X157885714Y-85326247D02*
X157885714Y-85564342D01*
X157885714Y-85564342D02*
X157838095Y-85659580D01*
X157838095Y-85659580D02*
X157790476Y-85707200D01*
X157790476Y-85707200D02*
X157695238Y-85754819D01*
X157695238Y-85754819D02*
X157409524Y-85754819D01*
X157409524Y-85754819D02*
X157314286Y-85707200D01*
X157314286Y-85707200D02*
X157266667Y-85659580D01*
X154933333Y-85754819D02*
X154600000Y-85278628D01*
X154361905Y-85754819D02*
X154361905Y-84754819D01*
X154361905Y-84754819D02*
X154742857Y-84754819D01*
X154742857Y-84754819D02*
X154838095Y-84802438D01*
X154838095Y-84802438D02*
X154885714Y-84850057D01*
X154885714Y-84850057D02*
X154933333Y-84945295D01*
X154933333Y-84945295D02*
X154933333Y-85088152D01*
X154933333Y-85088152D02*
X154885714Y-85183390D01*
X154885714Y-85183390D02*
X154838095Y-85231009D01*
X154838095Y-85231009D02*
X154742857Y-85278628D01*
X154742857Y-85278628D02*
X154361905Y-85278628D01*
X155314286Y-84850057D02*
X155361905Y-84802438D01*
X155361905Y-84802438D02*
X155457143Y-84754819D01*
X155457143Y-84754819D02*
X155695238Y-84754819D01*
X155695238Y-84754819D02*
X155790476Y-84802438D01*
X155790476Y-84802438D02*
X155838095Y-84850057D01*
X155838095Y-84850057D02*
X155885714Y-84945295D01*
X155885714Y-84945295D02*
X155885714Y-85040533D01*
X155885714Y-85040533D02*
X155838095Y-85183390D01*
X155838095Y-85183390D02*
X155266667Y-85754819D01*
X155266667Y-85754819D02*
X155885714Y-85754819D01*
X159866666Y-69854819D02*
X159866666Y-70569104D01*
X159866666Y-70569104D02*
X159819047Y-70711961D01*
X159819047Y-70711961D02*
X159723809Y-70807200D01*
X159723809Y-70807200D02*
X159580952Y-70854819D01*
X159580952Y-70854819D02*
X159485714Y-70854819D01*
X160247619Y-69854819D02*
X160866666Y-69854819D01*
X160866666Y-69854819D02*
X160533333Y-70235771D01*
X160533333Y-70235771D02*
X160676190Y-70235771D01*
X160676190Y-70235771D02*
X160771428Y-70283390D01*
X160771428Y-70283390D02*
X160819047Y-70331009D01*
X160819047Y-70331009D02*
X160866666Y-70426247D01*
X160866666Y-70426247D02*
X160866666Y-70664342D01*
X160866666Y-70664342D02*
X160819047Y-70759580D01*
X160819047Y-70759580D02*
X160771428Y-70807200D01*
X160771428Y-70807200D02*
X160676190Y-70854819D01*
X160676190Y-70854819D02*
X160390476Y-70854819D01*
X160390476Y-70854819D02*
X160295238Y-70807200D01*
X160295238Y-70807200D02*
X160247619Y-70759580D01*
X159626666Y-93879819D02*
X159626666Y-94594104D01*
X159626666Y-94594104D02*
X159579047Y-94736961D01*
X159579047Y-94736961D02*
X159483809Y-94832200D01*
X159483809Y-94832200D02*
X159340952Y-94879819D01*
X159340952Y-94879819D02*
X159245714Y-94879819D01*
X160531428Y-94213152D02*
X160531428Y-94879819D01*
X160293333Y-93832200D02*
X160055238Y-94546485D01*
X160055238Y-94546485D02*
X160674285Y-94546485D01*
X135533333Y-90909580D02*
X135485714Y-90957200D01*
X135485714Y-90957200D02*
X135342857Y-91004819D01*
X135342857Y-91004819D02*
X135247619Y-91004819D01*
X135247619Y-91004819D02*
X135104762Y-90957200D01*
X135104762Y-90957200D02*
X135009524Y-90861961D01*
X135009524Y-90861961D02*
X134961905Y-90766723D01*
X134961905Y-90766723D02*
X134914286Y-90576247D01*
X134914286Y-90576247D02*
X134914286Y-90433390D01*
X134914286Y-90433390D02*
X134961905Y-90242914D01*
X134961905Y-90242914D02*
X135009524Y-90147676D01*
X135009524Y-90147676D02*
X135104762Y-90052438D01*
X135104762Y-90052438D02*
X135247619Y-90004819D01*
X135247619Y-90004819D02*
X135342857Y-90004819D01*
X135342857Y-90004819D02*
X135485714Y-90052438D01*
X135485714Y-90052438D02*
X135533333Y-90100057D01*
X135914286Y-90100057D02*
X135961905Y-90052438D01*
X135961905Y-90052438D02*
X136057143Y-90004819D01*
X136057143Y-90004819D02*
X136295238Y-90004819D01*
X136295238Y-90004819D02*
X136390476Y-90052438D01*
X136390476Y-90052438D02*
X136438095Y-90100057D01*
X136438095Y-90100057D02*
X136485714Y-90195295D01*
X136485714Y-90195295D02*
X136485714Y-90290533D01*
X136485714Y-90290533D02*
X136438095Y-90433390D01*
X136438095Y-90433390D02*
X135866667Y-91004819D01*
X135866667Y-91004819D02*
X136485714Y-91004819D01*
X135583333Y-72959580D02*
X135535714Y-73007200D01*
X135535714Y-73007200D02*
X135392857Y-73054819D01*
X135392857Y-73054819D02*
X135297619Y-73054819D01*
X135297619Y-73054819D02*
X135154762Y-73007200D01*
X135154762Y-73007200D02*
X135059524Y-72911961D01*
X135059524Y-72911961D02*
X135011905Y-72816723D01*
X135011905Y-72816723D02*
X134964286Y-72626247D01*
X134964286Y-72626247D02*
X134964286Y-72483390D01*
X134964286Y-72483390D02*
X135011905Y-72292914D01*
X135011905Y-72292914D02*
X135059524Y-72197676D01*
X135059524Y-72197676D02*
X135154762Y-72102438D01*
X135154762Y-72102438D02*
X135297619Y-72054819D01*
X135297619Y-72054819D02*
X135392857Y-72054819D01*
X135392857Y-72054819D02*
X135535714Y-72102438D01*
X135535714Y-72102438D02*
X135583333Y-72150057D01*
X136535714Y-73054819D02*
X135964286Y-73054819D01*
X136250000Y-73054819D02*
X136250000Y-72054819D01*
X136250000Y-72054819D02*
X136154762Y-72197676D01*
X136154762Y-72197676D02*
X136059524Y-72292914D01*
X136059524Y-72292914D02*
X135964286Y-72340533D01*
X149970833Y-88154819D02*
X149637500Y-87678628D01*
X149399405Y-88154819D02*
X149399405Y-87154819D01*
X149399405Y-87154819D02*
X149780357Y-87154819D01*
X149780357Y-87154819D02*
X149875595Y-87202438D01*
X149875595Y-87202438D02*
X149923214Y-87250057D01*
X149923214Y-87250057D02*
X149970833Y-87345295D01*
X149970833Y-87345295D02*
X149970833Y-87488152D01*
X149970833Y-87488152D02*
X149923214Y-87583390D01*
X149923214Y-87583390D02*
X149875595Y-87631009D01*
X149875595Y-87631009D02*
X149780357Y-87678628D01*
X149780357Y-87678628D02*
X149399405Y-87678628D01*
X150304167Y-87154819D02*
X150970833Y-87154819D01*
X150970833Y-87154819D02*
X150542262Y-88154819D01*
X157704761Y-71150057D02*
X157609523Y-71102438D01*
X157609523Y-71102438D02*
X157514285Y-71007200D01*
X157514285Y-71007200D02*
X157371428Y-70864342D01*
X157371428Y-70864342D02*
X157276190Y-70816723D01*
X157276190Y-70816723D02*
X157180952Y-70816723D01*
X157228571Y-71054819D02*
X157133333Y-71007200D01*
X157133333Y-71007200D02*
X157038095Y-70911961D01*
X157038095Y-70911961D02*
X156990476Y-70721485D01*
X156990476Y-70721485D02*
X156990476Y-70388152D01*
X156990476Y-70388152D02*
X157038095Y-70197676D01*
X157038095Y-70197676D02*
X157133333Y-70102438D01*
X157133333Y-70102438D02*
X157228571Y-70054819D01*
X157228571Y-70054819D02*
X157419047Y-70054819D01*
X157419047Y-70054819D02*
X157514285Y-70102438D01*
X157514285Y-70102438D02*
X157609523Y-70197676D01*
X157609523Y-70197676D02*
X157657142Y-70388152D01*
X157657142Y-70388152D02*
X157657142Y-70721485D01*
X157657142Y-70721485D02*
X157609523Y-70911961D01*
X157609523Y-70911961D02*
X157514285Y-71007200D01*
X157514285Y-71007200D02*
X157419047Y-71054819D01*
X157419047Y-71054819D02*
X157228571Y-71054819D01*
X158038095Y-70150057D02*
X158085714Y-70102438D01*
X158085714Y-70102438D02*
X158180952Y-70054819D01*
X158180952Y-70054819D02*
X158419047Y-70054819D01*
X158419047Y-70054819D02*
X158514285Y-70102438D01*
X158514285Y-70102438D02*
X158561904Y-70150057D01*
X158561904Y-70150057D02*
X158609523Y-70245295D01*
X158609523Y-70245295D02*
X158609523Y-70340533D01*
X158609523Y-70340533D02*
X158561904Y-70483390D01*
X158561904Y-70483390D02*
X157990476Y-71054819D01*
X157990476Y-71054819D02*
X158609523Y-71054819D01*
D11*
%TO.C,J5*%
X141900000Y-95495000D02*
X141215000Y-95495000D01*
X142585000Y-95495000D02*
X144460000Y-95495000D01*
X144460000Y-94405507D02*
X144460000Y-94105000D01*
X144460000Y-95495000D02*
X144460000Y-95194493D01*
X141215000Y-95495000D02*
X141215000Y-94800000D01*
X142585000Y-94191724D02*
X142585000Y-94105000D01*
X142585000Y-95495000D02*
X142585000Y-95408276D01*
X142585000Y-94105000D02*
X144460000Y-94105000D01*
%TO.C,SW2*%
X144450971Y-86560000D02*
X144997500Y-86560000D01*
X142777500Y-86560000D02*
X143324029Y-86560000D01*
X142777500Y-85040000D02*
X143887500Y-85040000D01*
X142777500Y-86560000D02*
X142777500Y-87765000D01*
X142777500Y-87765000D02*
X143579970Y-87765000D01*
X142777500Y-85800000D02*
X142777500Y-85040000D01*
X144997500Y-86560000D02*
X144997500Y-87765000D01*
X144195030Y-87765000D02*
X144997500Y-87765000D01*
%TO.C,RV3*%
X156490000Y-94335000D02*
X157292470Y-94335000D01*
X158163471Y-91860000D02*
X158710000Y-91860000D01*
X158710000Y-91860000D02*
X158710000Y-94335000D01*
X156490000Y-91860000D02*
X157036529Y-91860000D01*
X156490000Y-91100000D02*
X156490000Y-90340000D01*
X156490000Y-90340000D02*
X157600000Y-90340000D01*
X156490000Y-91860000D02*
X156490000Y-94335000D01*
X157907530Y-94335000D02*
X158710000Y-94335000D01*
%TO.C,RV2*%
X154807530Y-94335000D02*
X155610000Y-94335000D01*
X153390000Y-91860000D02*
X153390000Y-94335000D01*
X153390000Y-90340000D02*
X154500000Y-90340000D01*
X153390000Y-91100000D02*
X153390000Y-90340000D01*
X153390000Y-91860000D02*
X153936529Y-91860000D01*
X155610000Y-91860000D02*
X155610000Y-94335000D01*
X155063471Y-91860000D02*
X155610000Y-91860000D01*
X153390000Y-94335000D02*
X154192470Y-94335000D01*
%TO.C,RV1*%
X151707530Y-94335000D02*
X152510000Y-94335000D01*
X150290000Y-91860000D02*
X150290000Y-94335000D01*
X150290000Y-90340000D02*
X151400000Y-90340000D01*
X150290000Y-91100000D02*
X150290000Y-90340000D01*
X150290000Y-91860000D02*
X150836529Y-91860000D01*
X152510000Y-91860000D02*
X152510000Y-94335000D01*
X151963471Y-91860000D02*
X152510000Y-91860000D01*
X150290000Y-94335000D02*
X151092470Y-94335000D01*
%TO.C,Q1*%
X157737500Y-77490000D02*
X158537500Y-77490000D01*
X157737500Y-80610000D02*
X158537500Y-80610000D01*
X157737500Y-80610000D02*
X156937500Y-80610000D01*
X157737500Y-77490000D02*
X155937500Y-77490000D01*
%TO.C,C7*%
X147748752Y-85165000D02*
X147226248Y-85165000D01*
X147748752Y-86635000D02*
X147226248Y-86635000D01*
%TO.C,U2*%
X146737500Y-84290000D02*
X148937500Y-84290000D01*
X146737500Y-84290000D02*
X144537500Y-84290000D01*
X146737500Y-77520000D02*
X148937500Y-77520000D01*
X146737500Y-77520000D02*
X143137500Y-77520000D01*
%TO.C,J1*%
X130170000Y-79170000D02*
X131500000Y-79170000D01*
X130170000Y-80500000D02*
X130170000Y-79170000D01*
X130170000Y-81770000D02*
X130170000Y-84370000D01*
X130170000Y-81770000D02*
X132830000Y-81770000D01*
X130170000Y-84370000D02*
X132830000Y-84370000D01*
X132830000Y-81770000D02*
X132830000Y-84370000D01*
%TO.C,J2*%
X150030000Y-73400000D02*
X150030000Y-74530000D01*
X149270000Y-73400000D02*
X150030000Y-73400000D01*
X148510000Y-73400000D02*
X143495000Y-73400000D01*
X148510000Y-73400000D02*
X148510000Y-73966529D01*
X143495000Y-73400000D02*
X143495000Y-74222470D01*
X143495000Y-74837530D02*
X143495000Y-75492470D01*
X148510000Y-75093471D02*
X148510000Y-75236529D01*
X149965000Y-75290000D02*
X149965000Y-75492470D01*
X149833471Y-75290000D02*
X149965000Y-75290000D01*
X148563471Y-75290000D02*
X148706529Y-75290000D01*
X149965000Y-76107530D02*
X149965000Y-76930000D01*
X143495000Y-76107530D02*
X143495000Y-76930000D01*
X149965000Y-76930000D02*
X143495000Y-76930000D01*
%TO.C,R5*%
X147742224Y-89722500D02*
X147232776Y-89722500D01*
X147742224Y-88677500D02*
X147232776Y-88677500D01*
%TO.C,C4*%
X140935000Y-87251248D02*
X140935000Y-87773752D01*
X139465000Y-87251248D02*
X139465000Y-87773752D01*
%TO.C,R8*%
X154129724Y-77577500D02*
X153620276Y-77577500D01*
X154129724Y-78622500D02*
X153620276Y-78622500D01*
%TO.C,R4*%
X154142224Y-72622500D02*
X153632776Y-72622500D01*
X154142224Y-71577500D02*
X153632776Y-71577500D01*
%TO.C,C6*%
X140898752Y-81265000D02*
X140376248Y-81265000D01*
X140898752Y-82735000D02*
X140376248Y-82735000D01*
%TO.C,R1*%
X141062224Y-77582500D02*
X140552776Y-77582500D01*
X141062224Y-78627500D02*
X140552776Y-78627500D01*
%TO.C,C5*%
X140898752Y-80735000D02*
X140376248Y-80735000D01*
X140898752Y-79265000D02*
X140376248Y-79265000D01*
%TO.C,C8*%
X163120000Y-83500000D02*
G75*
G02*
X163120000Y-83500000I-2120000J0D01*
G01*
X160630000Y-81419000D02*
X161370000Y-81419000D01*
X160463000Y-81459000D02*
X161537000Y-81459000D01*
X160336000Y-81499000D02*
X161664000Y-81499000D01*
X160232000Y-81539000D02*
X161768000Y-81539000D01*
X160141000Y-81579000D02*
X161859000Y-81579000D01*
X160060000Y-81619000D02*
X161940000Y-81619000D01*
X159987000Y-81659000D02*
X162013000Y-81659000D01*
X161840000Y-81699000D02*
X162080000Y-81699000D01*
X159920000Y-81699000D02*
X160160000Y-81699000D01*
X161840000Y-81739000D02*
X162142000Y-81739000D01*
X159858000Y-81739000D02*
X160160000Y-81739000D01*
X161840000Y-81779000D02*
X162200000Y-81779000D01*
X159800000Y-81779000D02*
X160160000Y-81779000D01*
X161840000Y-81819000D02*
X162254000Y-81819000D01*
X159746000Y-81819000D02*
X160160000Y-81819000D01*
X161840000Y-81859000D02*
X162304000Y-81859000D01*
X159696000Y-81859000D02*
X160160000Y-81859000D01*
X161840000Y-81899000D02*
X162351000Y-81899000D01*
X159649000Y-81899000D02*
X160160000Y-81899000D01*
X161840000Y-81939000D02*
X162396000Y-81939000D01*
X159604000Y-81939000D02*
X160160000Y-81939000D01*
X161840000Y-81979000D02*
X162438000Y-81979000D01*
X159562000Y-81979000D02*
X160160000Y-81979000D01*
X161840000Y-82019000D02*
X162478000Y-82019000D01*
X159522000Y-82019000D02*
X160160000Y-82019000D01*
X161840000Y-82059000D02*
X162516000Y-82059000D01*
X159484000Y-82059000D02*
X160160000Y-82059000D01*
X161840000Y-82099000D02*
X162552000Y-82099000D01*
X159448000Y-82099000D02*
X160160000Y-82099000D01*
X161840000Y-82139000D02*
X162587000Y-82139000D01*
X159413000Y-82139000D02*
X160160000Y-82139000D01*
X161840000Y-82179000D02*
X162619000Y-82179000D01*
X159381000Y-82179000D02*
X160160000Y-82179000D01*
X161840000Y-82219000D02*
X162650000Y-82219000D01*
X159350000Y-82219000D02*
X160160000Y-82219000D01*
X161840000Y-82259000D02*
X162680000Y-82259000D01*
X159320000Y-82259000D02*
X160160000Y-82259000D01*
X161840000Y-82299000D02*
X162708000Y-82299000D01*
X159292000Y-82299000D02*
X160160000Y-82299000D01*
X161840000Y-82339000D02*
X162735000Y-82339000D01*
X159265000Y-82339000D02*
X160160000Y-82339000D01*
X161840000Y-82379000D02*
X162760000Y-82379000D01*
X159240000Y-82379000D02*
X160160000Y-82379000D01*
X161840000Y-82419000D02*
X162785000Y-82419000D01*
X159215000Y-82419000D02*
X160160000Y-82419000D01*
X161840000Y-82459000D02*
X162808000Y-82459000D01*
X159192000Y-82459000D02*
X160160000Y-82459000D01*
X161840000Y-82499000D02*
X162830000Y-82499000D01*
X159170000Y-82499000D02*
X160160000Y-82499000D01*
X161840000Y-82539000D02*
X162851000Y-82539000D01*
X159149000Y-82539000D02*
X160160000Y-82539000D01*
X161840000Y-82579000D02*
X162870000Y-82579000D01*
X159130000Y-82579000D02*
X160160000Y-82579000D01*
X161840000Y-82619000D02*
X162889000Y-82619000D01*
X159111000Y-82619000D02*
X160160000Y-82619000D01*
X161840000Y-82659000D02*
X162907000Y-82659000D01*
X159093000Y-82659000D02*
X160160000Y-82659000D01*
X161840000Y-82699000D02*
X162924000Y-82699000D01*
X159076000Y-82699000D02*
X160160000Y-82699000D01*
X161840000Y-82739000D02*
X162940000Y-82739000D01*
X159060000Y-82739000D02*
X160160000Y-82739000D01*
X161840000Y-82779000D02*
X162954000Y-82779000D01*
X159046000Y-82779000D02*
X160160000Y-82779000D01*
X161840000Y-82820000D02*
X162968000Y-82820000D01*
X159032000Y-82820000D02*
X160160000Y-82820000D01*
X161840000Y-82860000D02*
X162982000Y-82860000D01*
X159018000Y-82860000D02*
X160160000Y-82860000D01*
X161840000Y-82900000D02*
X162994000Y-82900000D01*
X159006000Y-82900000D02*
X160160000Y-82900000D01*
X161840000Y-82940000D02*
X163005000Y-82940000D01*
X158995000Y-82940000D02*
X160160000Y-82940000D01*
X161840000Y-82980000D02*
X163016000Y-82980000D01*
X158984000Y-82980000D02*
X160160000Y-82980000D01*
X161840000Y-83020000D02*
X163025000Y-83020000D01*
X158975000Y-83020000D02*
X160160000Y-83020000D01*
X161840000Y-83060000D02*
X163034000Y-83060000D01*
X158966000Y-83060000D02*
X160160000Y-83060000D01*
X161840000Y-83100000D02*
X163042000Y-83100000D01*
X158958000Y-83100000D02*
X160160000Y-83100000D01*
X161840000Y-83140000D02*
X163050000Y-83140000D01*
X158950000Y-83140000D02*
X160160000Y-83140000D01*
X161840000Y-83180000D02*
X163056000Y-83180000D01*
X158944000Y-83180000D02*
X160160000Y-83180000D01*
X161840000Y-83220000D02*
X163062000Y-83220000D01*
X158938000Y-83220000D02*
X160160000Y-83220000D01*
X161840000Y-83260000D02*
X163067000Y-83260000D01*
X158933000Y-83260000D02*
X160160000Y-83260000D01*
X161840000Y-83300000D02*
X163071000Y-83300000D01*
X158929000Y-83300000D02*
X160160000Y-83300000D01*
X158926000Y-83340000D02*
X163074000Y-83340000D01*
X158923000Y-83380000D02*
X163077000Y-83380000D01*
X158921000Y-83420000D02*
X163079000Y-83420000D01*
X158920000Y-83460000D02*
X163080000Y-83460000D01*
X158920000Y-83500000D02*
X163080000Y-83500000D01*
X159605000Y-85569801D02*
X160005000Y-85569801D01*
X159805000Y-85769801D02*
X159805000Y-85369801D01*
%TO.C,U1*%
X139420000Y-73445000D02*
X137520000Y-73445000D01*
X138020000Y-75765000D02*
X139420000Y-75765000D01*
%TO.C,SW1*%
X134420000Y-79145000D02*
X135750000Y-79145000D01*
X134420000Y-80475000D02*
X134420000Y-79145000D01*
X134420000Y-81745000D02*
X134420000Y-84345000D01*
X134420000Y-81745000D02*
X137080000Y-81745000D01*
X134420000Y-84345000D02*
X137080000Y-84345000D01*
X137080000Y-81745000D02*
X137080000Y-84345000D01*
%TO.C,C3*%
X140785000Y-74881248D02*
X140785000Y-75403752D01*
X142255000Y-74881248D02*
X142255000Y-75403752D01*
%TO.C,R6*%
X154129724Y-74922500D02*
X153620276Y-74922500D01*
X154129724Y-73877500D02*
X153620276Y-73877500D01*
%TO.C,R3*%
X156477500Y-83142224D02*
X156477500Y-82632776D01*
X157522500Y-83142224D02*
X157522500Y-82632776D01*
%TO.C,R2*%
X154677500Y-83142224D02*
X154677500Y-82632776D01*
X155722500Y-83142224D02*
X155722500Y-82632776D01*
%TO.C,J3*%
X163930000Y-72390000D02*
X163930000Y-80070000D01*
X161270000Y-80070000D02*
X163930000Y-80070000D01*
X161270000Y-72390000D02*
X163930000Y-72390000D01*
X161270000Y-72390000D02*
X161270000Y-80070000D01*
X161270000Y-71120000D02*
X161270000Y-69790000D01*
X161270000Y-69790000D02*
X162600000Y-69790000D01*
%TO.C,J4*%
X163890000Y-90170000D02*
X163890000Y-95310000D01*
X161230000Y-95310000D02*
X163890000Y-95310000D01*
X161230000Y-90170000D02*
X163890000Y-90170000D01*
X161230000Y-90170000D02*
X161230000Y-95310000D01*
X161230000Y-88900000D02*
X161230000Y-87570000D01*
X161230000Y-87570000D02*
X162560000Y-87570000D01*
%TO.C,C2*%
X136895000Y-85030199D02*
X136895000Y-85430199D01*
X137095000Y-85230199D02*
X136695000Y-85230199D01*
X137780000Y-87300000D02*
X133620000Y-87300000D01*
X137780000Y-87340000D02*
X133620000Y-87340000D01*
X137779000Y-87380000D02*
X133621000Y-87380000D01*
X137777000Y-87420000D02*
X133623000Y-87420000D01*
X137774000Y-87460000D02*
X133626000Y-87460000D01*
X137771000Y-87500000D02*
X136540000Y-87500000D01*
X134860000Y-87500000D02*
X133629000Y-87500000D01*
X137767000Y-87540000D02*
X136540000Y-87540000D01*
X134860000Y-87540000D02*
X133633000Y-87540000D01*
X137762000Y-87580000D02*
X136540000Y-87580000D01*
X134860000Y-87580000D02*
X133638000Y-87580000D01*
X137756000Y-87620000D02*
X136540000Y-87620000D01*
X134860000Y-87620000D02*
X133644000Y-87620000D01*
X137750000Y-87660000D02*
X136540000Y-87660000D01*
X134860000Y-87660000D02*
X133650000Y-87660000D01*
X137742000Y-87700000D02*
X136540000Y-87700000D01*
X134860000Y-87700000D02*
X133658000Y-87700000D01*
X137734000Y-87740000D02*
X136540000Y-87740000D01*
X134860000Y-87740000D02*
X133666000Y-87740000D01*
X137725000Y-87780000D02*
X136540000Y-87780000D01*
X134860000Y-87780000D02*
X133675000Y-87780000D01*
X137716000Y-87820000D02*
X136540000Y-87820000D01*
X134860000Y-87820000D02*
X133684000Y-87820000D01*
X137705000Y-87860000D02*
X136540000Y-87860000D01*
X134860000Y-87860000D02*
X133695000Y-87860000D01*
X137694000Y-87900000D02*
X136540000Y-87900000D01*
X134860000Y-87900000D02*
X133706000Y-87900000D01*
X137682000Y-87940000D02*
X136540000Y-87940000D01*
X134860000Y-87940000D02*
X133718000Y-87940000D01*
X137668000Y-87980000D02*
X136540000Y-87980000D01*
X134860000Y-87980000D02*
X133732000Y-87980000D01*
X137654000Y-88021000D02*
X136540000Y-88021000D01*
X134860000Y-88021000D02*
X133746000Y-88021000D01*
X137640000Y-88061000D02*
X136540000Y-88061000D01*
X134860000Y-88061000D02*
X133760000Y-88061000D01*
X137624000Y-88101000D02*
X136540000Y-88101000D01*
X134860000Y-88101000D02*
X133776000Y-88101000D01*
X137607000Y-88141000D02*
X136540000Y-88141000D01*
X134860000Y-88141000D02*
X133793000Y-88141000D01*
X137589000Y-88181000D02*
X136540000Y-88181000D01*
X134860000Y-88181000D02*
X133811000Y-88181000D01*
X137570000Y-88221000D02*
X136540000Y-88221000D01*
X134860000Y-88221000D02*
X133830000Y-88221000D01*
X137551000Y-88261000D02*
X136540000Y-88261000D01*
X134860000Y-88261000D02*
X133849000Y-88261000D01*
X137530000Y-88301000D02*
X136540000Y-88301000D01*
X134860000Y-88301000D02*
X133870000Y-88301000D01*
X137508000Y-88341000D02*
X136540000Y-88341000D01*
X134860000Y-88341000D02*
X133892000Y-88341000D01*
X137485000Y-88381000D02*
X136540000Y-88381000D01*
X134860000Y-88381000D02*
X133915000Y-88381000D01*
X137460000Y-88421000D02*
X136540000Y-88421000D01*
X134860000Y-88421000D02*
X133940000Y-88421000D01*
X137435000Y-88461000D02*
X136540000Y-88461000D01*
X134860000Y-88461000D02*
X133965000Y-88461000D01*
X137408000Y-88501000D02*
X136540000Y-88501000D01*
X134860000Y-88501000D02*
X133992000Y-88501000D01*
X137380000Y-88541000D02*
X136540000Y-88541000D01*
X134860000Y-88541000D02*
X134020000Y-88541000D01*
X137350000Y-88581000D02*
X136540000Y-88581000D01*
X134860000Y-88581000D02*
X134050000Y-88581000D01*
X137319000Y-88621000D02*
X136540000Y-88621000D01*
X134860000Y-88621000D02*
X134081000Y-88621000D01*
X137287000Y-88661000D02*
X136540000Y-88661000D01*
X134860000Y-88661000D02*
X134113000Y-88661000D01*
X137252000Y-88701000D02*
X136540000Y-88701000D01*
X134860000Y-88701000D02*
X134148000Y-88701000D01*
X137216000Y-88741000D02*
X136540000Y-88741000D01*
X134860000Y-88741000D02*
X134184000Y-88741000D01*
X137178000Y-88781000D02*
X136540000Y-88781000D01*
X134860000Y-88781000D02*
X134222000Y-88781000D01*
X137138000Y-88821000D02*
X136540000Y-88821000D01*
X134860000Y-88821000D02*
X134262000Y-88821000D01*
X137096000Y-88861000D02*
X136540000Y-88861000D01*
X134860000Y-88861000D02*
X134304000Y-88861000D01*
X137051000Y-88901000D02*
X136540000Y-88901000D01*
X134860000Y-88901000D02*
X134349000Y-88901000D01*
X137004000Y-88941000D02*
X136540000Y-88941000D01*
X134860000Y-88941000D02*
X134396000Y-88941000D01*
X136954000Y-88981000D02*
X136540000Y-88981000D01*
X134860000Y-88981000D02*
X134446000Y-88981000D01*
X136900000Y-89021000D02*
X136540000Y-89021000D01*
X134860000Y-89021000D02*
X134500000Y-89021000D01*
X136842000Y-89061000D02*
X136540000Y-89061000D01*
X134860000Y-89061000D02*
X134558000Y-89061000D01*
X136780000Y-89101000D02*
X136540000Y-89101000D01*
X134860000Y-89101000D02*
X134620000Y-89101000D01*
X136713000Y-89141000D02*
X134687000Y-89141000D01*
X136640000Y-89181000D02*
X134760000Y-89181000D01*
X136559000Y-89221000D02*
X134841000Y-89221000D01*
X136468000Y-89261000D02*
X134932000Y-89261000D01*
X136364000Y-89301000D02*
X135036000Y-89301000D01*
X136237000Y-89341000D02*
X135163000Y-89341000D01*
X136070000Y-89381000D02*
X135330000Y-89381000D01*
X137820000Y-87300000D02*
G75*
G02*
X137820000Y-87300000I-2120000J0D01*
G01*
%TO.C,C1*%
X135015000Y-74776248D02*
X135015000Y-75298752D01*
X136485000Y-74776248D02*
X136485000Y-75298752D01*
%TO.C,R7*%
X147232776Y-87177500D02*
X147742224Y-87177500D01*
X147232776Y-88222500D02*
X147742224Y-88222500D01*
%TO.C,Q2*%
X157800000Y-71440000D02*
X156000000Y-71440000D01*
X157800000Y-71440000D02*
X158600000Y-71440000D01*
X157800000Y-74560000D02*
X157000000Y-74560000D01*
X157800000Y-74560000D02*
X158600000Y-74560000D01*
%TD*%
M02*
