%TF.GenerationSoftware,KiCad,Pcbnew,7.99.0-3522-gc5520b3eef-dirty*%
%TF.CreationDate,2024-01-06T21:25:40+00:00*%
%TF.ProjectId,lamp-controller,6c616d70-2d63-46f6-9e74-726f6c6c6572,rev?*%
%TF.SameCoordinates,Original*%
%TF.FileFunction,Drillmap*%
%TF.FilePolarity,Positive*%
%FSLAX45Y45*%
G04 Gerber Fmt 4.5, Leading zero omitted, Abs format (unit mm)*
G04 Created by KiCad (PCBNEW 7.99.0-3522-gc5520b3eef-dirty) date 2024-01-06 21:25:40*
%MOMM*%
%LPD*%
G01*
G04 APERTURE LIST*
%ADD10C,0.100000*%
%ADD11C,0.200000*%
G04 APERTURE END LIST*
D10*
X10730000Y-5750000D02*
X17760000Y-5750000D01*
X17760000Y-9750000D01*
X10730000Y-9750000D01*
X10730000Y-5750000D01*
D11*
X10985777Y-10066484D02*
X10985777Y-9866484D01*
X10985777Y-9866484D02*
X11033396Y-9866484D01*
X11033396Y-9866484D02*
X11061967Y-9876008D01*
X11061967Y-9876008D02*
X11081015Y-9895055D01*
X11081015Y-9895055D02*
X11090539Y-9914103D01*
X11090539Y-9914103D02*
X11100063Y-9952198D01*
X11100063Y-9952198D02*
X11100063Y-9980770D01*
X11100063Y-9980770D02*
X11090539Y-10018865D01*
X11090539Y-10018865D02*
X11081015Y-10037912D01*
X11081015Y-10037912D02*
X11061967Y-10056960D01*
X11061967Y-10056960D02*
X11033396Y-10066484D01*
X11033396Y-10066484D02*
X10985777Y-10066484D01*
X11185777Y-10066484D02*
X11185777Y-9933150D01*
X11185777Y-9971246D02*
X11195301Y-9952198D01*
X11195301Y-9952198D02*
X11204824Y-9942674D01*
X11204824Y-9942674D02*
X11223872Y-9933150D01*
X11223872Y-9933150D02*
X11242920Y-9933150D01*
X11309586Y-10066484D02*
X11309586Y-9933150D01*
X11309586Y-9866484D02*
X11300062Y-9876008D01*
X11300062Y-9876008D02*
X11309586Y-9885531D01*
X11309586Y-9885531D02*
X11319110Y-9876008D01*
X11319110Y-9876008D02*
X11309586Y-9866484D01*
X11309586Y-9866484D02*
X11309586Y-9885531D01*
X11433396Y-10066484D02*
X11414348Y-10056960D01*
X11414348Y-10056960D02*
X11404824Y-10037912D01*
X11404824Y-10037912D02*
X11404824Y-9866484D01*
X11538158Y-10066484D02*
X11519110Y-10056960D01*
X11519110Y-10056960D02*
X11509586Y-10037912D01*
X11509586Y-10037912D02*
X11509586Y-9866484D01*
X11766729Y-10066484D02*
X11766729Y-9866484D01*
X11766729Y-9866484D02*
X11833396Y-10009341D01*
X11833396Y-10009341D02*
X11900062Y-9866484D01*
X11900062Y-9866484D02*
X11900062Y-10066484D01*
X12081015Y-10066484D02*
X12081015Y-9961722D01*
X12081015Y-9961722D02*
X12071491Y-9942674D01*
X12071491Y-9942674D02*
X12052443Y-9933150D01*
X12052443Y-9933150D02*
X12014348Y-9933150D01*
X12014348Y-9933150D02*
X11995301Y-9942674D01*
X12081015Y-10056960D02*
X12061967Y-10066484D01*
X12061967Y-10066484D02*
X12014348Y-10066484D01*
X12014348Y-10066484D02*
X11995301Y-10056960D01*
X11995301Y-10056960D02*
X11985777Y-10037912D01*
X11985777Y-10037912D02*
X11985777Y-10018865D01*
X11985777Y-10018865D02*
X11995301Y-9999817D01*
X11995301Y-9999817D02*
X12014348Y-9990293D01*
X12014348Y-9990293D02*
X12061967Y-9990293D01*
X12061967Y-9990293D02*
X12081015Y-9980770D01*
X12176253Y-9933150D02*
X12176253Y-10133150D01*
X12176253Y-9942674D02*
X12195301Y-9933150D01*
X12195301Y-9933150D02*
X12233396Y-9933150D01*
X12233396Y-9933150D02*
X12252443Y-9942674D01*
X12252443Y-9942674D02*
X12261967Y-9952198D01*
X12261967Y-9952198D02*
X12271491Y-9971246D01*
X12271491Y-9971246D02*
X12271491Y-10028389D01*
X12271491Y-10028389D02*
X12261967Y-10047436D01*
X12261967Y-10047436D02*
X12252443Y-10056960D01*
X12252443Y-10056960D02*
X12233396Y-10066484D01*
X12233396Y-10066484D02*
X12195301Y-10066484D01*
X12195301Y-10066484D02*
X12176253Y-10056960D01*
X12357205Y-10047436D02*
X12366729Y-10056960D01*
X12366729Y-10056960D02*
X12357205Y-10066484D01*
X12357205Y-10066484D02*
X12347682Y-10056960D01*
X12347682Y-10056960D02*
X12357205Y-10047436D01*
X12357205Y-10047436D02*
X12357205Y-10066484D01*
X12357205Y-9942674D02*
X12366729Y-9952198D01*
X12366729Y-9952198D02*
X12357205Y-9961722D01*
X12357205Y-9961722D02*
X12347682Y-9952198D01*
X12347682Y-9952198D02*
X12357205Y-9942674D01*
X12357205Y-9942674D02*
X12357205Y-9961722D01*
M02*
