%TF.GenerationSoftware,KiCad,Pcbnew,7.99.0-3522-gc5520b3eef-dirty*%
%TF.CreationDate,2024-01-06T21:25:36+00:00*%
%TF.ProjectId,lamp-controller,6c616d70-2d63-46f6-9e74-726f6c6c6572,rev?*%
%TF.SameCoordinates,Original*%
%TF.FileFunction,Legend,Bot*%
%TF.FilePolarity,Positive*%
%FSLAX46Y46*%
G04 Gerber Fmt 4.6, Leading zero omitted, Abs format (unit mm)*
G04 Created by KiCad (PCBNEW 7.99.0-3522-gc5520b3eef-dirty) date 2024-01-06 21:25:36*
%MOMM*%
%LPD*%
G01*
G04 APERTURE LIST*
%ADD10C,0.075000*%
G04 APERTURE END LIST*
D10*
X163393515Y-92323719D02*
X163393515Y-93038004D01*
X163393515Y-93038004D02*
X163407800Y-93180861D01*
X163407800Y-93180861D02*
X163436372Y-93276100D01*
X163436372Y-93276100D02*
X163479229Y-93323719D01*
X163479229Y-93323719D02*
X163507800Y-93323719D01*
X163107801Y-93323719D02*
X163250658Y-93323719D01*
X163250658Y-93323719D02*
X163250658Y-92323719D01*
X162836372Y-93228480D02*
X162850658Y-93276100D01*
X162850658Y-93276100D02*
X162893515Y-93323719D01*
X162893515Y-93323719D02*
X162922087Y-93323719D01*
X162922087Y-93323719D02*
X162964944Y-93276100D01*
X162964944Y-93276100D02*
X162993515Y-93180861D01*
X162993515Y-93180861D02*
X163007801Y-93085623D01*
X163007801Y-93085623D02*
X163022087Y-92895147D01*
X163022087Y-92895147D02*
X163022087Y-92752290D01*
X163022087Y-92752290D02*
X163007801Y-92561814D01*
X163007801Y-92561814D02*
X162993515Y-92466576D01*
X162993515Y-92466576D02*
X162964944Y-92371338D01*
X162964944Y-92371338D02*
X162922087Y-92323719D01*
X162922087Y-92323719D02*
X162893515Y-92323719D01*
X162893515Y-92323719D02*
X162850658Y-92371338D01*
X162850658Y-92371338D02*
X162836372Y-92418957D01*
X162622087Y-92323719D02*
X162622087Y-93038004D01*
X162622087Y-93038004D02*
X162636372Y-93180861D01*
X162636372Y-93180861D02*
X162664944Y-93276100D01*
X162664944Y-93276100D02*
X162707801Y-93323719D01*
X162707801Y-93323719D02*
X162736372Y-93323719D01*
X162336373Y-93323719D02*
X162479230Y-93323719D01*
X162479230Y-93323719D02*
X162479230Y-92323719D01*
X162064944Y-93228480D02*
X162079230Y-93276100D01*
X162079230Y-93276100D02*
X162122087Y-93323719D01*
X162122087Y-93323719D02*
X162150659Y-93323719D01*
X162150659Y-93323719D02*
X162193516Y-93276100D01*
X162193516Y-93276100D02*
X162222087Y-93180861D01*
X162222087Y-93180861D02*
X162236373Y-93085623D01*
X162236373Y-93085623D02*
X162250659Y-92895147D01*
X162250659Y-92895147D02*
X162250659Y-92752290D01*
X162250659Y-92752290D02*
X162236373Y-92561814D01*
X162236373Y-92561814D02*
X162222087Y-92466576D01*
X162222087Y-92466576D02*
X162193516Y-92371338D01*
X162193516Y-92371338D02*
X162150659Y-92323719D01*
X162150659Y-92323719D02*
X162122087Y-92323719D01*
X162122087Y-92323719D02*
X162079230Y-92371338D01*
X162079230Y-92371338D02*
X162064944Y-92418957D01*
X161850659Y-92323719D02*
X161850659Y-93038004D01*
X161850659Y-93038004D02*
X161864944Y-93180861D01*
X161864944Y-93180861D02*
X161893516Y-93276100D01*
X161893516Y-93276100D02*
X161936373Y-93323719D01*
X161936373Y-93323719D02*
X161964944Y-93323719D01*
X161564945Y-93323719D02*
X161707802Y-93323719D01*
X161707802Y-93323719D02*
X161707802Y-92323719D01*
X161293516Y-93228480D02*
X161307802Y-93276100D01*
X161307802Y-93276100D02*
X161350659Y-93323719D01*
X161350659Y-93323719D02*
X161379231Y-93323719D01*
X161379231Y-93323719D02*
X161422088Y-93276100D01*
X161422088Y-93276100D02*
X161450659Y-93180861D01*
X161450659Y-93180861D02*
X161464945Y-93085623D01*
X161464945Y-93085623D02*
X161479231Y-92895147D01*
X161479231Y-92895147D02*
X161479231Y-92752290D01*
X161479231Y-92752290D02*
X161464945Y-92561814D01*
X161464945Y-92561814D02*
X161450659Y-92466576D01*
X161450659Y-92466576D02*
X161422088Y-92371338D01*
X161422088Y-92371338D02*
X161379231Y-92323719D01*
X161379231Y-92323719D02*
X161350659Y-92323719D01*
X161350659Y-92323719D02*
X161307802Y-92371338D01*
X161307802Y-92371338D02*
X161293516Y-92418957D01*
X161079231Y-92323719D02*
X161079231Y-93038004D01*
X161079231Y-93038004D02*
X161093516Y-93180861D01*
X161093516Y-93180861D02*
X161122088Y-93276100D01*
X161122088Y-93276100D02*
X161164945Y-93323719D01*
X161164945Y-93323719D02*
X161193516Y-93323719D01*
X160793517Y-93323719D02*
X160936374Y-93323719D01*
X160936374Y-93323719D02*
X160936374Y-92323719D01*
X160522088Y-93228480D02*
X160536374Y-93276100D01*
X160536374Y-93276100D02*
X160579231Y-93323719D01*
X160579231Y-93323719D02*
X160607803Y-93323719D01*
X160607803Y-93323719D02*
X160650660Y-93276100D01*
X160650660Y-93276100D02*
X160679231Y-93180861D01*
X160679231Y-93180861D02*
X160693517Y-93085623D01*
X160693517Y-93085623D02*
X160707803Y-92895147D01*
X160707803Y-92895147D02*
X160707803Y-92752290D01*
X160707803Y-92752290D02*
X160693517Y-92561814D01*
X160693517Y-92561814D02*
X160679231Y-92466576D01*
X160679231Y-92466576D02*
X160650660Y-92371338D01*
X160650660Y-92371338D02*
X160607803Y-92323719D01*
X160607803Y-92323719D02*
X160579231Y-92323719D01*
X160579231Y-92323719D02*
X160536374Y-92371338D01*
X160536374Y-92371338D02*
X160522088Y-92418957D01*
M02*
