%TF.GenerationSoftware,KiCad,Pcbnew,7.99.0-3522-gc5520b3eef-dirty*%
%TF.CreationDate,2024-01-06T21:25:36+00:00*%
%TF.ProjectId,lamp-controller,6c616d70-2d63-46f6-9e74-726f6c6c6572,rev?*%
%TF.SameCoordinates,Original*%
%TF.FileFunction,Soldermask,Top*%
%TF.FilePolarity,Negative*%
%FSLAX46Y46*%
G04 Gerber Fmt 4.6, Leading zero omitted, Abs format (unit mm)*
G04 Created by KiCad (PCBNEW 7.99.0-3522-gc5520b3eef-dirty) date 2024-01-06 21:25:36*
%MOMM*%
%LPD*%
G01*
G04 APERTURE LIST*
G04 Aperture macros list*
%AMRoundRect*
0 Rectangle with rounded corners*
0 $1 Rounding radius*
0 $2 $3 $4 $5 $6 $7 $8 $9 X,Y pos of 4 corners*
0 Add a 4 corners polygon primitive as box body*
4,1,4,$2,$3,$4,$5,$6,$7,$8,$9,$2,$3,0*
0 Add four circle primitives for the rounded corners*
1,1,$1+$1,$2,$3*
1,1,$1+$1,$4,$5*
1,1,$1+$1,$6,$7*
1,1,$1+$1,$8,$9*
0 Add four rect primitives between the rounded corners*
20,1,$1+$1,$2,$3,$4,$5,0*
20,1,$1+$1,$4,$5,$6,$7,0*
20,1,$1+$1,$6,$7,$8,$9,0*
20,1,$1+$1,$8,$9,$2,$3,0*%
%AMFreePoly0*
4,1,19,0.500000,-0.750000,0.000000,-0.750000,0.000000,-0.744911,-0.071157,-0.744911,-0.207708,-0.704816,-0.327430,-0.627875,-0.420627,-0.520320,-0.479746,-0.390866,-0.500000,-0.250000,-0.500000,0.250000,-0.479746,0.390866,-0.420627,0.520320,-0.327430,0.627875,-0.207708,0.704816,-0.071157,0.744911,0.000000,0.744911,0.000000,0.750000,0.500000,0.750000,0.500000,-0.750000,0.500000,-0.750000,
$1*%
%AMFreePoly1*
4,1,19,0.000000,0.744911,0.071157,0.744911,0.207708,0.704816,0.327430,0.627875,0.420627,0.520320,0.479746,0.390866,0.500000,0.250000,0.500000,-0.250000,0.479746,-0.390866,0.420627,-0.520320,0.327430,-0.627875,0.207708,-0.704816,0.071157,-0.744911,0.000000,-0.744911,0.000000,-0.750000,-0.500000,-0.750000,-0.500000,0.750000,0.000000,0.750000,0.000000,0.744911,0.000000,0.744911,
$1*%
G04 Aperture macros list end*
%ADD10C,0.200000*%
%ADD11R,1.400000X1.200000*%
%ADD12R,1.350000X1.350000*%
%ADD13O,1.350000X1.350000*%
%ADD14R,1.700000X1.700000*%
%ADD15O,1.700000X1.700000*%
%ADD16RoundRect,0.237500X-0.300000X-0.237500X0.300000X-0.237500X0.300000X0.237500X-0.300000X0.237500X0*%
%ADD17RoundRect,0.150000X-0.512500X-0.150000X0.512500X-0.150000X0.512500X0.150000X-0.512500X0.150000X0*%
%ADD18R,1.000000X1.000000*%
%ADD19O,1.000000X1.000000*%
%ADD20RoundRect,0.237500X0.237500X-0.300000X0.237500X0.300000X-0.237500X0.300000X-0.237500X-0.300000X0*%
%ADD21RoundRect,0.237500X-0.250000X-0.237500X0.250000X-0.237500X0.250000X0.237500X-0.250000X0.237500X0*%
%ADD22R,1.200000X1.200000*%
%ADD23C,1.200000*%
%ADD24RoundRect,0.237500X-0.237500X0.250000X-0.237500X-0.250000X0.237500X-0.250000X0.237500X0.250000X0*%
%ADD25RoundRect,0.237500X0.237500X-0.250000X0.237500X0.250000X-0.237500X0.250000X-0.237500X-0.250000X0*%
%ADD26RoundRect,0.237500X0.250000X0.237500X-0.250000X0.237500X-0.250000X-0.237500X0.250000X-0.237500X0*%
%ADD27RoundRect,0.237500X-0.237500X0.300000X-0.237500X-0.300000X0.237500X-0.300000X0.237500X0.300000X0*%
%ADD28C,3.800000*%
%ADD29RoundRect,0.237500X0.300000X0.237500X-0.300000X0.237500X-0.300000X-0.237500X0.300000X-0.237500X0*%
%ADD30FreePoly0,270.000000*%
%ADD31FreePoly1,270.000000*%
%ADD32R,0.850000X0.850000*%
%ADD33O,0.850000X0.850000*%
%ADD34RoundRect,0.150000X0.150000X-0.650000X0.150000X0.650000X-0.150000X0.650000X-0.150000X-0.650000X0*%
%ADD35R,3.200000X3.200000*%
%ADD36RoundRect,0.050000X0.387500X-0.050000X0.387500X0.050000X-0.387500X0.050000X-0.387500X-0.050000X0*%
%ADD37RoundRect,0.050000X0.050000X-0.387500X0.050000X0.387500X-0.050000X0.387500X-0.050000X-0.387500X0*%
%ADD38R,1.650000X0.400000*%
%ADD39R,0.700000X1.825000*%
%ADD40R,1.500000X2.000000*%
%ADD41R,2.000000X1.350000*%
%ADD42O,1.700000X1.350000*%
%ADD43O,1.500000X1.100000*%
%ADD44R,2.500000X1.430000*%
G04 APERTURE END LIST*
D10*
G36*
X120454710Y-90442316D02*
G01*
X120456403Y-90452240D01*
X120457055Y-90455017D01*
X120462358Y-90462495D01*
X120469189Y-90468998D01*
X120478481Y-90476458D01*
X120490086Y-90484658D01*
X120503855Y-90493378D01*
X120511504Y-90497864D01*
X120519639Y-90502399D01*
X120528239Y-90506954D01*
X120537288Y-90511502D01*
X120546765Y-90516017D01*
X120556653Y-90520469D01*
X120566933Y-90524833D01*
X120577585Y-90529080D01*
X120588593Y-90533184D01*
X120599936Y-90537117D01*
X120611596Y-90540851D01*
X120623556Y-90544360D01*
X120635795Y-90547616D01*
X120648295Y-90550591D01*
X120661038Y-90553258D01*
X120674005Y-90555590D01*
X120687178Y-90557559D01*
X120700537Y-90559138D01*
X120714064Y-90560300D01*
X120727741Y-90561017D01*
X120741549Y-90561263D01*
X120761553Y-90560809D01*
X120780618Y-90559467D01*
X120798765Y-90557267D01*
X120816014Y-90554238D01*
X120832384Y-90550410D01*
X120847895Y-90545811D01*
X120862567Y-90540473D01*
X120876420Y-90534423D01*
X120889473Y-90527691D01*
X120901748Y-90520307D01*
X120913263Y-90512301D01*
X120924039Y-90503702D01*
X120934096Y-90494539D01*
X120943452Y-90484842D01*
X120952129Y-90474640D01*
X120960146Y-90463962D01*
X120967523Y-90452839D01*
X120974280Y-90441300D01*
X120980437Y-90429374D01*
X120986013Y-90417090D01*
X120991029Y-90404479D01*
X120995504Y-90391569D01*
X120999459Y-90378390D01*
X121002913Y-90364971D01*
X121005886Y-90351343D01*
X121008398Y-90337534D01*
X121010469Y-90323574D01*
X121012119Y-90309493D01*
X121013368Y-90295319D01*
X121014235Y-90281082D01*
X121014741Y-90266813D01*
X121014905Y-90252540D01*
X121014626Y-90237317D01*
X121013802Y-90222469D01*
X121012453Y-90207998D01*
X121010597Y-90193901D01*
X121008255Y-90180181D01*
X121005446Y-90166837D01*
X121002189Y-90153870D01*
X120998504Y-90141279D01*
X120994411Y-90129066D01*
X120989928Y-90117230D01*
X120985075Y-90105772D01*
X120979872Y-90094691D01*
X120974338Y-90083989D01*
X120968492Y-90073665D01*
X120962355Y-90063720D01*
X120955945Y-90054153D01*
X120949282Y-90044966D01*
X120942386Y-90036159D01*
X120935275Y-90027731D01*
X120927970Y-90019684D01*
X120920490Y-90012016D01*
X120912854Y-90004730D01*
X120905081Y-89997824D01*
X120897192Y-89991299D01*
X120889206Y-89985156D01*
X120881142Y-89979394D01*
X120873019Y-89974014D01*
X120864858Y-89969017D01*
X120856677Y-89964402D01*
X120848496Y-89960169D01*
X120840334Y-89956320D01*
X120832212Y-89952854D01*
X120824091Y-89949685D01*
X120815690Y-89946708D01*
X120807043Y-89943890D01*
X120798187Y-89941203D01*
X120789155Y-89938614D01*
X120779985Y-89936094D01*
X120770710Y-89933611D01*
X120761366Y-89931135D01*
X120751989Y-89928635D01*
X120742613Y-89926080D01*
X120733275Y-89923440D01*
X120724009Y-89920684D01*
X120714851Y-89917781D01*
X120705836Y-89914700D01*
X120697000Y-89911411D01*
X120688377Y-89907882D01*
X120680003Y-89904085D01*
X120671914Y-89899986D01*
X120664144Y-89895556D01*
X120656729Y-89890765D01*
X120649704Y-89885581D01*
X120643105Y-89879973D01*
X120636967Y-89873911D01*
X120626214Y-89860303D01*
X120617729Y-89844509D01*
X120611794Y-89826284D01*
X120609871Y-89816184D01*
X120608691Y-89805383D01*
X120608290Y-89793852D01*
X120608843Y-89779978D01*
X120609927Y-89770267D01*
X120611694Y-89760347D01*
X120614239Y-89750358D01*
X120617659Y-89740439D01*
X120622049Y-89730727D01*
X120627505Y-89721363D01*
X120634122Y-89712484D01*
X120641996Y-89704230D01*
X120651222Y-89696740D01*
X120661896Y-89690152D01*
X120674113Y-89684605D01*
X120687970Y-89680238D01*
X120703562Y-89677190D01*
X120712038Y-89676204D01*
X120720984Y-89675599D01*
X120730411Y-89675394D01*
X120745112Y-89675698D01*
X120759007Y-89676584D01*
X120772125Y-89678014D01*
X120784493Y-89679949D01*
X120796141Y-89682349D01*
X120807096Y-89685176D01*
X120817386Y-89688392D01*
X120827040Y-89691956D01*
X120836085Y-89695832D01*
X120844549Y-89699979D01*
X120852462Y-89704359D01*
X120859850Y-89708933D01*
X120866742Y-89713663D01*
X120879151Y-89723432D01*
X120889913Y-89733357D01*
X120899254Y-89743126D01*
X120907397Y-89752430D01*
X120914570Y-89760957D01*
X120920995Y-89768397D01*
X120929725Y-89776840D01*
X120938040Y-89781091D01*
X120940851Y-89781395D01*
X120947902Y-89776390D01*
X120951855Y-89767041D01*
X120952184Y-89766008D01*
X120954986Y-89748670D01*
X120957536Y-89732703D01*
X120959846Y-89718045D01*
X120961923Y-89704638D01*
X120963778Y-89692420D01*
X120965421Y-89681331D01*
X120966861Y-89671309D01*
X120968663Y-89658149D01*
X120970063Y-89647052D01*
X120971363Y-89635113D01*
X120972185Y-89624101D01*
X120972309Y-89619218D01*
X120971137Y-89609448D01*
X120965217Y-89601599D01*
X120955507Y-89593492D01*
X120946700Y-89587342D01*
X120936135Y-89580790D01*
X120923907Y-89574003D01*
X120910109Y-89567146D01*
X120902651Y-89563744D01*
X120894836Y-89560387D01*
X120886675Y-89557096D01*
X120878181Y-89553891D01*
X120869364Y-89550794D01*
X120860237Y-89547825D01*
X120850812Y-89545005D01*
X120841100Y-89542356D01*
X120831113Y-89539896D01*
X120820862Y-89537648D01*
X120810360Y-89535633D01*
X120799618Y-89533870D01*
X120788648Y-89532381D01*
X120777461Y-89531187D01*
X120766070Y-89530309D01*
X120754486Y-89529766D01*
X120742721Y-89529581D01*
X120720441Y-89530102D01*
X120699375Y-89531635D01*
X120679489Y-89534133D01*
X120660750Y-89537552D01*
X120643125Y-89541844D01*
X120626581Y-89546964D01*
X120611085Y-89552866D01*
X120596603Y-89559504D01*
X120583102Y-89566833D01*
X120570549Y-89574805D01*
X120558911Y-89583376D01*
X120548154Y-89592500D01*
X120538246Y-89602129D01*
X120529153Y-89612219D01*
X120520842Y-89622724D01*
X120513279Y-89633598D01*
X120506433Y-89644794D01*
X120500268Y-89656267D01*
X120494753Y-89667971D01*
X120489853Y-89679859D01*
X120485537Y-89691887D01*
X120481770Y-89704008D01*
X120478519Y-89716176D01*
X120475751Y-89728345D01*
X120473434Y-89740469D01*
X120471533Y-89752503D01*
X120470016Y-89764400D01*
X120468849Y-89776115D01*
X120467999Y-89787601D01*
X120467433Y-89798813D01*
X120467117Y-89809704D01*
X120467020Y-89820230D01*
X120467347Y-89835957D01*
X120468309Y-89851219D01*
X120469881Y-89866020D01*
X120472034Y-89880361D01*
X120474742Y-89894245D01*
X120477978Y-89907674D01*
X120481714Y-89920651D01*
X120485924Y-89933177D01*
X120490580Y-89945255D01*
X120495656Y-89956888D01*
X120501124Y-89968077D01*
X120506958Y-89978825D01*
X120513130Y-89989135D01*
X120519613Y-89999009D01*
X120526380Y-90008448D01*
X120533405Y-90017456D01*
X120540660Y-90026034D01*
X120548117Y-90034186D01*
X120555751Y-90041913D01*
X120563534Y-90049217D01*
X120571438Y-90056101D01*
X120579438Y-90062568D01*
X120587505Y-90068619D01*
X120595614Y-90074258D01*
X120603736Y-90079485D01*
X120611844Y-90084304D01*
X120619912Y-90088717D01*
X120627913Y-90092727D01*
X120635820Y-90096334D01*
X120643604Y-90099543D01*
X120651241Y-90102355D01*
X120658702Y-90104773D01*
X120668109Y-90107677D01*
X120677036Y-90110395D01*
X120685499Y-90112938D01*
X120693515Y-90115314D01*
X120708277Y-90119603D01*
X120721460Y-90123339D01*
X120733199Y-90126595D01*
X120743634Y-90129446D01*
X120752901Y-90131968D01*
X120761137Y-90134234D01*
X120771860Y-90137319D01*
X120781037Y-90140251D01*
X120789133Y-90143282D01*
X120796610Y-90146664D01*
X120803933Y-90150649D01*
X120806420Y-90152156D01*
X120814806Y-90157562D01*
X120822331Y-90163241D01*
X120830494Y-90170382D01*
X120838913Y-90179051D01*
X120847208Y-90189311D01*
X120852481Y-90197067D01*
X120857417Y-90205577D01*
X120861903Y-90214860D01*
X120865826Y-90224936D01*
X120869073Y-90235824D01*
X120871532Y-90247542D01*
X120873091Y-90260109D01*
X120873635Y-90273545D01*
X120873447Y-90283499D01*
X120871980Y-90302025D01*
X120869140Y-90318773D01*
X120865024Y-90333820D01*
X120859732Y-90347244D01*
X120853361Y-90359123D01*
X120846010Y-90369534D01*
X120837777Y-90378555D01*
X120828759Y-90386263D01*
X120819055Y-90392737D01*
X120808764Y-90398053D01*
X120797983Y-90402290D01*
X120786811Y-90405524D01*
X120775345Y-90407835D01*
X120763685Y-90409298D01*
X120751927Y-90409993D01*
X120746043Y-90410076D01*
X120729801Y-90409713D01*
X120714259Y-90408653D01*
X120699397Y-90406943D01*
X120685200Y-90404629D01*
X120671651Y-90401759D01*
X120658732Y-90398378D01*
X120646426Y-90394533D01*
X120634717Y-90390270D01*
X120623587Y-90385635D01*
X120613019Y-90380676D01*
X120602997Y-90375438D01*
X120593502Y-90369968D01*
X120584519Y-90364312D01*
X120576030Y-90358517D01*
X120568019Y-90352629D01*
X120560467Y-90346695D01*
X120553358Y-90340761D01*
X120546676Y-90334873D01*
X120534521Y-90323423D01*
X120523866Y-90312715D01*
X120514574Y-90303121D01*
X120506509Y-90295012D01*
X120499536Y-90288761D01*
X120490824Y-90283678D01*
X120488318Y-90283314D01*
X120481033Y-90287624D01*
X120476589Y-90296884D01*
X120473641Y-90307730D01*
X120471391Y-90319579D01*
X120470537Y-90325080D01*
X120468330Y-90340079D01*
X120466323Y-90353709D01*
X120464505Y-90366045D01*
X120462871Y-90377161D01*
X120461411Y-90387130D01*
X120459534Y-90400097D01*
X120458007Y-90410901D01*
X120456472Y-90422374D01*
X120455270Y-90432836D01*
X120454710Y-90442316D01*
G37*
G36*
X121146601Y-89648527D02*
G01*
X121146895Y-89658468D01*
X121148379Y-89671423D01*
X121151004Y-89682198D01*
X121154643Y-89690987D01*
X121160858Y-89699947D01*
X121168355Y-89706171D01*
X121176839Y-89710115D01*
X121186011Y-89712233D01*
X121195573Y-89712981D01*
X121197990Y-89713007D01*
X121256217Y-89713007D01*
X121264552Y-89712160D01*
X121274238Y-89710130D01*
X121282653Y-89706489D01*
X121290792Y-89700166D01*
X121297853Y-89690345D01*
X121301961Y-89680191D01*
X121304673Y-89667262D01*
X121305539Y-89656931D01*
X121305652Y-89651214D01*
X121305652Y-89578429D01*
X121305356Y-89568488D01*
X121303861Y-89555534D01*
X121301219Y-89544758D01*
X121297557Y-89535969D01*
X121291307Y-89527010D01*
X121283773Y-89520786D01*
X121275256Y-89516842D01*
X121266060Y-89514724D01*
X121256485Y-89513975D01*
X121254068Y-89513949D01*
X121196817Y-89513949D01*
X121188601Y-89514496D01*
X121180068Y-89515575D01*
X121171655Y-89517994D01*
X121163796Y-89522559D01*
X121156926Y-89530078D01*
X121151480Y-89541358D01*
X121148592Y-89552772D01*
X121146933Y-89567095D01*
X121146601Y-89578429D01*
X121146601Y-89648527D01*
G37*
G36*
X121150900Y-90460146D02*
G01*
X121150956Y-90469950D01*
X121151535Y-90481056D01*
X121153249Y-90492659D01*
X121156713Y-90503957D01*
X121162539Y-90514144D01*
X121168829Y-90520572D01*
X121177053Y-90525583D01*
X121187468Y-90528839D01*
X121195757Y-90529866D01*
X121200334Y-90530000D01*
X121251723Y-90530000D01*
X121260586Y-90529477D01*
X121268321Y-90527984D01*
X121277977Y-90524165D01*
X121285527Y-90518786D01*
X121292765Y-90509833D01*
X121297334Y-90499657D01*
X121299846Y-90489147D01*
X121300916Y-90479189D01*
X121301159Y-90468870D01*
X121301158Y-90467229D01*
X121301158Y-89959204D01*
X121301057Y-89949065D01*
X121300595Y-89939221D01*
X121299010Y-89926820D01*
X121295803Y-89915579D01*
X121290412Y-89905863D01*
X121282277Y-89898034D01*
X121274038Y-89893620D01*
X121263702Y-89890626D01*
X121255531Y-89889494D01*
X121246252Y-89889106D01*
X121200334Y-89889106D01*
X121191472Y-89889632D01*
X121183737Y-89891133D01*
X121174081Y-89894973D01*
X121166531Y-89900384D01*
X121159292Y-89909393D01*
X121154724Y-89919637D01*
X121152212Y-89930226D01*
X121151142Y-89940269D01*
X121150898Y-89950701D01*
X121150900Y-89952365D01*
X121150900Y-90460146D01*
G37*
G36*
X121435198Y-90467229D02*
G01*
X121435858Y-90481362D01*
X121437755Y-90493247D01*
X121440767Y-90503073D01*
X121446305Y-90513292D01*
X121453315Y-90520626D01*
X121461508Y-90525518D01*
X121470592Y-90528411D01*
X121480277Y-90529749D01*
X121487759Y-90530000D01*
X121538171Y-90530000D01*
X121549256Y-90529247D01*
X121558641Y-90527074D01*
X121566458Y-90523604D01*
X121574673Y-90517175D01*
X121580654Y-90508956D01*
X121584717Y-90499242D01*
X121587179Y-90488329D01*
X121588355Y-90476510D01*
X121588583Y-90467229D01*
X121588583Y-90153621D01*
X121588768Y-90142517D01*
X121589315Y-90131781D01*
X121590211Y-90121412D01*
X121591444Y-90111410D01*
X121593002Y-90101772D01*
X121597039Y-90083588D01*
X121602224Y-90066853D01*
X121608455Y-90051557D01*
X121615633Y-90037692D01*
X121623657Y-90025252D01*
X121632427Y-90014226D01*
X121641843Y-90004607D01*
X121651805Y-89996387D01*
X121662213Y-89989558D01*
X121672966Y-89984111D01*
X121683965Y-89980038D01*
X121695108Y-89977331D01*
X121706297Y-89975981D01*
X121711877Y-89975812D01*
X121721267Y-89976205D01*
X121729755Y-89977384D01*
X121740884Y-89980634D01*
X121750213Y-89985668D01*
X121757880Y-89992494D01*
X121764023Y-90001122D01*
X121768779Y-90011560D01*
X121772288Y-90023815D01*
X121774688Y-90037897D01*
X121775739Y-90048304D01*
X121776400Y-90059529D01*
X121776711Y-90071575D01*
X121776748Y-90077906D01*
X121776748Y-90467229D01*
X121777171Y-90479954D01*
X121778671Y-90491772D01*
X121781590Y-90502439D01*
X121786273Y-90511712D01*
X121793062Y-90519348D01*
X121802301Y-90525103D01*
X121811045Y-90528039D01*
X121821506Y-90529678D01*
X121829504Y-90530000D01*
X121880893Y-90530000D01*
X121889753Y-90529152D01*
X121897482Y-90526757D01*
X121907123Y-90520745D01*
X121914651Y-90512495D01*
X121920329Y-90502753D01*
X121924417Y-90492264D01*
X121927175Y-90481775D01*
X121928866Y-90472033D01*
X121929908Y-90461493D01*
X121930132Y-90454528D01*
X121930132Y-90164856D01*
X121930154Y-90153557D01*
X121930305Y-90142141D01*
X121930716Y-90130668D01*
X121931515Y-90119202D01*
X121932834Y-90107802D01*
X121934801Y-90096531D01*
X121935799Y-90092072D01*
X121938423Y-90082193D01*
X121941678Y-90072140D01*
X121945565Y-90062025D01*
X121950084Y-90051959D01*
X121955233Y-90042055D01*
X121961012Y-90032425D01*
X121967422Y-90023180D01*
X121974462Y-90014433D01*
X121982132Y-90006296D01*
X121990431Y-89998881D01*
X121999359Y-89992299D01*
X122008916Y-89986662D01*
X122019101Y-89982083D01*
X122029915Y-89978674D01*
X122041357Y-89976547D01*
X122053426Y-89975812D01*
X122064858Y-89976437D01*
X122074889Y-89978257D01*
X122083610Y-89981190D01*
X122091113Y-89985155D01*
X122100283Y-89992858D01*
X122107228Y-90002425D01*
X122112256Y-90013579D01*
X122115677Y-90026044D01*
X122117800Y-90039547D01*
X122118933Y-90053812D01*
X122119292Y-90063608D01*
X122119440Y-90073539D01*
X122119469Y-90083524D01*
X122119469Y-90464298D01*
X122119924Y-90476108D01*
X122120761Y-90486760D01*
X122122800Y-90497672D01*
X122126761Y-90508093D01*
X122133366Y-90517274D01*
X122140489Y-90522894D01*
X122149810Y-90527077D01*
X122161632Y-90529509D01*
X122171053Y-90530000D01*
X122220293Y-90530000D01*
X122231678Y-90529282D01*
X122241306Y-90527200D01*
X122249316Y-90523854D01*
X122257721Y-90517606D01*
X122263827Y-90509538D01*
X122267963Y-90499893D01*
X122270460Y-90488916D01*
X122271647Y-90476848D01*
X122271877Y-90467229D01*
X122271877Y-90100376D01*
X122271872Y-90090485D01*
X122271836Y-90080521D01*
X122271740Y-90070508D01*
X122271553Y-90060473D01*
X122271244Y-90050441D01*
X122270783Y-90040437D01*
X122270140Y-90030487D01*
X122269285Y-90020616D01*
X122268186Y-90010849D01*
X122266814Y-90001212D01*
X122263129Y-89982430D01*
X122257985Y-89964472D01*
X122251140Y-89947541D01*
X122242352Y-89931842D01*
X122237153Y-89924517D01*
X122231376Y-89917576D01*
X122224992Y-89911044D01*
X122217971Y-89904947D01*
X122210281Y-89899310D01*
X122201892Y-89894159D01*
X122192774Y-89889519D01*
X122182897Y-89885414D01*
X122172230Y-89881872D01*
X122160744Y-89878917D01*
X122148406Y-89876574D01*
X122135188Y-89874869D01*
X122121058Y-89873828D01*
X122105987Y-89873475D01*
X122095654Y-89873697D01*
X122085647Y-89874348D01*
X122075962Y-89875405D01*
X122066595Y-89876843D01*
X122057543Y-89878640D01*
X122048804Y-89880773D01*
X122040373Y-89883217D01*
X122032247Y-89885950D01*
X122024423Y-89888948D01*
X122016898Y-89892188D01*
X122002731Y-89899299D01*
X121989718Y-89907096D01*
X121977833Y-89915393D01*
X121967049Y-89924001D01*
X121957340Y-89932735D01*
X121948680Y-89941406D01*
X121941041Y-89949827D01*
X121934396Y-89957813D01*
X121928720Y-89965174D01*
X121921964Y-89974638D01*
X121920167Y-89977278D01*
X121915700Y-89964319D01*
X121910703Y-89952271D01*
X121905137Y-89941124D01*
X121898967Y-89930868D01*
X121892155Y-89921492D01*
X121884666Y-89912985D01*
X121876463Y-89905338D01*
X121867508Y-89898540D01*
X121857766Y-89892581D01*
X121847199Y-89887450D01*
X121835772Y-89883136D01*
X121823447Y-89879630D01*
X121810187Y-89876922D01*
X121795957Y-89875000D01*
X121780720Y-89873854D01*
X121772711Y-89873569D01*
X121764438Y-89873475D01*
X121754413Y-89873685D01*
X121744706Y-89874301D01*
X121735313Y-89875299D01*
X121726230Y-89876659D01*
X121717453Y-89878357D01*
X121708979Y-89880370D01*
X121700802Y-89882677D01*
X121692920Y-89885256D01*
X121685329Y-89888082D01*
X121671002Y-89894392D01*
X121657791Y-89901428D01*
X121645663Y-89909010D01*
X121634588Y-89916960D01*
X121624535Y-89925097D01*
X121615473Y-89933244D01*
X121607370Y-89941220D01*
X121600194Y-89948846D01*
X121593916Y-89955943D01*
X121586112Y-89965204D01*
X121581939Y-89970195D01*
X121581939Y-89942107D01*
X121581581Y-89931531D01*
X121579799Y-89918114D01*
X121576710Y-89907371D01*
X121572526Y-89899004D01*
X121565610Y-89891032D01*
X121557626Y-89886052D01*
X121549074Y-89883360D01*
X121540456Y-89882252D01*
X121532274Y-89882025D01*
X121530355Y-89882023D01*
X121485610Y-89882023D01*
X121477610Y-89882254D01*
X121469160Y-89883363D01*
X121460729Y-89885977D01*
X121452784Y-89890724D01*
X121445791Y-89898231D01*
X121440218Y-89909123D01*
X121437250Y-89919891D01*
X121435541Y-89933181D01*
X121435198Y-89943572D01*
X121435198Y-90467229D01*
G37*
G36*
X122730255Y-89873707D02*
G01*
X122740283Y-89874398D01*
X122750003Y-89875538D01*
X122759417Y-89877117D01*
X122768530Y-89879127D01*
X122777345Y-89881557D01*
X122785865Y-89884398D01*
X122794092Y-89887641D01*
X122802032Y-89891276D01*
X122809686Y-89895293D01*
X122817058Y-89899684D01*
X122824151Y-89904438D01*
X122830969Y-89909547D01*
X122837515Y-89915000D01*
X122849804Y-89926903D01*
X122861044Y-89940071D01*
X122871262Y-89954428D01*
X122880484Y-89969898D01*
X122888736Y-89986407D01*
X122892507Y-89995026D01*
X122896045Y-90003876D01*
X122899354Y-90012948D01*
X122902437Y-90022232D01*
X122905297Y-90031718D01*
X122907938Y-90041398D01*
X122910363Y-90051261D01*
X122912575Y-90061297D01*
X122914355Y-90070703D01*
X122916708Y-90084733D01*
X122918702Y-90098724D01*
X122920364Y-90112737D01*
X122921720Y-90126835D01*
X122922795Y-90141078D01*
X122923617Y-90155529D01*
X122924036Y-90165308D01*
X122924362Y-90175225D01*
X122924602Y-90185298D01*
X122924764Y-90195546D01*
X122924856Y-90205985D01*
X122924884Y-90216636D01*
X122924418Y-90240874D01*
X122923254Y-90263962D01*
X122921419Y-90285925D01*
X122918934Y-90306787D01*
X122915826Y-90326575D01*
X122912119Y-90345312D01*
X122907836Y-90363025D01*
X122903003Y-90379737D01*
X122897644Y-90395473D01*
X122891782Y-90410260D01*
X122885443Y-90424121D01*
X122878650Y-90437081D01*
X122871429Y-90449166D01*
X122863803Y-90460401D01*
X122855797Y-90470810D01*
X122847435Y-90480418D01*
X122838742Y-90489251D01*
X122829741Y-90497333D01*
X122820458Y-90504689D01*
X122810916Y-90511344D01*
X122801141Y-90517324D01*
X122791156Y-90522653D01*
X122780985Y-90527356D01*
X122770654Y-90531457D01*
X122760186Y-90534983D01*
X122749606Y-90537958D01*
X122738939Y-90540406D01*
X122728207Y-90542354D01*
X122717437Y-90543825D01*
X122706652Y-90544845D01*
X122695877Y-90545439D01*
X122685136Y-90545631D01*
X122675265Y-90545404D01*
X122665785Y-90544728D01*
X122656670Y-90543615D01*
X122647895Y-90542074D01*
X122639433Y-90540115D01*
X122631259Y-90537748D01*
X122623348Y-90534984D01*
X122615673Y-90531831D01*
X122608209Y-90528301D01*
X122600929Y-90524403D01*
X122593809Y-90520147D01*
X122586822Y-90515543D01*
X122579942Y-90510602D01*
X122573145Y-90505333D01*
X122566404Y-90499746D01*
X122559692Y-90493852D01*
X122559692Y-90730523D01*
X122559636Y-90735373D01*
X122558804Y-90748542D01*
X122556993Y-90759748D01*
X122554226Y-90769133D01*
X122549090Y-90779058D01*
X122542351Y-90786330D01*
X122534064Y-90791286D01*
X122524284Y-90794259D01*
X122516003Y-90795390D01*
X122506936Y-90795736D01*
X122455547Y-90795736D01*
X122446491Y-90795200D01*
X122438613Y-90793670D01*
X122428824Y-90789767D01*
X122421224Y-90784284D01*
X122414018Y-90775195D01*
X122409558Y-90764930D01*
X122407188Y-90754422D01*
X122406254Y-90744603D01*
X122406113Y-90733210D01*
X122406113Y-90390293D01*
X122559692Y-90390293D01*
X122562867Y-90394542D01*
X122568343Y-90401909D01*
X122575389Y-90410483D01*
X122581804Y-90417224D01*
X122589264Y-90423855D01*
X122597840Y-90430039D01*
X122607601Y-90435438D01*
X122618616Y-90439712D01*
X122626691Y-90441771D01*
X122635375Y-90443079D01*
X122644689Y-90443538D01*
X122651657Y-90443321D01*
X122662099Y-90442171D01*
X122672453Y-90440000D01*
X122682638Y-90436776D01*
X122692569Y-90432467D01*
X122702165Y-90427039D01*
X122711341Y-90420461D01*
X122720014Y-90412699D01*
X122728103Y-90403722D01*
X122735522Y-90393496D01*
X122742191Y-90381988D01*
X122747122Y-90371607D01*
X122751464Y-90361003D01*
X122755253Y-90350209D01*
X122758528Y-90339261D01*
X122761324Y-90328193D01*
X122763681Y-90317039D01*
X122765636Y-90305833D01*
X122767226Y-90294610D01*
X122768488Y-90283405D01*
X122769460Y-90272251D01*
X122770180Y-90261183D01*
X122770685Y-90250235D01*
X122771012Y-90239441D01*
X122771200Y-90228837D01*
X122771284Y-90218455D01*
X122771304Y-90208332D01*
X122771304Y-90191479D01*
X122771234Y-90181511D01*
X122771019Y-90171587D01*
X122770650Y-90161725D01*
X122770120Y-90151942D01*
X122768543Y-90132686D01*
X122766224Y-90113962D01*
X122763099Y-90095914D01*
X122759105Y-90078685D01*
X122754175Y-90062417D01*
X122748248Y-90047254D01*
X122741258Y-90033338D01*
X122733142Y-90020814D01*
X122723834Y-90009824D01*
X122713272Y-90000512D01*
X122701391Y-89993019D01*
X122688128Y-89987490D01*
X122673417Y-89984068D01*
X122665498Y-89983192D01*
X122657194Y-89982896D01*
X122647807Y-89983229D01*
X122638972Y-89984188D01*
X122630665Y-89985713D01*
X122619143Y-89988927D01*
X122608673Y-89993071D01*
X122599172Y-89997939D01*
X122590560Y-90003326D01*
X122582753Y-90009028D01*
X122575669Y-90014838D01*
X122567208Y-90022399D01*
X122559692Y-90029302D01*
X122559692Y-90390293D01*
X122406113Y-90390293D01*
X122406113Y-89953586D01*
X122406443Y-89941559D01*
X122407697Y-89929910D01*
X122410265Y-89919016D01*
X122414539Y-89909256D01*
X122420910Y-89901007D01*
X122429771Y-89894648D01*
X122438285Y-89891345D01*
X122448584Y-89889476D01*
X122456524Y-89889106D01*
X122503614Y-89889106D01*
X122509098Y-89889177D01*
X122518489Y-89889988D01*
X122527822Y-89892436D01*
X122536670Y-89897409D01*
X122543108Y-89903804D01*
X122548741Y-89912839D01*
X122552305Y-89921621D01*
X122555198Y-89932337D01*
X122565714Y-89924552D01*
X122576293Y-89917396D01*
X122586915Y-89910852D01*
X122597559Y-89904902D01*
X122608207Y-89899529D01*
X122618839Y-89894715D01*
X122629435Y-89890443D01*
X122639975Y-89886694D01*
X122650439Y-89883453D01*
X122660809Y-89880700D01*
X122671063Y-89878420D01*
X122681182Y-89876593D01*
X122691147Y-89875202D01*
X122700937Y-89874231D01*
X122710533Y-89873661D01*
X122719916Y-89873475D01*
X122730255Y-89873707D01*
G37*
G36*
X123034501Y-90466741D02*
G01*
X123034786Y-90476749D01*
X123036240Y-90489719D01*
X123038833Y-90500427D01*
X123042464Y-90509084D01*
X123048745Y-90517801D01*
X123056451Y-90523748D01*
X123065341Y-90527426D01*
X123075175Y-90529336D01*
X123083026Y-90529909D01*
X123088429Y-90530000D01*
X123134347Y-90530000D01*
X123142834Y-90529202D01*
X123153695Y-90526938D01*
X123162502Y-90523462D01*
X123169470Y-90518849D01*
X123176270Y-90511062D01*
X123180689Y-90501570D01*
X123183237Y-90490553D01*
X123184422Y-90478191D01*
X123184721Y-90468146D01*
X123184759Y-90461123D01*
X123184759Y-89577452D01*
X123184151Y-89563866D01*
X123182393Y-89552274D01*
X123179579Y-89542532D01*
X123174350Y-89532174D01*
X123167641Y-89524510D01*
X123159680Y-89519199D01*
X123150692Y-89515901D01*
X123140904Y-89514276D01*
X123133175Y-89513949D01*
X123081591Y-89513949D01*
X123073205Y-89514611D01*
X123063294Y-89517491D01*
X123054838Y-89522547D01*
X123047842Y-89529662D01*
X123042311Y-89538718D01*
X123038248Y-89549598D01*
X123035658Y-89562185D01*
X123034686Y-89572674D01*
X123034501Y-89580139D01*
X123034501Y-90466741D01*
G37*
G36*
X123572172Y-89858301D02*
G01*
X123588507Y-89859653D01*
X123604055Y-89861871D01*
X123618832Y-89864925D01*
X123632856Y-89868785D01*
X123646143Y-89873423D01*
X123658711Y-89878809D01*
X123670576Y-89884912D01*
X123681756Y-89891704D01*
X123692268Y-89899156D01*
X123702129Y-89907237D01*
X123711356Y-89915919D01*
X123719967Y-89925172D01*
X123727977Y-89934965D01*
X123735405Y-89945271D01*
X123742267Y-89956059D01*
X123748582Y-89967300D01*
X123754364Y-89978965D01*
X123759633Y-89991024D01*
X123764404Y-90003447D01*
X123768696Y-90016205D01*
X123772524Y-90029269D01*
X123775907Y-90042609D01*
X123778861Y-90056195D01*
X123781404Y-90069999D01*
X123783552Y-90083990D01*
X123785322Y-90098140D01*
X123786733Y-90112418D01*
X123787800Y-90126796D01*
X123788541Y-90141243D01*
X123788973Y-90155731D01*
X123789113Y-90170230D01*
X123788781Y-90180363D01*
X123787126Y-90193326D01*
X123784250Y-90203832D01*
X123778840Y-90214464D01*
X123772041Y-90221796D01*
X123764298Y-90226437D01*
X123756058Y-90228997D01*
X123747768Y-90230086D01*
X123739874Y-90230314D01*
X123430760Y-90230314D01*
X123431033Y-90240552D01*
X123431456Y-90250740D01*
X123432041Y-90260859D01*
X123432801Y-90270891D01*
X123433747Y-90280819D01*
X123434890Y-90290623D01*
X123437819Y-90309792D01*
X123441681Y-90328253D01*
X123446573Y-90345864D01*
X123452590Y-90362481D01*
X123459825Y-90377958D01*
X123468375Y-90392154D01*
X123478334Y-90404923D01*
X123489798Y-90416123D01*
X123502861Y-90425609D01*
X123510022Y-90429664D01*
X123517618Y-90433237D01*
X123525662Y-90436309D01*
X123534165Y-90438864D01*
X123543139Y-90440881D01*
X123552596Y-90442345D01*
X123562548Y-90443236D01*
X123573007Y-90443538D01*
X123583331Y-90443300D01*
X123593313Y-90442606D01*
X123602959Y-90441484D01*
X123612273Y-90439964D01*
X123621262Y-90438073D01*
X123629930Y-90435842D01*
X123638283Y-90433298D01*
X123646326Y-90430471D01*
X123654064Y-90427388D01*
X123661502Y-90424080D01*
X123675501Y-90416902D01*
X123688365Y-90409165D01*
X123700136Y-90401100D01*
X123710855Y-90392938D01*
X123720566Y-90384910D01*
X123729310Y-90377244D01*
X123737129Y-90370173D01*
X123744066Y-90363926D01*
X123752907Y-90356605D01*
X123760000Y-90352435D01*
X123764494Y-90352435D01*
X123770160Y-90355122D01*
X123772327Y-90358760D01*
X123775867Y-90369897D01*
X123777899Y-90380760D01*
X123779465Y-90392950D01*
X123780624Y-90405725D01*
X123781439Y-90418341D01*
X123781970Y-90430057D01*
X123782341Y-90442993D01*
X123782470Y-90453307D01*
X123781557Y-90463233D01*
X123777404Y-90472478D01*
X123771159Y-90478933D01*
X123764494Y-90484082D01*
X123755407Y-90490328D01*
X123745819Y-90496404D01*
X123735751Y-90502278D01*
X123725225Y-90507918D01*
X123714262Y-90513293D01*
X123702883Y-90518368D01*
X123691108Y-90523114D01*
X123678960Y-90527496D01*
X123666459Y-90531483D01*
X123653626Y-90535044D01*
X123640484Y-90538145D01*
X123627052Y-90540754D01*
X123613352Y-90542839D01*
X123599406Y-90544369D01*
X123585234Y-90545310D01*
X123570858Y-90545631D01*
X123553572Y-90545283D01*
X123536813Y-90544241D01*
X123520583Y-90542507D01*
X123504882Y-90540085D01*
X123489712Y-90536976D01*
X123475075Y-90533184D01*
X123460973Y-90528712D01*
X123447405Y-90523561D01*
X123434375Y-90517736D01*
X123421883Y-90511238D01*
X123409931Y-90504071D01*
X123398520Y-90496236D01*
X123387652Y-90487738D01*
X123377328Y-90478577D01*
X123367549Y-90468759D01*
X123358318Y-90458284D01*
X123349635Y-90447155D01*
X123341501Y-90435377D01*
X123333919Y-90422950D01*
X123326890Y-90409878D01*
X123320415Y-90396164D01*
X123314495Y-90381810D01*
X123309132Y-90366820D01*
X123304328Y-90351195D01*
X123300083Y-90334938D01*
X123296400Y-90318053D01*
X123293280Y-90300542D01*
X123290724Y-90282407D01*
X123288733Y-90263652D01*
X123287309Y-90244279D01*
X123286454Y-90224291D01*
X123286168Y-90203691D01*
X123286482Y-90181403D01*
X123287417Y-90159919D01*
X123288963Y-90139233D01*
X123288965Y-90139211D01*
X123431933Y-90139211D01*
X123663670Y-90139211D01*
X123663314Y-90130123D01*
X123662304Y-90112275D01*
X123660831Y-90094943D01*
X123658814Y-90078224D01*
X123656173Y-90062214D01*
X123652827Y-90047009D01*
X123648698Y-90032706D01*
X123643704Y-90019400D01*
X123637766Y-90007188D01*
X123630802Y-89996166D01*
X123622734Y-89986431D01*
X123613482Y-89978078D01*
X123602964Y-89971204D01*
X123591100Y-89965905D01*
X123577812Y-89962278D01*
X123563018Y-89960418D01*
X123555031Y-89960181D01*
X123546823Y-89960439D01*
X123538974Y-89961201D01*
X123524320Y-89964177D01*
X123511009Y-89968980D01*
X123498977Y-89975480D01*
X123488164Y-89983551D01*
X123478507Y-89993064D01*
X123469944Y-90003889D01*
X123462414Y-90015899D01*
X123455855Y-90028965D01*
X123450205Y-90042959D01*
X123445402Y-90057752D01*
X123441385Y-90073216D01*
X123438091Y-90089222D01*
X123435459Y-90105642D01*
X123433427Y-90122348D01*
X123431933Y-90139211D01*
X123288965Y-90139211D01*
X123291109Y-90119337D01*
X123293847Y-90100226D01*
X123297167Y-90081894D01*
X123301057Y-90064334D01*
X123305509Y-90047540D01*
X123310513Y-90031505D01*
X123316058Y-90016224D01*
X123322135Y-90001689D01*
X123328734Y-89987895D01*
X123335845Y-89974836D01*
X123343458Y-89962504D01*
X123351563Y-89950895D01*
X123360150Y-89940000D01*
X123369209Y-89929815D01*
X123378730Y-89920333D01*
X123388705Y-89911547D01*
X123399121Y-89903451D01*
X123409970Y-89896039D01*
X123421242Y-89889305D01*
X123432927Y-89883242D01*
X123445015Y-89877844D01*
X123457495Y-89873105D01*
X123470359Y-89869018D01*
X123483596Y-89865577D01*
X123497196Y-89862776D01*
X123511150Y-89860609D01*
X123525446Y-89859068D01*
X123540077Y-89858148D01*
X123555031Y-89857843D01*
X123572172Y-89858301D01*
G37*
G36*
X124337780Y-90464298D02*
G01*
X124338076Y-90474736D01*
X124339571Y-90488252D01*
X124342213Y-90499397D01*
X124345876Y-90508394D01*
X124352125Y-90517435D01*
X124359660Y-90523584D01*
X124368176Y-90527371D01*
X124377373Y-90529326D01*
X124386947Y-90529978D01*
X124389364Y-90530000D01*
X124781325Y-90530000D01*
X124790032Y-90529583D01*
X124801219Y-90527490D01*
X124810341Y-90523813D01*
X124817610Y-90518756D01*
X124824776Y-90510212D01*
X124829511Y-90500048D01*
X124832308Y-90488744D01*
X124833663Y-90476776D01*
X124834070Y-90464623D01*
X124834082Y-90461612D01*
X124834082Y-90446224D01*
X124833569Y-90433356D01*
X124831881Y-90421311D01*
X124828796Y-90410366D01*
X124824092Y-90400795D01*
X124817548Y-90392872D01*
X124808940Y-90386873D01*
X124800997Y-90383801D01*
X124791674Y-90382082D01*
X124784647Y-90381744D01*
X124773707Y-90381988D01*
X124763076Y-90382272D01*
X124749513Y-90382645D01*
X124733399Y-90383092D01*
X124724505Y-90383339D01*
X124715116Y-90383599D01*
X124705280Y-90383870D01*
X124695044Y-90384152D01*
X124684457Y-90384441D01*
X124673565Y-90384736D01*
X124662418Y-90385036D01*
X124651061Y-90385338D01*
X124639543Y-90385640D01*
X124627912Y-90385942D01*
X124616215Y-90386241D01*
X124604499Y-90386535D01*
X124592814Y-90386823D01*
X124581205Y-90387102D01*
X124569721Y-90387372D01*
X124558410Y-90387629D01*
X124547318Y-90387873D01*
X124536495Y-90388102D01*
X124525987Y-90388314D01*
X124515842Y-90388506D01*
X124506107Y-90388678D01*
X124496831Y-90388827D01*
X124496831Y-89620928D01*
X124496095Y-89606861D01*
X124494012Y-89595157D01*
X124490770Y-89585602D01*
X124484971Y-89575834D01*
X124477894Y-89569000D01*
X124469985Y-89564591D01*
X124461691Y-89562103D01*
X124453458Y-89561028D01*
X124447592Y-89560844D01*
X124389364Y-89560844D01*
X124378521Y-89561499D01*
X124369222Y-89563433D01*
X124361363Y-89566596D01*
X124352943Y-89572645D01*
X124346651Y-89580679D01*
X124342239Y-89590585D01*
X124339460Y-89602249D01*
X124338298Y-89612081D01*
X124337811Y-89622790D01*
X124337780Y-89626545D01*
X124337780Y-90464298D01*
G37*
G36*
X125189819Y-89858117D02*
G01*
X125205609Y-89858934D01*
X125220673Y-89860286D01*
X125235024Y-89862163D01*
X125248675Y-89864559D01*
X125261643Y-89867465D01*
X125273939Y-89870872D01*
X125285580Y-89874772D01*
X125296579Y-89879158D01*
X125306949Y-89884021D01*
X125316707Y-89889352D01*
X125325864Y-89895144D01*
X125334437Y-89901388D01*
X125342439Y-89908076D01*
X125349884Y-89915199D01*
X125356786Y-89922751D01*
X125363160Y-89930721D01*
X125369020Y-89939103D01*
X125374380Y-89947888D01*
X125379254Y-89957067D01*
X125383656Y-89966632D01*
X125387601Y-89976576D01*
X125391103Y-89986890D01*
X125394176Y-89997565D01*
X125396835Y-90008594D01*
X125399093Y-90019968D01*
X125400964Y-90031680D01*
X125402464Y-90043720D01*
X125403605Y-90056080D01*
X125404403Y-90068753D01*
X125404871Y-90081730D01*
X125405024Y-90095003D01*
X125405024Y-90466496D01*
X125404701Y-90478131D01*
X125403467Y-90489505D01*
X125400923Y-90500220D01*
X125396671Y-90509880D01*
X125390312Y-90518086D01*
X125381448Y-90524439D01*
X125372917Y-90527750D01*
X125362584Y-90529627D01*
X125354612Y-90530000D01*
X125300879Y-90530000D01*
X125291484Y-90529177D01*
X125283363Y-90526849D01*
X125274384Y-90521757D01*
X125267353Y-90514844D01*
X125262088Y-90506598D01*
X125258409Y-90497510D01*
X125255764Y-90485709D01*
X125254961Y-90474312D01*
X125252561Y-90476623D01*
X125244246Y-90484249D01*
X125237766Y-90489782D01*
X125230531Y-90495554D01*
X125222533Y-90501460D01*
X125213766Y-90507397D01*
X125204224Y-90513260D01*
X125193900Y-90518948D01*
X125182789Y-90524354D01*
X125170884Y-90529376D01*
X125158179Y-90533911D01*
X125144667Y-90537853D01*
X125130342Y-90541101D01*
X125115198Y-90543548D01*
X125107317Y-90544440D01*
X125099229Y-90545093D01*
X125090933Y-90545494D01*
X125082428Y-90545631D01*
X125072504Y-90545307D01*
X125062881Y-90544348D01*
X125053562Y-90542780D01*
X125044546Y-90540625D01*
X125035835Y-90537907D01*
X125027429Y-90534649D01*
X125019329Y-90530875D01*
X125011536Y-90526607D01*
X125004052Y-90521869D01*
X124996876Y-90516685D01*
X124990010Y-90511078D01*
X124983455Y-90505072D01*
X124977211Y-90498689D01*
X124971279Y-90491954D01*
X124965660Y-90484889D01*
X124960355Y-90477518D01*
X124955366Y-90469864D01*
X124950691Y-90461951D01*
X124942294Y-90445441D01*
X124935169Y-90428175D01*
X124929324Y-90410340D01*
X124924767Y-90392122D01*
X124921502Y-90373709D01*
X124919539Y-90355289D01*
X124918883Y-90337048D01*
X125065624Y-90337048D01*
X125065709Y-90341844D01*
X125066969Y-90356279D01*
X125068629Y-90365831D01*
X125070927Y-90375222D01*
X125073849Y-90384366D01*
X125077381Y-90393174D01*
X125081507Y-90401560D01*
X125086214Y-90409435D01*
X125091486Y-90416712D01*
X125097309Y-90423303D01*
X125103668Y-90429121D01*
X125110549Y-90434077D01*
X125117938Y-90438084D01*
X125125819Y-90441056D01*
X125134178Y-90442902D01*
X125143000Y-90443538D01*
X125150319Y-90443224D01*
X125158321Y-90442229D01*
X125166848Y-90440474D01*
X125175738Y-90437878D01*
X125184833Y-90434362D01*
X125193974Y-90429846D01*
X125203001Y-90424250D01*
X125211755Y-90417495D01*
X125220075Y-90409501D01*
X125227804Y-90400187D01*
X125234781Y-90389474D01*
X125240847Y-90377283D01*
X125245842Y-90363533D01*
X125249608Y-90348145D01*
X125251984Y-90331039D01*
X125252812Y-90312135D01*
X125252812Y-90201737D01*
X125246258Y-90202433D01*
X125232388Y-90204062D01*
X125217708Y-90206108D01*
X125202467Y-90208695D01*
X125194713Y-90210228D01*
X125186911Y-90211943D01*
X125179093Y-90213853D01*
X125171289Y-90215974D01*
X125163531Y-90218322D01*
X125155849Y-90220912D01*
X125148275Y-90223758D01*
X125140839Y-90226877D01*
X125126506Y-90233992D01*
X125113099Y-90242378D01*
X125100864Y-90252159D01*
X125090051Y-90263455D01*
X125080907Y-90276388D01*
X125073680Y-90291082D01*
X125068617Y-90307657D01*
X125065967Y-90326236D01*
X125065624Y-90336315D01*
X125065624Y-90337048D01*
X124918883Y-90337048D01*
X124918883Y-90336315D01*
X124919558Y-90318806D01*
X124921538Y-90302256D01*
X124924756Y-90286639D01*
X124929144Y-90271927D01*
X124934635Y-90258095D01*
X124941160Y-90245115D01*
X124948653Y-90232960D01*
X124957046Y-90221605D01*
X124966271Y-90211021D01*
X124976261Y-90201183D01*
X124986948Y-90192063D01*
X124998265Y-90183635D01*
X125010144Y-90175873D01*
X125022517Y-90168748D01*
X125035318Y-90162236D01*
X125048478Y-90156308D01*
X125061930Y-90150938D01*
X125075607Y-90146100D01*
X125089440Y-90141766D01*
X125103363Y-90137911D01*
X125117307Y-90134506D01*
X125131206Y-90131526D01*
X125144991Y-90128943D01*
X125158595Y-90126732D01*
X125171951Y-90124864D01*
X125184991Y-90123314D01*
X125197647Y-90122055D01*
X125209853Y-90121060D01*
X125221539Y-90120302D01*
X125232640Y-90119754D01*
X125243086Y-90119390D01*
X125252812Y-90119183D01*
X125252812Y-90089141D01*
X125252694Y-90076578D01*
X125252288Y-90064137D01*
X125251517Y-90051915D01*
X125250305Y-90040006D01*
X125248575Y-90028505D01*
X125246248Y-90017507D01*
X125243249Y-90007106D01*
X125239501Y-89997397D01*
X125234925Y-89988476D01*
X125229447Y-89980436D01*
X125222987Y-89973374D01*
X125215470Y-89967382D01*
X125206819Y-89962557D01*
X125196955Y-89958994D01*
X125185804Y-89956786D01*
X125173286Y-89956029D01*
X125161491Y-89956308D01*
X125150237Y-89957124D01*
X125139509Y-89958439D01*
X125129291Y-89960219D01*
X125119568Y-89962428D01*
X125110323Y-89965030D01*
X125101541Y-89967991D01*
X125093205Y-89971275D01*
X125085301Y-89974846D01*
X125070722Y-89982708D01*
X125057678Y-89991293D01*
X125046041Y-90000319D01*
X125035686Y-90009501D01*
X125026486Y-90018555D01*
X125018314Y-90027197D01*
X125011044Y-90035145D01*
X125004550Y-90042114D01*
X124995985Y-90050112D01*
X124986099Y-90054703D01*
X124981605Y-90053482D01*
X124977306Y-90049085D01*
X124974519Y-90039454D01*
X124972707Y-90028760D01*
X124971128Y-90016018D01*
X124969772Y-90002060D01*
X124968635Y-89987719D01*
X124967709Y-89973830D01*
X124966988Y-89961224D01*
X124966464Y-89950736D01*
X124965973Y-89939176D01*
X124966056Y-89935233D01*
X124967839Y-89924989D01*
X124973404Y-89917514D01*
X124980635Y-89912675D01*
X124989011Y-89907844D01*
X124997431Y-89902784D01*
X125006939Y-89897650D01*
X125016568Y-89892789D01*
X125026335Y-89888206D01*
X125036257Y-89883912D01*
X125046349Y-89879914D01*
X125056628Y-89876221D01*
X125067110Y-89872840D01*
X125077812Y-89869781D01*
X125088749Y-89867050D01*
X125099939Y-89864657D01*
X125111397Y-89862609D01*
X125123140Y-89860915D01*
X125135184Y-89859584D01*
X125147546Y-89858622D01*
X125160241Y-89858039D01*
X125173286Y-89857843D01*
X125189819Y-89858117D01*
G37*
G36*
X125539260Y-90467229D02*
G01*
X125539919Y-90481362D01*
X125541816Y-90493247D01*
X125544828Y-90503073D01*
X125550366Y-90513292D01*
X125557377Y-90520626D01*
X125565570Y-90525518D01*
X125574654Y-90528411D01*
X125584338Y-90529749D01*
X125591821Y-90530000D01*
X125642233Y-90530000D01*
X125653318Y-90529247D01*
X125662702Y-90527074D01*
X125670519Y-90523604D01*
X125678734Y-90517175D01*
X125684715Y-90508956D01*
X125688778Y-90499242D01*
X125691240Y-90488329D01*
X125692416Y-90476510D01*
X125692644Y-90467229D01*
X125692644Y-90153621D01*
X125692829Y-90142517D01*
X125693376Y-90131781D01*
X125694273Y-90121412D01*
X125695506Y-90111410D01*
X125697063Y-90101772D01*
X125701101Y-90083588D01*
X125706285Y-90066853D01*
X125712516Y-90051557D01*
X125719694Y-90037692D01*
X125727718Y-90025252D01*
X125736488Y-90014226D01*
X125745905Y-90004607D01*
X125755867Y-89996387D01*
X125766274Y-89989558D01*
X125777028Y-89984111D01*
X125788026Y-89980038D01*
X125799170Y-89977331D01*
X125810358Y-89975981D01*
X125815938Y-89975812D01*
X125825328Y-89976205D01*
X125833816Y-89977384D01*
X125844946Y-89980634D01*
X125854274Y-89985668D01*
X125861941Y-89992494D01*
X125868084Y-90001122D01*
X125872841Y-90011560D01*
X125876350Y-90023815D01*
X125878749Y-90037897D01*
X125879801Y-90048304D01*
X125880461Y-90059529D01*
X125880772Y-90071575D01*
X125880809Y-90077906D01*
X125880809Y-90467229D01*
X125881233Y-90479954D01*
X125882732Y-90491772D01*
X125885652Y-90502439D01*
X125890334Y-90511712D01*
X125897124Y-90519348D01*
X125906363Y-90525103D01*
X125915107Y-90528039D01*
X125925567Y-90529678D01*
X125933565Y-90530000D01*
X125984954Y-90530000D01*
X125993815Y-90529152D01*
X126001544Y-90526757D01*
X126011184Y-90520745D01*
X126018713Y-90512495D01*
X126024390Y-90502753D01*
X126028478Y-90492264D01*
X126031237Y-90481775D01*
X126032927Y-90472033D01*
X126033969Y-90461493D01*
X126034193Y-90454528D01*
X126034193Y-90164856D01*
X126034215Y-90153557D01*
X126034366Y-90142141D01*
X126034777Y-90130668D01*
X126035577Y-90119202D01*
X126036895Y-90107802D01*
X126038862Y-90096531D01*
X126039860Y-90092072D01*
X126042484Y-90082193D01*
X126045740Y-90072140D01*
X126049627Y-90062025D01*
X126054145Y-90051959D01*
X126059294Y-90042055D01*
X126065074Y-90032425D01*
X126071484Y-90023180D01*
X126078524Y-90014433D01*
X126086193Y-90006296D01*
X126094492Y-89998881D01*
X126103420Y-89992299D01*
X126112977Y-89986662D01*
X126123163Y-89982083D01*
X126133976Y-89978674D01*
X126145418Y-89976547D01*
X126157487Y-89975812D01*
X126168919Y-89976437D01*
X126178950Y-89978257D01*
X126187671Y-89981190D01*
X126195174Y-89985155D01*
X126204345Y-89992858D01*
X126211289Y-90002425D01*
X126216318Y-90013579D01*
X126219739Y-90026044D01*
X126221861Y-90039547D01*
X126222995Y-90053812D01*
X126223353Y-90063608D01*
X126223502Y-90073539D01*
X126223531Y-90083524D01*
X126223531Y-90464298D01*
X126223986Y-90476108D01*
X126224823Y-90486760D01*
X126226861Y-90497672D01*
X126230822Y-90508093D01*
X126237428Y-90517274D01*
X126244551Y-90522894D01*
X126253871Y-90527077D01*
X126265693Y-90529509D01*
X126275115Y-90530000D01*
X126324354Y-90530000D01*
X126335739Y-90529282D01*
X126345367Y-90527200D01*
X126353378Y-90523854D01*
X126361782Y-90517606D01*
X126367888Y-90509538D01*
X126372025Y-90499893D01*
X126374522Y-90488916D01*
X126375709Y-90476848D01*
X126375938Y-90467229D01*
X126375938Y-90100376D01*
X126375933Y-90090485D01*
X126375898Y-90080521D01*
X126375801Y-90070508D01*
X126375614Y-90060473D01*
X126375305Y-90050441D01*
X126374845Y-90040437D01*
X126374202Y-90030487D01*
X126373346Y-90020616D01*
X126372247Y-90010849D01*
X126370876Y-90001212D01*
X126367190Y-89982430D01*
X126362046Y-89964472D01*
X126355202Y-89947541D01*
X126346413Y-89931842D01*
X126341214Y-89924517D01*
X126335438Y-89917576D01*
X126329054Y-89911044D01*
X126322032Y-89904947D01*
X126314342Y-89899310D01*
X126305953Y-89894159D01*
X126296836Y-89889519D01*
X126286959Y-89885414D01*
X126276292Y-89881872D01*
X126264805Y-89878917D01*
X126252467Y-89876574D01*
X126239249Y-89874869D01*
X126225120Y-89873828D01*
X126210048Y-89873475D01*
X126199716Y-89873697D01*
X126189708Y-89874348D01*
X126180023Y-89875405D01*
X126170656Y-89876843D01*
X126161605Y-89878640D01*
X126152865Y-89880773D01*
X126144434Y-89883217D01*
X126136308Y-89885950D01*
X126128485Y-89888948D01*
X126120960Y-89892188D01*
X126106792Y-89899299D01*
X126093779Y-89907096D01*
X126081894Y-89915393D01*
X126071111Y-89924001D01*
X126061402Y-89932735D01*
X126052741Y-89941406D01*
X126045102Y-89949827D01*
X126038458Y-89957813D01*
X126032782Y-89965174D01*
X126026025Y-89974638D01*
X126024228Y-89977278D01*
X126019762Y-89964319D01*
X126014764Y-89952271D01*
X126009198Y-89941124D01*
X126003028Y-89930868D01*
X125996217Y-89921492D01*
X125988728Y-89912985D01*
X125980524Y-89905338D01*
X125971570Y-89898540D01*
X125961827Y-89892581D01*
X125951261Y-89887450D01*
X125939833Y-89883136D01*
X125927508Y-89879630D01*
X125914249Y-89876922D01*
X125900019Y-89875000D01*
X125884781Y-89873854D01*
X125876773Y-89873569D01*
X125868499Y-89873475D01*
X125858474Y-89873685D01*
X125848768Y-89874301D01*
X125839375Y-89875299D01*
X125830292Y-89876659D01*
X125821515Y-89878357D01*
X125813040Y-89880370D01*
X125804864Y-89882677D01*
X125796982Y-89885256D01*
X125789390Y-89888082D01*
X125775064Y-89894392D01*
X125761852Y-89901428D01*
X125749724Y-89909010D01*
X125738650Y-89916960D01*
X125728597Y-89925097D01*
X125719534Y-89933244D01*
X125711431Y-89941220D01*
X125704256Y-89948846D01*
X125697978Y-89955943D01*
X125690173Y-89965204D01*
X125686001Y-89970195D01*
X125686001Y-89942107D01*
X125685643Y-89931531D01*
X125683860Y-89918114D01*
X125680771Y-89907371D01*
X125676587Y-89899004D01*
X125669671Y-89891032D01*
X125661687Y-89886052D01*
X125653135Y-89883360D01*
X125644517Y-89882252D01*
X125636335Y-89882025D01*
X125634417Y-89882023D01*
X125589672Y-89882023D01*
X125581671Y-89882254D01*
X125573222Y-89883363D01*
X125564791Y-89885977D01*
X125556845Y-89890724D01*
X125549852Y-89898231D01*
X125544279Y-89909123D01*
X125541312Y-89919891D01*
X125539603Y-89933181D01*
X125539260Y-89943572D01*
X125539260Y-90467229D01*
G37*
G36*
X126834317Y-89873707D02*
G01*
X126844345Y-89874398D01*
X126854064Y-89875538D01*
X126863479Y-89877117D01*
X126872592Y-89879127D01*
X126881406Y-89881557D01*
X126889926Y-89884398D01*
X126898154Y-89887641D01*
X126906093Y-89891276D01*
X126913747Y-89895293D01*
X126921119Y-89899684D01*
X126928212Y-89904438D01*
X126935030Y-89909547D01*
X126941576Y-89915000D01*
X126953866Y-89926903D01*
X126965106Y-89940071D01*
X126975324Y-89954428D01*
X126984546Y-89969898D01*
X126992798Y-89986407D01*
X126996568Y-89995026D01*
X127000107Y-90003876D01*
X127003415Y-90012948D01*
X127006498Y-90022232D01*
X127009359Y-90031718D01*
X127011999Y-90041398D01*
X127014424Y-90051261D01*
X127016636Y-90061297D01*
X127018416Y-90070703D01*
X127020769Y-90084733D01*
X127022763Y-90098724D01*
X127024425Y-90112737D01*
X127025781Y-90126835D01*
X127026857Y-90141078D01*
X127027678Y-90155529D01*
X127028098Y-90165308D01*
X127028424Y-90175225D01*
X127028664Y-90185298D01*
X127028826Y-90195546D01*
X127028917Y-90205985D01*
X127028946Y-90216636D01*
X127028479Y-90240874D01*
X127027316Y-90263962D01*
X127025480Y-90285925D01*
X127022996Y-90306787D01*
X127019888Y-90326575D01*
X127016180Y-90345312D01*
X127011898Y-90363025D01*
X127007065Y-90379737D01*
X127001705Y-90395473D01*
X126995843Y-90410260D01*
X126989504Y-90424121D01*
X126982712Y-90437081D01*
X126975490Y-90449166D01*
X126967864Y-90460401D01*
X126959858Y-90470810D01*
X126951496Y-90480418D01*
X126942803Y-90489251D01*
X126933803Y-90497333D01*
X126924519Y-90504689D01*
X126914978Y-90511344D01*
X126905202Y-90517324D01*
X126895217Y-90522653D01*
X126885047Y-90527356D01*
X126874716Y-90531457D01*
X126864248Y-90534983D01*
X126853668Y-90537958D01*
X126843000Y-90540406D01*
X126832269Y-90542354D01*
X126821499Y-90543825D01*
X126810714Y-90544845D01*
X126799938Y-90545439D01*
X126789197Y-90545631D01*
X126779326Y-90545404D01*
X126769846Y-90544728D01*
X126760731Y-90543615D01*
X126751956Y-90542074D01*
X126743494Y-90540115D01*
X126735321Y-90537748D01*
X126727409Y-90534984D01*
X126719734Y-90531831D01*
X126712270Y-90528301D01*
X126704990Y-90524403D01*
X126697870Y-90520147D01*
X126690883Y-90515543D01*
X126684004Y-90510602D01*
X126677206Y-90505333D01*
X126670465Y-90499746D01*
X126663754Y-90493852D01*
X126663754Y-90730523D01*
X126663698Y-90735373D01*
X126662865Y-90748542D01*
X126661054Y-90759748D01*
X126658287Y-90769133D01*
X126653151Y-90779058D01*
X126646412Y-90786330D01*
X126638126Y-90791286D01*
X126628346Y-90794259D01*
X126620064Y-90795390D01*
X126610997Y-90795736D01*
X126559609Y-90795736D01*
X126550553Y-90795200D01*
X126542674Y-90793670D01*
X126532885Y-90789767D01*
X126525285Y-90784284D01*
X126518080Y-90775195D01*
X126513619Y-90764930D01*
X126511250Y-90754422D01*
X126510316Y-90744603D01*
X126510174Y-90733210D01*
X126510174Y-90390293D01*
X126663754Y-90390293D01*
X126666929Y-90394542D01*
X126672404Y-90401909D01*
X126679450Y-90410483D01*
X126685865Y-90417224D01*
X126693326Y-90423855D01*
X126701902Y-90430039D01*
X126711662Y-90435438D01*
X126722678Y-90439712D01*
X126730753Y-90441771D01*
X126739437Y-90443079D01*
X126748750Y-90443538D01*
X126755719Y-90443321D01*
X126766160Y-90442171D01*
X126776515Y-90440000D01*
X126786699Y-90436776D01*
X126796631Y-90432467D01*
X126806226Y-90427039D01*
X126815402Y-90420461D01*
X126824076Y-90412699D01*
X126832164Y-90403722D01*
X126839584Y-90393496D01*
X126846252Y-90381988D01*
X126851184Y-90371607D01*
X126855525Y-90361003D01*
X126859315Y-90350209D01*
X126862589Y-90339261D01*
X126865386Y-90328193D01*
X126867743Y-90317039D01*
X126869697Y-90305833D01*
X126871287Y-90294610D01*
X126872549Y-90283405D01*
X126873521Y-90272251D01*
X126874241Y-90261183D01*
X126874746Y-90250235D01*
X126875073Y-90239441D01*
X126875261Y-90228837D01*
X126875346Y-90218455D01*
X126875366Y-90208332D01*
X126875366Y-90191479D01*
X126875296Y-90181511D01*
X126875080Y-90171587D01*
X126874712Y-90161725D01*
X126874181Y-90151942D01*
X126872604Y-90132686D01*
X126870286Y-90113962D01*
X126867161Y-90095914D01*
X126863166Y-90078685D01*
X126858237Y-90062417D01*
X126852309Y-90047254D01*
X126845319Y-90033338D01*
X126837203Y-90020814D01*
X126827896Y-90009824D01*
X126817334Y-90000512D01*
X126805453Y-89993019D01*
X126792189Y-89987490D01*
X126777478Y-89984068D01*
X126769560Y-89983192D01*
X126761256Y-89982896D01*
X126751868Y-89983229D01*
X126743033Y-89984188D01*
X126734727Y-89985713D01*
X126723204Y-89988927D01*
X126712734Y-89993071D01*
X126703234Y-89997939D01*
X126694621Y-90003326D01*
X126686814Y-90009028D01*
X126679730Y-90014838D01*
X126671269Y-90022399D01*
X126663754Y-90029302D01*
X126663754Y-90390293D01*
X126510174Y-90390293D01*
X126510174Y-89953586D01*
X126510505Y-89941559D01*
X126511758Y-89929910D01*
X126514326Y-89919016D01*
X126518600Y-89909256D01*
X126524972Y-89901007D01*
X126533832Y-89894648D01*
X126542346Y-89891345D01*
X126552646Y-89889476D01*
X126560586Y-89889106D01*
X126607676Y-89889106D01*
X126613159Y-89889177D01*
X126622550Y-89889988D01*
X126631884Y-89892436D01*
X126640731Y-89897409D01*
X126647170Y-89903804D01*
X126652803Y-89912839D01*
X126656366Y-89921621D01*
X126659260Y-89932337D01*
X126669776Y-89924552D01*
X126680354Y-89917396D01*
X126690976Y-89910852D01*
X126701621Y-89904902D01*
X126712269Y-89899529D01*
X126722901Y-89894715D01*
X126733497Y-89890443D01*
X126744036Y-89886694D01*
X126754501Y-89883453D01*
X126764870Y-89880700D01*
X126775124Y-89878420D01*
X126785243Y-89876593D01*
X126795208Y-89875202D01*
X126804998Y-89874231D01*
X126814595Y-89873661D01*
X126823977Y-89873475D01*
X126834317Y-89873707D01*
G37*
G36*
X127549672Y-90045422D02*
G01*
X127550012Y-90074214D01*
X127551041Y-90102373D01*
X127552770Y-90129879D01*
X127555211Y-90156715D01*
X127558376Y-90182862D01*
X127562277Y-90208302D01*
X127566926Y-90233016D01*
X127572334Y-90256986D01*
X127578514Y-90280193D01*
X127585477Y-90302620D01*
X127593235Y-90324248D01*
X127601799Y-90345058D01*
X127611183Y-90365032D01*
X127621397Y-90384151D01*
X127632454Y-90402398D01*
X127644364Y-90419754D01*
X127657141Y-90436201D01*
X127670796Y-90451719D01*
X127685341Y-90466292D01*
X127700787Y-90479900D01*
X127717147Y-90492524D01*
X127734432Y-90504148D01*
X127752654Y-90514752D01*
X127771826Y-90524317D01*
X127791958Y-90532826D01*
X127813063Y-90540260D01*
X127835152Y-90546601D01*
X127858238Y-90551830D01*
X127882332Y-90555929D01*
X127907446Y-90558880D01*
X127933591Y-90560664D01*
X127960781Y-90561263D01*
X127969481Y-90561221D01*
X127977930Y-90561094D01*
X127986142Y-90560876D01*
X127994128Y-90560563D01*
X128009476Y-90559636D01*
X128024077Y-90558278D01*
X128038031Y-90556453D01*
X128051442Y-90554127D01*
X128064412Y-90551264D01*
X128077041Y-90547829D01*
X128089432Y-90543788D01*
X128101686Y-90539104D01*
X128113907Y-90533744D01*
X128126195Y-90527672D01*
X128138652Y-90520852D01*
X128151381Y-90513251D01*
X128164482Y-90504832D01*
X128178060Y-90495561D01*
X128185554Y-90490365D01*
X128192516Y-90485214D01*
X128199253Y-90478154D01*
X128203691Y-90468704D01*
X128205024Y-90457704D01*
X128204378Y-90446895D01*
X128203412Y-90435102D01*
X128202633Y-90425006D01*
X128201677Y-90411796D01*
X128200835Y-90399521D01*
X128200530Y-90394933D01*
X128199669Y-90384663D01*
X128198651Y-90372021D01*
X128197599Y-90360742D01*
X128196318Y-90351005D01*
X128194092Y-90341271D01*
X128189122Y-90332816D01*
X128183726Y-90330942D01*
X128174444Y-90333145D01*
X128165008Y-90339169D01*
X128158267Y-90344871D01*
X128150908Y-90351618D01*
X128142713Y-90359149D01*
X128133461Y-90367202D01*
X128122934Y-90375516D01*
X128110911Y-90383830D01*
X128097174Y-90391883D01*
X128089594Y-90395730D01*
X128081503Y-90399414D01*
X128072873Y-90402901D01*
X128063678Y-90406161D01*
X128053889Y-90409159D01*
X128043479Y-90411863D01*
X128032421Y-90414241D01*
X128020687Y-90416260D01*
X128008251Y-90417887D01*
X127995083Y-90419089D01*
X127981158Y-90419834D01*
X127966448Y-90420090D01*
X127947571Y-90419593D01*
X127929582Y-90418117D01*
X127912461Y-90415689D01*
X127896188Y-90412334D01*
X127880746Y-90408076D01*
X127866115Y-90402941D01*
X127852277Y-90396954D01*
X127839212Y-90390140D01*
X127826902Y-90382525D01*
X127815328Y-90374134D01*
X127804471Y-90364991D01*
X127794312Y-90355124D01*
X127784833Y-90344555D01*
X127776014Y-90333311D01*
X127767837Y-90321417D01*
X127760282Y-90308899D01*
X127753332Y-90295780D01*
X127746966Y-90282088D01*
X127741167Y-90267846D01*
X127735915Y-90253080D01*
X127731191Y-90237815D01*
X127726977Y-90222077D01*
X127723254Y-90205890D01*
X127720003Y-90189281D01*
X127717205Y-90172273D01*
X127714842Y-90154893D01*
X127712893Y-90137166D01*
X127711342Y-90119116D01*
X127710167Y-90100770D01*
X127709352Y-90082151D01*
X127708877Y-90063287D01*
X127708722Y-90044200D01*
X127708873Y-90025724D01*
X127709338Y-90007407D01*
X127710136Y-89989277D01*
X127711285Y-89971364D01*
X127712804Y-89953694D01*
X127714712Y-89936295D01*
X127717027Y-89919196D01*
X127719768Y-89902425D01*
X127722955Y-89886010D01*
X127726604Y-89869978D01*
X127730736Y-89854357D01*
X127735369Y-89839177D01*
X127740521Y-89824464D01*
X127746211Y-89810246D01*
X127752458Y-89796552D01*
X127759281Y-89783410D01*
X127766698Y-89770848D01*
X127774727Y-89758893D01*
X127783389Y-89747573D01*
X127792700Y-89736917D01*
X127802680Y-89726953D01*
X127813348Y-89717708D01*
X127824723Y-89709211D01*
X127836822Y-89701490D01*
X127849664Y-89694572D01*
X127863270Y-89688485D01*
X127877655Y-89683258D01*
X127892841Y-89678919D01*
X127908845Y-89675495D01*
X127925686Y-89673015D01*
X127943383Y-89671507D01*
X127961953Y-89670997D01*
X127973784Y-89671257D01*
X127985140Y-89672015D01*
X127996032Y-89673237D01*
X128006471Y-89674891D01*
X128016466Y-89676943D01*
X128026030Y-89679360D01*
X128035172Y-89682108D01*
X128043903Y-89685156D01*
X128052234Y-89688469D01*
X128060176Y-89692014D01*
X128067739Y-89695758D01*
X128074933Y-89699668D01*
X128088261Y-89707854D01*
X128100244Y-89716304D01*
X128110967Y-89724755D01*
X128120517Y-89732941D01*
X128128977Y-89740595D01*
X128136434Y-89747453D01*
X128142973Y-89753249D01*
X128151247Y-89759372D01*
X128157934Y-89761612D01*
X128165500Y-89756524D01*
X128169507Y-89746835D01*
X128172188Y-89735823D01*
X128174316Y-89723984D01*
X128174738Y-89721311D01*
X128176955Y-89706280D01*
X128178994Y-89692556D01*
X128180860Y-89680076D01*
X128182557Y-89668773D01*
X128184090Y-89658581D01*
X128186093Y-89645236D01*
X128187756Y-89634025D01*
X128189471Y-89622014D01*
X128190862Y-89610983D01*
X128191542Y-89601144D01*
X128189797Y-89591290D01*
X128188220Y-89587222D01*
X128182156Y-89580101D01*
X128174414Y-89575530D01*
X128165787Y-89571817D01*
X128162428Y-89570369D01*
X128150085Y-89565766D01*
X128138196Y-89561394D01*
X128126661Y-89557263D01*
X128115378Y-89553383D01*
X128104247Y-89549762D01*
X128093168Y-89546408D01*
X128082040Y-89543332D01*
X128070764Y-89540541D01*
X128059237Y-89538045D01*
X128047361Y-89535853D01*
X128035034Y-89533974D01*
X128022156Y-89532416D01*
X128008627Y-89531189D01*
X127994346Y-89530302D01*
X127979212Y-89529762D01*
X127971294Y-89529626D01*
X127963126Y-89529581D01*
X127943219Y-89529891D01*
X127923417Y-89530847D01*
X127903755Y-89532486D01*
X127884268Y-89534846D01*
X127864990Y-89537963D01*
X127845955Y-89541876D01*
X127827199Y-89546622D01*
X127808755Y-89552238D01*
X127790659Y-89558762D01*
X127772944Y-89566231D01*
X127755645Y-89574682D01*
X127738798Y-89584153D01*
X127722435Y-89594682D01*
X127706592Y-89606306D01*
X127691304Y-89619062D01*
X127676605Y-89632987D01*
X127662528Y-89648120D01*
X127649110Y-89664497D01*
X127636385Y-89682156D01*
X127624386Y-89701135D01*
X127613149Y-89721471D01*
X127602707Y-89743201D01*
X127593097Y-89766362D01*
X127584351Y-89790993D01*
X127576505Y-89817131D01*
X127569593Y-89844812D01*
X127563650Y-89874075D01*
X127558710Y-89904957D01*
X127554807Y-89937495D01*
X127551977Y-89971727D01*
X127550254Y-90007690D01*
X127549672Y-90045422D01*
G37*
G36*
X128570055Y-89857894D02*
G01*
X128580826Y-89858087D01*
X128591931Y-89858479D01*
X128603324Y-89859130D01*
X128614957Y-89860097D01*
X128626784Y-89861438D01*
X128638759Y-89863213D01*
X128650834Y-89865480D01*
X128662964Y-89868296D01*
X128675102Y-89871720D01*
X128687201Y-89875812D01*
X128699215Y-89880628D01*
X128711097Y-89886227D01*
X128722800Y-89892669D01*
X128734278Y-89900010D01*
X128745484Y-89908310D01*
X128756373Y-89917626D01*
X128766896Y-89928018D01*
X128777008Y-89939544D01*
X128786662Y-89952261D01*
X128795811Y-89966228D01*
X128804409Y-89981504D01*
X128812409Y-89998147D01*
X128819765Y-90016216D01*
X128826430Y-90035768D01*
X128832357Y-90056862D01*
X128837500Y-90079556D01*
X128841813Y-90103910D01*
X128845248Y-90129980D01*
X128847760Y-90157826D01*
X128849301Y-90187506D01*
X128849825Y-90219078D01*
X128849435Y-90243094D01*
X128848282Y-90265974D01*
X128846388Y-90287742D01*
X128843780Y-90308424D01*
X128840479Y-90328042D01*
X128836511Y-90346622D01*
X128831899Y-90364189D01*
X128826668Y-90380767D01*
X128820841Y-90396380D01*
X128814442Y-90411053D01*
X128807496Y-90424811D01*
X128800026Y-90437678D01*
X128792056Y-90449678D01*
X128783611Y-90460836D01*
X128774715Y-90471176D01*
X128765390Y-90480724D01*
X128755662Y-90489502D01*
X128745555Y-90497537D01*
X128735092Y-90504853D01*
X128724298Y-90511473D01*
X128713196Y-90517423D01*
X128701810Y-90522727D01*
X128690165Y-90527410D01*
X128678284Y-90531495D01*
X128666192Y-90535009D01*
X128653912Y-90537974D01*
X128641469Y-90540416D01*
X128628886Y-90542359D01*
X128616188Y-90543827D01*
X128603399Y-90544846D01*
X128590541Y-90545439D01*
X128577641Y-90545631D01*
X128564132Y-90545434D01*
X128550730Y-90544828D01*
X128537456Y-90543787D01*
X128524331Y-90542287D01*
X128511377Y-90540303D01*
X128498613Y-90537810D01*
X128486063Y-90534783D01*
X128473746Y-90531198D01*
X128461684Y-90527030D01*
X128449898Y-90522253D01*
X128438408Y-90516844D01*
X128427237Y-90510778D01*
X128416405Y-90504029D01*
X128405933Y-90496573D01*
X128395842Y-90488386D01*
X128386154Y-90479441D01*
X128376890Y-90469716D01*
X128368070Y-90459184D01*
X128359717Y-90447821D01*
X128351850Y-90435603D01*
X128344491Y-90422504D01*
X128337661Y-90408499D01*
X128331382Y-90393565D01*
X128325674Y-90377676D01*
X128320558Y-90360807D01*
X128316056Y-90342934D01*
X128312189Y-90324032D01*
X128308977Y-90304076D01*
X128306443Y-90283041D01*
X128304606Y-90260903D01*
X128303489Y-90237636D01*
X128303331Y-90227383D01*
X128456692Y-90227383D01*
X128457112Y-90243577D01*
X128457679Y-90260489D01*
X128458564Y-90277876D01*
X128459937Y-90295496D01*
X128461968Y-90313104D01*
X128464828Y-90330457D01*
X128468687Y-90347312D01*
X128473715Y-90363426D01*
X128480083Y-90378555D01*
X128487961Y-90392456D01*
X128497518Y-90404887D01*
X128508926Y-90415602D01*
X128522355Y-90424360D01*
X128529880Y-90427929D01*
X128537975Y-90430917D01*
X128546659Y-90433294D01*
X128555956Y-90435030D01*
X128565885Y-90436093D01*
X128576468Y-90436454D01*
X128587554Y-90436068D01*
X128597928Y-90434931D01*
X128607615Y-90433073D01*
X128616638Y-90430528D01*
X128625021Y-90427325D01*
X128632788Y-90423497D01*
X128646569Y-90414091D01*
X128658172Y-90402561D01*
X128667786Y-90389159D01*
X128675602Y-90374137D01*
X128681810Y-90357747D01*
X128686601Y-90340241D01*
X128690165Y-90321870D01*
X128692693Y-90302887D01*
X128694374Y-90283543D01*
X128695399Y-90264091D01*
X128695958Y-90244781D01*
X128696242Y-90225867D01*
X128696441Y-90207599D01*
X128696441Y-90169253D01*
X128696330Y-90161390D01*
X128696042Y-90145016D01*
X128695515Y-90127986D01*
X128694571Y-90110550D01*
X128693034Y-90092958D01*
X128690726Y-90075459D01*
X128687470Y-90058303D01*
X128683087Y-90041740D01*
X128677401Y-90026020D01*
X128670234Y-90011392D01*
X128661409Y-89998106D01*
X128650748Y-89986411D01*
X128638073Y-89976559D01*
X128630926Y-89972401D01*
X128623208Y-89968797D01*
X128614899Y-89965778D01*
X128605975Y-89963376D01*
X128596415Y-89961622D01*
X128586196Y-89960546D01*
X128575296Y-89960181D01*
X128564314Y-89960559D01*
X128554032Y-89961675D01*
X128544427Y-89963498D01*
X128535474Y-89965997D01*
X128527152Y-89969144D01*
X128519438Y-89972908D01*
X128512308Y-89977259D01*
X128499708Y-89987601D01*
X128489171Y-89999932D01*
X128480511Y-90014011D01*
X128473544Y-90029597D01*
X128468087Y-90046451D01*
X128463955Y-90064333D01*
X128460964Y-90083003D01*
X128458930Y-90102220D01*
X128458215Y-90111959D01*
X128457670Y-90121745D01*
X128457273Y-90131547D01*
X128456827Y-90151083D01*
X128456695Y-90170326D01*
X128456692Y-90189036D01*
X128456692Y-90227383D01*
X128303331Y-90227383D01*
X128303112Y-90213217D01*
X128303488Y-90187227D01*
X128304602Y-90162455D01*
X128306428Y-90138875D01*
X128308942Y-90116462D01*
X128312120Y-90095189D01*
X128315938Y-90075031D01*
X128320370Y-90055963D01*
X128325393Y-90037957D01*
X128330982Y-90020989D01*
X128337113Y-90005033D01*
X128343761Y-89990063D01*
X128350902Y-89976053D01*
X128358511Y-89962978D01*
X128366565Y-89950811D01*
X128375039Y-89939527D01*
X128383907Y-89929101D01*
X128393147Y-89919506D01*
X128402733Y-89910717D01*
X128412642Y-89902708D01*
X128422848Y-89895453D01*
X128433328Y-89888926D01*
X128444056Y-89883102D01*
X128455009Y-89877955D01*
X128466162Y-89873459D01*
X128477491Y-89869589D01*
X128488971Y-89866318D01*
X128500579Y-89863621D01*
X128512288Y-89861472D01*
X128524076Y-89859846D01*
X128535918Y-89858716D01*
X128547789Y-89858057D01*
X128559665Y-89857843D01*
X128570055Y-89857894D01*
G37*
G36*
X128951625Y-90467229D02*
G01*
X128952308Y-90481362D01*
X128954266Y-90493247D01*
X128957361Y-90503073D01*
X128963019Y-90513292D01*
X128970130Y-90520626D01*
X128978369Y-90525518D01*
X128987411Y-90528411D01*
X128996930Y-90529749D01*
X129004187Y-90530000D01*
X129053426Y-90530000D01*
X129062506Y-90529168D01*
X129070453Y-90526820D01*
X129080413Y-90520925D01*
X129088248Y-90512835D01*
X129094212Y-90503282D01*
X129098562Y-90492997D01*
X129101551Y-90482712D01*
X129103436Y-90473158D01*
X129104670Y-90462824D01*
X129105010Y-90455994D01*
X129105010Y-90164856D01*
X129105108Y-90152967D01*
X129105449Y-90141107D01*
X129106105Y-90129272D01*
X129107147Y-90117456D01*
X129108647Y-90105653D01*
X129110677Y-90093858D01*
X129111653Y-90089141D01*
X129115193Y-90076298D01*
X129118322Y-90067197D01*
X129122082Y-90057831D01*
X129126483Y-90048340D01*
X129131539Y-90038865D01*
X129137260Y-90029547D01*
X129143660Y-90020528D01*
X129150749Y-90011947D01*
X129158541Y-90003946D01*
X129167047Y-89996666D01*
X129176279Y-89990248D01*
X129186249Y-89984833D01*
X129196969Y-89980562D01*
X129208452Y-89977575D01*
X129220709Y-89976014D01*
X129227131Y-89975812D01*
X129238757Y-89976470D01*
X129248931Y-89978380D01*
X129257751Y-89981451D01*
X129265313Y-89985590D01*
X129274509Y-89993600D01*
X129281420Y-90003494D01*
X129286372Y-90014961D01*
X129289692Y-90027690D01*
X129291705Y-90041369D01*
X129292739Y-90055686D01*
X129293120Y-90070330D01*
X129293173Y-90080120D01*
X129293175Y-90084989D01*
X129293175Y-90468450D01*
X129293596Y-90481193D01*
X129295080Y-90492905D01*
X129297956Y-90503381D01*
X129302554Y-90512414D01*
X129309203Y-90519799D01*
X129318234Y-90525328D01*
X129326768Y-90528135D01*
X129336967Y-90529695D01*
X129344759Y-90530000D01*
X129397320Y-90530000D01*
X129405429Y-90529555D01*
X129415810Y-90527350D01*
X129424232Y-90523542D01*
X129430901Y-90518408D01*
X129437415Y-90509975D01*
X129441657Y-90500326D01*
X129444109Y-90490112D01*
X129445253Y-90479987D01*
X129445582Y-90468450D01*
X129445582Y-90098911D01*
X129445542Y-90079796D01*
X129445258Y-90060333D01*
X129444949Y-90050539D01*
X129444489Y-90040739D01*
X129443846Y-90030962D01*
X129442990Y-90021234D01*
X129440520Y-90002035D01*
X129436834Y-89983360D01*
X129431691Y-89965428D01*
X129424846Y-89948457D01*
X129416057Y-89932666D01*
X129410858Y-89925280D01*
X129405082Y-89918271D01*
X129398698Y-89911666D01*
X129391676Y-89905493D01*
X129383986Y-89899778D01*
X129375597Y-89894548D01*
X129366480Y-89889832D01*
X129356603Y-89885656D01*
X129345936Y-89882048D01*
X129334449Y-89879034D01*
X129322112Y-89876643D01*
X129308893Y-89874901D01*
X129294764Y-89873836D01*
X129279692Y-89873475D01*
X129271306Y-89873613D01*
X129263145Y-89874022D01*
X129255202Y-89874692D01*
X129239955Y-89876787D01*
X129225527Y-89879829D01*
X129211878Y-89883750D01*
X129198970Y-89888483D01*
X129186764Y-89893961D01*
X129175221Y-89900115D01*
X129164301Y-89906879D01*
X129153967Y-89914184D01*
X129144179Y-89921962D01*
X129134898Y-89930148D01*
X129126085Y-89938671D01*
X129117702Y-89947466D01*
X129109709Y-89956464D01*
X129102068Y-89965598D01*
X129098367Y-89970195D01*
X129098367Y-89942107D01*
X129098008Y-89931531D01*
X129096226Y-89918114D01*
X129093137Y-89907371D01*
X129088953Y-89899004D01*
X129082037Y-89891032D01*
X129074053Y-89886052D01*
X129065501Y-89883360D01*
X129056883Y-89882252D01*
X129048701Y-89882025D01*
X129046782Y-89882023D01*
X129002037Y-89882023D01*
X128993756Y-89882317D01*
X128985175Y-89883592D01*
X128976727Y-89886441D01*
X128968845Y-89891457D01*
X128961960Y-89899232D01*
X128956507Y-89910359D01*
X128953617Y-89921260D01*
X128951958Y-89934630D01*
X128951625Y-89945038D01*
X128951625Y-90467229D01*
G37*
G36*
X129537418Y-89939665D02*
G01*
X129538127Y-89950157D01*
X129540463Y-89960647D01*
X129545258Y-89971325D01*
X129551414Y-89979118D01*
X129560086Y-89985517D01*
X129568494Y-89988998D01*
X129578730Y-89991032D01*
X129586657Y-89991444D01*
X129610104Y-89991444D01*
X129610104Y-90317508D01*
X129610113Y-90329698D01*
X129610171Y-90341818D01*
X129610330Y-90353875D01*
X129610640Y-90365877D01*
X129611151Y-90377830D01*
X129611913Y-90389742D01*
X129612976Y-90401621D01*
X129614391Y-90413473D01*
X129616207Y-90425305D01*
X129618476Y-90437126D01*
X129620265Y-90445003D01*
X129624122Y-90458812D01*
X129628495Y-90471416D01*
X129633352Y-90482859D01*
X129638662Y-90493184D01*
X129644397Y-90502434D01*
X129650524Y-90510652D01*
X129657015Y-90517883D01*
X129663838Y-90524168D01*
X129670963Y-90529552D01*
X129678360Y-90534078D01*
X129685999Y-90537788D01*
X129693849Y-90540727D01*
X129701880Y-90542938D01*
X129710061Y-90544463D01*
X129718363Y-90545346D01*
X129726755Y-90545631D01*
X129734628Y-90545502D01*
X129742696Y-90545120D01*
X129750929Y-90544496D01*
X129759298Y-90543639D01*
X129767773Y-90542560D01*
X129776326Y-90541266D01*
X129784928Y-90539769D01*
X129793549Y-90538079D01*
X129802160Y-90536203D01*
X129810733Y-90534154D01*
X129819237Y-90531939D01*
X129827644Y-90529570D01*
X129835926Y-90527055D01*
X129844051Y-90524404D01*
X129851993Y-90521627D01*
X129859720Y-90518734D01*
X129867205Y-90515734D01*
X129881331Y-90509453D01*
X129894136Y-90502863D01*
X129905387Y-90496040D01*
X129914853Y-90489062D01*
X129922299Y-90482007D01*
X129929172Y-90471450D01*
X129930551Y-90464542D01*
X129928884Y-90452521D01*
X129926821Y-90440199D01*
X129924747Y-90429676D01*
X129922228Y-90418899D01*
X129919270Y-90408629D01*
X129915878Y-90399627D01*
X129910692Y-90390912D01*
X129904759Y-90387606D01*
X129896579Y-90390811D01*
X129888015Y-90397024D01*
X129880414Y-90403062D01*
X129871803Y-90409743D01*
X129862183Y-90416586D01*
X129855208Y-90420998D01*
X129847785Y-90425125D01*
X129839912Y-90428822D01*
X129831591Y-90431946D01*
X129822821Y-90434356D01*
X129813603Y-90435906D01*
X129803935Y-90436454D01*
X129795550Y-90435747D01*
X129785639Y-90432286D01*
X129777183Y-90425374D01*
X129771799Y-90417550D01*
X129767238Y-90407171D01*
X129763502Y-90393974D01*
X129761470Y-90383481D01*
X129759807Y-90371539D01*
X129758512Y-90358072D01*
X129757586Y-90343002D01*
X129757031Y-90326250D01*
X129756845Y-90307739D01*
X129757071Y-90297458D01*
X129757541Y-90287399D01*
X129757941Y-90277203D01*
X129758018Y-90271346D01*
X129758018Y-89991444D01*
X129862163Y-89991444D01*
X129873195Y-89990194D01*
X129882434Y-89987450D01*
X129890035Y-89983479D01*
X129897888Y-89976743D01*
X129903470Y-89968944D01*
X129907811Y-89958673D01*
X129909891Y-89948987D01*
X129910425Y-89941130D01*
X129909262Y-89929664D01*
X129906273Y-89919088D01*
X129901999Y-89910355D01*
X129895627Y-89902218D01*
X129886767Y-89895449D01*
X129878253Y-89891735D01*
X129867953Y-89889551D01*
X129860013Y-89889106D01*
X129758018Y-89889106D01*
X129758018Y-89768939D01*
X129757462Y-89756554D01*
X129755664Y-89744873D01*
X129752423Y-89734189D01*
X129747540Y-89724792D01*
X129740816Y-89716975D01*
X129732052Y-89711030D01*
X129724020Y-89707976D01*
X129714644Y-89706262D01*
X129707606Y-89705924D01*
X129667355Y-89705924D01*
X129657439Y-89706240D01*
X129648648Y-89707534D01*
X129639728Y-89710508D01*
X129631267Y-89715857D01*
X129623850Y-89724276D01*
X129619324Y-89733024D01*
X129615964Y-89744183D01*
X129614014Y-89758048D01*
X129613621Y-89768939D01*
X129613621Y-89889106D01*
X129586657Y-89889106D01*
X129578730Y-89889505D01*
X129568494Y-89891473D01*
X129560086Y-89894842D01*
X129551414Y-89901046D01*
X129545258Y-89908615D01*
X129540463Y-89919015D01*
X129538127Y-89929285D01*
X129537418Y-89939665D01*
G37*
G36*
X130033524Y-90469916D02*
G01*
X130033806Y-90480141D01*
X130034943Y-90490535D01*
X130037367Y-90500626D01*
X130041510Y-90509941D01*
X130047806Y-90518008D01*
X130056687Y-90524355D01*
X130065304Y-90527702D01*
X130075802Y-90529617D01*
X130083935Y-90530000D01*
X130132198Y-90530000D01*
X130141166Y-90529840D01*
X130149187Y-90528910D01*
X130157292Y-90525551D01*
X130163461Y-90521695D01*
X130169495Y-90515464D01*
X130175214Y-90508615D01*
X130179804Y-90500314D01*
X130182411Y-90490116D01*
X130183447Y-90478789D01*
X130183751Y-90467079D01*
X130183782Y-90460146D01*
X130183782Y-90215170D01*
X130183804Y-90205024D01*
X130183957Y-90195103D01*
X130184373Y-90185273D01*
X130185183Y-90175397D01*
X130186519Y-90165341D01*
X130187103Y-90161926D01*
X130189554Y-90150280D01*
X130192704Y-90138986D01*
X130196515Y-90128064D01*
X130200949Y-90117534D01*
X130205968Y-90107417D01*
X130211534Y-90097732D01*
X130217609Y-90088499D01*
X130224155Y-90079738D01*
X130231134Y-90071469D01*
X130238507Y-90063713D01*
X130246237Y-90056489D01*
X130254286Y-90049818D01*
X130262615Y-90043719D01*
X130271186Y-90038213D01*
X130279962Y-90033319D01*
X130288904Y-90029057D01*
X130298906Y-90025282D01*
X130308062Y-90022473D01*
X130316424Y-90020425D01*
X130326428Y-90018525D01*
X130335231Y-90017127D01*
X130344735Y-90015345D01*
X130352791Y-90012637D01*
X130359637Y-90008053D01*
X130363728Y-89999240D01*
X130365026Y-89989153D01*
X130365108Y-89982896D01*
X130365108Y-89904494D01*
X130364777Y-89894285D01*
X130362548Y-89883661D01*
X130356917Y-89876684D01*
X130348032Y-89873769D01*
X130342833Y-89873475D01*
X130341660Y-89873475D01*
X130331291Y-89874107D01*
X130320207Y-89875787D01*
X130311486Y-89877709D01*
X130301851Y-89880418D01*
X130291432Y-89884033D01*
X130280358Y-89888679D01*
X130268759Y-89894477D01*
X130256764Y-89901550D01*
X130244504Y-89910021D01*
X130232107Y-89920010D01*
X130219704Y-89931642D01*
X130213541Y-89938111D01*
X130207425Y-89945037D01*
X130201371Y-89952435D01*
X130195398Y-89960319D01*
X130189520Y-89968706D01*
X130183754Y-89977611D01*
X130178115Y-89987048D01*
X130177907Y-89974688D01*
X130177709Y-89963817D01*
X130177398Y-89950034D01*
X130177020Y-89938919D01*
X130176317Y-89927541D01*
X130174936Y-89917493D01*
X130171606Y-89907828D01*
X130166978Y-89900097D01*
X130160671Y-89892715D01*
X130153736Y-89886961D01*
X130145376Y-89883685D01*
X130137437Y-89882514D01*
X130129353Y-89882102D01*
X130122037Y-89882023D01*
X130085108Y-89882023D01*
X130076159Y-89882256D01*
X130067156Y-89883386D01*
X130058482Y-89886055D01*
X130050523Y-89890908D01*
X130043663Y-89898588D01*
X130038286Y-89909741D01*
X130035459Y-89920771D01*
X130033845Y-89934388D01*
X130033524Y-89945038D01*
X130033524Y-90469916D01*
G37*
G36*
X130683440Y-89857894D02*
G01*
X130694211Y-89858087D01*
X130705316Y-89858479D01*
X130716708Y-89859130D01*
X130728341Y-89860097D01*
X130740168Y-89861438D01*
X130752143Y-89863213D01*
X130764219Y-89865480D01*
X130776349Y-89868296D01*
X130788487Y-89871720D01*
X130800586Y-89875812D01*
X130812599Y-89880628D01*
X130824481Y-89886227D01*
X130836184Y-89892669D01*
X130847663Y-89900010D01*
X130858869Y-89908310D01*
X130869757Y-89917626D01*
X130880280Y-89928018D01*
X130890392Y-89939544D01*
X130900046Y-89952261D01*
X130909195Y-89966228D01*
X130917793Y-89981504D01*
X130925793Y-89998147D01*
X130933149Y-90016216D01*
X130939814Y-90035768D01*
X130945742Y-90056862D01*
X130950885Y-90079556D01*
X130955198Y-90103910D01*
X130958633Y-90129980D01*
X130961144Y-90157826D01*
X130962686Y-90187506D01*
X130963210Y-90219078D01*
X130962820Y-90243094D01*
X130961666Y-90265974D01*
X130959773Y-90287742D01*
X130957164Y-90308424D01*
X130953864Y-90328042D01*
X130949895Y-90346622D01*
X130945284Y-90364189D01*
X130940052Y-90380767D01*
X130934225Y-90396380D01*
X130927827Y-90411053D01*
X130920880Y-90424811D01*
X130913410Y-90437678D01*
X130905441Y-90449678D01*
X130896996Y-90460836D01*
X130888099Y-90471176D01*
X130878775Y-90480724D01*
X130869047Y-90489502D01*
X130858940Y-90497537D01*
X130848477Y-90504853D01*
X130837682Y-90511473D01*
X130826580Y-90517423D01*
X130815194Y-90522727D01*
X130803549Y-90527410D01*
X130791669Y-90531495D01*
X130779576Y-90535009D01*
X130767297Y-90537974D01*
X130754854Y-90540416D01*
X130742271Y-90542359D01*
X130729573Y-90543827D01*
X130716783Y-90544846D01*
X130703926Y-90545439D01*
X130691025Y-90545631D01*
X130677516Y-90545434D01*
X130664114Y-90544828D01*
X130650840Y-90543787D01*
X130637716Y-90542287D01*
X130624761Y-90540303D01*
X130611998Y-90537810D01*
X130599447Y-90534783D01*
X130587131Y-90531198D01*
X130575068Y-90527030D01*
X130563282Y-90522253D01*
X130551793Y-90516844D01*
X130540621Y-90510778D01*
X130529789Y-90504029D01*
X130519317Y-90496573D01*
X130509227Y-90488386D01*
X130499539Y-90479441D01*
X130490275Y-90469716D01*
X130481455Y-90459184D01*
X130473101Y-90447821D01*
X130465234Y-90435603D01*
X130457875Y-90422504D01*
X130451046Y-90408499D01*
X130444766Y-90393565D01*
X130439058Y-90377676D01*
X130433943Y-90360807D01*
X130429441Y-90342934D01*
X130425573Y-90324032D01*
X130422362Y-90304076D01*
X130419827Y-90283041D01*
X130417991Y-90260903D01*
X130416874Y-90237636D01*
X130416715Y-90227383D01*
X130570076Y-90227383D01*
X130570496Y-90243577D01*
X130571064Y-90260489D01*
X130571949Y-90277876D01*
X130573322Y-90295496D01*
X130575353Y-90313104D01*
X130578213Y-90330457D01*
X130582072Y-90347312D01*
X130587100Y-90363426D01*
X130593468Y-90378555D01*
X130601345Y-90392456D01*
X130610903Y-90404887D01*
X130622311Y-90415602D01*
X130635739Y-90424360D01*
X130643265Y-90427929D01*
X130651359Y-90430917D01*
X130660044Y-90433294D01*
X130669340Y-90435030D01*
X130679269Y-90436093D01*
X130689853Y-90436454D01*
X130700938Y-90436068D01*
X130711312Y-90434931D01*
X130720999Y-90433073D01*
X130730022Y-90430528D01*
X130738405Y-90427325D01*
X130746172Y-90423497D01*
X130759954Y-90414091D01*
X130771556Y-90402561D01*
X130781170Y-90389159D01*
X130788986Y-90374137D01*
X130795195Y-90357747D01*
X130799986Y-90340241D01*
X130803550Y-90321870D01*
X130806077Y-90302887D01*
X130807758Y-90283543D01*
X130808783Y-90264091D01*
X130809342Y-90244781D01*
X130809626Y-90225867D01*
X130809825Y-90207599D01*
X130809825Y-90169253D01*
X130809715Y-90161390D01*
X130809426Y-90145016D01*
X130808899Y-90127986D01*
X130807956Y-90110550D01*
X130806419Y-90092958D01*
X130804111Y-90075459D01*
X130800854Y-90058303D01*
X130796472Y-90041740D01*
X130790786Y-90026020D01*
X130783619Y-90011392D01*
X130774793Y-89998106D01*
X130764132Y-89986411D01*
X130751458Y-89976559D01*
X130744310Y-89972401D01*
X130736593Y-89968797D01*
X130728283Y-89965778D01*
X130719359Y-89963376D01*
X130709799Y-89961622D01*
X130699580Y-89960546D01*
X130688681Y-89960181D01*
X130677699Y-89960559D01*
X130667417Y-89961675D01*
X130657811Y-89963498D01*
X130648859Y-89965997D01*
X130640537Y-89969144D01*
X130632822Y-89972908D01*
X130625692Y-89977259D01*
X130613093Y-89987601D01*
X130602555Y-89999932D01*
X130593895Y-90014011D01*
X130586928Y-90029597D01*
X130581471Y-90046451D01*
X130577339Y-90064333D01*
X130574348Y-90083003D01*
X130572315Y-90102220D01*
X130571600Y-90111959D01*
X130571055Y-90121745D01*
X130570657Y-90131547D01*
X130570212Y-90151083D01*
X130570079Y-90170326D01*
X130570076Y-90189036D01*
X130570076Y-90227383D01*
X130416715Y-90227383D01*
X130416496Y-90213217D01*
X130416873Y-90187227D01*
X130417987Y-90162455D01*
X130419813Y-90138875D01*
X130422327Y-90116462D01*
X130425505Y-90095189D01*
X130429322Y-90075031D01*
X130433755Y-90055963D01*
X130438777Y-90037957D01*
X130444366Y-90020989D01*
X130450497Y-90005033D01*
X130457145Y-89990063D01*
X130464286Y-89976053D01*
X130471896Y-89962978D01*
X130479950Y-89950811D01*
X130488423Y-89939527D01*
X130497292Y-89929101D01*
X130506532Y-89919506D01*
X130516118Y-89910717D01*
X130526026Y-89902708D01*
X130536233Y-89895453D01*
X130546712Y-89888926D01*
X130557441Y-89883102D01*
X130568394Y-89877955D01*
X130579547Y-89873459D01*
X130590876Y-89869589D01*
X130602356Y-89866318D01*
X130613963Y-89863621D01*
X130625673Y-89861472D01*
X130637461Y-89859846D01*
X130649302Y-89858716D01*
X130661173Y-89858057D01*
X130673049Y-89857843D01*
X130683440Y-89857894D01*
G37*
G36*
X131065987Y-90466741D02*
G01*
X131066273Y-90476749D01*
X131067726Y-90489719D01*
X131070319Y-90500427D01*
X131073950Y-90509084D01*
X131080231Y-90517801D01*
X131087937Y-90523748D01*
X131096828Y-90527426D01*
X131106662Y-90529336D01*
X131114512Y-90529909D01*
X131119916Y-90530000D01*
X131165833Y-90530000D01*
X131174321Y-90529202D01*
X131185181Y-90526938D01*
X131193989Y-90523462D01*
X131200956Y-90518849D01*
X131207756Y-90511062D01*
X131212176Y-90501570D01*
X131214724Y-90490553D01*
X131215908Y-90478191D01*
X131216207Y-90468146D01*
X131216245Y-90461123D01*
X131216245Y-89577452D01*
X131215638Y-89563866D01*
X131213879Y-89552274D01*
X131211065Y-89542532D01*
X131205836Y-89532174D01*
X131199128Y-89524510D01*
X131191166Y-89519199D01*
X131182178Y-89515901D01*
X131172390Y-89514276D01*
X131164661Y-89513949D01*
X131113077Y-89513949D01*
X131104692Y-89514611D01*
X131094781Y-89517491D01*
X131086325Y-89522547D01*
X131079329Y-89529662D01*
X131073797Y-89538718D01*
X131069734Y-89549598D01*
X131067145Y-89562185D01*
X131066172Y-89572674D01*
X131065987Y-89580139D01*
X131065987Y-90466741D01*
G37*
G36*
X131351263Y-90466741D02*
G01*
X131351548Y-90476749D01*
X131353002Y-90489719D01*
X131355595Y-90500427D01*
X131359226Y-90509084D01*
X131365507Y-90517801D01*
X131373213Y-90523748D01*
X131382103Y-90527426D01*
X131391937Y-90529336D01*
X131399788Y-90529909D01*
X131405191Y-90530000D01*
X131451109Y-90530000D01*
X131459596Y-90529202D01*
X131470457Y-90526938D01*
X131479264Y-90523462D01*
X131486232Y-90518849D01*
X131493032Y-90511062D01*
X131497452Y-90501570D01*
X131499999Y-90490553D01*
X131501184Y-90478191D01*
X131501483Y-90468146D01*
X131501521Y-90461123D01*
X131501521Y-89577452D01*
X131500913Y-89563866D01*
X131499155Y-89552274D01*
X131496341Y-89542532D01*
X131491112Y-89532174D01*
X131484403Y-89524510D01*
X131476442Y-89519199D01*
X131467454Y-89515901D01*
X131457666Y-89514276D01*
X131449937Y-89513949D01*
X131398353Y-89513949D01*
X131389967Y-89514611D01*
X131380056Y-89517491D01*
X131371600Y-89522547D01*
X131364604Y-89529662D01*
X131359073Y-89538718D01*
X131355010Y-89549598D01*
X131352420Y-89562185D01*
X131351448Y-89572674D01*
X131351263Y-89580139D01*
X131351263Y-90466741D01*
G37*
G36*
X131888934Y-89858301D02*
G01*
X131905269Y-89859653D01*
X131920817Y-89861871D01*
X131935595Y-89864925D01*
X131949618Y-89868785D01*
X131962905Y-89873423D01*
X131975473Y-89878809D01*
X131987338Y-89884912D01*
X131998518Y-89891704D01*
X132009030Y-89899156D01*
X132018891Y-89907237D01*
X132028118Y-89915919D01*
X132036729Y-89925172D01*
X132044739Y-89934965D01*
X132052167Y-89945271D01*
X132059030Y-89956059D01*
X132065344Y-89967300D01*
X132071126Y-89978965D01*
X132076395Y-89991024D01*
X132081166Y-90003447D01*
X132085458Y-90016205D01*
X132089286Y-90029269D01*
X132092669Y-90042609D01*
X132095623Y-90056195D01*
X132098166Y-90069999D01*
X132100314Y-90083990D01*
X132102084Y-90098140D01*
X132103495Y-90112418D01*
X132104562Y-90126796D01*
X132105303Y-90141243D01*
X132105735Y-90155731D01*
X132105875Y-90170230D01*
X132105543Y-90180363D01*
X132103888Y-90193326D01*
X132101012Y-90203832D01*
X132095602Y-90214464D01*
X132088803Y-90221796D01*
X132081060Y-90226437D01*
X132072820Y-90228997D01*
X132064530Y-90230086D01*
X132056636Y-90230314D01*
X131747522Y-90230314D01*
X131747795Y-90240552D01*
X131748218Y-90250740D01*
X131748804Y-90260859D01*
X131749563Y-90270891D01*
X131750509Y-90280819D01*
X131751652Y-90290623D01*
X131754581Y-90309792D01*
X131758443Y-90328253D01*
X131763335Y-90345864D01*
X131769352Y-90362481D01*
X131776587Y-90377958D01*
X131785137Y-90392154D01*
X131795096Y-90404923D01*
X131806560Y-90416123D01*
X131819623Y-90425609D01*
X131826784Y-90429664D01*
X131834380Y-90433237D01*
X131842424Y-90436309D01*
X131850927Y-90438864D01*
X131859901Y-90440881D01*
X131869358Y-90442345D01*
X131879310Y-90443236D01*
X131889769Y-90443538D01*
X131900093Y-90443300D01*
X131910075Y-90442606D01*
X131919721Y-90441484D01*
X131929035Y-90439964D01*
X131938024Y-90438073D01*
X131946692Y-90435842D01*
X131955045Y-90433298D01*
X131963088Y-90430471D01*
X131970826Y-90427388D01*
X131978264Y-90424080D01*
X131992263Y-90416902D01*
X132005127Y-90409165D01*
X132016898Y-90401100D01*
X132027617Y-90392938D01*
X132037328Y-90384910D01*
X132046072Y-90377244D01*
X132053891Y-90370173D01*
X132060828Y-90363926D01*
X132069669Y-90356605D01*
X132076762Y-90352435D01*
X132081256Y-90352435D01*
X132086922Y-90355122D01*
X132089089Y-90358760D01*
X132092629Y-90369897D01*
X132094661Y-90380760D01*
X132096227Y-90392950D01*
X132097386Y-90405725D01*
X132098201Y-90418341D01*
X132098732Y-90430057D01*
X132099103Y-90442993D01*
X132099232Y-90453307D01*
X132098319Y-90463233D01*
X132094166Y-90472478D01*
X132087921Y-90478933D01*
X132081256Y-90484082D01*
X132072169Y-90490328D01*
X132062581Y-90496404D01*
X132052513Y-90502278D01*
X132041987Y-90507918D01*
X132031024Y-90513293D01*
X132019645Y-90518368D01*
X132007870Y-90523114D01*
X131995722Y-90527496D01*
X131983221Y-90531483D01*
X131970388Y-90535044D01*
X131957246Y-90538145D01*
X131943814Y-90540754D01*
X131930114Y-90542839D01*
X131916168Y-90544369D01*
X131901996Y-90545310D01*
X131887620Y-90545631D01*
X131870334Y-90545283D01*
X131853575Y-90544241D01*
X131837345Y-90542507D01*
X131821644Y-90540085D01*
X131806474Y-90536976D01*
X131791837Y-90533184D01*
X131777735Y-90528712D01*
X131764167Y-90523561D01*
X131751137Y-90517736D01*
X131738645Y-90511238D01*
X131726693Y-90504071D01*
X131715282Y-90496236D01*
X131704414Y-90487738D01*
X131694090Y-90478577D01*
X131684311Y-90468759D01*
X131675080Y-90458284D01*
X131666397Y-90447155D01*
X131658263Y-90435377D01*
X131650681Y-90422950D01*
X131643652Y-90409878D01*
X131637177Y-90396164D01*
X131631257Y-90381810D01*
X131625894Y-90366820D01*
X131621090Y-90351195D01*
X131616845Y-90334938D01*
X131613162Y-90318053D01*
X131610042Y-90300542D01*
X131607486Y-90282407D01*
X131605495Y-90263652D01*
X131604071Y-90244279D01*
X131603216Y-90224291D01*
X131602930Y-90203691D01*
X131603244Y-90181403D01*
X131604179Y-90159919D01*
X131605725Y-90139233D01*
X131605727Y-90139211D01*
X131748695Y-90139211D01*
X131980432Y-90139211D01*
X131980076Y-90130123D01*
X131979066Y-90112275D01*
X131977593Y-90094943D01*
X131975576Y-90078224D01*
X131972935Y-90062214D01*
X131969589Y-90047009D01*
X131965460Y-90032706D01*
X131960466Y-90019400D01*
X131954528Y-90007188D01*
X131947564Y-89996166D01*
X131939497Y-89986431D01*
X131930244Y-89978078D01*
X131919726Y-89971204D01*
X131907862Y-89965905D01*
X131894574Y-89962278D01*
X131879780Y-89960418D01*
X131871793Y-89960181D01*
X131863585Y-89960439D01*
X131855736Y-89961201D01*
X131841082Y-89964177D01*
X131827771Y-89968980D01*
X131815739Y-89975480D01*
X131804926Y-89983551D01*
X131795269Y-89993064D01*
X131786706Y-90003889D01*
X131779176Y-90015899D01*
X131772617Y-90028965D01*
X131766967Y-90042959D01*
X131762164Y-90057752D01*
X131758147Y-90073216D01*
X131754853Y-90089222D01*
X131752221Y-90105642D01*
X131750189Y-90122348D01*
X131748695Y-90139211D01*
X131605727Y-90139211D01*
X131607871Y-90119337D01*
X131610609Y-90100226D01*
X131613929Y-90081894D01*
X131617819Y-90064334D01*
X131622271Y-90047540D01*
X131627275Y-90031505D01*
X131632820Y-90016224D01*
X131638897Y-90001689D01*
X131645496Y-89987895D01*
X131652607Y-89974836D01*
X131660220Y-89962504D01*
X131668325Y-89950895D01*
X131676912Y-89940000D01*
X131685971Y-89929815D01*
X131695492Y-89920333D01*
X131705467Y-89911547D01*
X131715883Y-89903451D01*
X131726732Y-89896039D01*
X131738004Y-89889305D01*
X131749689Y-89883242D01*
X131761777Y-89877844D01*
X131774257Y-89873105D01*
X131787121Y-89869018D01*
X131800358Y-89865577D01*
X131813958Y-89862776D01*
X131827912Y-89860609D01*
X131842209Y-89859068D01*
X131856839Y-89858148D01*
X131871793Y-89857843D01*
X131888934Y-89858301D01*
G37*
G36*
X132208653Y-90469916D02*
G01*
X132208935Y-90480141D01*
X132210072Y-90490535D01*
X132212496Y-90500626D01*
X132216639Y-90509941D01*
X132222935Y-90518008D01*
X132231816Y-90524355D01*
X132240434Y-90527702D01*
X132250931Y-90529617D01*
X132259064Y-90530000D01*
X132307327Y-90530000D01*
X132316296Y-90529840D01*
X132324316Y-90528910D01*
X132332421Y-90525551D01*
X132338590Y-90521695D01*
X132344624Y-90515464D01*
X132350344Y-90508615D01*
X132354934Y-90500314D01*
X132357540Y-90490116D01*
X132358576Y-90478789D01*
X132358880Y-90467079D01*
X132358911Y-90460146D01*
X132358911Y-90215170D01*
X132358933Y-90205024D01*
X132359086Y-90195103D01*
X132359502Y-90185273D01*
X132360312Y-90175397D01*
X132361648Y-90165341D01*
X132362233Y-90161926D01*
X132364683Y-90150280D01*
X132367833Y-90138986D01*
X132371644Y-90128064D01*
X132376078Y-90117534D01*
X132381097Y-90107417D01*
X132386663Y-90097732D01*
X132392738Y-90088499D01*
X132399284Y-90079738D01*
X132406263Y-90071469D01*
X132413636Y-90063713D01*
X132421366Y-90056489D01*
X132429415Y-90049818D01*
X132437744Y-90043719D01*
X132446315Y-90038213D01*
X132455091Y-90033319D01*
X132464033Y-90029057D01*
X132474035Y-90025282D01*
X132483191Y-90022473D01*
X132491554Y-90020425D01*
X132501557Y-90018525D01*
X132510361Y-90017127D01*
X132519864Y-90015345D01*
X132527920Y-90012637D01*
X132534766Y-90008053D01*
X132538857Y-89999240D01*
X132540156Y-89989153D01*
X132540237Y-89982896D01*
X132540237Y-89904494D01*
X132539906Y-89894285D01*
X132537677Y-89883661D01*
X132532046Y-89876684D01*
X132523161Y-89873769D01*
X132517962Y-89873475D01*
X132516789Y-89873475D01*
X132506420Y-89874107D01*
X132495336Y-89875787D01*
X132486615Y-89877709D01*
X132476980Y-89880418D01*
X132466561Y-89884033D01*
X132455487Y-89888679D01*
X132443888Y-89894477D01*
X132431893Y-89901550D01*
X132419633Y-89910021D01*
X132407236Y-89920010D01*
X132394833Y-89931642D01*
X132388670Y-89938111D01*
X132382554Y-89945037D01*
X132376501Y-89952435D01*
X132370527Y-89960319D01*
X132364649Y-89968706D01*
X132358883Y-89977611D01*
X132353244Y-89987048D01*
X132353036Y-89974688D01*
X132352838Y-89963817D01*
X132352527Y-89950034D01*
X132352149Y-89938919D01*
X132351446Y-89927541D01*
X132350065Y-89917493D01*
X132346735Y-89907828D01*
X132342107Y-89900097D01*
X132335800Y-89892715D01*
X132328865Y-89886961D01*
X132320505Y-89883685D01*
X132312566Y-89882514D01*
X132304482Y-89882102D01*
X132297166Y-89882023D01*
X132260237Y-89882023D01*
X132251288Y-89882256D01*
X132242285Y-89883386D01*
X132233611Y-89886055D01*
X132225652Y-89890908D01*
X132218792Y-89898588D01*
X132213415Y-89909741D01*
X132210588Y-89920771D01*
X132208974Y-89934388D01*
X132208653Y-89945038D01*
X132208653Y-90469916D01*
G37*
G36*
X132999413Y-89598702D02*
G01*
X133000404Y-89608839D01*
X133002495Y-89618281D01*
X133003907Y-89623859D01*
X133249323Y-90446224D01*
X133252656Y-90457660D01*
X133255942Y-90469011D01*
X133259490Y-90480049D01*
X133263614Y-90490549D01*
X133268626Y-90500281D01*
X133274837Y-90509021D01*
X133282559Y-90516540D01*
X133292105Y-90522611D01*
X133299636Y-90525743D01*
X133308208Y-90528063D01*
X133317915Y-90529504D01*
X133328848Y-90530000D01*
X133430648Y-90530000D01*
X133440417Y-90529567D01*
X133449182Y-90528299D01*
X133457015Y-90526243D01*
X133467174Y-90521785D01*
X133475643Y-90515819D01*
X133482663Y-90508501D01*
X133488480Y-90499991D01*
X133493335Y-90490446D01*
X133497473Y-90480025D01*
X133501137Y-90468886D01*
X133504571Y-90457187D01*
X133506852Y-90449155D01*
X133753244Y-89623859D01*
X133755697Y-89614332D01*
X133757450Y-89604154D01*
X133757739Y-89598702D01*
X133756836Y-89588972D01*
X133753863Y-89579577D01*
X133747832Y-89570778D01*
X133739768Y-89564973D01*
X133730923Y-89561950D01*
X133722703Y-89560916D01*
X133719637Y-89560844D01*
X133672547Y-89560844D01*
X133662822Y-89561203D01*
X133654111Y-89562275D01*
X133646332Y-89564053D01*
X133636232Y-89568022D01*
X133627772Y-89573531D01*
X133620678Y-89580551D01*
X133614674Y-89589056D01*
X133609487Y-89599017D01*
X133604842Y-89610406D01*
X133600466Y-89623196D01*
X133597561Y-89632487D01*
X133594572Y-89642380D01*
X133593021Y-89647550D01*
X133586250Y-89670204D01*
X133579183Y-89693860D01*
X133571851Y-89718414D01*
X133564286Y-89743761D01*
X133556520Y-89769800D01*
X133548585Y-89796425D01*
X133540511Y-89823534D01*
X133532330Y-89851023D01*
X133524074Y-89878789D01*
X133515774Y-89906728D01*
X133507462Y-89934736D01*
X133499169Y-89962711D01*
X133490927Y-89990547D01*
X133482767Y-90018143D01*
X133474721Y-90045394D01*
X133466821Y-90072197D01*
X133459097Y-90098448D01*
X133451582Y-90124044D01*
X133444307Y-90148881D01*
X133437303Y-90172856D01*
X133430602Y-90195865D01*
X133424236Y-90217805D01*
X133418235Y-90238571D01*
X133412633Y-90258062D01*
X133407459Y-90276172D01*
X133402746Y-90292799D01*
X133398524Y-90307839D01*
X133394827Y-90321189D01*
X133391684Y-90332744D01*
X133389129Y-90342402D01*
X133385903Y-90355610D01*
X133176441Y-89644619D01*
X133173053Y-89632901D01*
X133169642Y-89621379D01*
X133165947Y-89610262D01*
X133161706Y-89599758D01*
X133156658Y-89590077D01*
X133150544Y-89581428D01*
X133143102Y-89574020D01*
X133134071Y-89568060D01*
X133123190Y-89563760D01*
X133114780Y-89561917D01*
X133105354Y-89560966D01*
X133100237Y-89560844D01*
X133038688Y-89560844D01*
X133029683Y-89561511D01*
X133019941Y-89564226D01*
X133012509Y-89568575D01*
X133006008Y-89575560D01*
X133001517Y-89584943D01*
X132999553Y-89595171D01*
X132999413Y-89598702D01*
G37*
G36*
X133841367Y-89737920D02*
G01*
X133843391Y-89748419D01*
X133847840Y-89757656D01*
X133853708Y-89767392D01*
X133859944Y-89777106D01*
X133865577Y-89785791D01*
X133872073Y-89795873D01*
X133879469Y-89807529D01*
X133884446Y-89815501D01*
X133889791Y-89824374D01*
X133895416Y-89833228D01*
X133901230Y-89841139D01*
X133908331Y-89848089D01*
X133915422Y-89850760D01*
X133923688Y-89843036D01*
X133927432Y-89834171D01*
X133931215Y-89822672D01*
X133935260Y-89809067D01*
X133939791Y-89793882D01*
X133945031Y-89777644D01*
X133951203Y-89760879D01*
X133958532Y-89744114D01*
X133967241Y-89727875D01*
X133972183Y-89720118D01*
X133977554Y-89712690D01*
X133983381Y-89705657D01*
X133989693Y-89699085D01*
X133996518Y-89693040D01*
X134003883Y-89687587D01*
X134011816Y-89682792D01*
X134020347Y-89678722D01*
X134029501Y-89675441D01*
X134039308Y-89673016D01*
X134049795Y-89671513D01*
X134060990Y-89670997D01*
X134068828Y-89671260D01*
X134083724Y-89673313D01*
X134097585Y-89677294D01*
X134110417Y-89683072D01*
X134122226Y-89690517D01*
X134133017Y-89699498D01*
X134142798Y-89709885D01*
X134151573Y-89721546D01*
X134159349Y-89734352D01*
X134166133Y-89748172D01*
X134171929Y-89762875D01*
X134176744Y-89778330D01*
X134180584Y-89794407D01*
X134183456Y-89810976D01*
X134185364Y-89827906D01*
X134186315Y-89845066D01*
X134186434Y-89853691D01*
X134186161Y-89866920D01*
X134185356Y-89879959D01*
X134184040Y-89892812D01*
X134182231Y-89905485D01*
X134179951Y-89917984D01*
X134177218Y-89930313D01*
X134174053Y-89942477D01*
X134170475Y-89954483D01*
X134166505Y-89966336D01*
X134162163Y-89978040D01*
X134157468Y-89989601D01*
X134152441Y-90001025D01*
X134147100Y-90012317D01*
X134141467Y-90023482D01*
X134135562Y-90034525D01*
X134129403Y-90045452D01*
X134123011Y-90056268D01*
X134116406Y-90066979D01*
X134109608Y-90077589D01*
X134102637Y-90088105D01*
X134095513Y-90098530D01*
X134088255Y-90108872D01*
X134080884Y-90119134D01*
X134073419Y-90129323D01*
X134065881Y-90139443D01*
X134058289Y-90149501D01*
X134050664Y-90159501D01*
X134043024Y-90169448D01*
X134035391Y-90179348D01*
X134027784Y-90189207D01*
X134020223Y-90199029D01*
X134012728Y-90208820D01*
X133997186Y-90229428D01*
X133982665Y-90248650D01*
X133969132Y-90266542D01*
X133956552Y-90283155D01*
X133944890Y-90298543D01*
X133934111Y-90312761D01*
X133924181Y-90325860D01*
X133915064Y-90337895D01*
X133906728Y-90348919D01*
X133899136Y-90358985D01*
X133892254Y-90368147D01*
X133886047Y-90376458D01*
X133880481Y-90383971D01*
X133871133Y-90396819D01*
X133863932Y-90407118D01*
X133858600Y-90415295D01*
X133853500Y-90424516D01*
X133850419Y-90435327D01*
X133850355Y-90446224D01*
X133850355Y-90468450D01*
X133850943Y-90479498D01*
X133852014Y-90489473D01*
X133854318Y-90499696D01*
X133858500Y-90509462D01*
X133865207Y-90518067D01*
X133872282Y-90523336D01*
X133881413Y-90527259D01*
X133892872Y-90529539D01*
X133901939Y-90530000D01*
X134291751Y-90530000D01*
X134300986Y-90529536D01*
X134310014Y-90527851D01*
X134318521Y-90524500D01*
X134326189Y-90519039D01*
X134332704Y-90511025D01*
X134337748Y-90500015D01*
X134340377Y-90489524D01*
X134341867Y-90476910D01*
X134342163Y-90467229D01*
X134342163Y-90441828D01*
X134341784Y-90429934D01*
X134340413Y-90418484D01*
X134337701Y-90407829D01*
X134333297Y-90398322D01*
X134326850Y-90390315D01*
X134318010Y-90384160D01*
X134309599Y-90380970D01*
X134299498Y-90379169D01*
X134291751Y-90378813D01*
X134265959Y-90378813D01*
X134032854Y-90381744D01*
X133994947Y-90381744D01*
X134086782Y-90273056D01*
X134101509Y-90256255D01*
X134115861Y-90240040D01*
X134129834Y-90224373D01*
X134143421Y-90209222D01*
X134156616Y-90194551D01*
X134169412Y-90180325D01*
X134181804Y-90166509D01*
X134193785Y-90153068D01*
X134205350Y-90139967D01*
X134216492Y-90127172D01*
X134227204Y-90114647D01*
X134237482Y-90102357D01*
X134247318Y-90090269D01*
X134256707Y-90078345D01*
X134265642Y-90066552D01*
X134274117Y-90054856D01*
X134282126Y-90043219D01*
X134289663Y-90031609D01*
X134296722Y-90019990D01*
X134303296Y-90008327D01*
X134309380Y-89996585D01*
X134314967Y-89984729D01*
X134320051Y-89972724D01*
X134324626Y-89960536D01*
X134328686Y-89948129D01*
X134332225Y-89935468D01*
X134335236Y-89922520D01*
X134337713Y-89909247D01*
X134339651Y-89895617D01*
X134341042Y-89881593D01*
X134341882Y-89867141D01*
X134342163Y-89852226D01*
X134341862Y-89835849D01*
X134340965Y-89819662D01*
X134339480Y-89803686D01*
X134337415Y-89787943D01*
X134334779Y-89772453D01*
X134331579Y-89757239D01*
X134327825Y-89742323D01*
X134323524Y-89727727D01*
X134318685Y-89713471D01*
X134313315Y-89699578D01*
X134307424Y-89686069D01*
X134301019Y-89672966D01*
X134294109Y-89660291D01*
X134286701Y-89648065D01*
X134278805Y-89636311D01*
X134270429Y-89625049D01*
X134261580Y-89614302D01*
X134252267Y-89604091D01*
X134242498Y-89594438D01*
X134232282Y-89585364D01*
X134221627Y-89576892D01*
X134210541Y-89569042D01*
X134199032Y-89561837D01*
X134187108Y-89555299D01*
X134174779Y-89549448D01*
X134162051Y-89544307D01*
X134148934Y-89539898D01*
X134135436Y-89536242D01*
X134121565Y-89533360D01*
X134107328Y-89531275D01*
X134092735Y-89530008D01*
X134077794Y-89529581D01*
X134060355Y-89530151D01*
X134043744Y-89531813D01*
X134027945Y-89534497D01*
X134012938Y-89538132D01*
X133998707Y-89542647D01*
X133985232Y-89547970D01*
X133972496Y-89554032D01*
X133960481Y-89560760D01*
X133949169Y-89568084D01*
X133938541Y-89575934D01*
X133928580Y-89584238D01*
X133919267Y-89592925D01*
X133910585Y-89601924D01*
X133902515Y-89611165D01*
X133895039Y-89620576D01*
X133888140Y-89630087D01*
X133881798Y-89639626D01*
X133875997Y-89649123D01*
X133870718Y-89658507D01*
X133865942Y-89667707D01*
X133861653Y-89676651D01*
X133857831Y-89685270D01*
X133851519Y-89701245D01*
X133846861Y-89715065D01*
X133843712Y-89726163D01*
X133841505Y-89736463D01*
X133841367Y-89737920D01*
G37*
G36*
X134501995Y-90498004D02*
G01*
X134502528Y-90508579D01*
X134504912Y-90517915D01*
X134510326Y-90525120D01*
X134518270Y-90528927D01*
X134527787Y-90530000D01*
X134625289Y-90530000D01*
X134633365Y-90529002D01*
X134641637Y-90525462D01*
X134647152Y-90516868D01*
X134648622Y-90505652D01*
X134648744Y-90495492D01*
X134648736Y-90490921D01*
X134648736Y-90376127D01*
X134648369Y-90365782D01*
X134645859Y-90356155D01*
X134639169Y-90349594D01*
X134630186Y-90347139D01*
X134624117Y-90346817D01*
X134526810Y-90346817D01*
X134518668Y-90347405D01*
X134510295Y-90350519D01*
X134504560Y-90358945D01*
X134502878Y-90368559D01*
X134502287Y-90378781D01*
X134501995Y-90385896D01*
X134501995Y-90498004D01*
G37*
G36*
X135076514Y-89530444D02*
G01*
X135097528Y-89532985D01*
X135117262Y-89537127D01*
X135135757Y-89542797D01*
X135153051Y-89549920D01*
X135169186Y-89558421D01*
X135184201Y-89568225D01*
X135198136Y-89579258D01*
X135211032Y-89591444D01*
X135222928Y-89604710D01*
X135233865Y-89618980D01*
X135243883Y-89634179D01*
X135253021Y-89650234D01*
X135261320Y-89667068D01*
X135268820Y-89684609D01*
X135275561Y-89702780D01*
X135281583Y-89721506D01*
X135286926Y-89740714D01*
X135291630Y-89760329D01*
X135295736Y-89780276D01*
X135299282Y-89800479D01*
X135302310Y-89820865D01*
X135304860Y-89841358D01*
X135306971Y-89861885D01*
X135308683Y-89882369D01*
X135310038Y-89902737D01*
X135311074Y-89922913D01*
X135311831Y-89942824D01*
X135312351Y-89962394D01*
X135312672Y-89981548D01*
X135312836Y-90000212D01*
X135312882Y-90018311D01*
X135312882Y-90026615D01*
X135312911Y-90031051D01*
X135313153Y-90042220D01*
X135313468Y-90052657D01*
X135313782Y-90063842D01*
X135313977Y-90073698D01*
X135314054Y-90084012D01*
X135313963Y-90105624D01*
X135313670Y-90127287D01*
X135313143Y-90148954D01*
X135312350Y-90170576D01*
X135311259Y-90192105D01*
X135309838Y-90213491D01*
X135308056Y-90234688D01*
X135305881Y-90255646D01*
X135303281Y-90276317D01*
X135300223Y-90296653D01*
X135296678Y-90316605D01*
X135292611Y-90336125D01*
X135287993Y-90355165D01*
X135282790Y-90373675D01*
X135276972Y-90391608D01*
X135270505Y-90408916D01*
X135263360Y-90425550D01*
X135255503Y-90441461D01*
X135246903Y-90456601D01*
X135237528Y-90470922D01*
X135227346Y-90484376D01*
X135216326Y-90496913D01*
X135204435Y-90508486D01*
X135191642Y-90519047D01*
X135177916Y-90528546D01*
X135163223Y-90536935D01*
X135147533Y-90544167D01*
X135130814Y-90550192D01*
X135113034Y-90554963D01*
X135094160Y-90558431D01*
X135074162Y-90560547D01*
X135053007Y-90561263D01*
X135042980Y-90561082D01*
X135033265Y-90560552D01*
X135023861Y-90559691D01*
X135014764Y-90558519D01*
X135005971Y-90557053D01*
X134997480Y-90555312D01*
X134989287Y-90553315D01*
X134981389Y-90551081D01*
X134966468Y-90545974D01*
X134952694Y-90540139D01*
X134940043Y-90533727D01*
X134928492Y-90526885D01*
X134918017Y-90519763D01*
X134908595Y-90512509D01*
X134900202Y-90505273D01*
X134892814Y-90498202D01*
X134886409Y-90491446D01*
X134878592Y-90482229D01*
X134872854Y-90474556D01*
X134866010Y-90464643D01*
X134859575Y-90454292D01*
X134853536Y-90443531D01*
X134847880Y-90432389D01*
X134842596Y-90420893D01*
X134837670Y-90409071D01*
X134833090Y-90396951D01*
X134828844Y-90384561D01*
X134824919Y-90371927D01*
X134821301Y-90359079D01*
X134817980Y-90346045D01*
X134814942Y-90332851D01*
X134812174Y-90319525D01*
X134809665Y-90306097D01*
X134807400Y-90292592D01*
X134805369Y-90279040D01*
X134803559Y-90265468D01*
X134801956Y-90251903D01*
X134800548Y-90238374D01*
X134799323Y-90224909D01*
X134798268Y-90211534D01*
X134797371Y-90198279D01*
X134796619Y-90185171D01*
X134796000Y-90172237D01*
X134795500Y-90159506D01*
X134795108Y-90147005D01*
X134794810Y-90134762D01*
X134794595Y-90122806D01*
X134794449Y-90111163D01*
X134794361Y-90099861D01*
X134794317Y-90088929D01*
X134794305Y-90078394D01*
X134794305Y-90030767D01*
X134794314Y-90020921D01*
X134794351Y-90010459D01*
X134794407Y-90002571D01*
X134947882Y-90002571D01*
X134947883Y-90021946D01*
X134947885Y-90042002D01*
X134947892Y-90054449D01*
X134947914Y-90066912D01*
X134947953Y-90079376D01*
X134948013Y-90091825D01*
X134948095Y-90104246D01*
X134948202Y-90116621D01*
X134948337Y-90128936D01*
X134948502Y-90141176D01*
X134948699Y-90153326D01*
X134948932Y-90165370D01*
X134949203Y-90177292D01*
X134949513Y-90189079D01*
X134949866Y-90200714D01*
X134950265Y-90212182D01*
X134950711Y-90223468D01*
X134951207Y-90234557D01*
X134951756Y-90245434D01*
X134952360Y-90256082D01*
X134953021Y-90266488D01*
X134953743Y-90276635D01*
X134955377Y-90296094D01*
X134957282Y-90314337D01*
X134959478Y-90331242D01*
X134961985Y-90346686D01*
X134964822Y-90360549D01*
X134968011Y-90372707D01*
X134970713Y-90381312D01*
X134974445Y-90391161D01*
X134979233Y-90401797D01*
X134985108Y-90412764D01*
X134992099Y-90423605D01*
X135000234Y-90433865D01*
X135006307Y-90440155D01*
X135012911Y-90445849D01*
X135020053Y-90450811D01*
X135027742Y-90454906D01*
X135035987Y-90457998D01*
X135044797Y-90459953D01*
X135054180Y-90460635D01*
X135058940Y-90460461D01*
X135068014Y-90459128D01*
X135076500Y-90456592D01*
X135084411Y-90452991D01*
X135091757Y-90448463D01*
X135098550Y-90443145D01*
X135104802Y-90437174D01*
X135113189Y-90427295D01*
X135120422Y-90416721D01*
X135126539Y-90405915D01*
X135131580Y-90395340D01*
X135135583Y-90385461D01*
X135139371Y-90374173D01*
X135141203Y-90367738D01*
X135144547Y-90354050D01*
X135147485Y-90339288D01*
X135150044Y-90323471D01*
X135152250Y-90306619D01*
X135154129Y-90288752D01*
X135155708Y-90269891D01*
X135156392Y-90260094D01*
X135157011Y-90250055D01*
X135157568Y-90239778D01*
X135158065Y-90229265D01*
X135158507Y-90218518D01*
X135158897Y-90207540D01*
X135159237Y-90196333D01*
X135159532Y-90184901D01*
X135159783Y-90173244D01*
X135159996Y-90161367D01*
X135160172Y-90149271D01*
X135160315Y-90136959D01*
X135160429Y-90124433D01*
X135160516Y-90111696D01*
X135160580Y-90098751D01*
X135160624Y-90085599D01*
X135160651Y-90072244D01*
X135160665Y-90058688D01*
X135160669Y-90044933D01*
X135160669Y-90035163D01*
X135160662Y-90017295D01*
X135160638Y-90000043D01*
X135160594Y-89983393D01*
X135160527Y-89967333D01*
X135160434Y-89951847D01*
X135160313Y-89936923D01*
X135160159Y-89922548D01*
X135159970Y-89908707D01*
X135159744Y-89895387D01*
X135159476Y-89882574D01*
X135159164Y-89870255D01*
X135158804Y-89858416D01*
X135158395Y-89847043D01*
X135157932Y-89836124D01*
X135157413Y-89825644D01*
X135156835Y-89815589D01*
X135155488Y-89796703D01*
X135153867Y-89779357D01*
X135151948Y-89763442D01*
X135149706Y-89748850D01*
X135147117Y-89735471D01*
X135144157Y-89723197D01*
X135140802Y-89711919D01*
X135137027Y-89701528D01*
X135135349Y-89697566D01*
X135130698Y-89687939D01*
X135126045Y-89679696D01*
X135120362Y-89671024D01*
X135113623Y-89662324D01*
X135105800Y-89653999D01*
X135096868Y-89646451D01*
X135086798Y-89640082D01*
X135079440Y-89636689D01*
X135071556Y-89634118D01*
X135063138Y-89632488D01*
X135054180Y-89631919D01*
X135051470Y-89631967D01*
X135043576Y-89632673D01*
X135033611Y-89634842D01*
X135024301Y-89638281D01*
X135015662Y-89642848D01*
X135007710Y-89648400D01*
X135000461Y-89654793D01*
X134993931Y-89661885D01*
X134988136Y-89669532D01*
X134984376Y-89674904D01*
X134977573Y-89686459D01*
X134971672Y-89699187D01*
X134966609Y-89713201D01*
X134962320Y-89728610D01*
X134958740Y-89745525D01*
X134955807Y-89764059D01*
X134954562Y-89773966D01*
X134953455Y-89784320D01*
X134952477Y-89795134D01*
X134951620Y-89806421D01*
X134950877Y-89818196D01*
X134950239Y-89830472D01*
X134949699Y-89843264D01*
X134949247Y-89856585D01*
X134948877Y-89870449D01*
X134948581Y-89884869D01*
X134948349Y-89899861D01*
X134948175Y-89915437D01*
X134948050Y-89931611D01*
X134947966Y-89948398D01*
X134947916Y-89965811D01*
X134947890Y-89983864D01*
X134947882Y-90002571D01*
X134794407Y-90002571D01*
X134794430Y-89999424D01*
X134794565Y-89987855D01*
X134794771Y-89975794D01*
X134795060Y-89963280D01*
X134795448Y-89950354D01*
X134795948Y-89937058D01*
X134796574Y-89923431D01*
X134797341Y-89909515D01*
X134798263Y-89895350D01*
X134799354Y-89880977D01*
X134800628Y-89866436D01*
X134802098Y-89851768D01*
X134803780Y-89837014D01*
X134805687Y-89822214D01*
X134807833Y-89807409D01*
X134810233Y-89792640D01*
X134812900Y-89777947D01*
X134815848Y-89763371D01*
X134819092Y-89748953D01*
X134822646Y-89734733D01*
X134826524Y-89720752D01*
X134830740Y-89707050D01*
X134835308Y-89693668D01*
X134840242Y-89680648D01*
X134845556Y-89668029D01*
X134851265Y-89655852D01*
X134857382Y-89644158D01*
X134863922Y-89632987D01*
X134870898Y-89622381D01*
X134878325Y-89612379D01*
X134887190Y-89601749D01*
X134896540Y-89591921D01*
X134906330Y-89582880D01*
X134916518Y-89574609D01*
X134927061Y-89567093D01*
X134937916Y-89560314D01*
X134949040Y-89554257D01*
X134960390Y-89548907D01*
X134971924Y-89544246D01*
X134983597Y-89540258D01*
X134995368Y-89536929D01*
X135007193Y-89534240D01*
X135019030Y-89532178D01*
X135030835Y-89530724D01*
X135042566Y-89529864D01*
X135054180Y-89529581D01*
X135076514Y-89530444D01*
G37*
D11*
%TO.C,Y1*%
X150300000Y-78300000D03*
X148100000Y-78300000D03*
X148100000Y-80000000D03*
X150300000Y-80000000D03*
%TD*%
D12*
%TO.C,J1*%
X135000000Y-96000000D03*
D13*
X135000000Y-94000000D03*
X137000000Y-96000000D03*
X137000000Y-94000000D03*
X139000000Y-96000000D03*
X139000000Y-94000000D03*
X141000000Y-96000000D03*
X141000000Y-94000000D03*
X143000000Y-96000000D03*
X143000000Y-94000000D03*
X145000000Y-96000000D03*
X145000000Y-94000000D03*
%TD*%
D14*
%TO.C,J2*%
X172460000Y-66840000D03*
D15*
X175000000Y-66840000D03*
X172460000Y-69380000D03*
X175000000Y-69380000D03*
X172460000Y-71920000D03*
X175000000Y-71920000D03*
X172460000Y-74460000D03*
X175000000Y-74460000D03*
X172460000Y-77000000D03*
X175000000Y-77000000D03*
%TD*%
D16*
%TO.C,C4*%
X121000000Y-82000000D03*
X122725000Y-82000000D03*
%TD*%
D17*
%TO.C,Q1*%
X160975000Y-77750000D03*
X160975000Y-78700000D03*
X160975000Y-79650000D03*
X163250000Y-79650000D03*
X163250000Y-78700000D03*
X163250000Y-77750000D03*
%TD*%
D18*
%TO.C,SW3*%
X153550000Y-89770000D03*
D19*
X153550000Y-88500000D03*
%TD*%
D20*
%TO.C,C10*%
X141950000Y-82225000D03*
X141950000Y-80500000D03*
%TD*%
D21*
%TO.C,R6*%
X129675000Y-74900000D03*
X131500000Y-74900000D03*
%TD*%
D22*
%TO.C,C3*%
X121300000Y-78700000D03*
D23*
X123300000Y-78700000D03*
%TD*%
D24*
%TO.C,R12*%
X159550000Y-84687500D03*
X159550000Y-86512500D03*
%TD*%
D25*
%TO.C,R16*%
X158050000Y-86512500D03*
X158050000Y-84687500D03*
%TD*%
D26*
%TO.C,R1*%
X158900000Y-67750000D03*
X157075000Y-67750000D03*
%TD*%
D27*
%TO.C,C20*%
X152150000Y-78375000D03*
X152150000Y-80100000D03*
%TD*%
D22*
%TO.C,C5*%
X169300000Y-79300000D03*
D23*
X167300000Y-79300000D03*
%TD*%
D27*
%TO.C,C22*%
X147550000Y-84750000D03*
X147550000Y-86475000D03*
%TD*%
D28*
%TO.C,H4*%
X110000000Y-95000000D03*
%TD*%
%TO.C,H1*%
X110000000Y-60000000D03*
%TD*%
D22*
%TO.C,C18*%
X169300000Y-84400000D03*
D23*
X167300000Y-84400000D03*
%TD*%
D16*
%TO.C,C6*%
X133100000Y-73200000D03*
X134825000Y-73200000D03*
%TD*%
D28*
%TO.C,H3*%
X175000000Y-95000000D03*
%TD*%
D18*
%TO.C,SW2*%
X149050000Y-89820000D03*
D19*
X149050000Y-88550000D03*
%TD*%
D26*
%TO.C,R3*%
X159000000Y-72750000D03*
X157175000Y-72750000D03*
%TD*%
D25*
%TO.C,R14*%
X149050000Y-86550000D03*
X149050000Y-84725000D03*
%TD*%
D27*
%TO.C,C23*%
X152050000Y-84700000D03*
X152050000Y-86425000D03*
%TD*%
D29*
%TO.C,C11*%
X149350000Y-74450000D03*
X147625000Y-74450000D03*
%TD*%
D17*
%TO.C,U1*%
X126825000Y-65600000D03*
X126825000Y-66550000D03*
X126825000Y-67500000D03*
X129100000Y-67500000D03*
X129100000Y-65600000D03*
%TD*%
D26*
%TO.C,R2*%
X158900000Y-69250000D03*
X157075000Y-69250000D03*
%TD*%
D18*
%TO.C,RV2*%
X138960000Y-63000000D03*
D19*
X140230000Y-63000000D03*
X141500000Y-63000000D03*
%TD*%
D24*
%TO.C,R10*%
X150550000Y-84725000D03*
X150550000Y-86550000D03*
%TD*%
D14*
%TO.C,J3*%
X175000000Y-83500000D03*
D15*
X175000000Y-86040000D03*
X175000000Y-88580000D03*
%TD*%
D14*
%TO.C,SW1*%
X115500000Y-82100000D03*
D15*
X118040000Y-82100000D03*
%TD*%
D18*
%TO.C,RV3*%
X143960000Y-63000000D03*
D19*
X145230000Y-63000000D03*
X146500000Y-63000000D03*
%TD*%
D29*
%TO.C,C7*%
X149350000Y-72950000D03*
X147625000Y-72950000D03*
%TD*%
D17*
%TO.C,Q2*%
X161000000Y-67400000D03*
X161000000Y-68350000D03*
X161000000Y-69300000D03*
X163275000Y-69300000D03*
X163275000Y-68350000D03*
X163275000Y-67400000D03*
%TD*%
D18*
%TO.C,RV1*%
X133960000Y-63000000D03*
D19*
X135230000Y-63000000D03*
X136500000Y-63000000D03*
%TD*%
D16*
%TO.C,C8*%
X132575000Y-76600000D03*
X134300000Y-76600000D03*
%TD*%
D27*
%TO.C,C21*%
X146300000Y-80025000D03*
X146300000Y-81750000D03*
%TD*%
%TO.C,C19*%
X112300000Y-79737500D03*
X112300000Y-81462500D03*
%TD*%
%TO.C,C24*%
X156550000Y-84687500D03*
X156550000Y-86412500D03*
%TD*%
D30*
%TO.C,JP1*%
X128500000Y-83200000D03*
D31*
X128500000Y-84500000D03*
%TD*%
D32*
%TO.C,J6*%
X138000000Y-85900000D03*
D33*
X139000000Y-85900000D03*
X140000000Y-85900000D03*
%TD*%
D21*
%TO.C,R13*%
X147600000Y-75950000D03*
X149425000Y-75950000D03*
%TD*%
D26*
%TO.C,R4*%
X159000000Y-74500000D03*
X157175000Y-74500000D03*
%TD*%
D24*
%TO.C,R11*%
X155050000Y-84675000D03*
X155050000Y-86500000D03*
%TD*%
D27*
%TO.C,C2*%
X130900000Y-65675000D03*
X130900000Y-67400000D03*
%TD*%
%TO.C,C1*%
X125000000Y-65675000D03*
X125000000Y-67400000D03*
%TD*%
D26*
%TO.C,R5*%
X159000000Y-77750000D03*
X157175000Y-77750000D03*
%TD*%
D27*
%TO.C,C12*%
X141800000Y-68675000D03*
X141800000Y-70400000D03*
%TD*%
D34*
%TO.C,U2*%
X130890000Y-86400000D03*
X132160000Y-86400000D03*
X133430000Y-86400000D03*
X134700000Y-86400000D03*
X134700000Y-79200000D03*
X133430000Y-79200000D03*
X132160000Y-79200000D03*
X130890000Y-79200000D03*
%TD*%
D21*
%TO.C,R7*%
X129675000Y-73400000D03*
X131500000Y-73400000D03*
%TD*%
D35*
%TO.C,U3*%
X140937500Y-75450000D03*
D36*
X137500000Y-78050000D03*
X137500000Y-77650000D03*
X137500000Y-77250000D03*
X137500000Y-76850000D03*
X137500000Y-76450000D03*
X137500000Y-76050000D03*
X137500000Y-75650000D03*
X137500000Y-75250000D03*
X137500000Y-74850000D03*
X137500000Y-74450000D03*
X137500000Y-74050000D03*
X137500000Y-73650000D03*
X137500000Y-73250000D03*
X137500000Y-72850000D03*
D37*
X138337500Y-72012500D03*
X138737500Y-72012500D03*
X139137500Y-72012500D03*
X139537500Y-72012500D03*
X139937500Y-72012500D03*
X140337500Y-72012500D03*
X140737500Y-72012500D03*
X141137500Y-72012500D03*
X141537500Y-72012500D03*
X141937500Y-72012500D03*
X142337500Y-72012500D03*
X142737500Y-72012500D03*
X143137500Y-72012500D03*
X143537500Y-72012500D03*
D36*
X144375000Y-72850000D03*
X144375000Y-73250000D03*
X144375000Y-73650000D03*
X144375000Y-74050000D03*
X144375000Y-74450000D03*
X144375000Y-74850000D03*
X144375000Y-75250000D03*
X144375000Y-75650000D03*
X144375000Y-76050000D03*
X144375000Y-76450000D03*
X144375000Y-76850000D03*
X144375000Y-77250000D03*
X144375000Y-77650000D03*
X144375000Y-78050000D03*
D37*
X143537500Y-78887500D03*
X143137500Y-78887500D03*
X142737500Y-78887500D03*
X142337500Y-78887500D03*
X141937500Y-78887500D03*
X141537500Y-78887500D03*
X141137500Y-78887500D03*
X140737500Y-78887500D03*
X140337500Y-78887500D03*
X139937500Y-78887500D03*
X139537500Y-78887500D03*
X139137500Y-78887500D03*
X138737500Y-78887500D03*
X138337500Y-78887500D03*
%TD*%
D16*
%TO.C,C14*%
X133100000Y-75100000D03*
X134825000Y-75100000D03*
%TD*%
D25*
%TO.C,R15*%
X153550000Y-86500000D03*
X153550000Y-84675000D03*
%TD*%
D28*
%TO.C,H2*%
X175000000Y-60000000D03*
%TD*%
D25*
%TO.C,R9*%
X161750000Y-83325000D03*
X161750000Y-81500000D03*
%TD*%
D27*
%TO.C,C15*%
X136600000Y-68675000D03*
X136600000Y-70400000D03*
%TD*%
D18*
%TO.C,J5*%
X150070000Y-67130000D03*
D19*
X150070000Y-68400000D03*
X148800000Y-67130000D03*
X148800000Y-68400000D03*
X147530000Y-67130000D03*
X147530000Y-68400000D03*
X146260000Y-67130000D03*
X146260000Y-68400000D03*
X144990000Y-67130000D03*
X144990000Y-68400000D03*
%TD*%
D25*
%TO.C,R8*%
X163500000Y-83325000D03*
X163500000Y-81500000D03*
%TD*%
D38*
%TO.C,J8*%
X111880000Y-73220000D03*
X111880000Y-73870000D03*
X111880000Y-74520000D03*
X111880000Y-75170000D03*
X111880000Y-75820000D03*
D39*
X110680000Y-71570000D03*
D40*
X111980000Y-71670000D03*
D41*
X109930000Y-71790000D03*
D42*
X109000000Y-71790000D03*
D43*
X112000000Y-72100000D03*
D44*
X108730000Y-73560000D03*
X108730000Y-75480000D03*
D43*
X112000000Y-76940000D03*
D42*
X109000000Y-77250000D03*
D41*
X109930000Y-77270000D03*
D40*
X112000000Y-77420000D03*
D39*
X110680000Y-77520000D03*
%TD*%
D19*
%TO.C,SW4*%
X158050000Y-88512500D03*
D18*
X158050000Y-89782500D03*
%TD*%
D17*
%TO.C,Q3*%
X160975000Y-72650000D03*
X160975000Y-73600000D03*
X160975000Y-74550000D03*
X163250000Y-74550000D03*
X163250000Y-73600000D03*
X163250000Y-72650000D03*
%TD*%
D14*
%TO.C,J7*%
X115900000Y-78280000D03*
D15*
X115900000Y-75740000D03*
X115900000Y-73200000D03*
X115900000Y-70660000D03*
%TD*%
D20*
%TO.C,C9*%
X138300000Y-82300000D03*
X138300000Y-80575000D03*
%TD*%
D16*
%TO.C,C16*%
X133100000Y-71700000D03*
X134825000Y-71700000D03*
%TD*%
D29*
%TO.C,C17*%
X129000000Y-77800000D03*
X127275000Y-77800000D03*
%TD*%
D27*
%TO.C,C13*%
X138100000Y-68675000D03*
X138100000Y-70400000D03*
%TD*%
M02*
