M48
; DRILL file {KiCad 7.99.0-3522-gc5520b3eef-dirty} date 2024-01-06T21:25:39+0000
; FORMAT={-:-/ absolute / inch / decimal}
; #@! TF.CreationDate,2024-01-06T21:25:39+00:00
; #@! TF.GenerationSoftware,Kicad,Pcbnew,7.99.0-3522-gc5520b3eef-dirty
; #@! TF.FileFunction,Plated,1,2,PTH
FMAT,2
INCH
; #@! TA.AperFunction,Plated,PTH,ViaDrill
T1C0.0157
; #@! TA.AperFunction,Plated,PTH,ComponentDrill
T2C0.0197
; #@! TA.AperFunction,Plated,PTH,ComponentDrill
T3C0.0236
; #@! TA.AperFunction,Plated,PTH,ComponentDrill
T4C0.0256
; #@! TA.AperFunction,Plated,PTH,ViaDrill
T5C0.0276
; #@! TA.AperFunction,Plated,PTH,ComponentDrill
T6C0.0276
; #@! TA.AperFunction,Plated,PTH,ComponentDrill
T7C0.0315
; #@! TA.AperFunction,Plated,PTH,ComponentDrill
T8C0.0394
; #@! TA.AperFunction,Plated,PTH,ComponentDrill
T9C0.0866
%
G90
G05
T1
X4.3307Y-2.4803
X4.3307Y-2.5591
X4.3307Y-2.6378
X4.3307Y-2.7165
X4.3307Y-3.2283
X4.3307Y-3.3071
X4.3307Y-3.3858
X4.3307Y-3.4646
X4.3307Y-3.5433
X4.3307Y-3.622
X4.3535Y-2.9908
X4.4094Y-2.5591
X4.4094Y-2.6378
X4.4094Y-3.3858
X4.4094Y-3.4646
X4.4094Y-3.5433
X4.4094Y-3.622
X4.4764Y-2.874
X4.4882Y-2.3228
X4.4882Y-2.4016
X4.4882Y-2.4803
X4.4882Y-2.5591
X4.4882Y-2.6378
X4.4882Y-3.3858
X4.4882Y-3.4646
X4.4882Y-3.5433
X4.4882Y-3.622
X4.4882Y-3.7008
X4.4882Y-3.7795
X4.5669Y-2.3228
X4.5669Y-2.4016
X4.5669Y-2.4803
X4.5669Y-2.5591
X4.5669Y-2.6378
X4.5669Y-3.3858
X4.5669Y-3.4646
X4.5669Y-3.5433
X4.5669Y-3.622
X4.5669Y-3.7008
X4.5669Y-3.7795
X4.6457Y-2.3228
X4.6457Y-2.4016
X4.6457Y-2.4803
X4.6457Y-2.5591
X4.6457Y-3.3858
X4.6457Y-3.4646
X4.6457Y-3.5433
X4.6457Y-3.622
X4.6457Y-3.7008
X4.6457Y-3.7795
X4.6811Y-2.878
X4.6811Y-2.9606
X4.6811Y-3.0276
X4.6811Y-3.1535
X4.685Y-2.7953
X4.7244Y-2.3228
X4.7244Y-2.4016
X4.7244Y-2.4803
X4.7244Y-2.5591
X4.7244Y-3.7795
X4.7638Y-2.7953
X4.7638Y-2.878
X4.7638Y-2.9606
X4.8031Y-2.3228
X4.8031Y-2.4016
X4.8031Y-2.4803
X4.8031Y-2.5591
X4.8031Y-3.7795
X4.8583Y-2.5906
X4.8819Y-2.3228
X4.8819Y-2.4016
X4.8819Y-2.4803
X4.8819Y-3.7795
X4.9213Y-2.7953
X4.9213Y-2.878
X4.9213Y-2.9606
X4.9213Y-3.0236
X4.9606Y-2.3228
X4.9606Y-2.4016
X4.9606Y-2.4803
X4.9606Y-3.7795
X5.0Y-2.7953
X5.0039Y-2.878
X5.0039Y-2.9606
X5.0039Y-3.0276
X5.0394Y-2.3228
X5.0394Y-2.4016
X5.0394Y-2.4803
X5.0394Y-3.7795
X5.0787Y-2.7953
X5.0787Y-3.063
X5.0827Y-3.1772
X5.1102Y-3.3819
X5.1102Y-3.4646
X5.1181Y-2.3228
X5.1181Y-2.4016
X5.1181Y-2.4803
X5.1181Y-3.7795
X5.126Y-3.2992
X5.1766Y-3.3413
X5.1811Y-3.2992
X5.1811Y-3.4646
X5.1969Y-2.3228
X5.1969Y-2.4016
X5.1969Y-2.4803
X5.2087Y-2.8228
X5.2266Y-3.3071
X5.2281Y-3.2598
X5.248Y-3.4646
X5.2677Y-3.0118
X5.2677Y-3.2126
X5.2756Y-2.3228
X5.2835Y-3.2835
X5.2849Y-2.811
X5.2849Y-2.8849
X5.2874Y-3.3228
X5.2953Y-2.5354
X5.2953Y-2.5866
X5.3278Y-3.3465
X5.3346Y-2.9528
X5.3425Y-3.437
X5.3543Y-2.3228
X5.3543Y-2.5354
X5.3543Y-2.5866
X5.3858Y-3.2402
X5.3858Y-3.3701
X5.3927Y-3.124
X5.4094Y-2.7037
X5.4134Y-2.7874
X5.4272Y-3.1777
X5.4331Y-2.3228
X5.4488Y-3.2717
X5.4587Y-3.0276
X5.4606Y-2.5315
X5.4606Y-2.5945
X5.4823Y-3.063
X5.4887Y-2.876
X5.4921Y-3.4606
X5.5Y-2.9685
X5.5118Y-2.3228
X5.5147Y-3.1484
X5.5157Y-3.2992
X5.5216Y-3.063
X5.5276Y-2.5315
X5.5276Y-2.5945
X5.5472Y-2.7008
X5.5512Y-2.7717
X5.561Y-3.063
X5.5669Y-3.374
X5.5817Y-3.2559
X5.5906Y-2.3228
X5.5913Y-3.1924
X5.6003Y-3.063
X5.6063Y-3.374
X5.6181Y-2.7756
X5.6196Y-3.2903
X5.6224Y-2.876
X5.6378Y-2.6063
X5.6378Y-2.9409
X5.6397Y-3.063
X5.6457Y-3.374
X5.6461Y-3.2337
X5.6496Y-2.689
X5.6604Y-3.1969
X5.6693Y-2.3228
X5.6732Y-2.5748
X5.689Y-3.374
X5.6974Y-3.1587
X5.6993Y-3.2323
X5.7126Y-2.7756
X5.7126Y-2.8425
X5.7323Y-2.6024
X5.7362Y-3.374
X5.748Y-2.3228
X5.748Y-2.5276
X5.748Y-3.2963
X5.7568Y-3.0946
X5.7648Y-2.7421
X5.7677Y-3.4055
X5.7717Y-3.4606
X5.7854Y-3.1949
X5.7982Y-2.876
X5.811Y-3.437
X5.8135Y-2.9479
X5.8248Y-2.7736
X5.8268Y-2.3228
X5.9055Y-2.3228
X5.9055Y-2.4016
X5.9055Y-2.4803
X5.9055Y-3.7795
X5.9272Y-3.315
X5.9843Y-2.3228
X5.9843Y-2.4016
X5.9843Y-2.4803
X5.9843Y-2.7165
X5.9843Y-2.7953
X5.9843Y-3.7795
X5.9882Y-3.437
X6.0472Y-2.9528
X6.063Y-2.3228
X6.063Y-2.4016
X6.063Y-2.4803
X6.063Y-2.5591
X6.063Y-2.6378
X6.063Y-2.7165
X6.063Y-2.7953
X6.063Y-3.7795
X6.0906Y-3.0866
X6.1043Y-3.3127
X6.1417Y-2.3228
X6.1417Y-2.4016
X6.1417Y-2.4803
X6.1417Y-3.7795
X6.1575Y-2.8858
X6.1575Y-2.9528
X6.1614Y-3.437
X6.1654Y-3.0866
X6.185Y-2.6339
X6.185Y-2.7598
X6.185Y-2.811
X6.2047Y-3.122
X6.2205Y-2.3228
X6.2205Y-2.4016
X6.2205Y-2.4803
X6.2205Y-3.7795
X6.2441Y-3.0157
X6.252Y-2.6319
X6.252Y-2.7598
X6.2579Y-2.9685
X6.2598Y-3.0945
X6.2598Y-3.1358
X6.2609Y-2.8908
X6.2756Y-3.315
X6.2874Y-2.811
X6.2992Y-2.3228
X6.2992Y-2.4016
X6.2992Y-2.4803
X6.2992Y-2.6063
X6.2992Y-3.7795
X6.3346Y-3.1732
X6.378Y-2.3228
X6.378Y-2.4016
X6.378Y-2.4803
X6.378Y-3.7795
X6.3819Y-2.6181
X6.3819Y-2.6929
X6.3824Y-2.8976
X6.4016Y-3.1732
X6.4016Y-3.2441
X6.437Y-3.3189
X6.4567Y-2.3228
X6.4567Y-2.4016
X6.4567Y-2.4803
X6.4567Y-3.7795
X6.4606Y-2.9843
X6.4724Y-3.0984
X6.4764Y-3.1732
X6.4803Y-3.248
X6.5118Y-2.5827
X6.5118Y-2.6811
X6.5118Y-2.7835
X6.5118Y-2.8819
X6.5157Y-3.2795
X6.5157Y-3.3465
X6.5315Y-3.2008
X6.5354Y-2.3228
X6.5354Y-2.4016
X6.5354Y-2.4803
X6.5354Y-3.7795
X6.5669Y-3.2402
X6.5669Y-3.4055
X6.6142Y-2.3228
X6.6142Y-2.4016
X6.6142Y-2.4803
X6.6142Y-3.7795
X6.6929Y-2.3228
X6.6929Y-2.4016
X6.6929Y-2.4803
X6.6929Y-3.622
X6.6929Y-3.7008
X6.6929Y-3.7795
X6.7047Y-2.9843
X6.7244Y-2.5827
X6.7244Y-2.6811
X6.7244Y-2.7835
X6.7244Y-2.8858
X6.7559Y-3.2717
X6.7717Y-2.3228
X6.7717Y-2.4016
X6.7717Y-2.4803
X6.7717Y-3.4646
X6.7717Y-3.5433
X6.7717Y-3.622
X6.7717Y-3.7008
X6.7717Y-3.7795
X6.8268Y-3.1654
X6.8268Y-3.2717
X6.8268Y-3.4173
X6.9291Y-2.4803
X6.9291Y-2.5591
X6.9291Y-3.5433
X6.9291Y-3.622
T2
X5.4331Y-3.3819
X5.4724Y-3.3819
X5.5118Y-3.3819
T3
X4.7756Y-3.0984
X4.8543Y-3.0984
X6.5866Y-3.122
X6.5866Y-3.3228
X6.6654Y-3.122
X6.6654Y-3.3228
T4
X5.274Y-2.4803
X5.324Y-2.4803
X5.374Y-2.4803
X5.4709Y-2.4803
X5.5209Y-2.4803
X5.5709Y-2.4803
X5.6677Y-2.4803
X5.7083Y-2.6429
X5.7083Y-2.6929
X5.7177Y-2.4803
X5.7583Y-2.6429
X5.7583Y-2.6929
X5.7677Y-2.4803
X5.8083Y-2.6429
X5.8083Y-2.6929
X5.8583Y-2.6429
X5.8583Y-2.6929
X5.8681Y-3.4862
X5.8681Y-3.5362
X5.9083Y-2.6429
X5.9083Y-2.6929
X6.0453Y-3.4843
X6.0453Y-3.5343
X6.2224Y-3.4847
X6.2224Y-3.5347
T5
X5.5492Y-2.9488
T7
X5.315Y-3.7008
X5.315Y-3.7795
X5.3937Y-3.7008
X5.3937Y-3.7795
X5.4724Y-3.7008
X5.4724Y-3.7795
X5.5512Y-3.7008
X5.5512Y-3.7795
X5.6299Y-3.7008
X5.6299Y-3.7795
X5.7087Y-3.7008
X5.7087Y-3.7795
T8
X4.5472Y-3.2323
X4.563Y-2.7819
X4.563Y-2.8819
X4.563Y-2.9819
X4.563Y-3.0819
X4.6472Y-3.2323
X6.7898Y-2.6315
X6.7898Y-2.7315
X6.7898Y-2.8315
X6.7898Y-2.9315
X6.7898Y-3.0315
X6.8898Y-2.6315
X6.8898Y-2.7315
X6.8898Y-2.8315
X6.8898Y-2.9315
X6.8898Y-3.0315
X6.8898Y-3.2874
X6.8898Y-3.3874
X6.8898Y-3.4874
T9
X4.3307Y-2.3622
X4.3307Y-3.7402
X6.8898Y-2.3622
X6.8898Y-3.7402
T4
G00X4.4016Y-2.8386
M15
G01X4.4173Y-2.8386
M16
G05
G00X4.4016Y-3.0291
M15
G01X4.4173Y-3.0291
M16
G05
T6
G00X4.2815Y-2.8264
M15
G01X4.3012Y-2.8264
M16
G05
G00X4.2815Y-3.0413
M15
G01X4.3012Y-3.0413
M16
G05
T0
M30
