%TF.GenerationSoftware,KiCad,Pcbnew,7.99.0-3522-gc5520b3eef-dirty*%
%TF.CreationDate,2024-01-06T21:25:36+00:00*%
%TF.ProjectId,lamp-controller,6c616d70-2d63-46f6-9e74-726f6c6c6572,rev?*%
%TF.SameCoordinates,Original*%
%TF.FileFunction,Soldermask,Bot*%
%TF.FilePolarity,Negative*%
%FSLAX46Y46*%
G04 Gerber Fmt 4.6, Leading zero omitted, Abs format (unit mm)*
G04 Created by KiCad (PCBNEW 7.99.0-3522-gc5520b3eef-dirty) date 2024-01-06 21:25:36*
%MOMM*%
%LPD*%
G01*
G04 APERTURE LIST*
%ADD10R,1.350000X1.350000*%
%ADD11O,1.350000X1.350000*%
%ADD12R,1.700000X1.700000*%
%ADD13O,1.700000X1.700000*%
%ADD14R,1.000000X1.000000*%
%ADD15O,1.000000X1.000000*%
%ADD16R,1.200000X1.200000*%
%ADD17C,1.200000*%
%ADD18C,3.800000*%
%ADD19R,0.850000X0.850000*%
%ADD20O,0.850000X0.850000*%
%ADD21O,1.700000X1.350000*%
%ADD22O,1.500000X1.100000*%
G04 APERTURE END LIST*
D10*
%TO.C,J1*%
X135000000Y-96000000D03*
D11*
X135000000Y-94000000D03*
X137000000Y-96000000D03*
X137000000Y-94000000D03*
X139000000Y-96000000D03*
X139000000Y-94000000D03*
X141000000Y-96000000D03*
X141000000Y-94000000D03*
X143000000Y-96000000D03*
X143000000Y-94000000D03*
X145000000Y-96000000D03*
X145000000Y-94000000D03*
%TD*%
D12*
%TO.C,J2*%
X172460000Y-66840000D03*
D13*
X175000000Y-66840000D03*
X172460000Y-69380000D03*
X175000000Y-69380000D03*
X172460000Y-71920000D03*
X175000000Y-71920000D03*
X172460000Y-74460000D03*
X175000000Y-74460000D03*
X172460000Y-77000000D03*
X175000000Y-77000000D03*
%TD*%
D14*
%TO.C,SW3*%
X153550000Y-89770000D03*
D15*
X153550000Y-88500000D03*
%TD*%
D16*
%TO.C,C3*%
X121300000Y-78700000D03*
D17*
X123300000Y-78700000D03*
%TD*%
D16*
%TO.C,C5*%
X169300000Y-79300000D03*
D17*
X167300000Y-79300000D03*
%TD*%
D18*
%TO.C,H4*%
X110000000Y-95000000D03*
%TD*%
%TO.C,H1*%
X110000000Y-60000000D03*
%TD*%
D16*
%TO.C,C18*%
X169300000Y-84400000D03*
D17*
X167300000Y-84400000D03*
%TD*%
D18*
%TO.C,H3*%
X175000000Y-95000000D03*
%TD*%
D14*
%TO.C,SW2*%
X149050000Y-89820000D03*
D15*
X149050000Y-88550000D03*
%TD*%
D14*
%TO.C,RV2*%
X138960000Y-63000000D03*
D15*
X140230000Y-63000000D03*
X141500000Y-63000000D03*
%TD*%
D12*
%TO.C,J3*%
X175000000Y-83500000D03*
D13*
X175000000Y-86040000D03*
X175000000Y-88580000D03*
%TD*%
D12*
%TO.C,SW1*%
X115500000Y-82100000D03*
D13*
X118040000Y-82100000D03*
%TD*%
D14*
%TO.C,RV3*%
X143960000Y-63000000D03*
D15*
X145230000Y-63000000D03*
X146500000Y-63000000D03*
%TD*%
D14*
%TO.C,RV1*%
X133960000Y-63000000D03*
D15*
X135230000Y-63000000D03*
X136500000Y-63000000D03*
%TD*%
D19*
%TO.C,J6*%
X138000000Y-85900000D03*
D20*
X139000000Y-85900000D03*
X140000000Y-85900000D03*
%TD*%
D18*
%TO.C,H2*%
X175000000Y-60000000D03*
%TD*%
D14*
%TO.C,J5*%
X150070000Y-67130000D03*
D15*
X150070000Y-68400000D03*
X148800000Y-67130000D03*
X148800000Y-68400000D03*
X147530000Y-67130000D03*
X147530000Y-68400000D03*
X146260000Y-67130000D03*
X146260000Y-68400000D03*
X144990000Y-67130000D03*
X144990000Y-68400000D03*
%TD*%
D21*
%TO.C,J8*%
X109000000Y-71790000D03*
D22*
X112000000Y-72100000D03*
X112000000Y-76940000D03*
D21*
X109000000Y-77250000D03*
%TD*%
D15*
%TO.C,SW4*%
X158050000Y-88512500D03*
D14*
X158050000Y-89782500D03*
%TD*%
D12*
%TO.C,J7*%
X115900000Y-78280000D03*
D13*
X115900000Y-75740000D03*
X115900000Y-73200000D03*
X115900000Y-70660000D03*
%TD*%
M02*
