%TF.GenerationSoftware,KiCad,Pcbnew,7.99.0-3522-gc5520b3eef-dirty*%
%TF.CreationDate,2023-12-17T14:55:43+00:00*%
%TF.ProjectId,lamp-controller,6c616d70-2d63-46f6-9e74-726f6c6c6572,rev?*%
%TF.SameCoordinates,Original*%
%TF.FileFunction,Paste,Top*%
%TF.FilePolarity,Positive*%
%FSLAX46Y46*%
G04 Gerber Fmt 4.6, Leading zero omitted, Abs format (unit mm)*
G04 Created by KiCad (PCBNEW 7.99.0-3522-gc5520b3eef-dirty) date 2023-12-17 14:55:43*
%MOMM*%
%LPD*%
G01*
G04 APERTURE LIST*
G04 Aperture macros list*
%AMRoundRect*
0 Rectangle with rounded corners*
0 $1 Rounding radius*
0 $2 $3 $4 $5 $6 $7 $8 $9 X,Y pos of 4 corners*
0 Add a 4 corners polygon primitive as box body*
4,1,4,$2,$3,$4,$5,$6,$7,$8,$9,$2,$3,0*
0 Add four circle primitives for the rounded corners*
1,1,$1+$1,$2,$3*
1,1,$1+$1,$4,$5*
1,1,$1+$1,$6,$7*
1,1,$1+$1,$8,$9*
0 Add four rect primitives between the rounded corners*
20,1,$1+$1,$2,$3,$4,$5,0*
20,1,$1+$1,$4,$5,$6,$7,0*
20,1,$1+$1,$6,$7,$8,$9,0*
20,1,$1+$1,$8,$9,$2,$3,0*%
G04 Aperture macros list end*
%ADD10RoundRect,0.150000X-0.512500X-0.150000X0.512500X-0.150000X0.512500X0.150000X-0.512500X0.150000X0*%
%ADD11RoundRect,0.250000X0.337500X0.475000X-0.337500X0.475000X-0.337500X-0.475000X0.337500X-0.475000X0*%
%ADD12RoundRect,0.100000X-0.637500X-0.100000X0.637500X-0.100000X0.637500X0.100000X-0.637500X0.100000X0*%
%ADD13RoundRect,0.237500X0.250000X0.237500X-0.250000X0.237500X-0.250000X-0.237500X0.250000X-0.237500X0*%
%ADD14RoundRect,0.250000X-0.475000X0.337500X-0.475000X-0.337500X0.475000X-0.337500X0.475000X0.337500X0*%
%ADD15R,0.650000X0.400000*%
%ADD16RoundRect,0.237500X0.237500X-0.250000X0.237500X0.250000X-0.237500X0.250000X-0.237500X-0.250000X0*%
%ADD17RoundRect,0.237500X-0.250000X-0.237500X0.250000X-0.237500X0.250000X0.237500X-0.250000X0.237500X0*%
G04 APERTURE END LIST*
D10*
%TO.C,Q1*%
X156600000Y-78100000D03*
X156600000Y-79050000D03*
X156600000Y-80000000D03*
X158875000Y-80000000D03*
X158875000Y-79050000D03*
X158875000Y-78100000D03*
%TD*%
D11*
%TO.C,C7*%
X146450000Y-85900000D03*
X148525000Y-85900000D03*
%TD*%
D12*
%TO.C,U2*%
X149600000Y-77980000D03*
X149600000Y-78630000D03*
X149600000Y-79280000D03*
X149600000Y-79930000D03*
X149600000Y-80580000D03*
X149600000Y-81230000D03*
X149600000Y-81880000D03*
X149600000Y-82530000D03*
X149600000Y-83180000D03*
X149600000Y-83830000D03*
X143875000Y-83830000D03*
X143875000Y-83180000D03*
X143875000Y-82530000D03*
X143875000Y-81880000D03*
X143875000Y-81230000D03*
X143875000Y-80580000D03*
X143875000Y-79930000D03*
X143875000Y-79280000D03*
X143875000Y-78630000D03*
X143875000Y-77980000D03*
%TD*%
D13*
%TO.C,R5*%
X148400000Y-89200000D03*
X146575000Y-89200000D03*
%TD*%
D14*
%TO.C,C4*%
X140200000Y-86475000D03*
X140200000Y-88550000D03*
%TD*%
D13*
%TO.C,R8*%
X152962500Y-78100000D03*
X154787500Y-78100000D03*
%TD*%
%TO.C,R4*%
X154800000Y-72100000D03*
X152975000Y-72100000D03*
%TD*%
D11*
%TO.C,C6*%
X139600000Y-82000000D03*
X141675000Y-82000000D03*
%TD*%
D13*
%TO.C,R1*%
X139895000Y-78105000D03*
X141720000Y-78105000D03*
%TD*%
D11*
%TO.C,C5*%
X141675000Y-80000000D03*
X139600000Y-80000000D03*
%TD*%
D15*
%TO.C,U1*%
X139670000Y-73955000D03*
X139670000Y-75255000D03*
X137770000Y-75255000D03*
X137770000Y-74605000D03*
X137770000Y-73955000D03*
%TD*%
D14*
%TO.C,C3*%
X141520000Y-76180000D03*
X141520000Y-74105000D03*
%TD*%
D13*
%TO.C,R6*%
X154787500Y-74400000D03*
X152962500Y-74400000D03*
%TD*%
D16*
%TO.C,R3*%
X157000000Y-83800000D03*
X157000000Y-81975000D03*
%TD*%
%TO.C,R2*%
X155200000Y-83800000D03*
X155200000Y-81975000D03*
%TD*%
D14*
%TO.C,C1*%
X135750000Y-76075000D03*
X135750000Y-74000000D03*
%TD*%
D17*
%TO.C,R7*%
X146575000Y-87700000D03*
X148400000Y-87700000D03*
%TD*%
D10*
%TO.C,Q2*%
X156662500Y-72050000D03*
X156662500Y-73000000D03*
X156662500Y-73950000D03*
X158937500Y-73950000D03*
X158937500Y-73000000D03*
X158937500Y-72050000D03*
%TD*%
M02*
