%TF.GenerationSoftware,KiCad,Pcbnew,7.99.0-3522-gc5520b3eef-dirty*%
%TF.CreationDate,2024-01-06T21:25:40+00:00*%
%TF.ProjectId,lamp-controller,6c616d70-2d63-46f6-9e74-726f6c6c6572,rev?*%
%TF.SameCoordinates,Original*%
%TF.FileFunction,Drillmap*%
%TF.FilePolarity,Positive*%
%FSLAX45Y45*%
G04 Gerber Fmt 4.5, Leading zero omitted, Abs format (unit mm)*
G04 Created by KiCad (PCBNEW 7.99.0-3522-gc5520b3eef-dirty) date 2024-01-06 21:25:40*
%MOMM*%
%LPD*%
G01*
G04 APERTURE LIST*
%ADD10C,0.100000*%
%ADD11C,0.200000*%
%ADD12C,0.220000*%
G04 APERTURE END LIST*
D10*
X10730000Y-5750000D02*
X17760000Y-5750000D01*
X17760000Y-9750000D01*
X10730000Y-9750000D01*
X10730000Y-5750000D01*
D11*
D10*
X10980000Y-6280000D02*
X11020000Y-6320000D01*
X11020000Y-6280000D02*
X10980000Y-6320000D01*
X10980000Y-6480000D02*
X11020000Y-6520000D01*
X11020000Y-6480000D02*
X10980000Y-6520000D01*
X10980000Y-6680000D02*
X11020000Y-6720000D01*
X11020000Y-6680000D02*
X10980000Y-6720000D01*
X10980000Y-6880000D02*
X11020000Y-6920000D01*
X11020000Y-6880000D02*
X10980000Y-6920000D01*
X10980000Y-8180000D02*
X11020000Y-8220000D01*
X11020000Y-8180000D02*
X10980000Y-8220000D01*
X10980000Y-8380000D02*
X11020000Y-8420000D01*
X11020000Y-8380000D02*
X10980000Y-8420000D01*
X10980000Y-8580000D02*
X11020000Y-8620000D01*
X11020000Y-8580000D02*
X10980000Y-8620000D01*
X10980000Y-8780000D02*
X11020000Y-8820000D01*
X11020000Y-8780000D02*
X10980000Y-8820000D01*
X10980000Y-8980000D02*
X11020000Y-9020000D01*
X11020000Y-8980000D02*
X10980000Y-9020000D01*
X10980000Y-9180000D02*
X11020000Y-9220000D01*
X11020000Y-9180000D02*
X10980000Y-9220000D01*
X11037950Y-7576607D02*
X11077950Y-7616607D01*
X11077950Y-7576607D02*
X11037950Y-7616607D01*
X11180000Y-6480000D02*
X11220000Y-6520000D01*
X11220000Y-6480000D02*
X11180000Y-6520000D01*
X11180000Y-6680000D02*
X11220000Y-6720000D01*
X11220000Y-6680000D02*
X11180000Y-6720000D01*
X11180000Y-8580000D02*
X11220000Y-8620000D01*
X11220000Y-8580000D02*
X11180000Y-8620000D01*
X11180000Y-8780000D02*
X11220000Y-8820000D01*
X11220000Y-8780000D02*
X11180000Y-8820000D01*
X11180000Y-8980000D02*
X11220000Y-9020000D01*
X11220000Y-8980000D02*
X11180000Y-9020000D01*
X11180000Y-9180000D02*
X11220000Y-9220000D01*
X11220000Y-9180000D02*
X11180000Y-9220000D01*
X11350000Y-7280000D02*
X11390000Y-7320000D01*
X11390000Y-7280000D02*
X11350000Y-7320000D01*
X11380000Y-5880000D02*
X11420000Y-5920000D01*
X11420000Y-5880000D02*
X11380000Y-5920000D01*
X11380000Y-6080000D02*
X11420000Y-6120000D01*
X11420000Y-6080000D02*
X11380000Y-6120000D01*
X11380000Y-6280000D02*
X11420000Y-6320000D01*
X11420000Y-6280000D02*
X11380000Y-6320000D01*
X11380000Y-6480000D02*
X11420000Y-6520000D01*
X11420000Y-6480000D02*
X11380000Y-6520000D01*
X11380000Y-6680000D02*
X11420000Y-6720000D01*
X11420000Y-6680000D02*
X11380000Y-6720000D01*
X11380000Y-8580000D02*
X11420000Y-8620000D01*
X11420000Y-8580000D02*
X11380000Y-8620000D01*
X11380000Y-8780000D02*
X11420000Y-8820000D01*
X11420000Y-8780000D02*
X11380000Y-8820000D01*
X11380000Y-8980000D02*
X11420000Y-9020000D01*
X11420000Y-8980000D02*
X11380000Y-9020000D01*
X11380000Y-9180000D02*
X11420000Y-9220000D01*
X11420000Y-9180000D02*
X11380000Y-9220000D01*
X11380000Y-9380000D02*
X11420000Y-9420000D01*
X11420000Y-9380000D02*
X11380000Y-9420000D01*
X11380000Y-9580000D02*
X11420000Y-9620000D01*
X11420000Y-9580000D02*
X11380000Y-9620000D01*
X11580000Y-5880000D02*
X11620000Y-5920000D01*
X11620000Y-5880000D02*
X11580000Y-5920000D01*
X11580000Y-6080000D02*
X11620000Y-6120000D01*
X11620000Y-6080000D02*
X11580000Y-6120000D01*
X11580000Y-6280000D02*
X11620000Y-6320000D01*
X11620000Y-6280000D02*
X11580000Y-6320000D01*
X11580000Y-6480000D02*
X11620000Y-6520000D01*
X11620000Y-6480000D02*
X11580000Y-6520000D01*
X11580000Y-6680000D02*
X11620000Y-6720000D01*
X11620000Y-6680000D02*
X11580000Y-6720000D01*
X11580000Y-8580000D02*
X11620000Y-8620000D01*
X11620000Y-8580000D02*
X11580000Y-8620000D01*
X11580000Y-8780000D02*
X11620000Y-8820000D01*
X11620000Y-8780000D02*
X11580000Y-8820000D01*
X11580000Y-8980000D02*
X11620000Y-9020000D01*
X11620000Y-8980000D02*
X11580000Y-9020000D01*
X11580000Y-9180000D02*
X11620000Y-9220000D01*
X11620000Y-9180000D02*
X11580000Y-9220000D01*
X11580000Y-9380000D02*
X11620000Y-9420000D01*
X11620000Y-9380000D02*
X11580000Y-9420000D01*
X11580000Y-9580000D02*
X11620000Y-9620000D01*
X11620000Y-9580000D02*
X11580000Y-9620000D01*
X11780000Y-5880000D02*
X11820000Y-5920000D01*
X11820000Y-5880000D02*
X11780000Y-5920000D01*
X11780000Y-6080000D02*
X11820000Y-6120000D01*
X11820000Y-6080000D02*
X11780000Y-6120000D01*
X11780000Y-6280000D02*
X11820000Y-6320000D01*
X11820000Y-6280000D02*
X11780000Y-6320000D01*
X11780000Y-6480000D02*
X11820000Y-6520000D01*
X11820000Y-6480000D02*
X11780000Y-6520000D01*
X11780000Y-8580000D02*
X11820000Y-8620000D01*
X11820000Y-8580000D02*
X11780000Y-8620000D01*
X11780000Y-8780000D02*
X11820000Y-8820000D01*
X11820000Y-8780000D02*
X11780000Y-8820000D01*
X11780000Y-8980000D02*
X11820000Y-9020000D01*
X11820000Y-8980000D02*
X11780000Y-9020000D01*
X11780000Y-9180000D02*
X11820000Y-9220000D01*
X11820000Y-9180000D02*
X11780000Y-9220000D01*
X11780000Y-9380000D02*
X11820000Y-9420000D01*
X11820000Y-9380000D02*
X11780000Y-9420000D01*
X11780000Y-9580000D02*
X11820000Y-9620000D01*
X11820000Y-9580000D02*
X11780000Y-9620000D01*
X11870000Y-7290000D02*
X11910000Y-7330000D01*
X11910000Y-7290000D02*
X11870000Y-7330000D01*
X11870000Y-7500000D02*
X11910000Y-7540000D01*
X11910000Y-7500000D02*
X11870000Y-7540000D01*
X11870000Y-7670000D02*
X11910000Y-7710000D01*
X11910000Y-7670000D02*
X11870000Y-7710000D01*
X11870000Y-7990000D02*
X11910000Y-8030000D01*
X11910000Y-7990000D02*
X11870000Y-8030000D01*
X11880000Y-7080000D02*
X11920000Y-7120000D01*
X11920000Y-7080000D02*
X11880000Y-7120000D01*
X11980000Y-5880000D02*
X12020000Y-5920000D01*
X12020000Y-5880000D02*
X11980000Y-5920000D01*
X11980000Y-6080000D02*
X12020000Y-6120000D01*
X12020000Y-6080000D02*
X11980000Y-6120000D01*
X11980000Y-6280000D02*
X12020000Y-6320000D01*
X12020000Y-6280000D02*
X11980000Y-6320000D01*
X11980000Y-6480000D02*
X12020000Y-6520000D01*
X12020000Y-6480000D02*
X11980000Y-6520000D01*
X11980000Y-9580000D02*
X12020000Y-9620000D01*
X12020000Y-9580000D02*
X11980000Y-9620000D01*
X12080000Y-7080000D02*
X12120000Y-7120000D01*
X12120000Y-7080000D02*
X12080000Y-7120000D01*
X12080000Y-7290000D02*
X12120000Y-7330000D01*
X12120000Y-7290000D02*
X12080000Y-7330000D01*
X12080000Y-7500000D02*
X12120000Y-7540000D01*
X12120000Y-7500000D02*
X12080000Y-7540000D01*
X12180000Y-5880000D02*
X12220000Y-5920000D01*
X12220000Y-5880000D02*
X12180000Y-5920000D01*
X12180000Y-6080000D02*
X12220000Y-6120000D01*
X12220000Y-6080000D02*
X12180000Y-6120000D01*
X12180000Y-6280000D02*
X12220000Y-6320000D01*
X12220000Y-6280000D02*
X12180000Y-6320000D01*
X12180000Y-6480000D02*
X12220000Y-6520000D01*
X12220000Y-6480000D02*
X12180000Y-6520000D01*
X12180000Y-9580000D02*
X12220000Y-9620000D01*
X12220000Y-9580000D02*
X12180000Y-9620000D01*
X12320000Y-6560000D02*
X12360000Y-6600000D01*
X12360000Y-6560000D02*
X12320000Y-6600000D01*
X12380000Y-5880000D02*
X12420000Y-5920000D01*
X12420000Y-5880000D02*
X12380000Y-5920000D01*
X12380000Y-6080000D02*
X12420000Y-6120000D01*
X12420000Y-6080000D02*
X12380000Y-6120000D01*
X12380000Y-6280000D02*
X12420000Y-6320000D01*
X12420000Y-6280000D02*
X12380000Y-6320000D01*
X12380000Y-9580000D02*
X12420000Y-9620000D01*
X12420000Y-9580000D02*
X12380000Y-9620000D01*
X12480000Y-7080000D02*
X12520000Y-7120000D01*
X12520000Y-7080000D02*
X12480000Y-7120000D01*
X12480000Y-7290000D02*
X12520000Y-7330000D01*
X12520000Y-7290000D02*
X12480000Y-7330000D01*
X12480000Y-7500000D02*
X12520000Y-7540000D01*
X12520000Y-7500000D02*
X12480000Y-7540000D01*
X12480000Y-7660000D02*
X12520000Y-7700000D01*
X12520000Y-7660000D02*
X12480000Y-7700000D01*
X12580000Y-5880000D02*
X12620000Y-5920000D01*
X12620000Y-5880000D02*
X12580000Y-5920000D01*
X12580000Y-6080000D02*
X12620000Y-6120000D01*
X12620000Y-6080000D02*
X12580000Y-6120000D01*
X12580000Y-6280000D02*
X12620000Y-6320000D01*
X12620000Y-6280000D02*
X12580000Y-6320000D01*
X12580000Y-9580000D02*
X12620000Y-9620000D01*
X12620000Y-9580000D02*
X12580000Y-9620000D01*
X12680000Y-7080000D02*
X12720000Y-7120000D01*
X12720000Y-7080000D02*
X12680000Y-7120000D01*
X12690000Y-7290000D02*
X12730000Y-7330000D01*
X12730000Y-7290000D02*
X12690000Y-7330000D01*
X12690000Y-7500000D02*
X12730000Y-7540000D01*
X12730000Y-7500000D02*
X12690000Y-7540000D01*
X12690000Y-7670000D02*
X12730000Y-7710000D01*
X12730000Y-7670000D02*
X12690000Y-7710000D01*
X12780000Y-5880000D02*
X12820000Y-5920000D01*
X12820000Y-5880000D02*
X12780000Y-5920000D01*
X12780000Y-6080000D02*
X12820000Y-6120000D01*
X12820000Y-6080000D02*
X12780000Y-6120000D01*
X12780000Y-6280000D02*
X12820000Y-6320000D01*
X12820000Y-6280000D02*
X12780000Y-6320000D01*
X12780000Y-9580000D02*
X12820000Y-9620000D01*
X12820000Y-9580000D02*
X12780000Y-9620000D01*
X12880000Y-7080000D02*
X12920000Y-7120000D01*
X12920000Y-7080000D02*
X12880000Y-7120000D01*
X12880000Y-7760000D02*
X12920000Y-7800000D01*
X12920000Y-7760000D02*
X12880000Y-7800000D01*
X12890000Y-8050000D02*
X12930000Y-8090000D01*
X12930000Y-8050000D02*
X12890000Y-8090000D01*
X12960000Y-8570000D02*
X13000000Y-8610000D01*
X13000000Y-8570000D02*
X12960000Y-8610000D01*
X12960000Y-8780000D02*
X13000000Y-8820000D01*
X13000000Y-8780000D02*
X12960000Y-8820000D01*
X12980000Y-5880000D02*
X13020000Y-5920000D01*
X13020000Y-5880000D02*
X12980000Y-5920000D01*
X12980000Y-6080000D02*
X13020000Y-6120000D01*
X13020000Y-6080000D02*
X12980000Y-6120000D01*
X12980000Y-6280000D02*
X13020000Y-6320000D01*
X13020000Y-6280000D02*
X12980000Y-6320000D01*
X12980000Y-9580000D02*
X13020000Y-9620000D01*
X13020000Y-9580000D02*
X12980000Y-9620000D01*
X13000000Y-8360000D02*
X13040000Y-8400000D01*
X13040000Y-8360000D02*
X13000000Y-8400000D01*
X13128550Y-8466950D02*
X13168550Y-8506950D01*
X13168550Y-8466950D02*
X13128550Y-8506950D01*
X13140000Y-8360000D02*
X13180000Y-8400000D01*
X13180000Y-8360000D02*
X13140000Y-8400000D01*
X13140000Y-8780000D02*
X13180000Y-8820000D01*
X13180000Y-8780000D02*
X13140000Y-8820000D01*
X13180000Y-5880000D02*
X13220000Y-5920000D01*
X13220000Y-5880000D02*
X13180000Y-5920000D01*
X13180000Y-6080000D02*
X13220000Y-6120000D01*
X13220000Y-6080000D02*
X13180000Y-6120000D01*
X13180000Y-6280000D02*
X13220000Y-6320000D01*
X13220000Y-6280000D02*
X13180000Y-6320000D01*
X13210000Y-7150000D02*
X13250000Y-7190000D01*
X13250000Y-7150000D02*
X13210000Y-7190000D01*
X13255550Y-8380000D02*
X13295550Y-8420000D01*
X13295550Y-8380000D02*
X13255550Y-8420000D01*
X13259500Y-8260000D02*
X13299500Y-8300000D01*
X13299500Y-8260000D02*
X13259500Y-8300000D01*
X13310000Y-8780000D02*
X13350000Y-8820000D01*
X13350000Y-8780000D02*
X13310000Y-8820000D01*
X13360000Y-7630000D02*
X13400000Y-7670000D01*
X13400000Y-7630000D02*
X13360000Y-7670000D01*
X13360000Y-8140000D02*
X13400000Y-8180000D01*
X13400000Y-8140000D02*
X13360000Y-8180000D01*
X13380000Y-5880000D02*
X13420000Y-5920000D01*
X13420000Y-5880000D02*
X13380000Y-5920000D01*
X13400000Y-8320000D02*
X13440000Y-8360000D01*
X13440000Y-8320000D02*
X13400000Y-8360000D01*
X13403574Y-7120031D02*
X13443574Y-7160031D01*
X13443574Y-7120031D02*
X13403574Y-7160031D01*
X13403700Y-7307550D02*
X13443700Y-7347550D01*
X13443700Y-7307550D02*
X13403700Y-7347550D01*
X13410000Y-8420000D02*
X13450000Y-8460000D01*
X13450000Y-8420000D02*
X13410000Y-8460000D01*
X13430000Y-6420000D02*
X13470000Y-6460000D01*
X13470000Y-6420000D02*
X13430000Y-6460000D01*
X13430000Y-6550000D02*
X13470000Y-6590000D01*
X13470000Y-6550000D02*
X13430000Y-6590000D01*
X13512550Y-8480000D02*
X13552550Y-8520000D01*
X13552550Y-8480000D02*
X13512550Y-8520000D01*
X13530000Y-7480000D02*
X13570000Y-7520000D01*
X13570000Y-7480000D02*
X13530000Y-7520000D01*
X13550000Y-8710000D02*
X13590000Y-8750000D01*
X13590000Y-8710000D02*
X13550000Y-8750000D01*
X13580000Y-5880000D02*
X13620000Y-5920000D01*
X13620000Y-5880000D02*
X13580000Y-5920000D01*
X13580000Y-6420000D02*
X13620000Y-6460000D01*
X13620000Y-6420000D02*
X13580000Y-6460000D01*
X13580000Y-6550000D02*
X13620000Y-6590000D01*
X13620000Y-6550000D02*
X13580000Y-6590000D01*
X13660000Y-8210000D02*
X13700000Y-8250000D01*
X13700000Y-8210000D02*
X13660000Y-8250000D01*
X13660000Y-8540000D02*
X13700000Y-8580000D01*
X13700000Y-8540000D02*
X13660000Y-8580000D01*
X13677450Y-7915000D02*
X13717450Y-7955000D01*
X13717450Y-7915000D02*
X13677450Y-7955000D01*
X13720000Y-6847500D02*
X13760000Y-6887500D01*
X13760000Y-6847500D02*
X13720000Y-6887500D01*
X13730000Y-7060000D02*
X13770000Y-7100000D01*
X13770000Y-7060000D02*
X13730000Y-7100000D01*
X13765000Y-8051300D02*
X13805000Y-8091300D01*
X13805000Y-8051300D02*
X13765000Y-8091300D01*
X13780000Y-5880000D02*
X13820000Y-5920000D01*
X13820000Y-5880000D02*
X13780000Y-5920000D01*
X13820000Y-8290000D02*
X13860000Y-8330000D01*
X13860000Y-8290000D02*
X13820000Y-8330000D01*
X13845000Y-7670000D02*
X13885000Y-7710000D01*
X13885000Y-7670000D02*
X13845000Y-7710000D01*
X13850000Y-6410000D02*
X13890000Y-6450000D01*
X13890000Y-6410000D02*
X13850000Y-6450000D01*
X13850000Y-6570000D02*
X13890000Y-6610000D01*
X13890000Y-6570000D02*
X13850000Y-6610000D01*
X13905000Y-7760000D02*
X13945000Y-7800000D01*
X13945000Y-7760000D02*
X13905000Y-7800000D01*
X13921200Y-7284930D02*
X13961200Y-7324930D01*
X13961200Y-7284930D02*
X13921200Y-7324930D01*
X13930000Y-8770000D02*
X13970000Y-8810000D01*
X13970000Y-8770000D02*
X13930000Y-8810000D01*
X13950000Y-7520000D02*
X13990000Y-7560000D01*
X13990000Y-7520000D02*
X13950000Y-7560000D01*
X13980000Y-5880000D02*
X14020000Y-5920000D01*
X14020000Y-5880000D02*
X13980000Y-5920000D01*
X13987450Y-7976916D02*
X14027450Y-8016916D01*
X14027450Y-7976916D02*
X13987450Y-8016916D01*
X13990000Y-8360000D02*
X14030000Y-8400000D01*
X14030000Y-8360000D02*
X13990000Y-8400000D01*
X14004950Y-7760000D02*
X14044950Y-7800000D01*
X14044950Y-7760000D02*
X14004950Y-7800000D01*
X14020000Y-6410000D02*
X14060000Y-6450000D01*
X14060000Y-6410000D02*
X14020000Y-6450000D01*
X14020000Y-6570000D02*
X14060000Y-6610000D01*
X14060000Y-6570000D02*
X14020000Y-6610000D01*
X14070000Y-6840000D02*
X14110000Y-6880000D01*
X14110000Y-6840000D02*
X14070000Y-6880000D01*
X14080000Y-7020000D02*
X14120000Y-7060000D01*
X14120000Y-7020000D02*
X14080000Y-7060000D01*
X14104901Y-7760000D02*
X14144901Y-7800000D01*
X14144901Y-7760000D02*
X14104901Y-7800000D01*
X14120050Y-8550000D02*
X14160050Y-8590000D01*
X14160050Y-8550000D02*
X14120050Y-8590000D01*
X14157400Y-8250000D02*
X14197400Y-8290000D01*
X14197400Y-8250000D02*
X14157400Y-8290000D01*
X14180000Y-5880000D02*
X14220000Y-5920000D01*
X14220000Y-5880000D02*
X14180000Y-5920000D01*
X14181967Y-8088800D02*
X14221967Y-8128800D01*
X14221967Y-8088800D02*
X14181967Y-8128800D01*
X14204851Y-7760000D02*
X14244851Y-7800000D01*
X14244851Y-7760000D02*
X14204851Y-7800000D01*
X14220000Y-8550000D02*
X14260000Y-8590000D01*
X14260000Y-8550000D02*
X14220000Y-8590000D01*
X14250000Y-7030000D02*
X14290000Y-7070000D01*
X14290000Y-7030000D02*
X14250000Y-7070000D01*
X14253750Y-8337410D02*
X14293750Y-8377410D01*
X14293750Y-8337410D02*
X14253750Y-8377410D01*
X14260783Y-7284930D02*
X14300783Y-7324930D01*
X14300783Y-7284930D02*
X14260783Y-7324930D01*
X14300000Y-6600000D02*
X14340000Y-6640000D01*
X14340000Y-6600000D02*
X14300000Y-6640000D01*
X14300000Y-7450000D02*
X14340000Y-7490000D01*
X14340000Y-7450000D02*
X14300000Y-7490000D01*
X14304801Y-7760000D02*
X14344801Y-7800000D01*
X14344801Y-7760000D02*
X14304801Y-7800000D01*
X14320000Y-8550000D02*
X14360000Y-8590000D01*
X14360000Y-8550000D02*
X14320000Y-8590000D01*
X14321200Y-8193581D02*
X14361200Y-8233581D01*
X14361200Y-8193581D02*
X14321200Y-8233581D01*
X14330000Y-6810000D02*
X14370000Y-6850000D01*
X14370000Y-6810000D02*
X14330000Y-6850000D01*
X14357450Y-8100000D02*
X14397450Y-8140000D01*
X14397450Y-8100000D02*
X14357450Y-8140000D01*
X14380000Y-5880000D02*
X14420000Y-5920000D01*
X14420000Y-5880000D02*
X14380000Y-5920000D01*
X14390000Y-6520000D02*
X14430000Y-6560000D01*
X14430000Y-6520000D02*
X14390000Y-6560000D01*
X14430000Y-8550000D02*
X14470000Y-8590000D01*
X14470000Y-8550000D02*
X14430000Y-8590000D01*
X14451341Y-8003043D02*
X14491341Y-8043043D01*
X14491341Y-8003043D02*
X14451341Y-8043043D01*
X14456150Y-8190000D02*
X14496150Y-8230000D01*
X14496150Y-8190000D02*
X14456150Y-8230000D01*
X14490000Y-7030000D02*
X14530000Y-7070000D01*
X14530000Y-7030000D02*
X14490000Y-7070000D01*
X14490000Y-7200000D02*
X14530000Y-7240000D01*
X14530000Y-7200000D02*
X14490000Y-7240000D01*
X14540000Y-6590000D02*
X14580000Y-6630000D01*
X14580000Y-6590000D02*
X14540000Y-6630000D01*
X14550000Y-8550000D02*
X14590000Y-8590000D01*
X14590000Y-8550000D02*
X14550000Y-8590000D01*
X14580000Y-5880000D02*
X14620000Y-5920000D01*
X14620000Y-5880000D02*
X14580000Y-5920000D01*
X14580000Y-6400000D02*
X14620000Y-6440000D01*
X14620000Y-6400000D02*
X14580000Y-6440000D01*
X14580000Y-8352550D02*
X14620000Y-8392550D01*
X14620000Y-8352550D02*
X14580000Y-8392550D01*
X14602251Y-7840173D02*
X14642251Y-7880173D01*
X14642251Y-7840173D02*
X14602251Y-7880173D01*
X14622674Y-6944865D02*
X14662674Y-6984865D01*
X14662674Y-6944865D02*
X14622674Y-6984865D01*
X14630000Y-8630000D02*
X14670000Y-8670000D01*
X14670000Y-8630000D02*
X14630000Y-8670000D01*
X14640000Y-8770000D02*
X14680000Y-8810000D01*
X14680000Y-8770000D02*
X14640000Y-8810000D01*
X14675000Y-8095000D02*
X14715000Y-8135000D01*
X14715000Y-8095000D02*
X14675000Y-8135000D01*
X14707450Y-7284930D02*
X14747450Y-7324930D01*
X14747450Y-7284930D02*
X14707450Y-7324930D01*
X14740000Y-8710000D02*
X14780000Y-8750000D01*
X14780000Y-8710000D02*
X14740000Y-8750000D01*
X14746399Y-7467550D02*
X14786399Y-7507550D01*
X14786399Y-7467550D02*
X14746399Y-7507550D01*
X14775000Y-7025000D02*
X14815000Y-7065000D01*
X14815000Y-7025000D02*
X14775000Y-7065000D01*
X14780000Y-5880000D02*
X14820000Y-5920000D01*
X14820000Y-5880000D02*
X14780000Y-5920000D01*
X14980000Y-5880000D02*
X15020000Y-5920000D01*
X15020000Y-5880000D02*
X14980000Y-5920000D01*
X14980000Y-6080000D02*
X15020000Y-6120000D01*
X15020000Y-6080000D02*
X14980000Y-6120000D01*
X14980000Y-6280000D02*
X15020000Y-6320000D01*
X15020000Y-6280000D02*
X14980000Y-6320000D01*
X14980000Y-9580000D02*
X15020000Y-9620000D01*
X15020000Y-9580000D02*
X14980000Y-9620000D01*
X15035000Y-8400000D02*
X15075000Y-8440000D01*
X15075000Y-8400000D02*
X15035000Y-8440000D01*
X15180000Y-5880000D02*
X15220000Y-5920000D01*
X15220000Y-5880000D02*
X15180000Y-5920000D01*
X15180000Y-6080000D02*
X15220000Y-6120000D01*
X15220000Y-6080000D02*
X15180000Y-6120000D01*
X15180000Y-6280000D02*
X15220000Y-6320000D01*
X15220000Y-6280000D02*
X15180000Y-6320000D01*
X15180000Y-6880000D02*
X15220000Y-6920000D01*
X15220000Y-6880000D02*
X15180000Y-6920000D01*
X15180000Y-7080000D02*
X15220000Y-7120000D01*
X15220000Y-7080000D02*
X15180000Y-7120000D01*
X15180000Y-9580000D02*
X15220000Y-9620000D01*
X15220000Y-9580000D02*
X15180000Y-9620000D01*
X15190000Y-8710000D02*
X15230000Y-8750000D01*
X15230000Y-8710000D02*
X15190000Y-8750000D01*
X15340000Y-7480000D02*
X15380000Y-7520000D01*
X15380000Y-7480000D02*
X15340000Y-7520000D01*
X15380000Y-5880000D02*
X15420000Y-5920000D01*
X15420000Y-5880000D02*
X15380000Y-5920000D01*
X15380000Y-6080000D02*
X15420000Y-6120000D01*
X15420000Y-6080000D02*
X15380000Y-6120000D01*
X15380000Y-6280000D02*
X15420000Y-6320000D01*
X15420000Y-6280000D02*
X15380000Y-6320000D01*
X15380000Y-6480000D02*
X15420000Y-6520000D01*
X15420000Y-6480000D02*
X15380000Y-6520000D01*
X15380000Y-6680000D02*
X15420000Y-6720000D01*
X15420000Y-6680000D02*
X15380000Y-6720000D01*
X15380000Y-6880000D02*
X15420000Y-6920000D01*
X15420000Y-6880000D02*
X15380000Y-6920000D01*
X15380000Y-7080000D02*
X15420000Y-7120000D01*
X15420000Y-7080000D02*
X15380000Y-7120000D01*
X15380000Y-9580000D02*
X15420000Y-9620000D01*
X15420000Y-9580000D02*
X15380000Y-9620000D01*
X15450000Y-7820000D02*
X15490000Y-7860000D01*
X15490000Y-7820000D02*
X15450000Y-7860000D01*
X15485000Y-8394139D02*
X15525000Y-8434139D01*
X15525000Y-8394139D02*
X15485000Y-8434139D01*
X15580000Y-5880000D02*
X15620000Y-5920000D01*
X15620000Y-5880000D02*
X15580000Y-5920000D01*
X15580000Y-6080000D02*
X15620000Y-6120000D01*
X15620000Y-6080000D02*
X15580000Y-6120000D01*
X15580000Y-6280000D02*
X15620000Y-6320000D01*
X15620000Y-6280000D02*
X15580000Y-6320000D01*
X15580000Y-9580000D02*
X15620000Y-9620000D01*
X15620000Y-9580000D02*
X15580000Y-9620000D01*
X15620000Y-7310000D02*
X15660000Y-7350000D01*
X15660000Y-7310000D02*
X15620000Y-7350000D01*
X15620000Y-7480000D02*
X15660000Y-7520000D01*
X15660000Y-7480000D02*
X15620000Y-7520000D01*
X15630000Y-8710000D02*
X15670000Y-8750000D01*
X15670000Y-8710000D02*
X15630000Y-8750000D01*
X15640000Y-7820000D02*
X15680000Y-7860000D01*
X15680000Y-7820000D02*
X15640000Y-7860000D01*
X15690000Y-6670000D02*
X15730000Y-6710000D01*
X15730000Y-6670000D02*
X15690000Y-6710000D01*
X15690000Y-6990000D02*
X15730000Y-7030000D01*
X15730000Y-6990000D02*
X15690000Y-7030000D01*
X15690000Y-7120000D02*
X15730000Y-7160000D01*
X15730000Y-7120000D02*
X15690000Y-7160000D01*
X15740000Y-7910000D02*
X15780000Y-7950000D01*
X15780000Y-7910000D02*
X15740000Y-7950000D01*
X15780000Y-5880000D02*
X15820000Y-5920000D01*
X15820000Y-5880000D02*
X15780000Y-5920000D01*
X15780000Y-6080000D02*
X15820000Y-6120000D01*
X15820000Y-6080000D02*
X15780000Y-6120000D01*
X15780000Y-6280000D02*
X15820000Y-6320000D01*
X15820000Y-6280000D02*
X15780000Y-6320000D01*
X15780000Y-9580000D02*
X15820000Y-9620000D01*
X15820000Y-9580000D02*
X15780000Y-9620000D01*
X15840000Y-7640000D02*
X15880000Y-7680000D01*
X15880000Y-7640000D02*
X15840000Y-7680000D01*
X15860000Y-6665000D02*
X15900000Y-6705000D01*
X15900000Y-6665000D02*
X15860000Y-6705000D01*
X15860000Y-6990000D02*
X15900000Y-7030000D01*
X15900000Y-6990000D02*
X15860000Y-7030000D01*
X15875000Y-7520000D02*
X15915000Y-7560000D01*
X15915000Y-7520000D02*
X15875000Y-7560000D01*
X15880000Y-7840000D02*
X15920000Y-7880000D01*
X15920000Y-7840000D02*
X15880000Y-7880000D01*
X15880000Y-7945000D02*
X15920000Y-7985000D01*
X15920000Y-7945000D02*
X15880000Y-7985000D01*
X15882588Y-7322550D02*
X15922588Y-7362550D01*
X15922588Y-7322550D02*
X15882588Y-7362550D01*
X15920000Y-8400000D02*
X15960000Y-8440000D01*
X15960000Y-8400000D02*
X15920000Y-8440000D01*
X15950000Y-7120000D02*
X15990000Y-7160000D01*
X15990000Y-7120000D02*
X15950000Y-7160000D01*
X15980000Y-5880000D02*
X16020000Y-5920000D01*
X16020000Y-5880000D02*
X15980000Y-5920000D01*
X15980000Y-6080000D02*
X16020000Y-6120000D01*
X16020000Y-6080000D02*
X15980000Y-6120000D01*
X15980000Y-6280000D02*
X16020000Y-6320000D01*
X16020000Y-6280000D02*
X15980000Y-6320000D01*
X15980000Y-6600000D02*
X16020000Y-6640000D01*
X16020000Y-6600000D02*
X15980000Y-6640000D01*
X15980000Y-9580000D02*
X16020000Y-9620000D01*
X16020000Y-9580000D02*
X15980000Y-9620000D01*
X16070000Y-8040000D02*
X16110000Y-8080000D01*
X16110000Y-8040000D02*
X16070000Y-8080000D01*
X16180000Y-5880000D02*
X16220000Y-5920000D01*
X16220000Y-5880000D02*
X16180000Y-5920000D01*
X16180000Y-6080000D02*
X16220000Y-6120000D01*
X16220000Y-6080000D02*
X16180000Y-6120000D01*
X16180000Y-6280000D02*
X16220000Y-6320000D01*
X16220000Y-6280000D02*
X16180000Y-6320000D01*
X16180000Y-9580000D02*
X16220000Y-9620000D01*
X16220000Y-9580000D02*
X16180000Y-9620000D01*
X16190000Y-6630000D02*
X16230000Y-6670000D01*
X16230000Y-6630000D02*
X16190000Y-6670000D01*
X16190000Y-6820000D02*
X16230000Y-6860000D01*
X16230000Y-6820000D02*
X16190000Y-6860000D01*
X16191250Y-7340000D02*
X16231250Y-7380000D01*
X16231250Y-7340000D02*
X16191250Y-7380000D01*
X16240000Y-8040000D02*
X16280000Y-8080000D01*
X16280000Y-8040000D02*
X16240000Y-8080000D01*
X16240000Y-8220000D02*
X16280000Y-8260000D01*
X16280000Y-8220000D02*
X16240000Y-8260000D01*
X16330000Y-8410000D02*
X16370000Y-8450000D01*
X16370000Y-8410000D02*
X16330000Y-8450000D01*
X16380000Y-5880000D02*
X16420000Y-5920000D01*
X16420000Y-5880000D02*
X16380000Y-5920000D01*
X16380000Y-6080000D02*
X16420000Y-6120000D01*
X16420000Y-6080000D02*
X16380000Y-6120000D01*
X16380000Y-6280000D02*
X16420000Y-6320000D01*
X16420000Y-6280000D02*
X16380000Y-6320000D01*
X16380000Y-9580000D02*
X16420000Y-9620000D01*
X16420000Y-9580000D02*
X16380000Y-9620000D01*
X16390000Y-7560000D02*
X16430000Y-7600000D01*
X16430000Y-7560000D02*
X16390000Y-7600000D01*
X16420000Y-7850000D02*
X16460000Y-7890000D01*
X16460000Y-7850000D02*
X16420000Y-7890000D01*
X16430000Y-8040000D02*
X16470000Y-8080000D01*
X16470000Y-8040000D02*
X16430000Y-8080000D01*
X16440000Y-8230000D02*
X16480000Y-8270000D01*
X16480000Y-8230000D02*
X16440000Y-8270000D01*
X16520000Y-6540000D02*
X16560000Y-6580000D01*
X16560000Y-6540000D02*
X16520000Y-6580000D01*
X16520000Y-6790000D02*
X16560000Y-6830000D01*
X16560000Y-6790000D02*
X16520000Y-6830000D01*
X16520000Y-7050000D02*
X16560000Y-7090000D01*
X16560000Y-7050000D02*
X16520000Y-7090000D01*
X16520000Y-7300000D02*
X16560000Y-7340000D01*
X16560000Y-7300000D02*
X16520000Y-7340000D01*
X16530000Y-8310000D02*
X16570000Y-8350000D01*
X16570000Y-8310000D02*
X16530000Y-8350000D01*
X16530000Y-8480000D02*
X16570000Y-8520000D01*
X16570000Y-8480000D02*
X16530000Y-8520000D01*
X16570000Y-8110000D02*
X16610000Y-8150000D01*
X16610000Y-8110000D02*
X16570000Y-8150000D01*
X16580000Y-5880000D02*
X16620000Y-5920000D01*
X16620000Y-5880000D02*
X16580000Y-5920000D01*
X16580000Y-6080000D02*
X16620000Y-6120000D01*
X16620000Y-6080000D02*
X16580000Y-6120000D01*
X16580000Y-6280000D02*
X16620000Y-6320000D01*
X16620000Y-6280000D02*
X16580000Y-6320000D01*
X16580000Y-9580000D02*
X16620000Y-9620000D01*
X16620000Y-9580000D02*
X16580000Y-9620000D01*
X16660000Y-8210000D02*
X16700000Y-8250000D01*
X16700000Y-8210000D02*
X16660000Y-8250000D01*
X16660000Y-8630000D02*
X16700000Y-8670000D01*
X16700000Y-8630000D02*
X16660000Y-8670000D01*
X16780000Y-5880000D02*
X16820000Y-5920000D01*
X16820000Y-5880000D02*
X16780000Y-5920000D01*
X16780000Y-6080000D02*
X16820000Y-6120000D01*
X16820000Y-6080000D02*
X16780000Y-6120000D01*
X16780000Y-6280000D02*
X16820000Y-6320000D01*
X16820000Y-6280000D02*
X16780000Y-6320000D01*
X16780000Y-9580000D02*
X16820000Y-9620000D01*
X16820000Y-9580000D02*
X16780000Y-9620000D01*
X16980000Y-5880000D02*
X17020000Y-5920000D01*
X17020000Y-5880000D02*
X16980000Y-5920000D01*
X16980000Y-6080000D02*
X17020000Y-6120000D01*
X17020000Y-6080000D02*
X16980000Y-6120000D01*
X16980000Y-6280000D02*
X17020000Y-6320000D01*
X17020000Y-6280000D02*
X16980000Y-6320000D01*
X16980000Y-9180000D02*
X17020000Y-9220000D01*
X17020000Y-9180000D02*
X16980000Y-9220000D01*
X16980000Y-9380000D02*
X17020000Y-9420000D01*
X17020000Y-9380000D02*
X16980000Y-9420000D01*
X16980000Y-9580000D02*
X17020000Y-9620000D01*
X17020000Y-9580000D02*
X16980000Y-9620000D01*
X17010000Y-7560000D02*
X17050000Y-7600000D01*
X17050000Y-7560000D02*
X17010000Y-7600000D01*
X17060000Y-6540000D02*
X17100000Y-6580000D01*
X17100000Y-6540000D02*
X17060000Y-6580000D01*
X17060000Y-6790000D02*
X17100000Y-6830000D01*
X17100000Y-6790000D02*
X17060000Y-6830000D01*
X17060000Y-7050000D02*
X17100000Y-7090000D01*
X17100000Y-7050000D02*
X17060000Y-7090000D01*
X17060000Y-7310000D02*
X17100000Y-7350000D01*
X17100000Y-7310000D02*
X17060000Y-7350000D01*
X17140000Y-8290000D02*
X17180000Y-8330000D01*
X17180000Y-8290000D02*
X17140000Y-8330000D01*
X17180000Y-5880000D02*
X17220000Y-5920000D01*
X17220000Y-5880000D02*
X17180000Y-5920000D01*
X17180000Y-6080000D02*
X17220000Y-6120000D01*
X17220000Y-6080000D02*
X17180000Y-6120000D01*
X17180000Y-6280000D02*
X17220000Y-6320000D01*
X17220000Y-6280000D02*
X17180000Y-6320000D01*
X17180000Y-8780000D02*
X17220000Y-8820000D01*
X17220000Y-8780000D02*
X17180000Y-8820000D01*
X17180000Y-8980000D02*
X17220000Y-9020000D01*
X17220000Y-8980000D02*
X17180000Y-9020000D01*
X17180000Y-9180000D02*
X17220000Y-9220000D01*
X17220000Y-9180000D02*
X17180000Y-9220000D01*
X17180000Y-9380000D02*
X17220000Y-9420000D01*
X17220000Y-9380000D02*
X17180000Y-9420000D01*
X17180000Y-9580000D02*
X17220000Y-9620000D01*
X17220000Y-9580000D02*
X17180000Y-9620000D01*
X17320000Y-8020000D02*
X17360000Y-8060000D01*
X17360000Y-8020000D02*
X17320000Y-8060000D01*
X17320000Y-8290000D02*
X17360000Y-8330000D01*
X17360000Y-8290000D02*
X17320000Y-8330000D01*
X17320000Y-8660000D02*
X17360000Y-8700000D01*
X17360000Y-8660000D02*
X17320000Y-8700000D01*
X17580000Y-6280000D02*
X17620000Y-6320000D01*
X17620000Y-6280000D02*
X17580000Y-6320000D01*
X17580000Y-6480000D02*
X17620000Y-6520000D01*
X17620000Y-6480000D02*
X17580000Y-6520000D01*
X17580000Y-8980000D02*
X17620000Y-9020000D01*
X17620000Y-8980000D02*
X17580000Y-9020000D01*
X17580000Y-9180000D02*
X17620000Y-9220000D01*
X17620000Y-9180000D02*
X17580000Y-9220000D01*
X13825000Y-8590000D02*
G75*
G02*
X13825000Y-8590000I-25000J0D01*
G01*
X13925000Y-8590000D02*
G75*
G02*
X13925000Y-8590000I-25000J0D01*
G01*
X14025000Y-8590000D02*
G75*
G02*
X14025000Y-8590000I-25000J0D01*
G01*
X12130000Y-7840000D02*
X12130000Y-7900000D01*
X12100000Y-7870000D02*
X12160000Y-7870000D01*
X12330000Y-7840000D02*
X12330000Y-7900000D01*
X12300000Y-7870000D02*
X12360000Y-7870000D01*
X16730000Y-7900000D02*
X16730000Y-7960000D01*
X16700000Y-7930000D02*
X16760000Y-7930000D01*
X16730000Y-8410000D02*
X16730000Y-8470000D01*
X16700000Y-8440000D02*
X16760000Y-8440000D01*
X16930000Y-7900000D02*
X16930000Y-7960000D01*
X16900000Y-7930000D02*
X16960000Y-7930000D01*
X16930000Y-8410000D02*
X16930000Y-8470000D01*
X16900000Y-8440000D02*
X16960000Y-8440000D01*
X11222981Y-7232981D02*
X11222981Y-7187019D01*
X11177019Y-7187019D01*
X11177019Y-7232981D01*
X11222981Y-7232981D01*
X11180000Y-7242500D02*
X11220000Y-7242500D01*
X11220000Y-7177500D02*
G75*
G02*
X11220000Y-7242500I0J-32500D01*
G01*
X11220000Y-7177500D02*
X11180000Y-7177500D01*
X11180000Y-7177500D02*
G75*
G03*
X11180000Y-7242500I0J-32500D01*
G01*
X11222981Y-7716981D02*
X11222981Y-7671019D01*
X11177019Y-7671019D01*
X11177019Y-7716981D01*
X11222981Y-7716981D01*
X11180000Y-7726500D02*
X11220000Y-7726500D01*
X11220000Y-7661500D02*
G75*
G02*
X11220000Y-7726500I0J-32500D01*
G01*
X11220000Y-7661500D02*
X11180000Y-7661500D01*
X11180000Y-7661500D02*
G75*
G03*
X11180000Y-7726500I0J-32500D01*
G01*
X13418981Y-6322981D02*
X13418981Y-6277019D01*
X13373019Y-6277019D01*
X13373019Y-6322981D01*
X13418981Y-6322981D01*
X13545981Y-6322981D02*
X13545981Y-6277019D01*
X13500019Y-6277019D01*
X13500019Y-6322981D01*
X13545981Y-6322981D01*
X13672981Y-6322981D02*
X13672981Y-6277019D01*
X13627019Y-6277019D01*
X13627019Y-6322981D01*
X13672981Y-6322981D01*
X13918981Y-6322981D02*
X13918981Y-6277019D01*
X13873019Y-6277019D01*
X13873019Y-6322981D01*
X13918981Y-6322981D01*
X14045981Y-6322981D02*
X14045981Y-6277019D01*
X14000019Y-6277019D01*
X14000019Y-6322981D01*
X14045981Y-6322981D01*
X14172981Y-6322981D02*
X14172981Y-6277019D01*
X14127019Y-6277019D01*
X14127019Y-6322981D01*
X14172981Y-6322981D01*
X14418981Y-6322981D02*
X14418981Y-6277019D01*
X14373019Y-6277019D01*
X14373019Y-6322981D01*
X14418981Y-6322981D01*
X14521981Y-6735981D02*
X14521981Y-6690019D01*
X14476019Y-6690019D01*
X14476019Y-6735981D01*
X14521981Y-6735981D01*
X14521981Y-6862981D02*
X14521981Y-6817019D01*
X14476019Y-6817019D01*
X14476019Y-6862981D01*
X14521981Y-6862981D01*
X14545981Y-6322981D02*
X14545981Y-6277019D01*
X14500019Y-6277019D01*
X14500019Y-6322981D01*
X14545981Y-6322981D01*
X14648981Y-6735981D02*
X14648981Y-6690019D01*
X14603019Y-6690019D01*
X14603019Y-6735981D01*
X14648981Y-6735981D01*
X14648981Y-6862981D02*
X14648981Y-6817019D01*
X14603019Y-6817019D01*
X14603019Y-6862981D01*
X14648981Y-6862981D01*
X14672981Y-6322981D02*
X14672981Y-6277019D01*
X14627019Y-6277019D01*
X14627019Y-6322981D01*
X14672981Y-6322981D01*
X14775981Y-6735981D02*
X14775981Y-6690019D01*
X14730019Y-6690019D01*
X14730019Y-6735981D01*
X14775981Y-6735981D01*
X14775981Y-6862981D02*
X14775981Y-6817019D01*
X14730019Y-6817019D01*
X14730019Y-6862981D01*
X14775981Y-6862981D01*
X14902981Y-6735981D02*
X14902981Y-6690019D01*
X14857019Y-6690019D01*
X14857019Y-6735981D01*
X14902981Y-6735981D01*
X14902981Y-6862981D02*
X14902981Y-6817019D01*
X14857019Y-6817019D01*
X14857019Y-6862981D01*
X14902981Y-6862981D01*
X14927981Y-8877981D02*
X14927981Y-8832019D01*
X14882019Y-8832019D01*
X14882019Y-8877981D01*
X14927981Y-8877981D01*
X14927981Y-9004981D02*
X14927981Y-8959019D01*
X14882019Y-8959019D01*
X14882019Y-9004981D01*
X14927981Y-9004981D01*
X15029981Y-6735981D02*
X15029981Y-6690019D01*
X14984019Y-6690019D01*
X14984019Y-6735981D01*
X15029981Y-6735981D01*
X15029981Y-6862981D02*
X15029981Y-6817019D01*
X14984019Y-6817019D01*
X14984019Y-6862981D01*
X15029981Y-6862981D01*
X15377981Y-8872981D02*
X15377981Y-8827019D01*
X15332019Y-8827019D01*
X15332019Y-8872981D01*
X15377981Y-8872981D01*
X15377981Y-8999981D02*
X15377981Y-8954019D01*
X15332019Y-8954019D01*
X15332019Y-8999981D01*
X15377981Y-8999981D01*
X15827981Y-8874231D02*
X15827981Y-8828269D01*
X15782019Y-8828269D01*
X15782019Y-8874231D01*
X15827981Y-8874231D01*
X15827981Y-9001231D02*
X15827981Y-8955269D01*
X15782019Y-8955269D01*
X15782019Y-9001231D01*
X15827981Y-9001231D01*
X14095000Y-7525000D02*
X14130000Y-7490000D01*
X14095000Y-7455000D01*
X14060000Y-7490000D01*
X14095000Y-7525000D01*
X10865000Y-7144000D02*
X10935000Y-7214000D01*
X10935000Y-7144000D02*
X10865000Y-7214000D01*
X10935000Y-7179000D02*
G75*
G02*
X10935000Y-7179000I-35000J0D01*
G01*
X10875000Y-7214000D02*
X10925000Y-7214000D01*
X10925000Y-7144000D02*
G75*
G02*
X10925000Y-7214000I0J-35000D01*
G01*
X10925000Y-7144000D02*
X10875000Y-7144000D01*
X10875000Y-7144000D02*
G75*
G03*
X10875000Y-7214000I0J-35000D01*
G01*
X10865000Y-7690000D02*
X10935000Y-7760000D01*
X10935000Y-7690000D02*
X10865000Y-7760000D01*
X10935000Y-7725000D02*
G75*
G02*
X10935000Y-7725000I-35000J0D01*
G01*
X10875000Y-7760000D02*
X10925000Y-7760000D01*
X10925000Y-7690000D02*
G75*
G02*
X10925000Y-7760000I0J-35000D01*
G01*
X10925000Y-7690000D02*
X10875000Y-7690000D01*
X10875000Y-7690000D02*
G75*
G03*
X10875000Y-7760000I0J-35000D01*
G01*
X13460000Y-9360000D02*
X13540000Y-9440000D01*
X13540000Y-9360000D02*
X13460000Y-9440000D01*
X13500000Y-9360000D02*
X13500000Y-9440000D01*
X13460000Y-9400000D02*
X13540000Y-9400000D01*
X13460000Y-9560000D02*
X13540000Y-9640000D01*
X13540000Y-9560000D02*
X13460000Y-9640000D01*
X13500000Y-9560000D02*
X13500000Y-9640000D01*
X13460000Y-9600000D02*
X13540000Y-9600000D01*
X13660000Y-9360000D02*
X13740000Y-9440000D01*
X13740000Y-9360000D02*
X13660000Y-9440000D01*
X13700000Y-9360000D02*
X13700000Y-9440000D01*
X13660000Y-9400000D02*
X13740000Y-9400000D01*
X13660000Y-9560000D02*
X13740000Y-9640000D01*
X13740000Y-9560000D02*
X13660000Y-9640000D01*
X13700000Y-9560000D02*
X13700000Y-9640000D01*
X13660000Y-9600000D02*
X13740000Y-9600000D01*
X13860000Y-9360000D02*
X13940000Y-9440000D01*
X13940000Y-9360000D02*
X13860000Y-9440000D01*
X13900000Y-9360000D02*
X13900000Y-9440000D01*
X13860000Y-9400000D02*
X13940000Y-9400000D01*
X13860000Y-9560000D02*
X13940000Y-9640000D01*
X13940000Y-9560000D02*
X13860000Y-9640000D01*
X13900000Y-9560000D02*
X13900000Y-9640000D01*
X13860000Y-9600000D02*
X13940000Y-9600000D01*
X14060000Y-9360000D02*
X14140000Y-9440000D01*
X14140000Y-9360000D02*
X14060000Y-9440000D01*
X14100000Y-9360000D02*
X14100000Y-9440000D01*
X14060000Y-9400000D02*
X14140000Y-9400000D01*
X14060000Y-9560000D02*
X14140000Y-9640000D01*
X14140000Y-9560000D02*
X14060000Y-9640000D01*
X14100000Y-9560000D02*
X14100000Y-9640000D01*
X14060000Y-9600000D02*
X14140000Y-9600000D01*
X14260000Y-9360000D02*
X14340000Y-9440000D01*
X14340000Y-9360000D02*
X14260000Y-9440000D01*
X14300000Y-9360000D02*
X14300000Y-9440000D01*
X14260000Y-9400000D02*
X14340000Y-9400000D01*
X14260000Y-9560000D02*
X14340000Y-9640000D01*
X14340000Y-9560000D02*
X14260000Y-9640000D01*
X14300000Y-9560000D02*
X14300000Y-9640000D01*
X14260000Y-9600000D02*
X14340000Y-9600000D01*
X14460000Y-9360000D02*
X14540000Y-9440000D01*
X14540000Y-9360000D02*
X14460000Y-9440000D01*
X14500000Y-9360000D02*
X14500000Y-9440000D01*
X14460000Y-9400000D02*
X14540000Y-9400000D01*
X14460000Y-9560000D02*
X14540000Y-9640000D01*
X14540000Y-9560000D02*
X14460000Y-9640000D01*
X14500000Y-9560000D02*
X14500000Y-9640000D01*
X14460000Y-9600000D02*
X14540000Y-9600000D01*
X11500000Y-8160000D02*
X11600000Y-8260000D01*
X11600000Y-8160000D02*
X11500000Y-8260000D01*
X11585356Y-8245356D02*
X11585356Y-8174644D01*
X11514644Y-8174644D01*
X11514644Y-8245356D01*
X11585356Y-8245356D01*
X11540000Y-7016000D02*
X11640000Y-7116000D01*
X11640000Y-7016000D02*
X11540000Y-7116000D01*
X11625356Y-7101356D02*
X11625356Y-7030644D01*
X11554644Y-7030644D01*
X11554644Y-7101356D01*
X11625356Y-7101356D01*
X11540000Y-7270000D02*
X11640000Y-7370000D01*
X11640000Y-7270000D02*
X11540000Y-7370000D01*
X11625356Y-7355356D02*
X11625356Y-7284644D01*
X11554644Y-7284644D01*
X11554644Y-7355356D01*
X11625356Y-7355356D01*
X11540000Y-7524000D02*
X11640000Y-7624000D01*
X11640000Y-7524000D02*
X11540000Y-7624000D01*
X11625356Y-7609356D02*
X11625356Y-7538644D01*
X11554644Y-7538644D01*
X11554644Y-7609356D01*
X11625356Y-7609356D01*
X11540000Y-7778000D02*
X11640000Y-7878000D01*
X11640000Y-7778000D02*
X11540000Y-7878000D01*
X11625356Y-7863356D02*
X11625356Y-7792644D01*
X11554644Y-7792644D01*
X11554644Y-7863356D01*
X11625356Y-7863356D01*
X11754000Y-8160000D02*
X11854000Y-8260000D01*
X11854000Y-8160000D02*
X11754000Y-8260000D01*
X11839356Y-8245356D02*
X11839356Y-8174644D01*
X11768644Y-8174644D01*
X11768644Y-8245356D01*
X11839356Y-8245356D01*
X17196000Y-6634000D02*
X17296000Y-6734000D01*
X17296000Y-6634000D02*
X17196000Y-6734000D01*
X17281356Y-6719356D02*
X17281356Y-6648644D01*
X17210644Y-6648644D01*
X17210644Y-6719356D01*
X17281356Y-6719356D01*
X17196000Y-6888000D02*
X17296000Y-6988000D01*
X17296000Y-6888000D02*
X17196000Y-6988000D01*
X17281356Y-6973356D02*
X17281356Y-6902644D01*
X17210644Y-6902644D01*
X17210644Y-6973356D01*
X17281356Y-6973356D01*
X17196000Y-7142000D02*
X17296000Y-7242000D01*
X17296000Y-7142000D02*
X17196000Y-7242000D01*
X17281356Y-7227356D02*
X17281356Y-7156644D01*
X17210644Y-7156644D01*
X17210644Y-7227356D01*
X17281356Y-7227356D01*
X17196000Y-7396000D02*
X17296000Y-7496000D01*
X17296000Y-7396000D02*
X17196000Y-7496000D01*
X17281356Y-7481356D02*
X17281356Y-7410644D01*
X17210644Y-7410644D01*
X17210644Y-7481356D01*
X17281356Y-7481356D01*
X17196000Y-7650000D02*
X17296000Y-7750000D01*
X17296000Y-7650000D02*
X17196000Y-7750000D01*
X17281356Y-7735356D02*
X17281356Y-7664644D01*
X17210644Y-7664644D01*
X17210644Y-7735356D01*
X17281356Y-7735356D01*
X17450000Y-6634000D02*
X17550000Y-6734000D01*
X17550000Y-6634000D02*
X17450000Y-6734000D01*
X17535356Y-6719356D02*
X17535356Y-6648644D01*
X17464644Y-6648644D01*
X17464644Y-6719356D01*
X17535356Y-6719356D01*
X17450000Y-6888000D02*
X17550000Y-6988000D01*
X17550000Y-6888000D02*
X17450000Y-6988000D01*
X17535356Y-6973356D02*
X17535356Y-6902644D01*
X17464644Y-6902644D01*
X17464644Y-6973356D01*
X17535356Y-6973356D01*
X17450000Y-7142000D02*
X17550000Y-7242000D01*
X17550000Y-7142000D02*
X17450000Y-7242000D01*
X17535356Y-7227356D02*
X17535356Y-7156644D01*
X17464644Y-7156644D01*
X17464644Y-7227356D01*
X17535356Y-7227356D01*
X17450000Y-7396000D02*
X17550000Y-7496000D01*
X17550000Y-7396000D02*
X17450000Y-7496000D01*
X17535356Y-7481356D02*
X17535356Y-7410644D01*
X17464644Y-7410644D01*
X17464644Y-7481356D01*
X17535356Y-7481356D01*
X17450000Y-7650000D02*
X17550000Y-7750000D01*
X17550000Y-7650000D02*
X17450000Y-7750000D01*
X17535356Y-7735356D02*
X17535356Y-7664644D01*
X17464644Y-7664644D01*
X17464644Y-7735356D01*
X17535356Y-7735356D01*
X17450000Y-8300000D02*
X17550000Y-8400000D01*
X17550000Y-8300000D02*
X17450000Y-8400000D01*
X17535356Y-8385356D02*
X17535356Y-8314644D01*
X17464644Y-8314644D01*
X17464644Y-8385356D01*
X17535356Y-8385356D01*
X17450000Y-8554000D02*
X17550000Y-8654000D01*
X17550000Y-8554000D02*
X17450000Y-8654000D01*
X17535356Y-8639356D02*
X17535356Y-8568644D01*
X17464644Y-8568644D01*
X17464644Y-8639356D01*
X17535356Y-8639356D01*
X17450000Y-8808000D02*
X17550000Y-8908000D01*
X17550000Y-8808000D02*
X17450000Y-8908000D01*
X17535356Y-8893356D02*
X17535356Y-8822644D01*
X17464644Y-8822644D01*
X17464644Y-8893356D01*
X17535356Y-8893356D01*
D12*
X10890000Y-5890000D02*
X11110000Y-6110000D01*
X11110000Y-5890000D02*
X10890000Y-6110000D01*
X11000000Y-6110000D02*
X11110000Y-6000000D01*
X11000000Y-5890000D01*
X10890000Y-6000000D01*
X11000000Y-6110000D01*
X10890000Y-9390000D02*
X11110000Y-9610000D01*
X11110000Y-9390000D02*
X10890000Y-9610000D01*
X11000000Y-9610000D02*
X11110000Y-9500000D01*
X11000000Y-9390000D01*
X10890000Y-9500000D01*
X11000000Y-9610000D01*
X17390000Y-5890000D02*
X17610000Y-6110000D01*
X17610000Y-5890000D02*
X17390000Y-6110000D01*
X17500000Y-6110000D02*
X17610000Y-6000000D01*
X17500000Y-5890000D01*
X17390000Y-6000000D01*
X17500000Y-6110000D01*
X17390000Y-9390000D02*
X17610000Y-9610000D01*
X17610000Y-9390000D02*
X17390000Y-9610000D01*
X17500000Y-9610000D02*
X17610000Y-9500000D01*
X17500000Y-9390000D01*
X17390000Y-9500000D01*
X17500000Y-9610000D01*
D11*
X10985777Y-10066484D02*
X10985777Y-9866484D01*
X10985777Y-9866484D02*
X11033396Y-9866484D01*
X11033396Y-9866484D02*
X11061967Y-9876008D01*
X11061967Y-9876008D02*
X11081015Y-9895055D01*
X11081015Y-9895055D02*
X11090539Y-9914103D01*
X11090539Y-9914103D02*
X11100063Y-9952198D01*
X11100063Y-9952198D02*
X11100063Y-9980770D01*
X11100063Y-9980770D02*
X11090539Y-10018865D01*
X11090539Y-10018865D02*
X11081015Y-10037912D01*
X11081015Y-10037912D02*
X11061967Y-10056960D01*
X11061967Y-10056960D02*
X11033396Y-10066484D01*
X11033396Y-10066484D02*
X10985777Y-10066484D01*
X11185777Y-10066484D02*
X11185777Y-9933150D01*
X11185777Y-9971246D02*
X11195301Y-9952198D01*
X11195301Y-9952198D02*
X11204824Y-9942674D01*
X11204824Y-9942674D02*
X11223872Y-9933150D01*
X11223872Y-9933150D02*
X11242920Y-9933150D01*
X11309586Y-10066484D02*
X11309586Y-9933150D01*
X11309586Y-9866484D02*
X11300062Y-9876008D01*
X11300062Y-9876008D02*
X11309586Y-9885531D01*
X11309586Y-9885531D02*
X11319110Y-9876008D01*
X11319110Y-9876008D02*
X11309586Y-9866484D01*
X11309586Y-9866484D02*
X11309586Y-9885531D01*
X11433396Y-10066484D02*
X11414348Y-10056960D01*
X11414348Y-10056960D02*
X11404824Y-10037912D01*
X11404824Y-10037912D02*
X11404824Y-9866484D01*
X11538158Y-10066484D02*
X11519110Y-10056960D01*
X11519110Y-10056960D02*
X11509586Y-10037912D01*
X11509586Y-10037912D02*
X11509586Y-9866484D01*
X11766729Y-10066484D02*
X11766729Y-9866484D01*
X11766729Y-9866484D02*
X11833396Y-10009341D01*
X11833396Y-10009341D02*
X11900062Y-9866484D01*
X11900062Y-9866484D02*
X11900062Y-10066484D01*
X12081015Y-10066484D02*
X12081015Y-9961722D01*
X12081015Y-9961722D02*
X12071491Y-9942674D01*
X12071491Y-9942674D02*
X12052443Y-9933150D01*
X12052443Y-9933150D02*
X12014348Y-9933150D01*
X12014348Y-9933150D02*
X11995301Y-9942674D01*
X12081015Y-10056960D02*
X12061967Y-10066484D01*
X12061967Y-10066484D02*
X12014348Y-10066484D01*
X12014348Y-10066484D02*
X11995301Y-10056960D01*
X11995301Y-10056960D02*
X11985777Y-10037912D01*
X11985777Y-10037912D02*
X11985777Y-10018865D01*
X11985777Y-10018865D02*
X11995301Y-9999817D01*
X11995301Y-9999817D02*
X12014348Y-9990293D01*
X12014348Y-9990293D02*
X12061967Y-9990293D01*
X12061967Y-9990293D02*
X12081015Y-9980770D01*
X12176253Y-9933150D02*
X12176253Y-10133150D01*
X12176253Y-9942674D02*
X12195301Y-9933150D01*
X12195301Y-9933150D02*
X12233396Y-9933150D01*
X12233396Y-9933150D02*
X12252443Y-9942674D01*
X12252443Y-9942674D02*
X12261967Y-9952198D01*
X12261967Y-9952198D02*
X12271491Y-9971246D01*
X12271491Y-9971246D02*
X12271491Y-10028389D01*
X12271491Y-10028389D02*
X12261967Y-10047436D01*
X12261967Y-10047436D02*
X12252443Y-10056960D01*
X12252443Y-10056960D02*
X12233396Y-10066484D01*
X12233396Y-10066484D02*
X12195301Y-10066484D01*
X12195301Y-10066484D02*
X12176253Y-10056960D01*
X12357205Y-10047436D02*
X12366729Y-10056960D01*
X12366729Y-10056960D02*
X12357205Y-10066484D01*
X12357205Y-10066484D02*
X12347682Y-10056960D01*
X12347682Y-10056960D02*
X12357205Y-10047436D01*
X12357205Y-10047436D02*
X12357205Y-10066484D01*
X12357205Y-9942674D02*
X12366729Y-9952198D01*
X12366729Y-9952198D02*
X12357205Y-9961722D01*
X12357205Y-9961722D02*
X12347682Y-9952198D01*
X12347682Y-9952198D02*
X12357205Y-9942674D01*
X12357205Y-9942674D02*
X12357205Y-9961722D01*
D10*
X10685000Y-10375000D02*
X10725000Y-10415000D01*
X10725000Y-10375000D02*
X10685000Y-10415000D01*
D11*
X11023872Y-10286484D02*
X11042920Y-10286484D01*
X11042920Y-10286484D02*
X11061967Y-10296008D01*
X11061967Y-10296008D02*
X11071491Y-10305531D01*
X11071491Y-10305531D02*
X11081015Y-10324579D01*
X11081015Y-10324579D02*
X11090539Y-10362674D01*
X11090539Y-10362674D02*
X11090539Y-10410293D01*
X11090539Y-10410293D02*
X11081015Y-10448389D01*
X11081015Y-10448389D02*
X11071491Y-10467436D01*
X11071491Y-10467436D02*
X11061967Y-10476960D01*
X11061967Y-10476960D02*
X11042920Y-10486484D01*
X11042920Y-10486484D02*
X11023872Y-10486484D01*
X11023872Y-10486484D02*
X11004824Y-10476960D01*
X11004824Y-10476960D02*
X10995301Y-10467436D01*
X10995301Y-10467436D02*
X10985777Y-10448389D01*
X10985777Y-10448389D02*
X10976253Y-10410293D01*
X10976253Y-10410293D02*
X10976253Y-10362674D01*
X10976253Y-10362674D02*
X10985777Y-10324579D01*
X10985777Y-10324579D02*
X10995301Y-10305531D01*
X10995301Y-10305531D02*
X11004824Y-10296008D01*
X11004824Y-10296008D02*
X11023872Y-10286484D01*
X11176253Y-10467436D02*
X11185777Y-10476960D01*
X11185777Y-10476960D02*
X11176253Y-10486484D01*
X11176253Y-10486484D02*
X11166729Y-10476960D01*
X11166729Y-10476960D02*
X11176253Y-10467436D01*
X11176253Y-10467436D02*
X11176253Y-10486484D01*
X11357205Y-10353150D02*
X11357205Y-10486484D01*
X11309586Y-10276960D02*
X11261967Y-10419817D01*
X11261967Y-10419817D02*
X11385777Y-10419817D01*
X11500062Y-10286484D02*
X11519110Y-10286484D01*
X11519110Y-10286484D02*
X11538158Y-10296008D01*
X11538158Y-10296008D02*
X11547682Y-10305531D01*
X11547682Y-10305531D02*
X11557205Y-10324579D01*
X11557205Y-10324579D02*
X11566729Y-10362674D01*
X11566729Y-10362674D02*
X11566729Y-10410293D01*
X11566729Y-10410293D02*
X11557205Y-10448389D01*
X11557205Y-10448389D02*
X11547682Y-10467436D01*
X11547682Y-10467436D02*
X11538158Y-10476960D01*
X11538158Y-10476960D02*
X11519110Y-10486484D01*
X11519110Y-10486484D02*
X11500062Y-10486484D01*
X11500062Y-10486484D02*
X11481015Y-10476960D01*
X11481015Y-10476960D02*
X11471491Y-10467436D01*
X11471491Y-10467436D02*
X11461967Y-10448389D01*
X11461967Y-10448389D02*
X11452443Y-10410293D01*
X11452443Y-10410293D02*
X11452443Y-10362674D01*
X11452443Y-10362674D02*
X11461967Y-10324579D01*
X11461967Y-10324579D02*
X11471491Y-10305531D01*
X11471491Y-10305531D02*
X11481015Y-10296008D01*
X11481015Y-10296008D02*
X11500062Y-10286484D01*
X11690539Y-10286484D02*
X11709586Y-10286484D01*
X11709586Y-10286484D02*
X11728634Y-10296008D01*
X11728634Y-10296008D02*
X11738158Y-10305531D01*
X11738158Y-10305531D02*
X11747682Y-10324579D01*
X11747682Y-10324579D02*
X11757205Y-10362674D01*
X11757205Y-10362674D02*
X11757205Y-10410293D01*
X11757205Y-10410293D02*
X11747682Y-10448389D01*
X11747682Y-10448389D02*
X11738158Y-10467436D01*
X11738158Y-10467436D02*
X11728634Y-10476960D01*
X11728634Y-10476960D02*
X11709586Y-10486484D01*
X11709586Y-10486484D02*
X11690539Y-10486484D01*
X11690539Y-10486484D02*
X11671491Y-10476960D01*
X11671491Y-10476960D02*
X11661967Y-10467436D01*
X11661967Y-10467436D02*
X11652443Y-10448389D01*
X11652443Y-10448389D02*
X11642920Y-10410293D01*
X11642920Y-10410293D02*
X11642920Y-10362674D01*
X11642920Y-10362674D02*
X11652443Y-10324579D01*
X11652443Y-10324579D02*
X11661967Y-10305531D01*
X11661967Y-10305531D02*
X11671491Y-10296008D01*
X11671491Y-10296008D02*
X11690539Y-10286484D01*
X11842920Y-10486484D02*
X11842920Y-10353150D01*
X11842920Y-10372198D02*
X11852443Y-10362674D01*
X11852443Y-10362674D02*
X11871491Y-10353150D01*
X11871491Y-10353150D02*
X11900063Y-10353150D01*
X11900063Y-10353150D02*
X11919110Y-10362674D01*
X11919110Y-10362674D02*
X11928634Y-10381722D01*
X11928634Y-10381722D02*
X11928634Y-10486484D01*
X11928634Y-10381722D02*
X11938158Y-10362674D01*
X11938158Y-10362674D02*
X11957205Y-10353150D01*
X11957205Y-10353150D02*
X11985777Y-10353150D01*
X11985777Y-10353150D02*
X12004824Y-10362674D01*
X12004824Y-10362674D02*
X12014348Y-10381722D01*
X12014348Y-10381722D02*
X12014348Y-10486484D01*
X12109586Y-10486484D02*
X12109586Y-10353150D01*
X12109586Y-10372198D02*
X12119110Y-10362674D01*
X12119110Y-10362674D02*
X12138158Y-10353150D01*
X12138158Y-10353150D02*
X12166729Y-10353150D01*
X12166729Y-10353150D02*
X12185777Y-10362674D01*
X12185777Y-10362674D02*
X12195301Y-10381722D01*
X12195301Y-10381722D02*
X12195301Y-10486484D01*
X12195301Y-10381722D02*
X12204824Y-10362674D01*
X12204824Y-10362674D02*
X12223872Y-10353150D01*
X12223872Y-10353150D02*
X12252443Y-10353150D01*
X12252443Y-10353150D02*
X12271491Y-10362674D01*
X12271491Y-10362674D02*
X12281015Y-10381722D01*
X12281015Y-10381722D02*
X12281015Y-10486484D01*
X12671491Y-10276960D02*
X12500063Y-10534103D01*
X12928634Y-10286484D02*
X12947682Y-10286484D01*
X12947682Y-10286484D02*
X12966729Y-10296008D01*
X12966729Y-10296008D02*
X12976253Y-10305531D01*
X12976253Y-10305531D02*
X12985777Y-10324579D01*
X12985777Y-10324579D02*
X12995301Y-10362674D01*
X12995301Y-10362674D02*
X12995301Y-10410293D01*
X12995301Y-10410293D02*
X12985777Y-10448389D01*
X12985777Y-10448389D02*
X12976253Y-10467436D01*
X12976253Y-10467436D02*
X12966729Y-10476960D01*
X12966729Y-10476960D02*
X12947682Y-10486484D01*
X12947682Y-10486484D02*
X12928634Y-10486484D01*
X12928634Y-10486484D02*
X12909586Y-10476960D01*
X12909586Y-10476960D02*
X12900063Y-10467436D01*
X12900063Y-10467436D02*
X12890539Y-10448389D01*
X12890539Y-10448389D02*
X12881015Y-10410293D01*
X12881015Y-10410293D02*
X12881015Y-10362674D01*
X12881015Y-10362674D02*
X12890539Y-10324579D01*
X12890539Y-10324579D02*
X12900063Y-10305531D01*
X12900063Y-10305531D02*
X12909586Y-10296008D01*
X12909586Y-10296008D02*
X12928634Y-10286484D01*
X13081015Y-10467436D02*
X13090539Y-10476960D01*
X13090539Y-10476960D02*
X13081015Y-10486484D01*
X13081015Y-10486484D02*
X13071491Y-10476960D01*
X13071491Y-10476960D02*
X13081015Y-10467436D01*
X13081015Y-10467436D02*
X13081015Y-10486484D01*
X13214348Y-10286484D02*
X13233396Y-10286484D01*
X13233396Y-10286484D02*
X13252444Y-10296008D01*
X13252444Y-10296008D02*
X13261967Y-10305531D01*
X13261967Y-10305531D02*
X13271491Y-10324579D01*
X13271491Y-10324579D02*
X13281015Y-10362674D01*
X13281015Y-10362674D02*
X13281015Y-10410293D01*
X13281015Y-10410293D02*
X13271491Y-10448389D01*
X13271491Y-10448389D02*
X13261967Y-10467436D01*
X13261967Y-10467436D02*
X13252444Y-10476960D01*
X13252444Y-10476960D02*
X13233396Y-10486484D01*
X13233396Y-10486484D02*
X13214348Y-10486484D01*
X13214348Y-10486484D02*
X13195301Y-10476960D01*
X13195301Y-10476960D02*
X13185777Y-10467436D01*
X13185777Y-10467436D02*
X13176253Y-10448389D01*
X13176253Y-10448389D02*
X13166729Y-10410293D01*
X13166729Y-10410293D02*
X13166729Y-10362674D01*
X13166729Y-10362674D02*
X13176253Y-10324579D01*
X13176253Y-10324579D02*
X13185777Y-10305531D01*
X13185777Y-10305531D02*
X13195301Y-10296008D01*
X13195301Y-10296008D02*
X13214348Y-10286484D01*
X13471491Y-10486484D02*
X13357206Y-10486484D01*
X13414348Y-10486484D02*
X13414348Y-10286484D01*
X13414348Y-10286484D02*
X13395301Y-10315055D01*
X13395301Y-10315055D02*
X13376253Y-10334103D01*
X13376253Y-10334103D02*
X13357206Y-10343627D01*
X13652444Y-10286484D02*
X13557206Y-10286484D01*
X13557206Y-10286484D02*
X13547682Y-10381722D01*
X13547682Y-10381722D02*
X13557206Y-10372198D01*
X13557206Y-10372198D02*
X13576253Y-10362674D01*
X13576253Y-10362674D02*
X13623872Y-10362674D01*
X13623872Y-10362674D02*
X13642920Y-10372198D01*
X13642920Y-10372198D02*
X13652444Y-10381722D01*
X13652444Y-10381722D02*
X13661967Y-10400770D01*
X13661967Y-10400770D02*
X13661967Y-10448389D01*
X13661967Y-10448389D02*
X13652444Y-10467436D01*
X13652444Y-10467436D02*
X13642920Y-10476960D01*
X13642920Y-10476960D02*
X13623872Y-10486484D01*
X13623872Y-10486484D02*
X13576253Y-10486484D01*
X13576253Y-10486484D02*
X13557206Y-10476960D01*
X13557206Y-10476960D02*
X13547682Y-10467436D01*
X13728634Y-10286484D02*
X13861967Y-10286484D01*
X13861967Y-10286484D02*
X13776253Y-10486484D01*
X13928634Y-10286484D02*
X13928634Y-10324579D01*
X14004825Y-10286484D02*
X14004825Y-10324579D01*
X14300063Y-10562674D02*
X14290539Y-10553150D01*
X14290539Y-10553150D02*
X14271491Y-10524579D01*
X14271491Y-10524579D02*
X14261968Y-10505531D01*
X14261968Y-10505531D02*
X14252444Y-10476960D01*
X14252444Y-10476960D02*
X14242920Y-10429341D01*
X14242920Y-10429341D02*
X14242920Y-10391246D01*
X14242920Y-10391246D02*
X14252444Y-10343627D01*
X14252444Y-10343627D02*
X14261968Y-10315055D01*
X14261968Y-10315055D02*
X14271491Y-10296008D01*
X14271491Y-10296008D02*
X14290539Y-10267436D01*
X14290539Y-10267436D02*
X14300063Y-10257912D01*
X14357206Y-10286484D02*
X14481015Y-10286484D01*
X14481015Y-10286484D02*
X14414348Y-10362674D01*
X14414348Y-10362674D02*
X14442920Y-10362674D01*
X14442920Y-10362674D02*
X14461968Y-10372198D01*
X14461968Y-10372198D02*
X14471491Y-10381722D01*
X14471491Y-10381722D02*
X14481015Y-10400770D01*
X14481015Y-10400770D02*
X14481015Y-10448389D01*
X14481015Y-10448389D02*
X14471491Y-10467436D01*
X14471491Y-10467436D02*
X14461968Y-10476960D01*
X14461968Y-10476960D02*
X14442920Y-10486484D01*
X14442920Y-10486484D02*
X14385777Y-10486484D01*
X14385777Y-10486484D02*
X14366729Y-10476960D01*
X14366729Y-10476960D02*
X14357206Y-10467436D01*
X14604825Y-10286484D02*
X14623872Y-10286484D01*
X14623872Y-10286484D02*
X14642920Y-10296008D01*
X14642920Y-10296008D02*
X14652444Y-10305531D01*
X14652444Y-10305531D02*
X14661968Y-10324579D01*
X14661968Y-10324579D02*
X14671491Y-10362674D01*
X14671491Y-10362674D02*
X14671491Y-10410293D01*
X14671491Y-10410293D02*
X14661968Y-10448389D01*
X14661968Y-10448389D02*
X14652444Y-10467436D01*
X14652444Y-10467436D02*
X14642920Y-10476960D01*
X14642920Y-10476960D02*
X14623872Y-10486484D01*
X14623872Y-10486484D02*
X14604825Y-10486484D01*
X14604825Y-10486484D02*
X14585777Y-10476960D01*
X14585777Y-10476960D02*
X14576253Y-10467436D01*
X14576253Y-10467436D02*
X14566729Y-10448389D01*
X14566729Y-10448389D02*
X14557206Y-10410293D01*
X14557206Y-10410293D02*
X14557206Y-10362674D01*
X14557206Y-10362674D02*
X14566729Y-10324579D01*
X14566729Y-10324579D02*
X14576253Y-10305531D01*
X14576253Y-10305531D02*
X14585777Y-10296008D01*
X14585777Y-10296008D02*
X14604825Y-10286484D01*
X14747682Y-10305531D02*
X14757206Y-10296008D01*
X14757206Y-10296008D02*
X14776253Y-10286484D01*
X14776253Y-10286484D02*
X14823872Y-10286484D01*
X14823872Y-10286484D02*
X14842920Y-10296008D01*
X14842920Y-10296008D02*
X14852444Y-10305531D01*
X14852444Y-10305531D02*
X14861968Y-10324579D01*
X14861968Y-10324579D02*
X14861968Y-10343627D01*
X14861968Y-10343627D02*
X14852444Y-10372198D01*
X14852444Y-10372198D02*
X14738158Y-10486484D01*
X14738158Y-10486484D02*
X14861968Y-10486484D01*
X15100063Y-10486484D02*
X15100063Y-10286484D01*
X15185777Y-10486484D02*
X15185777Y-10381722D01*
X15185777Y-10381722D02*
X15176253Y-10362674D01*
X15176253Y-10362674D02*
X15157206Y-10353150D01*
X15157206Y-10353150D02*
X15128634Y-10353150D01*
X15128634Y-10353150D02*
X15109587Y-10362674D01*
X15109587Y-10362674D02*
X15100063Y-10372198D01*
X15309587Y-10486484D02*
X15290539Y-10476960D01*
X15290539Y-10476960D02*
X15281015Y-10467436D01*
X15281015Y-10467436D02*
X15271491Y-10448389D01*
X15271491Y-10448389D02*
X15271491Y-10391246D01*
X15271491Y-10391246D02*
X15281015Y-10372198D01*
X15281015Y-10372198D02*
X15290539Y-10362674D01*
X15290539Y-10362674D02*
X15309587Y-10353150D01*
X15309587Y-10353150D02*
X15338158Y-10353150D01*
X15338158Y-10353150D02*
X15357206Y-10362674D01*
X15357206Y-10362674D02*
X15366730Y-10372198D01*
X15366730Y-10372198D02*
X15376253Y-10391246D01*
X15376253Y-10391246D02*
X15376253Y-10448389D01*
X15376253Y-10448389D02*
X15366730Y-10467436D01*
X15366730Y-10467436D02*
X15357206Y-10476960D01*
X15357206Y-10476960D02*
X15338158Y-10486484D01*
X15338158Y-10486484D02*
X15309587Y-10486484D01*
X15490539Y-10486484D02*
X15471491Y-10476960D01*
X15471491Y-10476960D02*
X15461968Y-10457912D01*
X15461968Y-10457912D02*
X15461968Y-10286484D01*
X15642920Y-10476960D02*
X15623872Y-10486484D01*
X15623872Y-10486484D02*
X15585777Y-10486484D01*
X15585777Y-10486484D02*
X15566730Y-10476960D01*
X15566730Y-10476960D02*
X15557206Y-10457912D01*
X15557206Y-10457912D02*
X15557206Y-10381722D01*
X15557206Y-10381722D02*
X15566730Y-10362674D01*
X15566730Y-10362674D02*
X15585777Y-10353150D01*
X15585777Y-10353150D02*
X15623872Y-10353150D01*
X15623872Y-10353150D02*
X15642920Y-10362674D01*
X15642920Y-10362674D02*
X15652444Y-10381722D01*
X15652444Y-10381722D02*
X15652444Y-10400770D01*
X15652444Y-10400770D02*
X15557206Y-10419817D01*
X15728634Y-10476960D02*
X15747682Y-10486484D01*
X15747682Y-10486484D02*
X15785777Y-10486484D01*
X15785777Y-10486484D02*
X15804825Y-10476960D01*
X15804825Y-10476960D02*
X15814349Y-10457912D01*
X15814349Y-10457912D02*
X15814349Y-10448389D01*
X15814349Y-10448389D02*
X15804825Y-10429341D01*
X15804825Y-10429341D02*
X15785777Y-10419817D01*
X15785777Y-10419817D02*
X15757206Y-10419817D01*
X15757206Y-10419817D02*
X15738158Y-10410293D01*
X15738158Y-10410293D02*
X15728634Y-10391246D01*
X15728634Y-10391246D02*
X15728634Y-10381722D01*
X15728634Y-10381722D02*
X15738158Y-10362674D01*
X15738158Y-10362674D02*
X15757206Y-10353150D01*
X15757206Y-10353150D02*
X15785777Y-10353150D01*
X15785777Y-10353150D02*
X15804825Y-10362674D01*
X15881015Y-10562674D02*
X15890539Y-10553150D01*
X15890539Y-10553150D02*
X15909587Y-10524579D01*
X15909587Y-10524579D02*
X15919111Y-10505531D01*
X15919111Y-10505531D02*
X15928634Y-10476960D01*
X15928634Y-10476960D02*
X15938158Y-10429341D01*
X15938158Y-10429341D02*
X15938158Y-10391246D01*
X15938158Y-10391246D02*
X15928634Y-10343627D01*
X15928634Y-10343627D02*
X15919111Y-10315055D01*
X15919111Y-10315055D02*
X15909587Y-10296008D01*
X15909587Y-10296008D02*
X15890539Y-10267436D01*
X15890539Y-10267436D02*
X15881015Y-10257912D01*
D10*
X10725000Y-10659000D02*
G75*
G02*
X10725000Y-10659000I-25000J0D01*
G01*
D11*
X11023872Y-10550484D02*
X11042920Y-10550484D01*
X11042920Y-10550484D02*
X11061967Y-10560008D01*
X11061967Y-10560008D02*
X11071491Y-10569531D01*
X11071491Y-10569531D02*
X11081015Y-10588579D01*
X11081015Y-10588579D02*
X11090539Y-10626674D01*
X11090539Y-10626674D02*
X11090539Y-10674293D01*
X11090539Y-10674293D02*
X11081015Y-10712389D01*
X11081015Y-10712389D02*
X11071491Y-10731436D01*
X11071491Y-10731436D02*
X11061967Y-10740960D01*
X11061967Y-10740960D02*
X11042920Y-10750484D01*
X11042920Y-10750484D02*
X11023872Y-10750484D01*
X11023872Y-10750484D02*
X11004824Y-10740960D01*
X11004824Y-10740960D02*
X10995301Y-10731436D01*
X10995301Y-10731436D02*
X10985777Y-10712389D01*
X10985777Y-10712389D02*
X10976253Y-10674293D01*
X10976253Y-10674293D02*
X10976253Y-10626674D01*
X10976253Y-10626674D02*
X10985777Y-10588579D01*
X10985777Y-10588579D02*
X10995301Y-10569531D01*
X10995301Y-10569531D02*
X11004824Y-10560008D01*
X11004824Y-10560008D02*
X11023872Y-10550484D01*
X11176253Y-10731436D02*
X11185777Y-10740960D01*
X11185777Y-10740960D02*
X11176253Y-10750484D01*
X11176253Y-10750484D02*
X11166729Y-10740960D01*
X11166729Y-10740960D02*
X11176253Y-10731436D01*
X11176253Y-10731436D02*
X11176253Y-10750484D01*
X11366729Y-10550484D02*
X11271491Y-10550484D01*
X11271491Y-10550484D02*
X11261967Y-10645722D01*
X11261967Y-10645722D02*
X11271491Y-10636198D01*
X11271491Y-10636198D02*
X11290539Y-10626674D01*
X11290539Y-10626674D02*
X11338158Y-10626674D01*
X11338158Y-10626674D02*
X11357205Y-10636198D01*
X11357205Y-10636198D02*
X11366729Y-10645722D01*
X11366729Y-10645722D02*
X11376253Y-10664770D01*
X11376253Y-10664770D02*
X11376253Y-10712389D01*
X11376253Y-10712389D02*
X11366729Y-10731436D01*
X11366729Y-10731436D02*
X11357205Y-10740960D01*
X11357205Y-10740960D02*
X11338158Y-10750484D01*
X11338158Y-10750484D02*
X11290539Y-10750484D01*
X11290539Y-10750484D02*
X11271491Y-10740960D01*
X11271491Y-10740960D02*
X11261967Y-10731436D01*
X11500062Y-10550484D02*
X11519110Y-10550484D01*
X11519110Y-10550484D02*
X11538158Y-10560008D01*
X11538158Y-10560008D02*
X11547682Y-10569531D01*
X11547682Y-10569531D02*
X11557205Y-10588579D01*
X11557205Y-10588579D02*
X11566729Y-10626674D01*
X11566729Y-10626674D02*
X11566729Y-10674293D01*
X11566729Y-10674293D02*
X11557205Y-10712389D01*
X11557205Y-10712389D02*
X11547682Y-10731436D01*
X11547682Y-10731436D02*
X11538158Y-10740960D01*
X11538158Y-10740960D02*
X11519110Y-10750484D01*
X11519110Y-10750484D02*
X11500062Y-10750484D01*
X11500062Y-10750484D02*
X11481015Y-10740960D01*
X11481015Y-10740960D02*
X11471491Y-10731436D01*
X11471491Y-10731436D02*
X11461967Y-10712389D01*
X11461967Y-10712389D02*
X11452443Y-10674293D01*
X11452443Y-10674293D02*
X11452443Y-10626674D01*
X11452443Y-10626674D02*
X11461967Y-10588579D01*
X11461967Y-10588579D02*
X11471491Y-10569531D01*
X11471491Y-10569531D02*
X11481015Y-10560008D01*
X11481015Y-10560008D02*
X11500062Y-10550484D01*
X11690539Y-10550484D02*
X11709586Y-10550484D01*
X11709586Y-10550484D02*
X11728634Y-10560008D01*
X11728634Y-10560008D02*
X11738158Y-10569531D01*
X11738158Y-10569531D02*
X11747682Y-10588579D01*
X11747682Y-10588579D02*
X11757205Y-10626674D01*
X11757205Y-10626674D02*
X11757205Y-10674293D01*
X11757205Y-10674293D02*
X11747682Y-10712389D01*
X11747682Y-10712389D02*
X11738158Y-10731436D01*
X11738158Y-10731436D02*
X11728634Y-10740960D01*
X11728634Y-10740960D02*
X11709586Y-10750484D01*
X11709586Y-10750484D02*
X11690539Y-10750484D01*
X11690539Y-10750484D02*
X11671491Y-10740960D01*
X11671491Y-10740960D02*
X11661967Y-10731436D01*
X11661967Y-10731436D02*
X11652443Y-10712389D01*
X11652443Y-10712389D02*
X11642920Y-10674293D01*
X11642920Y-10674293D02*
X11642920Y-10626674D01*
X11642920Y-10626674D02*
X11652443Y-10588579D01*
X11652443Y-10588579D02*
X11661967Y-10569531D01*
X11661967Y-10569531D02*
X11671491Y-10560008D01*
X11671491Y-10560008D02*
X11690539Y-10550484D01*
X11842920Y-10750484D02*
X11842920Y-10617150D01*
X11842920Y-10636198D02*
X11852443Y-10626674D01*
X11852443Y-10626674D02*
X11871491Y-10617150D01*
X11871491Y-10617150D02*
X11900063Y-10617150D01*
X11900063Y-10617150D02*
X11919110Y-10626674D01*
X11919110Y-10626674D02*
X11928634Y-10645722D01*
X11928634Y-10645722D02*
X11928634Y-10750484D01*
X11928634Y-10645722D02*
X11938158Y-10626674D01*
X11938158Y-10626674D02*
X11957205Y-10617150D01*
X11957205Y-10617150D02*
X11985777Y-10617150D01*
X11985777Y-10617150D02*
X12004824Y-10626674D01*
X12004824Y-10626674D02*
X12014348Y-10645722D01*
X12014348Y-10645722D02*
X12014348Y-10750484D01*
X12109586Y-10750484D02*
X12109586Y-10617150D01*
X12109586Y-10636198D02*
X12119110Y-10626674D01*
X12119110Y-10626674D02*
X12138158Y-10617150D01*
X12138158Y-10617150D02*
X12166729Y-10617150D01*
X12166729Y-10617150D02*
X12185777Y-10626674D01*
X12185777Y-10626674D02*
X12195301Y-10645722D01*
X12195301Y-10645722D02*
X12195301Y-10750484D01*
X12195301Y-10645722D02*
X12204824Y-10626674D01*
X12204824Y-10626674D02*
X12223872Y-10617150D01*
X12223872Y-10617150D02*
X12252443Y-10617150D01*
X12252443Y-10617150D02*
X12271491Y-10626674D01*
X12271491Y-10626674D02*
X12281015Y-10645722D01*
X12281015Y-10645722D02*
X12281015Y-10750484D01*
X12671491Y-10540960D02*
X12500063Y-10798103D01*
X12928634Y-10550484D02*
X12947682Y-10550484D01*
X12947682Y-10550484D02*
X12966729Y-10560008D01*
X12966729Y-10560008D02*
X12976253Y-10569531D01*
X12976253Y-10569531D02*
X12985777Y-10588579D01*
X12985777Y-10588579D02*
X12995301Y-10626674D01*
X12995301Y-10626674D02*
X12995301Y-10674293D01*
X12995301Y-10674293D02*
X12985777Y-10712389D01*
X12985777Y-10712389D02*
X12976253Y-10731436D01*
X12976253Y-10731436D02*
X12966729Y-10740960D01*
X12966729Y-10740960D02*
X12947682Y-10750484D01*
X12947682Y-10750484D02*
X12928634Y-10750484D01*
X12928634Y-10750484D02*
X12909586Y-10740960D01*
X12909586Y-10740960D02*
X12900063Y-10731436D01*
X12900063Y-10731436D02*
X12890539Y-10712389D01*
X12890539Y-10712389D02*
X12881015Y-10674293D01*
X12881015Y-10674293D02*
X12881015Y-10626674D01*
X12881015Y-10626674D02*
X12890539Y-10588579D01*
X12890539Y-10588579D02*
X12900063Y-10569531D01*
X12900063Y-10569531D02*
X12909586Y-10560008D01*
X12909586Y-10560008D02*
X12928634Y-10550484D01*
X13081015Y-10731436D02*
X13090539Y-10740960D01*
X13090539Y-10740960D02*
X13081015Y-10750484D01*
X13081015Y-10750484D02*
X13071491Y-10740960D01*
X13071491Y-10740960D02*
X13081015Y-10731436D01*
X13081015Y-10731436D02*
X13081015Y-10750484D01*
X13214348Y-10550484D02*
X13233396Y-10550484D01*
X13233396Y-10550484D02*
X13252444Y-10560008D01*
X13252444Y-10560008D02*
X13261967Y-10569531D01*
X13261967Y-10569531D02*
X13271491Y-10588579D01*
X13271491Y-10588579D02*
X13281015Y-10626674D01*
X13281015Y-10626674D02*
X13281015Y-10674293D01*
X13281015Y-10674293D02*
X13271491Y-10712389D01*
X13271491Y-10712389D02*
X13261967Y-10731436D01*
X13261967Y-10731436D02*
X13252444Y-10740960D01*
X13252444Y-10740960D02*
X13233396Y-10750484D01*
X13233396Y-10750484D02*
X13214348Y-10750484D01*
X13214348Y-10750484D02*
X13195301Y-10740960D01*
X13195301Y-10740960D02*
X13185777Y-10731436D01*
X13185777Y-10731436D02*
X13176253Y-10712389D01*
X13176253Y-10712389D02*
X13166729Y-10674293D01*
X13166729Y-10674293D02*
X13166729Y-10626674D01*
X13166729Y-10626674D02*
X13176253Y-10588579D01*
X13176253Y-10588579D02*
X13185777Y-10569531D01*
X13185777Y-10569531D02*
X13195301Y-10560008D01*
X13195301Y-10560008D02*
X13214348Y-10550484D01*
X13471491Y-10750484D02*
X13357206Y-10750484D01*
X13414348Y-10750484D02*
X13414348Y-10550484D01*
X13414348Y-10550484D02*
X13395301Y-10579055D01*
X13395301Y-10579055D02*
X13376253Y-10598103D01*
X13376253Y-10598103D02*
X13357206Y-10607627D01*
X13566729Y-10750484D02*
X13604825Y-10750484D01*
X13604825Y-10750484D02*
X13623872Y-10740960D01*
X13623872Y-10740960D02*
X13633396Y-10731436D01*
X13633396Y-10731436D02*
X13652444Y-10702865D01*
X13652444Y-10702865D02*
X13661967Y-10664770D01*
X13661967Y-10664770D02*
X13661967Y-10588579D01*
X13661967Y-10588579D02*
X13652444Y-10569531D01*
X13652444Y-10569531D02*
X13642920Y-10560008D01*
X13642920Y-10560008D02*
X13623872Y-10550484D01*
X13623872Y-10550484D02*
X13585777Y-10550484D01*
X13585777Y-10550484D02*
X13566729Y-10560008D01*
X13566729Y-10560008D02*
X13557206Y-10569531D01*
X13557206Y-10569531D02*
X13547682Y-10588579D01*
X13547682Y-10588579D02*
X13547682Y-10636198D01*
X13547682Y-10636198D02*
X13557206Y-10655246D01*
X13557206Y-10655246D02*
X13566729Y-10664770D01*
X13566729Y-10664770D02*
X13585777Y-10674293D01*
X13585777Y-10674293D02*
X13623872Y-10674293D01*
X13623872Y-10674293D02*
X13642920Y-10664770D01*
X13642920Y-10664770D02*
X13652444Y-10655246D01*
X13652444Y-10655246D02*
X13661967Y-10636198D01*
X13728634Y-10550484D02*
X13861967Y-10550484D01*
X13861967Y-10550484D02*
X13776253Y-10750484D01*
X13928634Y-10550484D02*
X13928634Y-10588579D01*
X14004825Y-10550484D02*
X14004825Y-10588579D01*
X14300063Y-10826674D02*
X14290539Y-10817150D01*
X14290539Y-10817150D02*
X14271491Y-10788579D01*
X14271491Y-10788579D02*
X14261968Y-10769531D01*
X14261968Y-10769531D02*
X14252444Y-10740960D01*
X14252444Y-10740960D02*
X14242920Y-10693341D01*
X14242920Y-10693341D02*
X14242920Y-10655246D01*
X14242920Y-10655246D02*
X14252444Y-10607627D01*
X14252444Y-10607627D02*
X14261968Y-10579055D01*
X14261968Y-10579055D02*
X14271491Y-10560008D01*
X14271491Y-10560008D02*
X14290539Y-10531436D01*
X14290539Y-10531436D02*
X14300063Y-10521912D01*
X14357206Y-10550484D02*
X14481015Y-10550484D01*
X14481015Y-10550484D02*
X14414348Y-10626674D01*
X14414348Y-10626674D02*
X14442920Y-10626674D01*
X14442920Y-10626674D02*
X14461968Y-10636198D01*
X14461968Y-10636198D02*
X14471491Y-10645722D01*
X14471491Y-10645722D02*
X14481015Y-10664770D01*
X14481015Y-10664770D02*
X14481015Y-10712389D01*
X14481015Y-10712389D02*
X14471491Y-10731436D01*
X14471491Y-10731436D02*
X14461968Y-10740960D01*
X14461968Y-10740960D02*
X14442920Y-10750484D01*
X14442920Y-10750484D02*
X14385777Y-10750484D01*
X14385777Y-10750484D02*
X14366729Y-10740960D01*
X14366729Y-10740960D02*
X14357206Y-10731436D01*
X14719110Y-10750484D02*
X14719110Y-10550484D01*
X14804825Y-10750484D02*
X14804825Y-10645722D01*
X14804825Y-10645722D02*
X14795301Y-10626674D01*
X14795301Y-10626674D02*
X14776253Y-10617150D01*
X14776253Y-10617150D02*
X14747682Y-10617150D01*
X14747682Y-10617150D02*
X14728634Y-10626674D01*
X14728634Y-10626674D02*
X14719110Y-10636198D01*
X14928634Y-10750484D02*
X14909587Y-10740960D01*
X14909587Y-10740960D02*
X14900063Y-10731436D01*
X14900063Y-10731436D02*
X14890539Y-10712389D01*
X14890539Y-10712389D02*
X14890539Y-10655246D01*
X14890539Y-10655246D02*
X14900063Y-10636198D01*
X14900063Y-10636198D02*
X14909587Y-10626674D01*
X14909587Y-10626674D02*
X14928634Y-10617150D01*
X14928634Y-10617150D02*
X14957206Y-10617150D01*
X14957206Y-10617150D02*
X14976253Y-10626674D01*
X14976253Y-10626674D02*
X14985777Y-10636198D01*
X14985777Y-10636198D02*
X14995301Y-10655246D01*
X14995301Y-10655246D02*
X14995301Y-10712389D01*
X14995301Y-10712389D02*
X14985777Y-10731436D01*
X14985777Y-10731436D02*
X14976253Y-10740960D01*
X14976253Y-10740960D02*
X14957206Y-10750484D01*
X14957206Y-10750484D02*
X14928634Y-10750484D01*
X15109587Y-10750484D02*
X15090539Y-10740960D01*
X15090539Y-10740960D02*
X15081015Y-10721912D01*
X15081015Y-10721912D02*
X15081015Y-10550484D01*
X15261968Y-10740960D02*
X15242920Y-10750484D01*
X15242920Y-10750484D02*
X15204825Y-10750484D01*
X15204825Y-10750484D02*
X15185777Y-10740960D01*
X15185777Y-10740960D02*
X15176253Y-10721912D01*
X15176253Y-10721912D02*
X15176253Y-10645722D01*
X15176253Y-10645722D02*
X15185777Y-10626674D01*
X15185777Y-10626674D02*
X15204825Y-10617150D01*
X15204825Y-10617150D02*
X15242920Y-10617150D01*
X15242920Y-10617150D02*
X15261968Y-10626674D01*
X15261968Y-10626674D02*
X15271491Y-10645722D01*
X15271491Y-10645722D02*
X15271491Y-10664770D01*
X15271491Y-10664770D02*
X15176253Y-10683817D01*
X15347682Y-10740960D02*
X15366730Y-10750484D01*
X15366730Y-10750484D02*
X15404825Y-10750484D01*
X15404825Y-10750484D02*
X15423872Y-10740960D01*
X15423872Y-10740960D02*
X15433396Y-10721912D01*
X15433396Y-10721912D02*
X15433396Y-10712389D01*
X15433396Y-10712389D02*
X15423872Y-10693341D01*
X15423872Y-10693341D02*
X15404825Y-10683817D01*
X15404825Y-10683817D02*
X15376253Y-10683817D01*
X15376253Y-10683817D02*
X15357206Y-10674293D01*
X15357206Y-10674293D02*
X15347682Y-10655246D01*
X15347682Y-10655246D02*
X15347682Y-10645722D01*
X15347682Y-10645722D02*
X15357206Y-10626674D01*
X15357206Y-10626674D02*
X15376253Y-10617150D01*
X15376253Y-10617150D02*
X15404825Y-10617150D01*
X15404825Y-10617150D02*
X15423872Y-10626674D01*
X15500063Y-10826674D02*
X15509587Y-10817150D01*
X15509587Y-10817150D02*
X15528634Y-10788579D01*
X15528634Y-10788579D02*
X15538158Y-10769531D01*
X15538158Y-10769531D02*
X15547682Y-10740960D01*
X15547682Y-10740960D02*
X15557206Y-10693341D01*
X15557206Y-10693341D02*
X15557206Y-10655246D01*
X15557206Y-10655246D02*
X15547682Y-10607627D01*
X15547682Y-10607627D02*
X15538158Y-10579055D01*
X15538158Y-10579055D02*
X15528634Y-10560008D01*
X15528634Y-10560008D02*
X15509587Y-10531436D01*
X15509587Y-10531436D02*
X15500063Y-10521912D01*
D10*
X10695000Y-10893000D02*
X10695000Y-10953000D01*
X10665000Y-10923000D02*
X10725000Y-10923000D01*
D11*
X11023872Y-10814484D02*
X11042920Y-10814484D01*
X11042920Y-10814484D02*
X11061967Y-10824008D01*
X11061967Y-10824008D02*
X11071491Y-10833531D01*
X11071491Y-10833531D02*
X11081015Y-10852579D01*
X11081015Y-10852579D02*
X11090539Y-10890674D01*
X11090539Y-10890674D02*
X11090539Y-10938293D01*
X11090539Y-10938293D02*
X11081015Y-10976389D01*
X11081015Y-10976389D02*
X11071491Y-10995436D01*
X11071491Y-10995436D02*
X11061967Y-11004960D01*
X11061967Y-11004960D02*
X11042920Y-11014484D01*
X11042920Y-11014484D02*
X11023872Y-11014484D01*
X11023872Y-11014484D02*
X11004824Y-11004960D01*
X11004824Y-11004960D02*
X10995301Y-10995436D01*
X10995301Y-10995436D02*
X10985777Y-10976389D01*
X10985777Y-10976389D02*
X10976253Y-10938293D01*
X10976253Y-10938293D02*
X10976253Y-10890674D01*
X10976253Y-10890674D02*
X10985777Y-10852579D01*
X10985777Y-10852579D02*
X10995301Y-10833531D01*
X10995301Y-10833531D02*
X11004824Y-10824008D01*
X11004824Y-10824008D02*
X11023872Y-10814484D01*
X11176253Y-10995436D02*
X11185777Y-11004960D01*
X11185777Y-11004960D02*
X11176253Y-11014484D01*
X11176253Y-11014484D02*
X11166729Y-11004960D01*
X11166729Y-11004960D02*
X11176253Y-10995436D01*
X11176253Y-10995436D02*
X11176253Y-11014484D01*
X11357205Y-10814484D02*
X11319110Y-10814484D01*
X11319110Y-10814484D02*
X11300062Y-10824008D01*
X11300062Y-10824008D02*
X11290539Y-10833531D01*
X11290539Y-10833531D02*
X11271491Y-10862103D01*
X11271491Y-10862103D02*
X11261967Y-10900198D01*
X11261967Y-10900198D02*
X11261967Y-10976389D01*
X11261967Y-10976389D02*
X11271491Y-10995436D01*
X11271491Y-10995436D02*
X11281015Y-11004960D01*
X11281015Y-11004960D02*
X11300062Y-11014484D01*
X11300062Y-11014484D02*
X11338158Y-11014484D01*
X11338158Y-11014484D02*
X11357205Y-11004960D01*
X11357205Y-11004960D02*
X11366729Y-10995436D01*
X11366729Y-10995436D02*
X11376253Y-10976389D01*
X11376253Y-10976389D02*
X11376253Y-10928770D01*
X11376253Y-10928770D02*
X11366729Y-10909722D01*
X11366729Y-10909722D02*
X11357205Y-10900198D01*
X11357205Y-10900198D02*
X11338158Y-10890674D01*
X11338158Y-10890674D02*
X11300062Y-10890674D01*
X11300062Y-10890674D02*
X11281015Y-10900198D01*
X11281015Y-10900198D02*
X11271491Y-10909722D01*
X11271491Y-10909722D02*
X11261967Y-10928770D01*
X11500062Y-10814484D02*
X11519110Y-10814484D01*
X11519110Y-10814484D02*
X11538158Y-10824008D01*
X11538158Y-10824008D02*
X11547682Y-10833531D01*
X11547682Y-10833531D02*
X11557205Y-10852579D01*
X11557205Y-10852579D02*
X11566729Y-10890674D01*
X11566729Y-10890674D02*
X11566729Y-10938293D01*
X11566729Y-10938293D02*
X11557205Y-10976389D01*
X11557205Y-10976389D02*
X11547682Y-10995436D01*
X11547682Y-10995436D02*
X11538158Y-11004960D01*
X11538158Y-11004960D02*
X11519110Y-11014484D01*
X11519110Y-11014484D02*
X11500062Y-11014484D01*
X11500062Y-11014484D02*
X11481015Y-11004960D01*
X11481015Y-11004960D02*
X11471491Y-10995436D01*
X11471491Y-10995436D02*
X11461967Y-10976389D01*
X11461967Y-10976389D02*
X11452443Y-10938293D01*
X11452443Y-10938293D02*
X11452443Y-10890674D01*
X11452443Y-10890674D02*
X11461967Y-10852579D01*
X11461967Y-10852579D02*
X11471491Y-10833531D01*
X11471491Y-10833531D02*
X11481015Y-10824008D01*
X11481015Y-10824008D02*
X11500062Y-10814484D01*
X11690539Y-10814484D02*
X11709586Y-10814484D01*
X11709586Y-10814484D02*
X11728634Y-10824008D01*
X11728634Y-10824008D02*
X11738158Y-10833531D01*
X11738158Y-10833531D02*
X11747682Y-10852579D01*
X11747682Y-10852579D02*
X11757205Y-10890674D01*
X11757205Y-10890674D02*
X11757205Y-10938293D01*
X11757205Y-10938293D02*
X11747682Y-10976389D01*
X11747682Y-10976389D02*
X11738158Y-10995436D01*
X11738158Y-10995436D02*
X11728634Y-11004960D01*
X11728634Y-11004960D02*
X11709586Y-11014484D01*
X11709586Y-11014484D02*
X11690539Y-11014484D01*
X11690539Y-11014484D02*
X11671491Y-11004960D01*
X11671491Y-11004960D02*
X11661967Y-10995436D01*
X11661967Y-10995436D02*
X11652443Y-10976389D01*
X11652443Y-10976389D02*
X11642920Y-10938293D01*
X11642920Y-10938293D02*
X11642920Y-10890674D01*
X11642920Y-10890674D02*
X11652443Y-10852579D01*
X11652443Y-10852579D02*
X11661967Y-10833531D01*
X11661967Y-10833531D02*
X11671491Y-10824008D01*
X11671491Y-10824008D02*
X11690539Y-10814484D01*
X11842920Y-11014484D02*
X11842920Y-10881150D01*
X11842920Y-10900198D02*
X11852443Y-10890674D01*
X11852443Y-10890674D02*
X11871491Y-10881150D01*
X11871491Y-10881150D02*
X11900063Y-10881150D01*
X11900063Y-10881150D02*
X11919110Y-10890674D01*
X11919110Y-10890674D02*
X11928634Y-10909722D01*
X11928634Y-10909722D02*
X11928634Y-11014484D01*
X11928634Y-10909722D02*
X11938158Y-10890674D01*
X11938158Y-10890674D02*
X11957205Y-10881150D01*
X11957205Y-10881150D02*
X11985777Y-10881150D01*
X11985777Y-10881150D02*
X12004824Y-10890674D01*
X12004824Y-10890674D02*
X12014348Y-10909722D01*
X12014348Y-10909722D02*
X12014348Y-11014484D01*
X12109586Y-11014484D02*
X12109586Y-10881150D01*
X12109586Y-10900198D02*
X12119110Y-10890674D01*
X12119110Y-10890674D02*
X12138158Y-10881150D01*
X12138158Y-10881150D02*
X12166729Y-10881150D01*
X12166729Y-10881150D02*
X12185777Y-10890674D01*
X12185777Y-10890674D02*
X12195301Y-10909722D01*
X12195301Y-10909722D02*
X12195301Y-11014484D01*
X12195301Y-10909722D02*
X12204824Y-10890674D01*
X12204824Y-10890674D02*
X12223872Y-10881150D01*
X12223872Y-10881150D02*
X12252443Y-10881150D01*
X12252443Y-10881150D02*
X12271491Y-10890674D01*
X12271491Y-10890674D02*
X12281015Y-10909722D01*
X12281015Y-10909722D02*
X12281015Y-11014484D01*
X12671491Y-10804960D02*
X12500063Y-11062103D01*
X12928634Y-10814484D02*
X12947682Y-10814484D01*
X12947682Y-10814484D02*
X12966729Y-10824008D01*
X12966729Y-10824008D02*
X12976253Y-10833531D01*
X12976253Y-10833531D02*
X12985777Y-10852579D01*
X12985777Y-10852579D02*
X12995301Y-10890674D01*
X12995301Y-10890674D02*
X12995301Y-10938293D01*
X12995301Y-10938293D02*
X12985777Y-10976389D01*
X12985777Y-10976389D02*
X12976253Y-10995436D01*
X12976253Y-10995436D02*
X12966729Y-11004960D01*
X12966729Y-11004960D02*
X12947682Y-11014484D01*
X12947682Y-11014484D02*
X12928634Y-11014484D01*
X12928634Y-11014484D02*
X12909586Y-11004960D01*
X12909586Y-11004960D02*
X12900063Y-10995436D01*
X12900063Y-10995436D02*
X12890539Y-10976389D01*
X12890539Y-10976389D02*
X12881015Y-10938293D01*
X12881015Y-10938293D02*
X12881015Y-10890674D01*
X12881015Y-10890674D02*
X12890539Y-10852579D01*
X12890539Y-10852579D02*
X12900063Y-10833531D01*
X12900063Y-10833531D02*
X12909586Y-10824008D01*
X12909586Y-10824008D02*
X12928634Y-10814484D01*
X13081015Y-10995436D02*
X13090539Y-11004960D01*
X13090539Y-11004960D02*
X13081015Y-11014484D01*
X13081015Y-11014484D02*
X13071491Y-11004960D01*
X13071491Y-11004960D02*
X13081015Y-10995436D01*
X13081015Y-10995436D02*
X13081015Y-11014484D01*
X13214348Y-10814484D02*
X13233396Y-10814484D01*
X13233396Y-10814484D02*
X13252444Y-10824008D01*
X13252444Y-10824008D02*
X13261967Y-10833531D01*
X13261967Y-10833531D02*
X13271491Y-10852579D01*
X13271491Y-10852579D02*
X13281015Y-10890674D01*
X13281015Y-10890674D02*
X13281015Y-10938293D01*
X13281015Y-10938293D02*
X13271491Y-10976389D01*
X13271491Y-10976389D02*
X13261967Y-10995436D01*
X13261967Y-10995436D02*
X13252444Y-11004960D01*
X13252444Y-11004960D02*
X13233396Y-11014484D01*
X13233396Y-11014484D02*
X13214348Y-11014484D01*
X13214348Y-11014484D02*
X13195301Y-11004960D01*
X13195301Y-11004960D02*
X13185777Y-10995436D01*
X13185777Y-10995436D02*
X13176253Y-10976389D01*
X13176253Y-10976389D02*
X13166729Y-10938293D01*
X13166729Y-10938293D02*
X13166729Y-10890674D01*
X13166729Y-10890674D02*
X13176253Y-10852579D01*
X13176253Y-10852579D02*
X13185777Y-10833531D01*
X13185777Y-10833531D02*
X13195301Y-10824008D01*
X13195301Y-10824008D02*
X13214348Y-10814484D01*
X13357206Y-10833531D02*
X13366729Y-10824008D01*
X13366729Y-10824008D02*
X13385777Y-10814484D01*
X13385777Y-10814484D02*
X13433396Y-10814484D01*
X13433396Y-10814484D02*
X13452444Y-10824008D01*
X13452444Y-10824008D02*
X13461967Y-10833531D01*
X13461967Y-10833531D02*
X13471491Y-10852579D01*
X13471491Y-10852579D02*
X13471491Y-10871627D01*
X13471491Y-10871627D02*
X13461967Y-10900198D01*
X13461967Y-10900198D02*
X13347682Y-11014484D01*
X13347682Y-11014484D02*
X13471491Y-11014484D01*
X13538158Y-10814484D02*
X13661967Y-10814484D01*
X13661967Y-10814484D02*
X13595301Y-10890674D01*
X13595301Y-10890674D02*
X13623872Y-10890674D01*
X13623872Y-10890674D02*
X13642920Y-10900198D01*
X13642920Y-10900198D02*
X13652444Y-10909722D01*
X13652444Y-10909722D02*
X13661967Y-10928770D01*
X13661967Y-10928770D02*
X13661967Y-10976389D01*
X13661967Y-10976389D02*
X13652444Y-10995436D01*
X13652444Y-10995436D02*
X13642920Y-11004960D01*
X13642920Y-11004960D02*
X13623872Y-11014484D01*
X13623872Y-11014484D02*
X13566729Y-11014484D01*
X13566729Y-11014484D02*
X13547682Y-11004960D01*
X13547682Y-11004960D02*
X13538158Y-10995436D01*
X13833396Y-10814484D02*
X13795301Y-10814484D01*
X13795301Y-10814484D02*
X13776253Y-10824008D01*
X13776253Y-10824008D02*
X13766729Y-10833531D01*
X13766729Y-10833531D02*
X13747682Y-10862103D01*
X13747682Y-10862103D02*
X13738158Y-10900198D01*
X13738158Y-10900198D02*
X13738158Y-10976389D01*
X13738158Y-10976389D02*
X13747682Y-10995436D01*
X13747682Y-10995436D02*
X13757206Y-11004960D01*
X13757206Y-11004960D02*
X13776253Y-11014484D01*
X13776253Y-11014484D02*
X13814348Y-11014484D01*
X13814348Y-11014484D02*
X13833396Y-11004960D01*
X13833396Y-11004960D02*
X13842920Y-10995436D01*
X13842920Y-10995436D02*
X13852444Y-10976389D01*
X13852444Y-10976389D02*
X13852444Y-10928770D01*
X13852444Y-10928770D02*
X13842920Y-10909722D01*
X13842920Y-10909722D02*
X13833396Y-10900198D01*
X13833396Y-10900198D02*
X13814348Y-10890674D01*
X13814348Y-10890674D02*
X13776253Y-10890674D01*
X13776253Y-10890674D02*
X13757206Y-10900198D01*
X13757206Y-10900198D02*
X13747682Y-10909722D01*
X13747682Y-10909722D02*
X13738158Y-10928770D01*
X13928634Y-10814484D02*
X13928634Y-10852579D01*
X14004825Y-10814484D02*
X14004825Y-10852579D01*
X14300063Y-11090674D02*
X14290539Y-11081150D01*
X14290539Y-11081150D02*
X14271491Y-11052579D01*
X14271491Y-11052579D02*
X14261968Y-11033531D01*
X14261968Y-11033531D02*
X14252444Y-11004960D01*
X14252444Y-11004960D02*
X14242920Y-10957341D01*
X14242920Y-10957341D02*
X14242920Y-10919246D01*
X14242920Y-10919246D02*
X14252444Y-10871627D01*
X14252444Y-10871627D02*
X14261968Y-10843055D01*
X14261968Y-10843055D02*
X14271491Y-10824008D01*
X14271491Y-10824008D02*
X14290539Y-10795436D01*
X14290539Y-10795436D02*
X14300063Y-10785912D01*
X14461968Y-10814484D02*
X14423872Y-10814484D01*
X14423872Y-10814484D02*
X14404825Y-10824008D01*
X14404825Y-10824008D02*
X14395301Y-10833531D01*
X14395301Y-10833531D02*
X14376253Y-10862103D01*
X14376253Y-10862103D02*
X14366729Y-10900198D01*
X14366729Y-10900198D02*
X14366729Y-10976389D01*
X14366729Y-10976389D02*
X14376253Y-10995436D01*
X14376253Y-10995436D02*
X14385777Y-11004960D01*
X14385777Y-11004960D02*
X14404825Y-11014484D01*
X14404825Y-11014484D02*
X14442920Y-11014484D01*
X14442920Y-11014484D02*
X14461968Y-11004960D01*
X14461968Y-11004960D02*
X14471491Y-10995436D01*
X14471491Y-10995436D02*
X14481015Y-10976389D01*
X14481015Y-10976389D02*
X14481015Y-10928770D01*
X14481015Y-10928770D02*
X14471491Y-10909722D01*
X14471491Y-10909722D02*
X14461968Y-10900198D01*
X14461968Y-10900198D02*
X14442920Y-10890674D01*
X14442920Y-10890674D02*
X14404825Y-10890674D01*
X14404825Y-10890674D02*
X14385777Y-10900198D01*
X14385777Y-10900198D02*
X14376253Y-10909722D01*
X14376253Y-10909722D02*
X14366729Y-10928770D01*
X14719110Y-11014484D02*
X14719110Y-10814484D01*
X14804825Y-11014484D02*
X14804825Y-10909722D01*
X14804825Y-10909722D02*
X14795301Y-10890674D01*
X14795301Y-10890674D02*
X14776253Y-10881150D01*
X14776253Y-10881150D02*
X14747682Y-10881150D01*
X14747682Y-10881150D02*
X14728634Y-10890674D01*
X14728634Y-10890674D02*
X14719110Y-10900198D01*
X14928634Y-11014484D02*
X14909587Y-11004960D01*
X14909587Y-11004960D02*
X14900063Y-10995436D01*
X14900063Y-10995436D02*
X14890539Y-10976389D01*
X14890539Y-10976389D02*
X14890539Y-10919246D01*
X14890539Y-10919246D02*
X14900063Y-10900198D01*
X14900063Y-10900198D02*
X14909587Y-10890674D01*
X14909587Y-10890674D02*
X14928634Y-10881150D01*
X14928634Y-10881150D02*
X14957206Y-10881150D01*
X14957206Y-10881150D02*
X14976253Y-10890674D01*
X14976253Y-10890674D02*
X14985777Y-10900198D01*
X14985777Y-10900198D02*
X14995301Y-10919246D01*
X14995301Y-10919246D02*
X14995301Y-10976389D01*
X14995301Y-10976389D02*
X14985777Y-10995436D01*
X14985777Y-10995436D02*
X14976253Y-11004960D01*
X14976253Y-11004960D02*
X14957206Y-11014484D01*
X14957206Y-11014484D02*
X14928634Y-11014484D01*
X15109587Y-11014484D02*
X15090539Y-11004960D01*
X15090539Y-11004960D02*
X15081015Y-10985912D01*
X15081015Y-10985912D02*
X15081015Y-10814484D01*
X15261968Y-11004960D02*
X15242920Y-11014484D01*
X15242920Y-11014484D02*
X15204825Y-11014484D01*
X15204825Y-11014484D02*
X15185777Y-11004960D01*
X15185777Y-11004960D02*
X15176253Y-10985912D01*
X15176253Y-10985912D02*
X15176253Y-10909722D01*
X15176253Y-10909722D02*
X15185777Y-10890674D01*
X15185777Y-10890674D02*
X15204825Y-10881150D01*
X15204825Y-10881150D02*
X15242920Y-10881150D01*
X15242920Y-10881150D02*
X15261968Y-10890674D01*
X15261968Y-10890674D02*
X15271491Y-10909722D01*
X15271491Y-10909722D02*
X15271491Y-10928770D01*
X15271491Y-10928770D02*
X15176253Y-10947817D01*
X15347682Y-11004960D02*
X15366730Y-11014484D01*
X15366730Y-11014484D02*
X15404825Y-11014484D01*
X15404825Y-11014484D02*
X15423872Y-11004960D01*
X15423872Y-11004960D02*
X15433396Y-10985912D01*
X15433396Y-10985912D02*
X15433396Y-10976389D01*
X15433396Y-10976389D02*
X15423872Y-10957341D01*
X15423872Y-10957341D02*
X15404825Y-10947817D01*
X15404825Y-10947817D02*
X15376253Y-10947817D01*
X15376253Y-10947817D02*
X15357206Y-10938293D01*
X15357206Y-10938293D02*
X15347682Y-10919246D01*
X15347682Y-10919246D02*
X15347682Y-10909722D01*
X15347682Y-10909722D02*
X15357206Y-10890674D01*
X15357206Y-10890674D02*
X15376253Y-10881150D01*
X15376253Y-10881150D02*
X15404825Y-10881150D01*
X15404825Y-10881150D02*
X15423872Y-10890674D01*
X15500063Y-11090674D02*
X15509587Y-11081150D01*
X15509587Y-11081150D02*
X15528634Y-11052579D01*
X15528634Y-11052579D02*
X15538158Y-11033531D01*
X15538158Y-11033531D02*
X15547682Y-11004960D01*
X15547682Y-11004960D02*
X15557206Y-10957341D01*
X15557206Y-10957341D02*
X15557206Y-10919246D01*
X15557206Y-10919246D02*
X15547682Y-10871627D01*
X15547682Y-10871627D02*
X15538158Y-10843055D01*
X15538158Y-10843055D02*
X15528634Y-10824008D01*
X15528634Y-10824008D02*
X15509587Y-10795436D01*
X15509587Y-10795436D02*
X15500063Y-10785912D01*
D10*
X10715481Y-11209981D02*
X10715481Y-11164019D01*
X10669519Y-11164019D01*
X10669519Y-11209981D01*
X10715481Y-11209981D01*
D11*
X11023872Y-11078484D02*
X11042920Y-11078484D01*
X11042920Y-11078484D02*
X11061967Y-11088008D01*
X11061967Y-11088008D02*
X11071491Y-11097531D01*
X11071491Y-11097531D02*
X11081015Y-11116579D01*
X11081015Y-11116579D02*
X11090539Y-11154674D01*
X11090539Y-11154674D02*
X11090539Y-11202293D01*
X11090539Y-11202293D02*
X11081015Y-11240388D01*
X11081015Y-11240388D02*
X11071491Y-11259436D01*
X11071491Y-11259436D02*
X11061967Y-11268960D01*
X11061967Y-11268960D02*
X11042920Y-11278484D01*
X11042920Y-11278484D02*
X11023872Y-11278484D01*
X11023872Y-11278484D02*
X11004824Y-11268960D01*
X11004824Y-11268960D02*
X10995301Y-11259436D01*
X10995301Y-11259436D02*
X10985777Y-11240388D01*
X10985777Y-11240388D02*
X10976253Y-11202293D01*
X10976253Y-11202293D02*
X10976253Y-11154674D01*
X10976253Y-11154674D02*
X10985777Y-11116579D01*
X10985777Y-11116579D02*
X10995301Y-11097531D01*
X10995301Y-11097531D02*
X11004824Y-11088008D01*
X11004824Y-11088008D02*
X11023872Y-11078484D01*
X11176253Y-11259436D02*
X11185777Y-11268960D01*
X11185777Y-11268960D02*
X11176253Y-11278484D01*
X11176253Y-11278484D02*
X11166729Y-11268960D01*
X11166729Y-11268960D02*
X11176253Y-11259436D01*
X11176253Y-11259436D02*
X11176253Y-11278484D01*
X11357205Y-11078484D02*
X11319110Y-11078484D01*
X11319110Y-11078484D02*
X11300062Y-11088008D01*
X11300062Y-11088008D02*
X11290539Y-11097531D01*
X11290539Y-11097531D02*
X11271491Y-11126103D01*
X11271491Y-11126103D02*
X11261967Y-11164198D01*
X11261967Y-11164198D02*
X11261967Y-11240388D01*
X11261967Y-11240388D02*
X11271491Y-11259436D01*
X11271491Y-11259436D02*
X11281015Y-11268960D01*
X11281015Y-11268960D02*
X11300062Y-11278484D01*
X11300062Y-11278484D02*
X11338158Y-11278484D01*
X11338158Y-11278484D02*
X11357205Y-11268960D01*
X11357205Y-11268960D02*
X11366729Y-11259436D01*
X11366729Y-11259436D02*
X11376253Y-11240388D01*
X11376253Y-11240388D02*
X11376253Y-11192769D01*
X11376253Y-11192769D02*
X11366729Y-11173722D01*
X11366729Y-11173722D02*
X11357205Y-11164198D01*
X11357205Y-11164198D02*
X11338158Y-11154674D01*
X11338158Y-11154674D02*
X11300062Y-11154674D01*
X11300062Y-11154674D02*
X11281015Y-11164198D01*
X11281015Y-11164198D02*
X11271491Y-11173722D01*
X11271491Y-11173722D02*
X11261967Y-11192769D01*
X11557205Y-11078484D02*
X11461967Y-11078484D01*
X11461967Y-11078484D02*
X11452443Y-11173722D01*
X11452443Y-11173722D02*
X11461967Y-11164198D01*
X11461967Y-11164198D02*
X11481015Y-11154674D01*
X11481015Y-11154674D02*
X11528634Y-11154674D01*
X11528634Y-11154674D02*
X11547682Y-11164198D01*
X11547682Y-11164198D02*
X11557205Y-11173722D01*
X11557205Y-11173722D02*
X11566729Y-11192769D01*
X11566729Y-11192769D02*
X11566729Y-11240388D01*
X11566729Y-11240388D02*
X11557205Y-11259436D01*
X11557205Y-11259436D02*
X11547682Y-11268960D01*
X11547682Y-11268960D02*
X11528634Y-11278484D01*
X11528634Y-11278484D02*
X11481015Y-11278484D01*
X11481015Y-11278484D02*
X11461967Y-11268960D01*
X11461967Y-11268960D02*
X11452443Y-11259436D01*
X11690539Y-11078484D02*
X11709586Y-11078484D01*
X11709586Y-11078484D02*
X11728634Y-11088008D01*
X11728634Y-11088008D02*
X11738158Y-11097531D01*
X11738158Y-11097531D02*
X11747682Y-11116579D01*
X11747682Y-11116579D02*
X11757205Y-11154674D01*
X11757205Y-11154674D02*
X11757205Y-11202293D01*
X11757205Y-11202293D02*
X11747682Y-11240388D01*
X11747682Y-11240388D02*
X11738158Y-11259436D01*
X11738158Y-11259436D02*
X11728634Y-11268960D01*
X11728634Y-11268960D02*
X11709586Y-11278484D01*
X11709586Y-11278484D02*
X11690539Y-11278484D01*
X11690539Y-11278484D02*
X11671491Y-11268960D01*
X11671491Y-11268960D02*
X11661967Y-11259436D01*
X11661967Y-11259436D02*
X11652443Y-11240388D01*
X11652443Y-11240388D02*
X11642920Y-11202293D01*
X11642920Y-11202293D02*
X11642920Y-11154674D01*
X11642920Y-11154674D02*
X11652443Y-11116579D01*
X11652443Y-11116579D02*
X11661967Y-11097531D01*
X11661967Y-11097531D02*
X11671491Y-11088008D01*
X11671491Y-11088008D02*
X11690539Y-11078484D01*
X11842920Y-11278484D02*
X11842920Y-11145150D01*
X11842920Y-11164198D02*
X11852443Y-11154674D01*
X11852443Y-11154674D02*
X11871491Y-11145150D01*
X11871491Y-11145150D02*
X11900063Y-11145150D01*
X11900063Y-11145150D02*
X11919110Y-11154674D01*
X11919110Y-11154674D02*
X11928634Y-11173722D01*
X11928634Y-11173722D02*
X11928634Y-11278484D01*
X11928634Y-11173722D02*
X11938158Y-11154674D01*
X11938158Y-11154674D02*
X11957205Y-11145150D01*
X11957205Y-11145150D02*
X11985777Y-11145150D01*
X11985777Y-11145150D02*
X12004824Y-11154674D01*
X12004824Y-11154674D02*
X12014348Y-11173722D01*
X12014348Y-11173722D02*
X12014348Y-11278484D01*
X12109586Y-11278484D02*
X12109586Y-11145150D01*
X12109586Y-11164198D02*
X12119110Y-11154674D01*
X12119110Y-11154674D02*
X12138158Y-11145150D01*
X12138158Y-11145150D02*
X12166729Y-11145150D01*
X12166729Y-11145150D02*
X12185777Y-11154674D01*
X12185777Y-11154674D02*
X12195301Y-11173722D01*
X12195301Y-11173722D02*
X12195301Y-11278484D01*
X12195301Y-11173722D02*
X12204824Y-11154674D01*
X12204824Y-11154674D02*
X12223872Y-11145150D01*
X12223872Y-11145150D02*
X12252443Y-11145150D01*
X12252443Y-11145150D02*
X12271491Y-11154674D01*
X12271491Y-11154674D02*
X12281015Y-11173722D01*
X12281015Y-11173722D02*
X12281015Y-11278484D01*
X12671491Y-11068960D02*
X12500063Y-11326103D01*
X12928634Y-11078484D02*
X12947682Y-11078484D01*
X12947682Y-11078484D02*
X12966729Y-11088008D01*
X12966729Y-11088008D02*
X12976253Y-11097531D01*
X12976253Y-11097531D02*
X12985777Y-11116579D01*
X12985777Y-11116579D02*
X12995301Y-11154674D01*
X12995301Y-11154674D02*
X12995301Y-11202293D01*
X12995301Y-11202293D02*
X12985777Y-11240388D01*
X12985777Y-11240388D02*
X12976253Y-11259436D01*
X12976253Y-11259436D02*
X12966729Y-11268960D01*
X12966729Y-11268960D02*
X12947682Y-11278484D01*
X12947682Y-11278484D02*
X12928634Y-11278484D01*
X12928634Y-11278484D02*
X12909586Y-11268960D01*
X12909586Y-11268960D02*
X12900063Y-11259436D01*
X12900063Y-11259436D02*
X12890539Y-11240388D01*
X12890539Y-11240388D02*
X12881015Y-11202293D01*
X12881015Y-11202293D02*
X12881015Y-11154674D01*
X12881015Y-11154674D02*
X12890539Y-11116579D01*
X12890539Y-11116579D02*
X12900063Y-11097531D01*
X12900063Y-11097531D02*
X12909586Y-11088008D01*
X12909586Y-11088008D02*
X12928634Y-11078484D01*
X13081015Y-11259436D02*
X13090539Y-11268960D01*
X13090539Y-11268960D02*
X13081015Y-11278484D01*
X13081015Y-11278484D02*
X13071491Y-11268960D01*
X13071491Y-11268960D02*
X13081015Y-11259436D01*
X13081015Y-11259436D02*
X13081015Y-11278484D01*
X13214348Y-11078484D02*
X13233396Y-11078484D01*
X13233396Y-11078484D02*
X13252444Y-11088008D01*
X13252444Y-11088008D02*
X13261967Y-11097531D01*
X13261967Y-11097531D02*
X13271491Y-11116579D01*
X13271491Y-11116579D02*
X13281015Y-11154674D01*
X13281015Y-11154674D02*
X13281015Y-11202293D01*
X13281015Y-11202293D02*
X13271491Y-11240388D01*
X13271491Y-11240388D02*
X13261967Y-11259436D01*
X13261967Y-11259436D02*
X13252444Y-11268960D01*
X13252444Y-11268960D02*
X13233396Y-11278484D01*
X13233396Y-11278484D02*
X13214348Y-11278484D01*
X13214348Y-11278484D02*
X13195301Y-11268960D01*
X13195301Y-11268960D02*
X13185777Y-11259436D01*
X13185777Y-11259436D02*
X13176253Y-11240388D01*
X13176253Y-11240388D02*
X13166729Y-11202293D01*
X13166729Y-11202293D02*
X13166729Y-11154674D01*
X13166729Y-11154674D02*
X13176253Y-11116579D01*
X13176253Y-11116579D02*
X13185777Y-11097531D01*
X13185777Y-11097531D02*
X13195301Y-11088008D01*
X13195301Y-11088008D02*
X13214348Y-11078484D01*
X13357206Y-11097531D02*
X13366729Y-11088008D01*
X13366729Y-11088008D02*
X13385777Y-11078484D01*
X13385777Y-11078484D02*
X13433396Y-11078484D01*
X13433396Y-11078484D02*
X13452444Y-11088008D01*
X13452444Y-11088008D02*
X13461967Y-11097531D01*
X13461967Y-11097531D02*
X13471491Y-11116579D01*
X13471491Y-11116579D02*
X13471491Y-11135627D01*
X13471491Y-11135627D02*
X13461967Y-11164198D01*
X13461967Y-11164198D02*
X13347682Y-11278484D01*
X13347682Y-11278484D02*
X13471491Y-11278484D01*
X13652444Y-11078484D02*
X13557206Y-11078484D01*
X13557206Y-11078484D02*
X13547682Y-11173722D01*
X13547682Y-11173722D02*
X13557206Y-11164198D01*
X13557206Y-11164198D02*
X13576253Y-11154674D01*
X13576253Y-11154674D02*
X13623872Y-11154674D01*
X13623872Y-11154674D02*
X13642920Y-11164198D01*
X13642920Y-11164198D02*
X13652444Y-11173722D01*
X13652444Y-11173722D02*
X13661967Y-11192769D01*
X13661967Y-11192769D02*
X13661967Y-11240388D01*
X13661967Y-11240388D02*
X13652444Y-11259436D01*
X13652444Y-11259436D02*
X13642920Y-11268960D01*
X13642920Y-11268960D02*
X13623872Y-11278484D01*
X13623872Y-11278484D02*
X13576253Y-11278484D01*
X13576253Y-11278484D02*
X13557206Y-11268960D01*
X13557206Y-11268960D02*
X13547682Y-11259436D01*
X13833396Y-11078484D02*
X13795301Y-11078484D01*
X13795301Y-11078484D02*
X13776253Y-11088008D01*
X13776253Y-11088008D02*
X13766729Y-11097531D01*
X13766729Y-11097531D02*
X13747682Y-11126103D01*
X13747682Y-11126103D02*
X13738158Y-11164198D01*
X13738158Y-11164198D02*
X13738158Y-11240388D01*
X13738158Y-11240388D02*
X13747682Y-11259436D01*
X13747682Y-11259436D02*
X13757206Y-11268960D01*
X13757206Y-11268960D02*
X13776253Y-11278484D01*
X13776253Y-11278484D02*
X13814348Y-11278484D01*
X13814348Y-11278484D02*
X13833396Y-11268960D01*
X13833396Y-11268960D02*
X13842920Y-11259436D01*
X13842920Y-11259436D02*
X13852444Y-11240388D01*
X13852444Y-11240388D02*
X13852444Y-11192769D01*
X13852444Y-11192769D02*
X13842920Y-11173722D01*
X13842920Y-11173722D02*
X13833396Y-11164198D01*
X13833396Y-11164198D02*
X13814348Y-11154674D01*
X13814348Y-11154674D02*
X13776253Y-11154674D01*
X13776253Y-11154674D02*
X13757206Y-11164198D01*
X13757206Y-11164198D02*
X13747682Y-11173722D01*
X13747682Y-11173722D02*
X13738158Y-11192769D01*
X13928634Y-11078484D02*
X13928634Y-11116579D01*
X14004825Y-11078484D02*
X14004825Y-11116579D01*
X14300063Y-11354674D02*
X14290539Y-11345150D01*
X14290539Y-11345150D02*
X14271491Y-11316579D01*
X14271491Y-11316579D02*
X14261968Y-11297531D01*
X14261968Y-11297531D02*
X14252444Y-11268960D01*
X14252444Y-11268960D02*
X14242920Y-11221341D01*
X14242920Y-11221341D02*
X14242920Y-11183246D01*
X14242920Y-11183246D02*
X14252444Y-11135627D01*
X14252444Y-11135627D02*
X14261968Y-11107055D01*
X14261968Y-11107055D02*
X14271491Y-11088008D01*
X14271491Y-11088008D02*
X14290539Y-11059436D01*
X14290539Y-11059436D02*
X14300063Y-11049912D01*
X14366729Y-11097531D02*
X14376253Y-11088008D01*
X14376253Y-11088008D02*
X14395301Y-11078484D01*
X14395301Y-11078484D02*
X14442920Y-11078484D01*
X14442920Y-11078484D02*
X14461968Y-11088008D01*
X14461968Y-11088008D02*
X14471491Y-11097531D01*
X14471491Y-11097531D02*
X14481015Y-11116579D01*
X14481015Y-11116579D02*
X14481015Y-11135627D01*
X14481015Y-11135627D02*
X14471491Y-11164198D01*
X14471491Y-11164198D02*
X14357206Y-11278484D01*
X14357206Y-11278484D02*
X14481015Y-11278484D01*
X14661968Y-11078484D02*
X14566729Y-11078484D01*
X14566729Y-11078484D02*
X14557206Y-11173722D01*
X14557206Y-11173722D02*
X14566729Y-11164198D01*
X14566729Y-11164198D02*
X14585777Y-11154674D01*
X14585777Y-11154674D02*
X14633396Y-11154674D01*
X14633396Y-11154674D02*
X14652444Y-11164198D01*
X14652444Y-11164198D02*
X14661968Y-11173722D01*
X14661968Y-11173722D02*
X14671491Y-11192769D01*
X14671491Y-11192769D02*
X14671491Y-11240388D01*
X14671491Y-11240388D02*
X14661968Y-11259436D01*
X14661968Y-11259436D02*
X14652444Y-11268960D01*
X14652444Y-11268960D02*
X14633396Y-11278484D01*
X14633396Y-11278484D02*
X14585777Y-11278484D01*
X14585777Y-11278484D02*
X14566729Y-11268960D01*
X14566729Y-11268960D02*
X14557206Y-11259436D01*
X14909587Y-11278484D02*
X14909587Y-11078484D01*
X14995301Y-11278484D02*
X14995301Y-11173722D01*
X14995301Y-11173722D02*
X14985777Y-11154674D01*
X14985777Y-11154674D02*
X14966730Y-11145150D01*
X14966730Y-11145150D02*
X14938158Y-11145150D01*
X14938158Y-11145150D02*
X14919110Y-11154674D01*
X14919110Y-11154674D02*
X14909587Y-11164198D01*
X15119110Y-11278484D02*
X15100063Y-11268960D01*
X15100063Y-11268960D02*
X15090539Y-11259436D01*
X15090539Y-11259436D02*
X15081015Y-11240388D01*
X15081015Y-11240388D02*
X15081015Y-11183246D01*
X15081015Y-11183246D02*
X15090539Y-11164198D01*
X15090539Y-11164198D02*
X15100063Y-11154674D01*
X15100063Y-11154674D02*
X15119110Y-11145150D01*
X15119110Y-11145150D02*
X15147682Y-11145150D01*
X15147682Y-11145150D02*
X15166730Y-11154674D01*
X15166730Y-11154674D02*
X15176253Y-11164198D01*
X15176253Y-11164198D02*
X15185777Y-11183246D01*
X15185777Y-11183246D02*
X15185777Y-11240388D01*
X15185777Y-11240388D02*
X15176253Y-11259436D01*
X15176253Y-11259436D02*
X15166730Y-11268960D01*
X15166730Y-11268960D02*
X15147682Y-11278484D01*
X15147682Y-11278484D02*
X15119110Y-11278484D01*
X15300063Y-11278484D02*
X15281015Y-11268960D01*
X15281015Y-11268960D02*
X15271491Y-11249912D01*
X15271491Y-11249912D02*
X15271491Y-11078484D01*
X15452444Y-11268960D02*
X15433396Y-11278484D01*
X15433396Y-11278484D02*
X15395301Y-11278484D01*
X15395301Y-11278484D02*
X15376253Y-11268960D01*
X15376253Y-11268960D02*
X15366730Y-11249912D01*
X15366730Y-11249912D02*
X15366730Y-11173722D01*
X15366730Y-11173722D02*
X15376253Y-11154674D01*
X15376253Y-11154674D02*
X15395301Y-11145150D01*
X15395301Y-11145150D02*
X15433396Y-11145150D01*
X15433396Y-11145150D02*
X15452444Y-11154674D01*
X15452444Y-11154674D02*
X15461968Y-11173722D01*
X15461968Y-11173722D02*
X15461968Y-11192769D01*
X15461968Y-11192769D02*
X15366730Y-11211817D01*
X15538158Y-11268960D02*
X15557206Y-11278484D01*
X15557206Y-11278484D02*
X15595301Y-11278484D01*
X15595301Y-11278484D02*
X15614349Y-11268960D01*
X15614349Y-11268960D02*
X15623872Y-11249912D01*
X15623872Y-11249912D02*
X15623872Y-11240388D01*
X15623872Y-11240388D02*
X15614349Y-11221341D01*
X15614349Y-11221341D02*
X15595301Y-11211817D01*
X15595301Y-11211817D02*
X15566730Y-11211817D01*
X15566730Y-11211817D02*
X15547682Y-11202293D01*
X15547682Y-11202293D02*
X15538158Y-11183246D01*
X15538158Y-11183246D02*
X15538158Y-11173722D01*
X15538158Y-11173722D02*
X15547682Y-11154674D01*
X15547682Y-11154674D02*
X15566730Y-11145150D01*
X15566730Y-11145150D02*
X15595301Y-11145150D01*
X15595301Y-11145150D02*
X15614349Y-11154674D01*
X15861968Y-11202293D02*
X16014349Y-11202293D01*
X15938158Y-11278484D02*
X15938158Y-11126103D01*
X16252444Y-11097531D02*
X16261968Y-11088008D01*
X16261968Y-11088008D02*
X16281015Y-11078484D01*
X16281015Y-11078484D02*
X16328634Y-11078484D01*
X16328634Y-11078484D02*
X16347682Y-11088008D01*
X16347682Y-11088008D02*
X16357206Y-11097531D01*
X16357206Y-11097531D02*
X16366730Y-11116579D01*
X16366730Y-11116579D02*
X16366730Y-11135627D01*
X16366730Y-11135627D02*
X16357206Y-11164198D01*
X16357206Y-11164198D02*
X16242920Y-11278484D01*
X16242920Y-11278484D02*
X16366730Y-11278484D01*
X16595301Y-11268960D02*
X16614349Y-11278484D01*
X16614349Y-11278484D02*
X16652444Y-11278484D01*
X16652444Y-11278484D02*
X16671492Y-11268960D01*
X16671492Y-11268960D02*
X16681015Y-11249912D01*
X16681015Y-11249912D02*
X16681015Y-11240388D01*
X16681015Y-11240388D02*
X16671492Y-11221341D01*
X16671492Y-11221341D02*
X16652444Y-11211817D01*
X16652444Y-11211817D02*
X16623873Y-11211817D01*
X16623873Y-11211817D02*
X16604825Y-11202293D01*
X16604825Y-11202293D02*
X16595301Y-11183246D01*
X16595301Y-11183246D02*
X16595301Y-11173722D01*
X16595301Y-11173722D02*
X16604825Y-11154674D01*
X16604825Y-11154674D02*
X16623873Y-11145150D01*
X16623873Y-11145150D02*
X16652444Y-11145150D01*
X16652444Y-11145150D02*
X16671492Y-11154674D01*
X16795301Y-11278484D02*
X16776254Y-11268960D01*
X16776254Y-11268960D02*
X16766730Y-11249912D01*
X16766730Y-11249912D02*
X16766730Y-11078484D01*
X16900063Y-11278484D02*
X16881016Y-11268960D01*
X16881016Y-11268960D02*
X16871492Y-11259436D01*
X16871492Y-11259436D02*
X16861968Y-11240388D01*
X16861968Y-11240388D02*
X16861968Y-11183246D01*
X16861968Y-11183246D02*
X16871492Y-11164198D01*
X16871492Y-11164198D02*
X16881016Y-11154674D01*
X16881016Y-11154674D02*
X16900063Y-11145150D01*
X16900063Y-11145150D02*
X16928635Y-11145150D01*
X16928635Y-11145150D02*
X16947682Y-11154674D01*
X16947682Y-11154674D02*
X16957206Y-11164198D01*
X16957206Y-11164198D02*
X16966730Y-11183246D01*
X16966730Y-11183246D02*
X16966730Y-11240388D01*
X16966730Y-11240388D02*
X16957206Y-11259436D01*
X16957206Y-11259436D02*
X16947682Y-11268960D01*
X16947682Y-11268960D02*
X16928635Y-11278484D01*
X16928635Y-11278484D02*
X16900063Y-11278484D01*
X17023873Y-11145150D02*
X17100063Y-11145150D01*
X17052444Y-11078484D02*
X17052444Y-11249912D01*
X17052444Y-11249912D02*
X17061968Y-11268960D01*
X17061968Y-11268960D02*
X17081016Y-11278484D01*
X17081016Y-11278484D02*
X17100063Y-11278484D01*
X17157206Y-11268960D02*
X17176254Y-11278484D01*
X17176254Y-11278484D02*
X17214349Y-11278484D01*
X17214349Y-11278484D02*
X17233397Y-11268960D01*
X17233397Y-11268960D02*
X17242920Y-11249912D01*
X17242920Y-11249912D02*
X17242920Y-11240388D01*
X17242920Y-11240388D02*
X17233397Y-11221341D01*
X17233397Y-11221341D02*
X17214349Y-11211817D01*
X17214349Y-11211817D02*
X17185777Y-11211817D01*
X17185777Y-11211817D02*
X17166730Y-11202293D01*
X17166730Y-11202293D02*
X17157206Y-11183246D01*
X17157206Y-11183246D02*
X17157206Y-11173722D01*
X17157206Y-11173722D02*
X17166730Y-11154674D01*
X17166730Y-11154674D02*
X17185777Y-11145150D01*
X17185777Y-11145150D02*
X17214349Y-11145150D01*
X17214349Y-11145150D02*
X17233397Y-11154674D01*
X17309587Y-11354674D02*
X17319111Y-11345150D01*
X17319111Y-11345150D02*
X17338158Y-11316579D01*
X17338158Y-11316579D02*
X17347682Y-11297531D01*
X17347682Y-11297531D02*
X17357206Y-11268960D01*
X17357206Y-11268960D02*
X17366730Y-11221341D01*
X17366730Y-11221341D02*
X17366730Y-11183246D01*
X17366730Y-11183246D02*
X17357206Y-11135627D01*
X17357206Y-11135627D02*
X17347682Y-11107055D01*
X17347682Y-11107055D02*
X17338158Y-11088008D01*
X17338158Y-11088008D02*
X17319111Y-11059436D01*
X17319111Y-11059436D02*
X17309587Y-11049912D01*
D10*
X10690000Y-11486000D02*
X10725000Y-11451000D01*
X10690000Y-11416000D01*
X10655000Y-11451000D01*
X10690000Y-11486000D01*
D11*
X11023872Y-11342484D02*
X11042920Y-11342484D01*
X11042920Y-11342484D02*
X11061967Y-11352008D01*
X11061967Y-11352008D02*
X11071491Y-11361531D01*
X11071491Y-11361531D02*
X11081015Y-11380579D01*
X11081015Y-11380579D02*
X11090539Y-11418674D01*
X11090539Y-11418674D02*
X11090539Y-11466293D01*
X11090539Y-11466293D02*
X11081015Y-11504388D01*
X11081015Y-11504388D02*
X11071491Y-11523436D01*
X11071491Y-11523436D02*
X11061967Y-11532960D01*
X11061967Y-11532960D02*
X11042920Y-11542484D01*
X11042920Y-11542484D02*
X11023872Y-11542484D01*
X11023872Y-11542484D02*
X11004824Y-11532960D01*
X11004824Y-11532960D02*
X10995301Y-11523436D01*
X10995301Y-11523436D02*
X10985777Y-11504388D01*
X10985777Y-11504388D02*
X10976253Y-11466293D01*
X10976253Y-11466293D02*
X10976253Y-11418674D01*
X10976253Y-11418674D02*
X10985777Y-11380579D01*
X10985777Y-11380579D02*
X10995301Y-11361531D01*
X10995301Y-11361531D02*
X11004824Y-11352008D01*
X11004824Y-11352008D02*
X11023872Y-11342484D01*
X11176253Y-11523436D02*
X11185777Y-11532960D01*
X11185777Y-11532960D02*
X11176253Y-11542484D01*
X11176253Y-11542484D02*
X11166729Y-11532960D01*
X11166729Y-11532960D02*
X11176253Y-11523436D01*
X11176253Y-11523436D02*
X11176253Y-11542484D01*
X11252443Y-11342484D02*
X11385777Y-11342484D01*
X11385777Y-11342484D02*
X11300062Y-11542484D01*
X11500062Y-11342484D02*
X11519110Y-11342484D01*
X11519110Y-11342484D02*
X11538158Y-11352008D01*
X11538158Y-11352008D02*
X11547682Y-11361531D01*
X11547682Y-11361531D02*
X11557205Y-11380579D01*
X11557205Y-11380579D02*
X11566729Y-11418674D01*
X11566729Y-11418674D02*
X11566729Y-11466293D01*
X11566729Y-11466293D02*
X11557205Y-11504388D01*
X11557205Y-11504388D02*
X11547682Y-11523436D01*
X11547682Y-11523436D02*
X11538158Y-11532960D01*
X11538158Y-11532960D02*
X11519110Y-11542484D01*
X11519110Y-11542484D02*
X11500062Y-11542484D01*
X11500062Y-11542484D02*
X11481015Y-11532960D01*
X11481015Y-11532960D02*
X11471491Y-11523436D01*
X11471491Y-11523436D02*
X11461967Y-11504388D01*
X11461967Y-11504388D02*
X11452443Y-11466293D01*
X11452443Y-11466293D02*
X11452443Y-11418674D01*
X11452443Y-11418674D02*
X11461967Y-11380579D01*
X11461967Y-11380579D02*
X11471491Y-11361531D01*
X11471491Y-11361531D02*
X11481015Y-11352008D01*
X11481015Y-11352008D02*
X11500062Y-11342484D01*
X11690539Y-11342484D02*
X11709586Y-11342484D01*
X11709586Y-11342484D02*
X11728634Y-11352008D01*
X11728634Y-11352008D02*
X11738158Y-11361531D01*
X11738158Y-11361531D02*
X11747682Y-11380579D01*
X11747682Y-11380579D02*
X11757205Y-11418674D01*
X11757205Y-11418674D02*
X11757205Y-11466293D01*
X11757205Y-11466293D02*
X11747682Y-11504388D01*
X11747682Y-11504388D02*
X11738158Y-11523436D01*
X11738158Y-11523436D02*
X11728634Y-11532960D01*
X11728634Y-11532960D02*
X11709586Y-11542484D01*
X11709586Y-11542484D02*
X11690539Y-11542484D01*
X11690539Y-11542484D02*
X11671491Y-11532960D01*
X11671491Y-11532960D02*
X11661967Y-11523436D01*
X11661967Y-11523436D02*
X11652443Y-11504388D01*
X11652443Y-11504388D02*
X11642920Y-11466293D01*
X11642920Y-11466293D02*
X11642920Y-11418674D01*
X11642920Y-11418674D02*
X11652443Y-11380579D01*
X11652443Y-11380579D02*
X11661967Y-11361531D01*
X11661967Y-11361531D02*
X11671491Y-11352008D01*
X11671491Y-11352008D02*
X11690539Y-11342484D01*
X11842920Y-11542484D02*
X11842920Y-11409150D01*
X11842920Y-11428198D02*
X11852443Y-11418674D01*
X11852443Y-11418674D02*
X11871491Y-11409150D01*
X11871491Y-11409150D02*
X11900063Y-11409150D01*
X11900063Y-11409150D02*
X11919110Y-11418674D01*
X11919110Y-11418674D02*
X11928634Y-11437722D01*
X11928634Y-11437722D02*
X11928634Y-11542484D01*
X11928634Y-11437722D02*
X11938158Y-11418674D01*
X11938158Y-11418674D02*
X11957205Y-11409150D01*
X11957205Y-11409150D02*
X11985777Y-11409150D01*
X11985777Y-11409150D02*
X12004824Y-11418674D01*
X12004824Y-11418674D02*
X12014348Y-11437722D01*
X12014348Y-11437722D02*
X12014348Y-11542484D01*
X12109586Y-11542484D02*
X12109586Y-11409150D01*
X12109586Y-11428198D02*
X12119110Y-11418674D01*
X12119110Y-11418674D02*
X12138158Y-11409150D01*
X12138158Y-11409150D02*
X12166729Y-11409150D01*
X12166729Y-11409150D02*
X12185777Y-11418674D01*
X12185777Y-11418674D02*
X12195301Y-11437722D01*
X12195301Y-11437722D02*
X12195301Y-11542484D01*
X12195301Y-11437722D02*
X12204824Y-11418674D01*
X12204824Y-11418674D02*
X12223872Y-11409150D01*
X12223872Y-11409150D02*
X12252443Y-11409150D01*
X12252443Y-11409150D02*
X12271491Y-11418674D01*
X12271491Y-11418674D02*
X12281015Y-11437722D01*
X12281015Y-11437722D02*
X12281015Y-11542484D01*
X12671491Y-11332960D02*
X12500063Y-11590103D01*
X12928634Y-11342484D02*
X12947682Y-11342484D01*
X12947682Y-11342484D02*
X12966729Y-11352008D01*
X12966729Y-11352008D02*
X12976253Y-11361531D01*
X12976253Y-11361531D02*
X12985777Y-11380579D01*
X12985777Y-11380579D02*
X12995301Y-11418674D01*
X12995301Y-11418674D02*
X12995301Y-11466293D01*
X12995301Y-11466293D02*
X12985777Y-11504388D01*
X12985777Y-11504388D02*
X12976253Y-11523436D01*
X12976253Y-11523436D02*
X12966729Y-11532960D01*
X12966729Y-11532960D02*
X12947682Y-11542484D01*
X12947682Y-11542484D02*
X12928634Y-11542484D01*
X12928634Y-11542484D02*
X12909586Y-11532960D01*
X12909586Y-11532960D02*
X12900063Y-11523436D01*
X12900063Y-11523436D02*
X12890539Y-11504388D01*
X12890539Y-11504388D02*
X12881015Y-11466293D01*
X12881015Y-11466293D02*
X12881015Y-11418674D01*
X12881015Y-11418674D02*
X12890539Y-11380579D01*
X12890539Y-11380579D02*
X12900063Y-11361531D01*
X12900063Y-11361531D02*
X12909586Y-11352008D01*
X12909586Y-11352008D02*
X12928634Y-11342484D01*
X13081015Y-11523436D02*
X13090539Y-11532960D01*
X13090539Y-11532960D02*
X13081015Y-11542484D01*
X13081015Y-11542484D02*
X13071491Y-11532960D01*
X13071491Y-11532960D02*
X13081015Y-11523436D01*
X13081015Y-11523436D02*
X13081015Y-11542484D01*
X13214348Y-11342484D02*
X13233396Y-11342484D01*
X13233396Y-11342484D02*
X13252444Y-11352008D01*
X13252444Y-11352008D02*
X13261967Y-11361531D01*
X13261967Y-11361531D02*
X13271491Y-11380579D01*
X13271491Y-11380579D02*
X13281015Y-11418674D01*
X13281015Y-11418674D02*
X13281015Y-11466293D01*
X13281015Y-11466293D02*
X13271491Y-11504388D01*
X13271491Y-11504388D02*
X13261967Y-11523436D01*
X13261967Y-11523436D02*
X13252444Y-11532960D01*
X13252444Y-11532960D02*
X13233396Y-11542484D01*
X13233396Y-11542484D02*
X13214348Y-11542484D01*
X13214348Y-11542484D02*
X13195301Y-11532960D01*
X13195301Y-11532960D02*
X13185777Y-11523436D01*
X13185777Y-11523436D02*
X13176253Y-11504388D01*
X13176253Y-11504388D02*
X13166729Y-11466293D01*
X13166729Y-11466293D02*
X13166729Y-11418674D01*
X13166729Y-11418674D02*
X13176253Y-11380579D01*
X13176253Y-11380579D02*
X13185777Y-11361531D01*
X13185777Y-11361531D02*
X13195301Y-11352008D01*
X13195301Y-11352008D02*
X13214348Y-11342484D01*
X13357206Y-11361531D02*
X13366729Y-11352008D01*
X13366729Y-11352008D02*
X13385777Y-11342484D01*
X13385777Y-11342484D02*
X13433396Y-11342484D01*
X13433396Y-11342484D02*
X13452444Y-11352008D01*
X13452444Y-11352008D02*
X13461967Y-11361531D01*
X13461967Y-11361531D02*
X13471491Y-11380579D01*
X13471491Y-11380579D02*
X13471491Y-11399627D01*
X13471491Y-11399627D02*
X13461967Y-11428198D01*
X13461967Y-11428198D02*
X13347682Y-11542484D01*
X13347682Y-11542484D02*
X13471491Y-11542484D01*
X13538158Y-11342484D02*
X13671491Y-11342484D01*
X13671491Y-11342484D02*
X13585777Y-11542484D01*
X13833396Y-11342484D02*
X13795301Y-11342484D01*
X13795301Y-11342484D02*
X13776253Y-11352008D01*
X13776253Y-11352008D02*
X13766729Y-11361531D01*
X13766729Y-11361531D02*
X13747682Y-11390103D01*
X13747682Y-11390103D02*
X13738158Y-11428198D01*
X13738158Y-11428198D02*
X13738158Y-11504388D01*
X13738158Y-11504388D02*
X13747682Y-11523436D01*
X13747682Y-11523436D02*
X13757206Y-11532960D01*
X13757206Y-11532960D02*
X13776253Y-11542484D01*
X13776253Y-11542484D02*
X13814348Y-11542484D01*
X13814348Y-11542484D02*
X13833396Y-11532960D01*
X13833396Y-11532960D02*
X13842920Y-11523436D01*
X13842920Y-11523436D02*
X13852444Y-11504388D01*
X13852444Y-11504388D02*
X13852444Y-11456769D01*
X13852444Y-11456769D02*
X13842920Y-11437722D01*
X13842920Y-11437722D02*
X13833396Y-11428198D01*
X13833396Y-11428198D02*
X13814348Y-11418674D01*
X13814348Y-11418674D02*
X13776253Y-11418674D01*
X13776253Y-11418674D02*
X13757206Y-11428198D01*
X13757206Y-11428198D02*
X13747682Y-11437722D01*
X13747682Y-11437722D02*
X13738158Y-11456769D01*
X13928634Y-11342484D02*
X13928634Y-11380579D01*
X14004825Y-11342484D02*
X14004825Y-11380579D01*
X14300063Y-11618674D02*
X14290539Y-11609150D01*
X14290539Y-11609150D02*
X14271491Y-11580579D01*
X14271491Y-11580579D02*
X14261968Y-11561531D01*
X14261968Y-11561531D02*
X14252444Y-11532960D01*
X14252444Y-11532960D02*
X14242920Y-11485341D01*
X14242920Y-11485341D02*
X14242920Y-11447246D01*
X14242920Y-11447246D02*
X14252444Y-11399627D01*
X14252444Y-11399627D02*
X14261968Y-11371055D01*
X14261968Y-11371055D02*
X14271491Y-11352008D01*
X14271491Y-11352008D02*
X14290539Y-11323436D01*
X14290539Y-11323436D02*
X14300063Y-11313912D01*
X14481015Y-11542484D02*
X14366729Y-11542484D01*
X14423872Y-11542484D02*
X14423872Y-11342484D01*
X14423872Y-11342484D02*
X14404825Y-11371055D01*
X14404825Y-11371055D02*
X14385777Y-11390103D01*
X14385777Y-11390103D02*
X14366729Y-11399627D01*
X14719110Y-11542484D02*
X14719110Y-11342484D01*
X14804825Y-11542484D02*
X14804825Y-11437722D01*
X14804825Y-11437722D02*
X14795301Y-11418674D01*
X14795301Y-11418674D02*
X14776253Y-11409150D01*
X14776253Y-11409150D02*
X14747682Y-11409150D01*
X14747682Y-11409150D02*
X14728634Y-11418674D01*
X14728634Y-11418674D02*
X14719110Y-11428198D01*
X14928634Y-11542484D02*
X14909587Y-11532960D01*
X14909587Y-11532960D02*
X14900063Y-11523436D01*
X14900063Y-11523436D02*
X14890539Y-11504388D01*
X14890539Y-11504388D02*
X14890539Y-11447246D01*
X14890539Y-11447246D02*
X14900063Y-11428198D01*
X14900063Y-11428198D02*
X14909587Y-11418674D01*
X14909587Y-11418674D02*
X14928634Y-11409150D01*
X14928634Y-11409150D02*
X14957206Y-11409150D01*
X14957206Y-11409150D02*
X14976253Y-11418674D01*
X14976253Y-11418674D02*
X14985777Y-11428198D01*
X14985777Y-11428198D02*
X14995301Y-11447246D01*
X14995301Y-11447246D02*
X14995301Y-11504388D01*
X14995301Y-11504388D02*
X14985777Y-11523436D01*
X14985777Y-11523436D02*
X14976253Y-11532960D01*
X14976253Y-11532960D02*
X14957206Y-11542484D01*
X14957206Y-11542484D02*
X14928634Y-11542484D01*
X15109587Y-11542484D02*
X15090539Y-11532960D01*
X15090539Y-11532960D02*
X15081015Y-11513912D01*
X15081015Y-11513912D02*
X15081015Y-11342484D01*
X15261968Y-11532960D02*
X15242920Y-11542484D01*
X15242920Y-11542484D02*
X15204825Y-11542484D01*
X15204825Y-11542484D02*
X15185777Y-11532960D01*
X15185777Y-11532960D02*
X15176253Y-11513912D01*
X15176253Y-11513912D02*
X15176253Y-11437722D01*
X15176253Y-11437722D02*
X15185777Y-11418674D01*
X15185777Y-11418674D02*
X15204825Y-11409150D01*
X15204825Y-11409150D02*
X15242920Y-11409150D01*
X15242920Y-11409150D02*
X15261968Y-11418674D01*
X15261968Y-11418674D02*
X15271491Y-11437722D01*
X15271491Y-11437722D02*
X15271491Y-11456769D01*
X15271491Y-11456769D02*
X15176253Y-11475817D01*
X15338158Y-11618674D02*
X15347682Y-11609150D01*
X15347682Y-11609150D02*
X15366730Y-11580579D01*
X15366730Y-11580579D02*
X15376253Y-11561531D01*
X15376253Y-11561531D02*
X15385777Y-11532960D01*
X15385777Y-11532960D02*
X15395301Y-11485341D01*
X15395301Y-11485341D02*
X15395301Y-11447246D01*
X15395301Y-11447246D02*
X15385777Y-11399627D01*
X15385777Y-11399627D02*
X15376253Y-11371055D01*
X15376253Y-11371055D02*
X15366730Y-11352008D01*
X15366730Y-11352008D02*
X15347682Y-11323436D01*
X15347682Y-11323436D02*
X15338158Y-11313912D01*
D10*
X10655000Y-11680000D02*
X10725000Y-11750000D01*
X10725000Y-11680000D02*
X10655000Y-11750000D01*
X10725000Y-11715000D02*
G75*
G02*
X10725000Y-11715000I-35000J0D01*
G01*
D11*
X11023872Y-11606484D02*
X11042920Y-11606484D01*
X11042920Y-11606484D02*
X11061967Y-11616008D01*
X11061967Y-11616008D02*
X11071491Y-11625531D01*
X11071491Y-11625531D02*
X11081015Y-11644579D01*
X11081015Y-11644579D02*
X11090539Y-11682674D01*
X11090539Y-11682674D02*
X11090539Y-11730293D01*
X11090539Y-11730293D02*
X11081015Y-11768388D01*
X11081015Y-11768388D02*
X11071491Y-11787436D01*
X11071491Y-11787436D02*
X11061967Y-11796960D01*
X11061967Y-11796960D02*
X11042920Y-11806484D01*
X11042920Y-11806484D02*
X11023872Y-11806484D01*
X11023872Y-11806484D02*
X11004824Y-11796960D01*
X11004824Y-11796960D02*
X10995301Y-11787436D01*
X10995301Y-11787436D02*
X10985777Y-11768388D01*
X10985777Y-11768388D02*
X10976253Y-11730293D01*
X10976253Y-11730293D02*
X10976253Y-11682674D01*
X10976253Y-11682674D02*
X10985777Y-11644579D01*
X10985777Y-11644579D02*
X10995301Y-11625531D01*
X10995301Y-11625531D02*
X11004824Y-11616008D01*
X11004824Y-11616008D02*
X11023872Y-11606484D01*
X11176253Y-11787436D02*
X11185777Y-11796960D01*
X11185777Y-11796960D02*
X11176253Y-11806484D01*
X11176253Y-11806484D02*
X11166729Y-11796960D01*
X11166729Y-11796960D02*
X11176253Y-11787436D01*
X11176253Y-11787436D02*
X11176253Y-11806484D01*
X11252443Y-11606484D02*
X11385777Y-11606484D01*
X11385777Y-11606484D02*
X11300062Y-11806484D01*
X11500062Y-11606484D02*
X11519110Y-11606484D01*
X11519110Y-11606484D02*
X11538158Y-11616008D01*
X11538158Y-11616008D02*
X11547682Y-11625531D01*
X11547682Y-11625531D02*
X11557205Y-11644579D01*
X11557205Y-11644579D02*
X11566729Y-11682674D01*
X11566729Y-11682674D02*
X11566729Y-11730293D01*
X11566729Y-11730293D02*
X11557205Y-11768388D01*
X11557205Y-11768388D02*
X11547682Y-11787436D01*
X11547682Y-11787436D02*
X11538158Y-11796960D01*
X11538158Y-11796960D02*
X11519110Y-11806484D01*
X11519110Y-11806484D02*
X11500062Y-11806484D01*
X11500062Y-11806484D02*
X11481015Y-11796960D01*
X11481015Y-11796960D02*
X11471491Y-11787436D01*
X11471491Y-11787436D02*
X11461967Y-11768388D01*
X11461967Y-11768388D02*
X11452443Y-11730293D01*
X11452443Y-11730293D02*
X11452443Y-11682674D01*
X11452443Y-11682674D02*
X11461967Y-11644579D01*
X11461967Y-11644579D02*
X11471491Y-11625531D01*
X11471491Y-11625531D02*
X11481015Y-11616008D01*
X11481015Y-11616008D02*
X11500062Y-11606484D01*
X11690539Y-11606484D02*
X11709586Y-11606484D01*
X11709586Y-11606484D02*
X11728634Y-11616008D01*
X11728634Y-11616008D02*
X11738158Y-11625531D01*
X11738158Y-11625531D02*
X11747682Y-11644579D01*
X11747682Y-11644579D02*
X11757205Y-11682674D01*
X11757205Y-11682674D02*
X11757205Y-11730293D01*
X11757205Y-11730293D02*
X11747682Y-11768388D01*
X11747682Y-11768388D02*
X11738158Y-11787436D01*
X11738158Y-11787436D02*
X11728634Y-11796960D01*
X11728634Y-11796960D02*
X11709586Y-11806484D01*
X11709586Y-11806484D02*
X11690539Y-11806484D01*
X11690539Y-11806484D02*
X11671491Y-11796960D01*
X11671491Y-11796960D02*
X11661967Y-11787436D01*
X11661967Y-11787436D02*
X11652443Y-11768388D01*
X11652443Y-11768388D02*
X11642920Y-11730293D01*
X11642920Y-11730293D02*
X11642920Y-11682674D01*
X11642920Y-11682674D02*
X11652443Y-11644579D01*
X11652443Y-11644579D02*
X11661967Y-11625531D01*
X11661967Y-11625531D02*
X11671491Y-11616008D01*
X11671491Y-11616008D02*
X11690539Y-11606484D01*
X11842920Y-11806484D02*
X11842920Y-11673150D01*
X11842920Y-11692198D02*
X11852443Y-11682674D01*
X11852443Y-11682674D02*
X11871491Y-11673150D01*
X11871491Y-11673150D02*
X11900063Y-11673150D01*
X11900063Y-11673150D02*
X11919110Y-11682674D01*
X11919110Y-11682674D02*
X11928634Y-11701722D01*
X11928634Y-11701722D02*
X11928634Y-11806484D01*
X11928634Y-11701722D02*
X11938158Y-11682674D01*
X11938158Y-11682674D02*
X11957205Y-11673150D01*
X11957205Y-11673150D02*
X11985777Y-11673150D01*
X11985777Y-11673150D02*
X12004824Y-11682674D01*
X12004824Y-11682674D02*
X12014348Y-11701722D01*
X12014348Y-11701722D02*
X12014348Y-11806484D01*
X12109586Y-11806484D02*
X12109586Y-11673150D01*
X12109586Y-11692198D02*
X12119110Y-11682674D01*
X12119110Y-11682674D02*
X12138158Y-11673150D01*
X12138158Y-11673150D02*
X12166729Y-11673150D01*
X12166729Y-11673150D02*
X12185777Y-11682674D01*
X12185777Y-11682674D02*
X12195301Y-11701722D01*
X12195301Y-11701722D02*
X12195301Y-11806484D01*
X12195301Y-11701722D02*
X12204824Y-11682674D01*
X12204824Y-11682674D02*
X12223872Y-11673150D01*
X12223872Y-11673150D02*
X12252443Y-11673150D01*
X12252443Y-11673150D02*
X12271491Y-11682674D01*
X12271491Y-11682674D02*
X12281015Y-11701722D01*
X12281015Y-11701722D02*
X12281015Y-11806484D01*
X12671491Y-11596960D02*
X12500063Y-11854103D01*
X12928634Y-11606484D02*
X12947682Y-11606484D01*
X12947682Y-11606484D02*
X12966729Y-11616008D01*
X12966729Y-11616008D02*
X12976253Y-11625531D01*
X12976253Y-11625531D02*
X12985777Y-11644579D01*
X12985777Y-11644579D02*
X12995301Y-11682674D01*
X12995301Y-11682674D02*
X12995301Y-11730293D01*
X12995301Y-11730293D02*
X12985777Y-11768388D01*
X12985777Y-11768388D02*
X12976253Y-11787436D01*
X12976253Y-11787436D02*
X12966729Y-11796960D01*
X12966729Y-11796960D02*
X12947682Y-11806484D01*
X12947682Y-11806484D02*
X12928634Y-11806484D01*
X12928634Y-11806484D02*
X12909586Y-11796960D01*
X12909586Y-11796960D02*
X12900063Y-11787436D01*
X12900063Y-11787436D02*
X12890539Y-11768388D01*
X12890539Y-11768388D02*
X12881015Y-11730293D01*
X12881015Y-11730293D02*
X12881015Y-11682674D01*
X12881015Y-11682674D02*
X12890539Y-11644579D01*
X12890539Y-11644579D02*
X12900063Y-11625531D01*
X12900063Y-11625531D02*
X12909586Y-11616008D01*
X12909586Y-11616008D02*
X12928634Y-11606484D01*
X13081015Y-11787436D02*
X13090539Y-11796960D01*
X13090539Y-11796960D02*
X13081015Y-11806484D01*
X13081015Y-11806484D02*
X13071491Y-11796960D01*
X13071491Y-11796960D02*
X13081015Y-11787436D01*
X13081015Y-11787436D02*
X13081015Y-11806484D01*
X13214348Y-11606484D02*
X13233396Y-11606484D01*
X13233396Y-11606484D02*
X13252444Y-11616008D01*
X13252444Y-11616008D02*
X13261967Y-11625531D01*
X13261967Y-11625531D02*
X13271491Y-11644579D01*
X13271491Y-11644579D02*
X13281015Y-11682674D01*
X13281015Y-11682674D02*
X13281015Y-11730293D01*
X13281015Y-11730293D02*
X13271491Y-11768388D01*
X13271491Y-11768388D02*
X13261967Y-11787436D01*
X13261967Y-11787436D02*
X13252444Y-11796960D01*
X13252444Y-11796960D02*
X13233396Y-11806484D01*
X13233396Y-11806484D02*
X13214348Y-11806484D01*
X13214348Y-11806484D02*
X13195301Y-11796960D01*
X13195301Y-11796960D02*
X13185777Y-11787436D01*
X13185777Y-11787436D02*
X13176253Y-11768388D01*
X13176253Y-11768388D02*
X13166729Y-11730293D01*
X13166729Y-11730293D02*
X13166729Y-11682674D01*
X13166729Y-11682674D02*
X13176253Y-11644579D01*
X13176253Y-11644579D02*
X13185777Y-11625531D01*
X13185777Y-11625531D02*
X13195301Y-11616008D01*
X13195301Y-11616008D02*
X13214348Y-11606484D01*
X13357206Y-11625531D02*
X13366729Y-11616008D01*
X13366729Y-11616008D02*
X13385777Y-11606484D01*
X13385777Y-11606484D02*
X13433396Y-11606484D01*
X13433396Y-11606484D02*
X13452444Y-11616008D01*
X13452444Y-11616008D02*
X13461967Y-11625531D01*
X13461967Y-11625531D02*
X13471491Y-11644579D01*
X13471491Y-11644579D02*
X13471491Y-11663627D01*
X13471491Y-11663627D02*
X13461967Y-11692198D01*
X13461967Y-11692198D02*
X13347682Y-11806484D01*
X13347682Y-11806484D02*
X13471491Y-11806484D01*
X13538158Y-11606484D02*
X13671491Y-11606484D01*
X13671491Y-11606484D02*
X13585777Y-11806484D01*
X13833396Y-11606484D02*
X13795301Y-11606484D01*
X13795301Y-11606484D02*
X13776253Y-11616008D01*
X13776253Y-11616008D02*
X13766729Y-11625531D01*
X13766729Y-11625531D02*
X13747682Y-11654103D01*
X13747682Y-11654103D02*
X13738158Y-11692198D01*
X13738158Y-11692198D02*
X13738158Y-11768388D01*
X13738158Y-11768388D02*
X13747682Y-11787436D01*
X13747682Y-11787436D02*
X13757206Y-11796960D01*
X13757206Y-11796960D02*
X13776253Y-11806484D01*
X13776253Y-11806484D02*
X13814348Y-11806484D01*
X13814348Y-11806484D02*
X13833396Y-11796960D01*
X13833396Y-11796960D02*
X13842920Y-11787436D01*
X13842920Y-11787436D02*
X13852444Y-11768388D01*
X13852444Y-11768388D02*
X13852444Y-11720769D01*
X13852444Y-11720769D02*
X13842920Y-11701722D01*
X13842920Y-11701722D02*
X13833396Y-11692198D01*
X13833396Y-11692198D02*
X13814348Y-11682674D01*
X13814348Y-11682674D02*
X13776253Y-11682674D01*
X13776253Y-11682674D02*
X13757206Y-11692198D01*
X13757206Y-11692198D02*
X13747682Y-11701722D01*
X13747682Y-11701722D02*
X13738158Y-11720769D01*
X13928634Y-11606484D02*
X13928634Y-11644579D01*
X14004825Y-11606484D02*
X14004825Y-11644579D01*
X14300063Y-11882674D02*
X14290539Y-11873150D01*
X14290539Y-11873150D02*
X14271491Y-11844579D01*
X14271491Y-11844579D02*
X14261968Y-11825531D01*
X14261968Y-11825531D02*
X14252444Y-11796960D01*
X14252444Y-11796960D02*
X14242920Y-11749341D01*
X14242920Y-11749341D02*
X14242920Y-11711246D01*
X14242920Y-11711246D02*
X14252444Y-11663627D01*
X14252444Y-11663627D02*
X14261968Y-11635055D01*
X14261968Y-11635055D02*
X14271491Y-11616008D01*
X14271491Y-11616008D02*
X14290539Y-11587436D01*
X14290539Y-11587436D02*
X14300063Y-11577912D01*
X14414348Y-11606484D02*
X14433396Y-11606484D01*
X14433396Y-11606484D02*
X14452444Y-11616008D01*
X14452444Y-11616008D02*
X14461968Y-11625531D01*
X14461968Y-11625531D02*
X14471491Y-11644579D01*
X14471491Y-11644579D02*
X14481015Y-11682674D01*
X14481015Y-11682674D02*
X14481015Y-11730293D01*
X14481015Y-11730293D02*
X14471491Y-11768388D01*
X14471491Y-11768388D02*
X14461968Y-11787436D01*
X14461968Y-11787436D02*
X14452444Y-11796960D01*
X14452444Y-11796960D02*
X14433396Y-11806484D01*
X14433396Y-11806484D02*
X14414348Y-11806484D01*
X14414348Y-11806484D02*
X14395301Y-11796960D01*
X14395301Y-11796960D02*
X14385777Y-11787436D01*
X14385777Y-11787436D02*
X14376253Y-11768388D01*
X14376253Y-11768388D02*
X14366729Y-11730293D01*
X14366729Y-11730293D02*
X14366729Y-11682674D01*
X14366729Y-11682674D02*
X14376253Y-11644579D01*
X14376253Y-11644579D02*
X14385777Y-11625531D01*
X14385777Y-11625531D02*
X14395301Y-11616008D01*
X14395301Y-11616008D02*
X14414348Y-11606484D01*
X14719110Y-11806484D02*
X14719110Y-11606484D01*
X14804825Y-11806484D02*
X14804825Y-11701722D01*
X14804825Y-11701722D02*
X14795301Y-11682674D01*
X14795301Y-11682674D02*
X14776253Y-11673150D01*
X14776253Y-11673150D02*
X14747682Y-11673150D01*
X14747682Y-11673150D02*
X14728634Y-11682674D01*
X14728634Y-11682674D02*
X14719110Y-11692198D01*
X14928634Y-11806484D02*
X14909587Y-11796960D01*
X14909587Y-11796960D02*
X14900063Y-11787436D01*
X14900063Y-11787436D02*
X14890539Y-11768388D01*
X14890539Y-11768388D02*
X14890539Y-11711246D01*
X14890539Y-11711246D02*
X14900063Y-11692198D01*
X14900063Y-11692198D02*
X14909587Y-11682674D01*
X14909587Y-11682674D02*
X14928634Y-11673150D01*
X14928634Y-11673150D02*
X14957206Y-11673150D01*
X14957206Y-11673150D02*
X14976253Y-11682674D01*
X14976253Y-11682674D02*
X14985777Y-11692198D01*
X14985777Y-11692198D02*
X14995301Y-11711246D01*
X14995301Y-11711246D02*
X14995301Y-11768388D01*
X14995301Y-11768388D02*
X14985777Y-11787436D01*
X14985777Y-11787436D02*
X14976253Y-11796960D01*
X14976253Y-11796960D02*
X14957206Y-11806484D01*
X14957206Y-11806484D02*
X14928634Y-11806484D01*
X15109587Y-11806484D02*
X15090539Y-11796960D01*
X15090539Y-11796960D02*
X15081015Y-11777912D01*
X15081015Y-11777912D02*
X15081015Y-11606484D01*
X15261968Y-11796960D02*
X15242920Y-11806484D01*
X15242920Y-11806484D02*
X15204825Y-11806484D01*
X15204825Y-11806484D02*
X15185777Y-11796960D01*
X15185777Y-11796960D02*
X15176253Y-11777912D01*
X15176253Y-11777912D02*
X15176253Y-11701722D01*
X15176253Y-11701722D02*
X15185777Y-11682674D01*
X15185777Y-11682674D02*
X15204825Y-11673150D01*
X15204825Y-11673150D02*
X15242920Y-11673150D01*
X15242920Y-11673150D02*
X15261968Y-11682674D01*
X15261968Y-11682674D02*
X15271491Y-11701722D01*
X15271491Y-11701722D02*
X15271491Y-11720769D01*
X15271491Y-11720769D02*
X15176253Y-11739817D01*
X15347682Y-11796960D02*
X15366730Y-11806484D01*
X15366730Y-11806484D02*
X15404825Y-11806484D01*
X15404825Y-11806484D02*
X15423872Y-11796960D01*
X15423872Y-11796960D02*
X15433396Y-11777912D01*
X15433396Y-11777912D02*
X15433396Y-11768388D01*
X15433396Y-11768388D02*
X15423872Y-11749341D01*
X15423872Y-11749341D02*
X15404825Y-11739817D01*
X15404825Y-11739817D02*
X15376253Y-11739817D01*
X15376253Y-11739817D02*
X15357206Y-11730293D01*
X15357206Y-11730293D02*
X15347682Y-11711246D01*
X15347682Y-11711246D02*
X15347682Y-11701722D01*
X15347682Y-11701722D02*
X15357206Y-11682674D01*
X15357206Y-11682674D02*
X15376253Y-11673150D01*
X15376253Y-11673150D02*
X15404825Y-11673150D01*
X15404825Y-11673150D02*
X15423872Y-11682674D01*
X15671492Y-11730293D02*
X15823873Y-11730293D01*
X15747682Y-11806484D02*
X15747682Y-11654103D01*
X16061968Y-11625531D02*
X16071492Y-11616008D01*
X16071492Y-11616008D02*
X16090539Y-11606484D01*
X16090539Y-11606484D02*
X16138158Y-11606484D01*
X16138158Y-11606484D02*
X16157206Y-11616008D01*
X16157206Y-11616008D02*
X16166730Y-11625531D01*
X16166730Y-11625531D02*
X16176253Y-11644579D01*
X16176253Y-11644579D02*
X16176253Y-11663627D01*
X16176253Y-11663627D02*
X16166730Y-11692198D01*
X16166730Y-11692198D02*
X16052444Y-11806484D01*
X16052444Y-11806484D02*
X16176253Y-11806484D01*
X16404825Y-11796960D02*
X16423873Y-11806484D01*
X16423873Y-11806484D02*
X16461968Y-11806484D01*
X16461968Y-11806484D02*
X16481015Y-11796960D01*
X16481015Y-11796960D02*
X16490539Y-11777912D01*
X16490539Y-11777912D02*
X16490539Y-11768388D01*
X16490539Y-11768388D02*
X16481015Y-11749341D01*
X16481015Y-11749341D02*
X16461968Y-11739817D01*
X16461968Y-11739817D02*
X16433396Y-11739817D01*
X16433396Y-11739817D02*
X16414349Y-11730293D01*
X16414349Y-11730293D02*
X16404825Y-11711246D01*
X16404825Y-11711246D02*
X16404825Y-11701722D01*
X16404825Y-11701722D02*
X16414349Y-11682674D01*
X16414349Y-11682674D02*
X16433396Y-11673150D01*
X16433396Y-11673150D02*
X16461968Y-11673150D01*
X16461968Y-11673150D02*
X16481015Y-11682674D01*
X16604825Y-11806484D02*
X16585777Y-11796960D01*
X16585777Y-11796960D02*
X16576254Y-11777912D01*
X16576254Y-11777912D02*
X16576254Y-11606484D01*
X16709587Y-11806484D02*
X16690539Y-11796960D01*
X16690539Y-11796960D02*
X16681015Y-11787436D01*
X16681015Y-11787436D02*
X16671492Y-11768388D01*
X16671492Y-11768388D02*
X16671492Y-11711246D01*
X16671492Y-11711246D02*
X16681015Y-11692198D01*
X16681015Y-11692198D02*
X16690539Y-11682674D01*
X16690539Y-11682674D02*
X16709587Y-11673150D01*
X16709587Y-11673150D02*
X16738158Y-11673150D01*
X16738158Y-11673150D02*
X16757206Y-11682674D01*
X16757206Y-11682674D02*
X16766730Y-11692198D01*
X16766730Y-11692198D02*
X16776254Y-11711246D01*
X16776254Y-11711246D02*
X16776254Y-11768388D01*
X16776254Y-11768388D02*
X16766730Y-11787436D01*
X16766730Y-11787436D02*
X16757206Y-11796960D01*
X16757206Y-11796960D02*
X16738158Y-11806484D01*
X16738158Y-11806484D02*
X16709587Y-11806484D01*
X16833397Y-11673150D02*
X16909587Y-11673150D01*
X16861968Y-11606484D02*
X16861968Y-11777912D01*
X16861968Y-11777912D02*
X16871492Y-11796960D01*
X16871492Y-11796960D02*
X16890539Y-11806484D01*
X16890539Y-11806484D02*
X16909587Y-11806484D01*
X16966730Y-11796960D02*
X16985777Y-11806484D01*
X16985777Y-11806484D02*
X17023873Y-11806484D01*
X17023873Y-11806484D02*
X17042920Y-11796960D01*
X17042920Y-11796960D02*
X17052444Y-11777912D01*
X17052444Y-11777912D02*
X17052444Y-11768388D01*
X17052444Y-11768388D02*
X17042920Y-11749341D01*
X17042920Y-11749341D02*
X17023873Y-11739817D01*
X17023873Y-11739817D02*
X16995301Y-11739817D01*
X16995301Y-11739817D02*
X16976254Y-11730293D01*
X16976254Y-11730293D02*
X16966730Y-11711246D01*
X16966730Y-11711246D02*
X16966730Y-11701722D01*
X16966730Y-11701722D02*
X16976254Y-11682674D01*
X16976254Y-11682674D02*
X16995301Y-11673150D01*
X16995301Y-11673150D02*
X17023873Y-11673150D01*
X17023873Y-11673150D02*
X17042920Y-11682674D01*
X17119111Y-11882674D02*
X17128635Y-11873150D01*
X17128635Y-11873150D02*
X17147682Y-11844579D01*
X17147682Y-11844579D02*
X17157206Y-11825531D01*
X17157206Y-11825531D02*
X17166730Y-11796960D01*
X17166730Y-11796960D02*
X17176254Y-11749341D01*
X17176254Y-11749341D02*
X17176254Y-11711246D01*
X17176254Y-11711246D02*
X17166730Y-11663627D01*
X17166730Y-11663627D02*
X17157206Y-11635055D01*
X17157206Y-11635055D02*
X17147682Y-11616008D01*
X17147682Y-11616008D02*
X17128635Y-11587436D01*
X17128635Y-11587436D02*
X17119111Y-11577912D01*
D10*
X10645000Y-11939000D02*
X10725000Y-12019000D01*
X10725000Y-11939000D02*
X10645000Y-12019000D01*
X10685000Y-11939000D02*
X10685000Y-12019000D01*
X10645000Y-11979000D02*
X10725000Y-11979000D01*
D11*
X11023872Y-11870484D02*
X11042920Y-11870484D01*
X11042920Y-11870484D02*
X11061967Y-11880008D01*
X11061967Y-11880008D02*
X11071491Y-11889531D01*
X11071491Y-11889531D02*
X11081015Y-11908579D01*
X11081015Y-11908579D02*
X11090539Y-11946674D01*
X11090539Y-11946674D02*
X11090539Y-11994293D01*
X11090539Y-11994293D02*
X11081015Y-12032388D01*
X11081015Y-12032388D02*
X11071491Y-12051436D01*
X11071491Y-12051436D02*
X11061967Y-12060960D01*
X11061967Y-12060960D02*
X11042920Y-12070484D01*
X11042920Y-12070484D02*
X11023872Y-12070484D01*
X11023872Y-12070484D02*
X11004824Y-12060960D01*
X11004824Y-12060960D02*
X10995301Y-12051436D01*
X10995301Y-12051436D02*
X10985777Y-12032388D01*
X10985777Y-12032388D02*
X10976253Y-11994293D01*
X10976253Y-11994293D02*
X10976253Y-11946674D01*
X10976253Y-11946674D02*
X10985777Y-11908579D01*
X10985777Y-11908579D02*
X10995301Y-11889531D01*
X10995301Y-11889531D02*
X11004824Y-11880008D01*
X11004824Y-11880008D02*
X11023872Y-11870484D01*
X11176253Y-12051436D02*
X11185777Y-12060960D01*
X11185777Y-12060960D02*
X11176253Y-12070484D01*
X11176253Y-12070484D02*
X11166729Y-12060960D01*
X11166729Y-12060960D02*
X11176253Y-12051436D01*
X11176253Y-12051436D02*
X11176253Y-12070484D01*
X11300062Y-11956198D02*
X11281015Y-11946674D01*
X11281015Y-11946674D02*
X11271491Y-11937150D01*
X11271491Y-11937150D02*
X11261967Y-11918103D01*
X11261967Y-11918103D02*
X11261967Y-11908579D01*
X11261967Y-11908579D02*
X11271491Y-11889531D01*
X11271491Y-11889531D02*
X11281015Y-11880008D01*
X11281015Y-11880008D02*
X11300062Y-11870484D01*
X11300062Y-11870484D02*
X11338158Y-11870484D01*
X11338158Y-11870484D02*
X11357205Y-11880008D01*
X11357205Y-11880008D02*
X11366729Y-11889531D01*
X11366729Y-11889531D02*
X11376253Y-11908579D01*
X11376253Y-11908579D02*
X11376253Y-11918103D01*
X11376253Y-11918103D02*
X11366729Y-11937150D01*
X11366729Y-11937150D02*
X11357205Y-11946674D01*
X11357205Y-11946674D02*
X11338158Y-11956198D01*
X11338158Y-11956198D02*
X11300062Y-11956198D01*
X11300062Y-11956198D02*
X11281015Y-11965722D01*
X11281015Y-11965722D02*
X11271491Y-11975246D01*
X11271491Y-11975246D02*
X11261967Y-11994293D01*
X11261967Y-11994293D02*
X11261967Y-12032388D01*
X11261967Y-12032388D02*
X11271491Y-12051436D01*
X11271491Y-12051436D02*
X11281015Y-12060960D01*
X11281015Y-12060960D02*
X11300062Y-12070484D01*
X11300062Y-12070484D02*
X11338158Y-12070484D01*
X11338158Y-12070484D02*
X11357205Y-12060960D01*
X11357205Y-12060960D02*
X11366729Y-12051436D01*
X11366729Y-12051436D02*
X11376253Y-12032388D01*
X11376253Y-12032388D02*
X11376253Y-11994293D01*
X11376253Y-11994293D02*
X11366729Y-11975246D01*
X11366729Y-11975246D02*
X11357205Y-11965722D01*
X11357205Y-11965722D02*
X11338158Y-11956198D01*
X11500062Y-11870484D02*
X11519110Y-11870484D01*
X11519110Y-11870484D02*
X11538158Y-11880008D01*
X11538158Y-11880008D02*
X11547682Y-11889531D01*
X11547682Y-11889531D02*
X11557205Y-11908579D01*
X11557205Y-11908579D02*
X11566729Y-11946674D01*
X11566729Y-11946674D02*
X11566729Y-11994293D01*
X11566729Y-11994293D02*
X11557205Y-12032388D01*
X11557205Y-12032388D02*
X11547682Y-12051436D01*
X11547682Y-12051436D02*
X11538158Y-12060960D01*
X11538158Y-12060960D02*
X11519110Y-12070484D01*
X11519110Y-12070484D02*
X11500062Y-12070484D01*
X11500062Y-12070484D02*
X11481015Y-12060960D01*
X11481015Y-12060960D02*
X11471491Y-12051436D01*
X11471491Y-12051436D02*
X11461967Y-12032388D01*
X11461967Y-12032388D02*
X11452443Y-11994293D01*
X11452443Y-11994293D02*
X11452443Y-11946674D01*
X11452443Y-11946674D02*
X11461967Y-11908579D01*
X11461967Y-11908579D02*
X11471491Y-11889531D01*
X11471491Y-11889531D02*
X11481015Y-11880008D01*
X11481015Y-11880008D02*
X11500062Y-11870484D01*
X11690539Y-11870484D02*
X11709586Y-11870484D01*
X11709586Y-11870484D02*
X11728634Y-11880008D01*
X11728634Y-11880008D02*
X11738158Y-11889531D01*
X11738158Y-11889531D02*
X11747682Y-11908579D01*
X11747682Y-11908579D02*
X11757205Y-11946674D01*
X11757205Y-11946674D02*
X11757205Y-11994293D01*
X11757205Y-11994293D02*
X11747682Y-12032388D01*
X11747682Y-12032388D02*
X11738158Y-12051436D01*
X11738158Y-12051436D02*
X11728634Y-12060960D01*
X11728634Y-12060960D02*
X11709586Y-12070484D01*
X11709586Y-12070484D02*
X11690539Y-12070484D01*
X11690539Y-12070484D02*
X11671491Y-12060960D01*
X11671491Y-12060960D02*
X11661967Y-12051436D01*
X11661967Y-12051436D02*
X11652443Y-12032388D01*
X11652443Y-12032388D02*
X11642920Y-11994293D01*
X11642920Y-11994293D02*
X11642920Y-11946674D01*
X11642920Y-11946674D02*
X11652443Y-11908579D01*
X11652443Y-11908579D02*
X11661967Y-11889531D01*
X11661967Y-11889531D02*
X11671491Y-11880008D01*
X11671491Y-11880008D02*
X11690539Y-11870484D01*
X11842920Y-12070484D02*
X11842920Y-11937150D01*
X11842920Y-11956198D02*
X11852443Y-11946674D01*
X11852443Y-11946674D02*
X11871491Y-11937150D01*
X11871491Y-11937150D02*
X11900063Y-11937150D01*
X11900063Y-11937150D02*
X11919110Y-11946674D01*
X11919110Y-11946674D02*
X11928634Y-11965722D01*
X11928634Y-11965722D02*
X11928634Y-12070484D01*
X11928634Y-11965722D02*
X11938158Y-11946674D01*
X11938158Y-11946674D02*
X11957205Y-11937150D01*
X11957205Y-11937150D02*
X11985777Y-11937150D01*
X11985777Y-11937150D02*
X12004824Y-11946674D01*
X12004824Y-11946674D02*
X12014348Y-11965722D01*
X12014348Y-11965722D02*
X12014348Y-12070484D01*
X12109586Y-12070484D02*
X12109586Y-11937150D01*
X12109586Y-11956198D02*
X12119110Y-11946674D01*
X12119110Y-11946674D02*
X12138158Y-11937150D01*
X12138158Y-11937150D02*
X12166729Y-11937150D01*
X12166729Y-11937150D02*
X12185777Y-11946674D01*
X12185777Y-11946674D02*
X12195301Y-11965722D01*
X12195301Y-11965722D02*
X12195301Y-12070484D01*
X12195301Y-11965722D02*
X12204824Y-11946674D01*
X12204824Y-11946674D02*
X12223872Y-11937150D01*
X12223872Y-11937150D02*
X12252443Y-11937150D01*
X12252443Y-11937150D02*
X12271491Y-11946674D01*
X12271491Y-11946674D02*
X12281015Y-11965722D01*
X12281015Y-11965722D02*
X12281015Y-12070484D01*
X12671491Y-11860960D02*
X12500063Y-12118103D01*
X12928634Y-11870484D02*
X12947682Y-11870484D01*
X12947682Y-11870484D02*
X12966729Y-11880008D01*
X12966729Y-11880008D02*
X12976253Y-11889531D01*
X12976253Y-11889531D02*
X12985777Y-11908579D01*
X12985777Y-11908579D02*
X12995301Y-11946674D01*
X12995301Y-11946674D02*
X12995301Y-11994293D01*
X12995301Y-11994293D02*
X12985777Y-12032388D01*
X12985777Y-12032388D02*
X12976253Y-12051436D01*
X12976253Y-12051436D02*
X12966729Y-12060960D01*
X12966729Y-12060960D02*
X12947682Y-12070484D01*
X12947682Y-12070484D02*
X12928634Y-12070484D01*
X12928634Y-12070484D02*
X12909586Y-12060960D01*
X12909586Y-12060960D02*
X12900063Y-12051436D01*
X12900063Y-12051436D02*
X12890539Y-12032388D01*
X12890539Y-12032388D02*
X12881015Y-11994293D01*
X12881015Y-11994293D02*
X12881015Y-11946674D01*
X12881015Y-11946674D02*
X12890539Y-11908579D01*
X12890539Y-11908579D02*
X12900063Y-11889531D01*
X12900063Y-11889531D02*
X12909586Y-11880008D01*
X12909586Y-11880008D02*
X12928634Y-11870484D01*
X13081015Y-12051436D02*
X13090539Y-12060960D01*
X13090539Y-12060960D02*
X13081015Y-12070484D01*
X13081015Y-12070484D02*
X13071491Y-12060960D01*
X13071491Y-12060960D02*
X13081015Y-12051436D01*
X13081015Y-12051436D02*
X13081015Y-12070484D01*
X13214348Y-11870484D02*
X13233396Y-11870484D01*
X13233396Y-11870484D02*
X13252444Y-11880008D01*
X13252444Y-11880008D02*
X13261967Y-11889531D01*
X13261967Y-11889531D02*
X13271491Y-11908579D01*
X13271491Y-11908579D02*
X13281015Y-11946674D01*
X13281015Y-11946674D02*
X13281015Y-11994293D01*
X13281015Y-11994293D02*
X13271491Y-12032388D01*
X13271491Y-12032388D02*
X13261967Y-12051436D01*
X13261967Y-12051436D02*
X13252444Y-12060960D01*
X13252444Y-12060960D02*
X13233396Y-12070484D01*
X13233396Y-12070484D02*
X13214348Y-12070484D01*
X13214348Y-12070484D02*
X13195301Y-12060960D01*
X13195301Y-12060960D02*
X13185777Y-12051436D01*
X13185777Y-12051436D02*
X13176253Y-12032388D01*
X13176253Y-12032388D02*
X13166729Y-11994293D01*
X13166729Y-11994293D02*
X13166729Y-11946674D01*
X13166729Y-11946674D02*
X13176253Y-11908579D01*
X13176253Y-11908579D02*
X13185777Y-11889531D01*
X13185777Y-11889531D02*
X13195301Y-11880008D01*
X13195301Y-11880008D02*
X13214348Y-11870484D01*
X13347682Y-11870484D02*
X13471491Y-11870484D01*
X13471491Y-11870484D02*
X13404825Y-11946674D01*
X13404825Y-11946674D02*
X13433396Y-11946674D01*
X13433396Y-11946674D02*
X13452444Y-11956198D01*
X13452444Y-11956198D02*
X13461967Y-11965722D01*
X13461967Y-11965722D02*
X13471491Y-11984769D01*
X13471491Y-11984769D02*
X13471491Y-12032388D01*
X13471491Y-12032388D02*
X13461967Y-12051436D01*
X13461967Y-12051436D02*
X13452444Y-12060960D01*
X13452444Y-12060960D02*
X13433396Y-12070484D01*
X13433396Y-12070484D02*
X13376253Y-12070484D01*
X13376253Y-12070484D02*
X13357206Y-12060960D01*
X13357206Y-12060960D02*
X13347682Y-12051436D01*
X13661967Y-12070484D02*
X13547682Y-12070484D01*
X13604825Y-12070484D02*
X13604825Y-11870484D01*
X13604825Y-11870484D02*
X13585777Y-11899055D01*
X13585777Y-11899055D02*
X13566729Y-11918103D01*
X13566729Y-11918103D02*
X13547682Y-11927627D01*
X13842920Y-11870484D02*
X13747682Y-11870484D01*
X13747682Y-11870484D02*
X13738158Y-11965722D01*
X13738158Y-11965722D02*
X13747682Y-11956198D01*
X13747682Y-11956198D02*
X13766729Y-11946674D01*
X13766729Y-11946674D02*
X13814348Y-11946674D01*
X13814348Y-11946674D02*
X13833396Y-11956198D01*
X13833396Y-11956198D02*
X13842920Y-11965722D01*
X13842920Y-11965722D02*
X13852444Y-11984769D01*
X13852444Y-11984769D02*
X13852444Y-12032388D01*
X13852444Y-12032388D02*
X13842920Y-12051436D01*
X13842920Y-12051436D02*
X13833396Y-12060960D01*
X13833396Y-12060960D02*
X13814348Y-12070484D01*
X13814348Y-12070484D02*
X13766729Y-12070484D01*
X13766729Y-12070484D02*
X13747682Y-12060960D01*
X13747682Y-12060960D02*
X13738158Y-12051436D01*
X13928634Y-11870484D02*
X13928634Y-11908579D01*
X14004825Y-11870484D02*
X14004825Y-11908579D01*
X14300063Y-12146674D02*
X14290539Y-12137150D01*
X14290539Y-12137150D02*
X14271491Y-12108579D01*
X14271491Y-12108579D02*
X14261968Y-12089531D01*
X14261968Y-12089531D02*
X14252444Y-12060960D01*
X14252444Y-12060960D02*
X14242920Y-12013341D01*
X14242920Y-12013341D02*
X14242920Y-11975246D01*
X14242920Y-11975246D02*
X14252444Y-11927627D01*
X14252444Y-11927627D02*
X14261968Y-11899055D01*
X14261968Y-11899055D02*
X14271491Y-11880008D01*
X14271491Y-11880008D02*
X14290539Y-11851436D01*
X14290539Y-11851436D02*
X14300063Y-11841912D01*
X14481015Y-12070484D02*
X14366729Y-12070484D01*
X14423872Y-12070484D02*
X14423872Y-11870484D01*
X14423872Y-11870484D02*
X14404825Y-11899055D01*
X14404825Y-11899055D02*
X14385777Y-11918103D01*
X14385777Y-11918103D02*
X14366729Y-11927627D01*
X14557206Y-11889531D02*
X14566729Y-11880008D01*
X14566729Y-11880008D02*
X14585777Y-11870484D01*
X14585777Y-11870484D02*
X14633396Y-11870484D01*
X14633396Y-11870484D02*
X14652444Y-11880008D01*
X14652444Y-11880008D02*
X14661968Y-11889531D01*
X14661968Y-11889531D02*
X14671491Y-11908579D01*
X14671491Y-11908579D02*
X14671491Y-11927627D01*
X14671491Y-11927627D02*
X14661968Y-11956198D01*
X14661968Y-11956198D02*
X14547682Y-12070484D01*
X14547682Y-12070484D02*
X14671491Y-12070484D01*
X14909587Y-12070484D02*
X14909587Y-11870484D01*
X14995301Y-12070484D02*
X14995301Y-11965722D01*
X14995301Y-11965722D02*
X14985777Y-11946674D01*
X14985777Y-11946674D02*
X14966730Y-11937150D01*
X14966730Y-11937150D02*
X14938158Y-11937150D01*
X14938158Y-11937150D02*
X14919110Y-11946674D01*
X14919110Y-11946674D02*
X14909587Y-11956198D01*
X15119110Y-12070484D02*
X15100063Y-12060960D01*
X15100063Y-12060960D02*
X15090539Y-12051436D01*
X15090539Y-12051436D02*
X15081015Y-12032388D01*
X15081015Y-12032388D02*
X15081015Y-11975246D01*
X15081015Y-11975246D02*
X15090539Y-11956198D01*
X15090539Y-11956198D02*
X15100063Y-11946674D01*
X15100063Y-11946674D02*
X15119110Y-11937150D01*
X15119110Y-11937150D02*
X15147682Y-11937150D01*
X15147682Y-11937150D02*
X15166730Y-11946674D01*
X15166730Y-11946674D02*
X15176253Y-11956198D01*
X15176253Y-11956198D02*
X15185777Y-11975246D01*
X15185777Y-11975246D02*
X15185777Y-12032388D01*
X15185777Y-12032388D02*
X15176253Y-12051436D01*
X15176253Y-12051436D02*
X15166730Y-12060960D01*
X15166730Y-12060960D02*
X15147682Y-12070484D01*
X15147682Y-12070484D02*
X15119110Y-12070484D01*
X15300063Y-12070484D02*
X15281015Y-12060960D01*
X15281015Y-12060960D02*
X15271491Y-12041912D01*
X15271491Y-12041912D02*
X15271491Y-11870484D01*
X15452444Y-12060960D02*
X15433396Y-12070484D01*
X15433396Y-12070484D02*
X15395301Y-12070484D01*
X15395301Y-12070484D02*
X15376253Y-12060960D01*
X15376253Y-12060960D02*
X15366730Y-12041912D01*
X15366730Y-12041912D02*
X15366730Y-11965722D01*
X15366730Y-11965722D02*
X15376253Y-11946674D01*
X15376253Y-11946674D02*
X15395301Y-11937150D01*
X15395301Y-11937150D02*
X15433396Y-11937150D01*
X15433396Y-11937150D02*
X15452444Y-11946674D01*
X15452444Y-11946674D02*
X15461968Y-11965722D01*
X15461968Y-11965722D02*
X15461968Y-11984769D01*
X15461968Y-11984769D02*
X15366730Y-12003817D01*
X15538158Y-12060960D02*
X15557206Y-12070484D01*
X15557206Y-12070484D02*
X15595301Y-12070484D01*
X15595301Y-12070484D02*
X15614349Y-12060960D01*
X15614349Y-12060960D02*
X15623872Y-12041912D01*
X15623872Y-12041912D02*
X15623872Y-12032388D01*
X15623872Y-12032388D02*
X15614349Y-12013341D01*
X15614349Y-12013341D02*
X15595301Y-12003817D01*
X15595301Y-12003817D02*
X15566730Y-12003817D01*
X15566730Y-12003817D02*
X15547682Y-11994293D01*
X15547682Y-11994293D02*
X15538158Y-11975246D01*
X15538158Y-11975246D02*
X15538158Y-11965722D01*
X15538158Y-11965722D02*
X15547682Y-11946674D01*
X15547682Y-11946674D02*
X15566730Y-11937150D01*
X15566730Y-11937150D02*
X15595301Y-11937150D01*
X15595301Y-11937150D02*
X15614349Y-11946674D01*
X15690539Y-12146674D02*
X15700063Y-12137150D01*
X15700063Y-12137150D02*
X15719111Y-12108579D01*
X15719111Y-12108579D02*
X15728634Y-12089531D01*
X15728634Y-12089531D02*
X15738158Y-12060960D01*
X15738158Y-12060960D02*
X15747682Y-12013341D01*
X15747682Y-12013341D02*
X15747682Y-11975246D01*
X15747682Y-11975246D02*
X15738158Y-11927627D01*
X15738158Y-11927627D02*
X15728634Y-11899055D01*
X15728634Y-11899055D02*
X15719111Y-11880008D01*
X15719111Y-11880008D02*
X15700063Y-11851436D01*
X15700063Y-11851436D02*
X15690539Y-11841912D01*
D10*
X10625000Y-12193000D02*
X10725000Y-12293000D01*
X10725000Y-12193000D02*
X10625000Y-12293000D01*
X10710356Y-12278356D02*
X10710356Y-12207644D01*
X10639644Y-12207644D01*
X10639644Y-12278356D01*
X10710356Y-12278356D01*
D11*
X11090539Y-12334484D02*
X10976253Y-12334484D01*
X11033396Y-12334484D02*
X11033396Y-12134484D01*
X11033396Y-12134484D02*
X11014348Y-12163055D01*
X11014348Y-12163055D02*
X10995301Y-12182103D01*
X10995301Y-12182103D02*
X10976253Y-12191627D01*
X11176253Y-12315436D02*
X11185777Y-12324960D01*
X11185777Y-12324960D02*
X11176253Y-12334484D01*
X11176253Y-12334484D02*
X11166729Y-12324960D01*
X11166729Y-12324960D02*
X11176253Y-12315436D01*
X11176253Y-12315436D02*
X11176253Y-12334484D01*
X11309586Y-12134484D02*
X11328634Y-12134484D01*
X11328634Y-12134484D02*
X11347682Y-12144008D01*
X11347682Y-12144008D02*
X11357205Y-12153531D01*
X11357205Y-12153531D02*
X11366729Y-12172579D01*
X11366729Y-12172579D02*
X11376253Y-12210674D01*
X11376253Y-12210674D02*
X11376253Y-12258293D01*
X11376253Y-12258293D02*
X11366729Y-12296388D01*
X11366729Y-12296388D02*
X11357205Y-12315436D01*
X11357205Y-12315436D02*
X11347682Y-12324960D01*
X11347682Y-12324960D02*
X11328634Y-12334484D01*
X11328634Y-12334484D02*
X11309586Y-12334484D01*
X11309586Y-12334484D02*
X11290539Y-12324960D01*
X11290539Y-12324960D02*
X11281015Y-12315436D01*
X11281015Y-12315436D02*
X11271491Y-12296388D01*
X11271491Y-12296388D02*
X11261967Y-12258293D01*
X11261967Y-12258293D02*
X11261967Y-12210674D01*
X11261967Y-12210674D02*
X11271491Y-12172579D01*
X11271491Y-12172579D02*
X11281015Y-12153531D01*
X11281015Y-12153531D02*
X11290539Y-12144008D01*
X11290539Y-12144008D02*
X11309586Y-12134484D01*
X11500062Y-12134484D02*
X11519110Y-12134484D01*
X11519110Y-12134484D02*
X11538158Y-12144008D01*
X11538158Y-12144008D02*
X11547682Y-12153531D01*
X11547682Y-12153531D02*
X11557205Y-12172579D01*
X11557205Y-12172579D02*
X11566729Y-12210674D01*
X11566729Y-12210674D02*
X11566729Y-12258293D01*
X11566729Y-12258293D02*
X11557205Y-12296388D01*
X11557205Y-12296388D02*
X11547682Y-12315436D01*
X11547682Y-12315436D02*
X11538158Y-12324960D01*
X11538158Y-12324960D02*
X11519110Y-12334484D01*
X11519110Y-12334484D02*
X11500062Y-12334484D01*
X11500062Y-12334484D02*
X11481015Y-12324960D01*
X11481015Y-12324960D02*
X11471491Y-12315436D01*
X11471491Y-12315436D02*
X11461967Y-12296388D01*
X11461967Y-12296388D02*
X11452443Y-12258293D01*
X11452443Y-12258293D02*
X11452443Y-12210674D01*
X11452443Y-12210674D02*
X11461967Y-12172579D01*
X11461967Y-12172579D02*
X11471491Y-12153531D01*
X11471491Y-12153531D02*
X11481015Y-12144008D01*
X11481015Y-12144008D02*
X11500062Y-12134484D01*
X11690539Y-12134484D02*
X11709586Y-12134484D01*
X11709586Y-12134484D02*
X11728634Y-12144008D01*
X11728634Y-12144008D02*
X11738158Y-12153531D01*
X11738158Y-12153531D02*
X11747682Y-12172579D01*
X11747682Y-12172579D02*
X11757205Y-12210674D01*
X11757205Y-12210674D02*
X11757205Y-12258293D01*
X11757205Y-12258293D02*
X11747682Y-12296388D01*
X11747682Y-12296388D02*
X11738158Y-12315436D01*
X11738158Y-12315436D02*
X11728634Y-12324960D01*
X11728634Y-12324960D02*
X11709586Y-12334484D01*
X11709586Y-12334484D02*
X11690539Y-12334484D01*
X11690539Y-12334484D02*
X11671491Y-12324960D01*
X11671491Y-12324960D02*
X11661967Y-12315436D01*
X11661967Y-12315436D02*
X11652443Y-12296388D01*
X11652443Y-12296388D02*
X11642920Y-12258293D01*
X11642920Y-12258293D02*
X11642920Y-12210674D01*
X11642920Y-12210674D02*
X11652443Y-12172579D01*
X11652443Y-12172579D02*
X11661967Y-12153531D01*
X11661967Y-12153531D02*
X11671491Y-12144008D01*
X11671491Y-12144008D02*
X11690539Y-12134484D01*
X11842920Y-12334484D02*
X11842920Y-12201150D01*
X11842920Y-12220198D02*
X11852443Y-12210674D01*
X11852443Y-12210674D02*
X11871491Y-12201150D01*
X11871491Y-12201150D02*
X11900063Y-12201150D01*
X11900063Y-12201150D02*
X11919110Y-12210674D01*
X11919110Y-12210674D02*
X11928634Y-12229722D01*
X11928634Y-12229722D02*
X11928634Y-12334484D01*
X11928634Y-12229722D02*
X11938158Y-12210674D01*
X11938158Y-12210674D02*
X11957205Y-12201150D01*
X11957205Y-12201150D02*
X11985777Y-12201150D01*
X11985777Y-12201150D02*
X12004824Y-12210674D01*
X12004824Y-12210674D02*
X12014348Y-12229722D01*
X12014348Y-12229722D02*
X12014348Y-12334484D01*
X12109586Y-12334484D02*
X12109586Y-12201150D01*
X12109586Y-12220198D02*
X12119110Y-12210674D01*
X12119110Y-12210674D02*
X12138158Y-12201150D01*
X12138158Y-12201150D02*
X12166729Y-12201150D01*
X12166729Y-12201150D02*
X12185777Y-12210674D01*
X12185777Y-12210674D02*
X12195301Y-12229722D01*
X12195301Y-12229722D02*
X12195301Y-12334484D01*
X12195301Y-12229722D02*
X12204824Y-12210674D01*
X12204824Y-12210674D02*
X12223872Y-12201150D01*
X12223872Y-12201150D02*
X12252443Y-12201150D01*
X12252443Y-12201150D02*
X12271491Y-12210674D01*
X12271491Y-12210674D02*
X12281015Y-12229722D01*
X12281015Y-12229722D02*
X12281015Y-12334484D01*
X12671491Y-12124960D02*
X12500063Y-12382103D01*
X12928634Y-12134484D02*
X12947682Y-12134484D01*
X12947682Y-12134484D02*
X12966729Y-12144008D01*
X12966729Y-12144008D02*
X12976253Y-12153531D01*
X12976253Y-12153531D02*
X12985777Y-12172579D01*
X12985777Y-12172579D02*
X12995301Y-12210674D01*
X12995301Y-12210674D02*
X12995301Y-12258293D01*
X12995301Y-12258293D02*
X12985777Y-12296388D01*
X12985777Y-12296388D02*
X12976253Y-12315436D01*
X12976253Y-12315436D02*
X12966729Y-12324960D01*
X12966729Y-12324960D02*
X12947682Y-12334484D01*
X12947682Y-12334484D02*
X12928634Y-12334484D01*
X12928634Y-12334484D02*
X12909586Y-12324960D01*
X12909586Y-12324960D02*
X12900063Y-12315436D01*
X12900063Y-12315436D02*
X12890539Y-12296388D01*
X12890539Y-12296388D02*
X12881015Y-12258293D01*
X12881015Y-12258293D02*
X12881015Y-12210674D01*
X12881015Y-12210674D02*
X12890539Y-12172579D01*
X12890539Y-12172579D02*
X12900063Y-12153531D01*
X12900063Y-12153531D02*
X12909586Y-12144008D01*
X12909586Y-12144008D02*
X12928634Y-12134484D01*
X13081015Y-12315436D02*
X13090539Y-12324960D01*
X13090539Y-12324960D02*
X13081015Y-12334484D01*
X13081015Y-12334484D02*
X13071491Y-12324960D01*
X13071491Y-12324960D02*
X13081015Y-12315436D01*
X13081015Y-12315436D02*
X13081015Y-12334484D01*
X13214348Y-12134484D02*
X13233396Y-12134484D01*
X13233396Y-12134484D02*
X13252444Y-12144008D01*
X13252444Y-12144008D02*
X13261967Y-12153531D01*
X13261967Y-12153531D02*
X13271491Y-12172579D01*
X13271491Y-12172579D02*
X13281015Y-12210674D01*
X13281015Y-12210674D02*
X13281015Y-12258293D01*
X13281015Y-12258293D02*
X13271491Y-12296388D01*
X13271491Y-12296388D02*
X13261967Y-12315436D01*
X13261967Y-12315436D02*
X13252444Y-12324960D01*
X13252444Y-12324960D02*
X13233396Y-12334484D01*
X13233396Y-12334484D02*
X13214348Y-12334484D01*
X13214348Y-12334484D02*
X13195301Y-12324960D01*
X13195301Y-12324960D02*
X13185777Y-12315436D01*
X13185777Y-12315436D02*
X13176253Y-12296388D01*
X13176253Y-12296388D02*
X13166729Y-12258293D01*
X13166729Y-12258293D02*
X13166729Y-12210674D01*
X13166729Y-12210674D02*
X13176253Y-12172579D01*
X13176253Y-12172579D02*
X13185777Y-12153531D01*
X13185777Y-12153531D02*
X13195301Y-12144008D01*
X13195301Y-12144008D02*
X13214348Y-12134484D01*
X13347682Y-12134484D02*
X13471491Y-12134484D01*
X13471491Y-12134484D02*
X13404825Y-12210674D01*
X13404825Y-12210674D02*
X13433396Y-12210674D01*
X13433396Y-12210674D02*
X13452444Y-12220198D01*
X13452444Y-12220198D02*
X13461967Y-12229722D01*
X13461967Y-12229722D02*
X13471491Y-12248769D01*
X13471491Y-12248769D02*
X13471491Y-12296388D01*
X13471491Y-12296388D02*
X13461967Y-12315436D01*
X13461967Y-12315436D02*
X13452444Y-12324960D01*
X13452444Y-12324960D02*
X13433396Y-12334484D01*
X13433396Y-12334484D02*
X13376253Y-12334484D01*
X13376253Y-12334484D02*
X13357206Y-12324960D01*
X13357206Y-12324960D02*
X13347682Y-12315436D01*
X13566729Y-12334484D02*
X13604825Y-12334484D01*
X13604825Y-12334484D02*
X13623872Y-12324960D01*
X13623872Y-12324960D02*
X13633396Y-12315436D01*
X13633396Y-12315436D02*
X13652444Y-12286865D01*
X13652444Y-12286865D02*
X13661967Y-12248769D01*
X13661967Y-12248769D02*
X13661967Y-12172579D01*
X13661967Y-12172579D02*
X13652444Y-12153531D01*
X13652444Y-12153531D02*
X13642920Y-12144008D01*
X13642920Y-12144008D02*
X13623872Y-12134484D01*
X13623872Y-12134484D02*
X13585777Y-12134484D01*
X13585777Y-12134484D02*
X13566729Y-12144008D01*
X13566729Y-12144008D02*
X13557206Y-12153531D01*
X13557206Y-12153531D02*
X13547682Y-12172579D01*
X13547682Y-12172579D02*
X13547682Y-12220198D01*
X13547682Y-12220198D02*
X13557206Y-12239246D01*
X13557206Y-12239246D02*
X13566729Y-12248769D01*
X13566729Y-12248769D02*
X13585777Y-12258293D01*
X13585777Y-12258293D02*
X13623872Y-12258293D01*
X13623872Y-12258293D02*
X13642920Y-12248769D01*
X13642920Y-12248769D02*
X13652444Y-12239246D01*
X13652444Y-12239246D02*
X13661967Y-12220198D01*
X13833396Y-12201150D02*
X13833396Y-12334484D01*
X13785777Y-12124960D02*
X13738158Y-12267817D01*
X13738158Y-12267817D02*
X13861967Y-12267817D01*
X13928634Y-12134484D02*
X13928634Y-12172579D01*
X14004825Y-12134484D02*
X14004825Y-12172579D01*
X14300063Y-12410674D02*
X14290539Y-12401150D01*
X14290539Y-12401150D02*
X14271491Y-12372579D01*
X14271491Y-12372579D02*
X14261968Y-12353531D01*
X14261968Y-12353531D02*
X14252444Y-12324960D01*
X14252444Y-12324960D02*
X14242920Y-12277341D01*
X14242920Y-12277341D02*
X14242920Y-12239246D01*
X14242920Y-12239246D02*
X14252444Y-12191627D01*
X14252444Y-12191627D02*
X14261968Y-12163055D01*
X14261968Y-12163055D02*
X14271491Y-12144008D01*
X14271491Y-12144008D02*
X14290539Y-12115436D01*
X14290539Y-12115436D02*
X14300063Y-12105912D01*
X14481015Y-12334484D02*
X14366729Y-12334484D01*
X14423872Y-12334484D02*
X14423872Y-12134484D01*
X14423872Y-12134484D02*
X14404825Y-12163055D01*
X14404825Y-12163055D02*
X14385777Y-12182103D01*
X14385777Y-12182103D02*
X14366729Y-12191627D01*
X14576253Y-12334484D02*
X14614348Y-12334484D01*
X14614348Y-12334484D02*
X14633396Y-12324960D01*
X14633396Y-12324960D02*
X14642920Y-12315436D01*
X14642920Y-12315436D02*
X14661968Y-12286865D01*
X14661968Y-12286865D02*
X14671491Y-12248769D01*
X14671491Y-12248769D02*
X14671491Y-12172579D01*
X14671491Y-12172579D02*
X14661968Y-12153531D01*
X14661968Y-12153531D02*
X14652444Y-12144008D01*
X14652444Y-12144008D02*
X14633396Y-12134484D01*
X14633396Y-12134484D02*
X14595301Y-12134484D01*
X14595301Y-12134484D02*
X14576253Y-12144008D01*
X14576253Y-12144008D02*
X14566729Y-12153531D01*
X14566729Y-12153531D02*
X14557206Y-12172579D01*
X14557206Y-12172579D02*
X14557206Y-12220198D01*
X14557206Y-12220198D02*
X14566729Y-12239246D01*
X14566729Y-12239246D02*
X14576253Y-12248769D01*
X14576253Y-12248769D02*
X14595301Y-12258293D01*
X14595301Y-12258293D02*
X14633396Y-12258293D01*
X14633396Y-12258293D02*
X14652444Y-12248769D01*
X14652444Y-12248769D02*
X14661968Y-12239246D01*
X14661968Y-12239246D02*
X14671491Y-12220198D01*
X14909587Y-12334484D02*
X14909587Y-12134484D01*
X14995301Y-12334484D02*
X14995301Y-12229722D01*
X14995301Y-12229722D02*
X14985777Y-12210674D01*
X14985777Y-12210674D02*
X14966730Y-12201150D01*
X14966730Y-12201150D02*
X14938158Y-12201150D01*
X14938158Y-12201150D02*
X14919110Y-12210674D01*
X14919110Y-12210674D02*
X14909587Y-12220198D01*
X15119110Y-12334484D02*
X15100063Y-12324960D01*
X15100063Y-12324960D02*
X15090539Y-12315436D01*
X15090539Y-12315436D02*
X15081015Y-12296388D01*
X15081015Y-12296388D02*
X15081015Y-12239246D01*
X15081015Y-12239246D02*
X15090539Y-12220198D01*
X15090539Y-12220198D02*
X15100063Y-12210674D01*
X15100063Y-12210674D02*
X15119110Y-12201150D01*
X15119110Y-12201150D02*
X15147682Y-12201150D01*
X15147682Y-12201150D02*
X15166730Y-12210674D01*
X15166730Y-12210674D02*
X15176253Y-12220198D01*
X15176253Y-12220198D02*
X15185777Y-12239246D01*
X15185777Y-12239246D02*
X15185777Y-12296388D01*
X15185777Y-12296388D02*
X15176253Y-12315436D01*
X15176253Y-12315436D02*
X15166730Y-12324960D01*
X15166730Y-12324960D02*
X15147682Y-12334484D01*
X15147682Y-12334484D02*
X15119110Y-12334484D01*
X15300063Y-12334484D02*
X15281015Y-12324960D01*
X15281015Y-12324960D02*
X15271491Y-12305912D01*
X15271491Y-12305912D02*
X15271491Y-12134484D01*
X15452444Y-12324960D02*
X15433396Y-12334484D01*
X15433396Y-12334484D02*
X15395301Y-12334484D01*
X15395301Y-12334484D02*
X15376253Y-12324960D01*
X15376253Y-12324960D02*
X15366730Y-12305912D01*
X15366730Y-12305912D02*
X15366730Y-12229722D01*
X15366730Y-12229722D02*
X15376253Y-12210674D01*
X15376253Y-12210674D02*
X15395301Y-12201150D01*
X15395301Y-12201150D02*
X15433396Y-12201150D01*
X15433396Y-12201150D02*
X15452444Y-12210674D01*
X15452444Y-12210674D02*
X15461968Y-12229722D01*
X15461968Y-12229722D02*
X15461968Y-12248769D01*
X15461968Y-12248769D02*
X15366730Y-12267817D01*
X15538158Y-12324960D02*
X15557206Y-12334484D01*
X15557206Y-12334484D02*
X15595301Y-12334484D01*
X15595301Y-12334484D02*
X15614349Y-12324960D01*
X15614349Y-12324960D02*
X15623872Y-12305912D01*
X15623872Y-12305912D02*
X15623872Y-12296388D01*
X15623872Y-12296388D02*
X15614349Y-12277341D01*
X15614349Y-12277341D02*
X15595301Y-12267817D01*
X15595301Y-12267817D02*
X15566730Y-12267817D01*
X15566730Y-12267817D02*
X15547682Y-12258293D01*
X15547682Y-12258293D02*
X15538158Y-12239246D01*
X15538158Y-12239246D02*
X15538158Y-12229722D01*
X15538158Y-12229722D02*
X15547682Y-12210674D01*
X15547682Y-12210674D02*
X15566730Y-12201150D01*
X15566730Y-12201150D02*
X15595301Y-12201150D01*
X15595301Y-12201150D02*
X15614349Y-12210674D01*
X15690539Y-12410674D02*
X15700063Y-12401150D01*
X15700063Y-12401150D02*
X15719111Y-12372579D01*
X15719111Y-12372579D02*
X15728634Y-12353531D01*
X15728634Y-12353531D02*
X15738158Y-12324960D01*
X15738158Y-12324960D02*
X15747682Y-12277341D01*
X15747682Y-12277341D02*
X15747682Y-12239246D01*
X15747682Y-12239246D02*
X15738158Y-12191627D01*
X15738158Y-12191627D02*
X15728634Y-12163055D01*
X15728634Y-12163055D02*
X15719111Y-12144008D01*
X15719111Y-12144008D02*
X15700063Y-12115436D01*
X15700063Y-12115436D02*
X15690539Y-12105912D01*
X10525000Y-12407000D02*
X10725000Y-12607000D01*
X10725000Y-12407000D02*
X10525000Y-12607000D01*
X10625000Y-12607000D02*
X10725000Y-12507000D01*
X10625000Y-12407000D01*
X10525000Y-12507000D01*
X10625000Y-12607000D01*
X10976253Y-12417531D02*
X10985777Y-12408008D01*
X10985777Y-12408008D02*
X11004824Y-12398484D01*
X11004824Y-12398484D02*
X11052444Y-12398484D01*
X11052444Y-12398484D02*
X11071491Y-12408008D01*
X11071491Y-12408008D02*
X11081015Y-12417531D01*
X11081015Y-12417531D02*
X11090539Y-12436579D01*
X11090539Y-12436579D02*
X11090539Y-12455627D01*
X11090539Y-12455627D02*
X11081015Y-12484198D01*
X11081015Y-12484198D02*
X10966729Y-12598484D01*
X10966729Y-12598484D02*
X11090539Y-12598484D01*
X11176253Y-12579436D02*
X11185777Y-12588960D01*
X11185777Y-12588960D02*
X11176253Y-12598484D01*
X11176253Y-12598484D02*
X11166729Y-12588960D01*
X11166729Y-12588960D02*
X11176253Y-12579436D01*
X11176253Y-12579436D02*
X11176253Y-12598484D01*
X11261967Y-12417531D02*
X11271491Y-12408008D01*
X11271491Y-12408008D02*
X11290539Y-12398484D01*
X11290539Y-12398484D02*
X11338158Y-12398484D01*
X11338158Y-12398484D02*
X11357205Y-12408008D01*
X11357205Y-12408008D02*
X11366729Y-12417531D01*
X11366729Y-12417531D02*
X11376253Y-12436579D01*
X11376253Y-12436579D02*
X11376253Y-12455627D01*
X11376253Y-12455627D02*
X11366729Y-12484198D01*
X11366729Y-12484198D02*
X11252443Y-12598484D01*
X11252443Y-12598484D02*
X11376253Y-12598484D01*
X11500062Y-12398484D02*
X11519110Y-12398484D01*
X11519110Y-12398484D02*
X11538158Y-12408008D01*
X11538158Y-12408008D02*
X11547682Y-12417531D01*
X11547682Y-12417531D02*
X11557205Y-12436579D01*
X11557205Y-12436579D02*
X11566729Y-12474674D01*
X11566729Y-12474674D02*
X11566729Y-12522293D01*
X11566729Y-12522293D02*
X11557205Y-12560388D01*
X11557205Y-12560388D02*
X11547682Y-12579436D01*
X11547682Y-12579436D02*
X11538158Y-12588960D01*
X11538158Y-12588960D02*
X11519110Y-12598484D01*
X11519110Y-12598484D02*
X11500062Y-12598484D01*
X11500062Y-12598484D02*
X11481015Y-12588960D01*
X11481015Y-12588960D02*
X11471491Y-12579436D01*
X11471491Y-12579436D02*
X11461967Y-12560388D01*
X11461967Y-12560388D02*
X11452443Y-12522293D01*
X11452443Y-12522293D02*
X11452443Y-12474674D01*
X11452443Y-12474674D02*
X11461967Y-12436579D01*
X11461967Y-12436579D02*
X11471491Y-12417531D01*
X11471491Y-12417531D02*
X11481015Y-12408008D01*
X11481015Y-12408008D02*
X11500062Y-12398484D01*
X11690539Y-12398484D02*
X11709586Y-12398484D01*
X11709586Y-12398484D02*
X11728634Y-12408008D01*
X11728634Y-12408008D02*
X11738158Y-12417531D01*
X11738158Y-12417531D02*
X11747682Y-12436579D01*
X11747682Y-12436579D02*
X11757205Y-12474674D01*
X11757205Y-12474674D02*
X11757205Y-12522293D01*
X11757205Y-12522293D02*
X11747682Y-12560388D01*
X11747682Y-12560388D02*
X11738158Y-12579436D01*
X11738158Y-12579436D02*
X11728634Y-12588960D01*
X11728634Y-12588960D02*
X11709586Y-12598484D01*
X11709586Y-12598484D02*
X11690539Y-12598484D01*
X11690539Y-12598484D02*
X11671491Y-12588960D01*
X11671491Y-12588960D02*
X11661967Y-12579436D01*
X11661967Y-12579436D02*
X11652443Y-12560388D01*
X11652443Y-12560388D02*
X11642920Y-12522293D01*
X11642920Y-12522293D02*
X11642920Y-12474674D01*
X11642920Y-12474674D02*
X11652443Y-12436579D01*
X11652443Y-12436579D02*
X11661967Y-12417531D01*
X11661967Y-12417531D02*
X11671491Y-12408008D01*
X11671491Y-12408008D02*
X11690539Y-12398484D01*
X11842920Y-12598484D02*
X11842920Y-12465150D01*
X11842920Y-12484198D02*
X11852443Y-12474674D01*
X11852443Y-12474674D02*
X11871491Y-12465150D01*
X11871491Y-12465150D02*
X11900063Y-12465150D01*
X11900063Y-12465150D02*
X11919110Y-12474674D01*
X11919110Y-12474674D02*
X11928634Y-12493722D01*
X11928634Y-12493722D02*
X11928634Y-12598484D01*
X11928634Y-12493722D02*
X11938158Y-12474674D01*
X11938158Y-12474674D02*
X11957205Y-12465150D01*
X11957205Y-12465150D02*
X11985777Y-12465150D01*
X11985777Y-12465150D02*
X12004824Y-12474674D01*
X12004824Y-12474674D02*
X12014348Y-12493722D01*
X12014348Y-12493722D02*
X12014348Y-12598484D01*
X12109586Y-12598484D02*
X12109586Y-12465150D01*
X12109586Y-12484198D02*
X12119110Y-12474674D01*
X12119110Y-12474674D02*
X12138158Y-12465150D01*
X12138158Y-12465150D02*
X12166729Y-12465150D01*
X12166729Y-12465150D02*
X12185777Y-12474674D01*
X12185777Y-12474674D02*
X12195301Y-12493722D01*
X12195301Y-12493722D02*
X12195301Y-12598484D01*
X12195301Y-12493722D02*
X12204824Y-12474674D01*
X12204824Y-12474674D02*
X12223872Y-12465150D01*
X12223872Y-12465150D02*
X12252443Y-12465150D01*
X12252443Y-12465150D02*
X12271491Y-12474674D01*
X12271491Y-12474674D02*
X12281015Y-12493722D01*
X12281015Y-12493722D02*
X12281015Y-12598484D01*
X12671491Y-12388960D02*
X12500063Y-12646103D01*
X12928634Y-12398484D02*
X12947682Y-12398484D01*
X12947682Y-12398484D02*
X12966729Y-12408008D01*
X12966729Y-12408008D02*
X12976253Y-12417531D01*
X12976253Y-12417531D02*
X12985777Y-12436579D01*
X12985777Y-12436579D02*
X12995301Y-12474674D01*
X12995301Y-12474674D02*
X12995301Y-12522293D01*
X12995301Y-12522293D02*
X12985777Y-12560388D01*
X12985777Y-12560388D02*
X12976253Y-12579436D01*
X12976253Y-12579436D02*
X12966729Y-12588960D01*
X12966729Y-12588960D02*
X12947682Y-12598484D01*
X12947682Y-12598484D02*
X12928634Y-12598484D01*
X12928634Y-12598484D02*
X12909586Y-12588960D01*
X12909586Y-12588960D02*
X12900063Y-12579436D01*
X12900063Y-12579436D02*
X12890539Y-12560388D01*
X12890539Y-12560388D02*
X12881015Y-12522293D01*
X12881015Y-12522293D02*
X12881015Y-12474674D01*
X12881015Y-12474674D02*
X12890539Y-12436579D01*
X12890539Y-12436579D02*
X12900063Y-12417531D01*
X12900063Y-12417531D02*
X12909586Y-12408008D01*
X12909586Y-12408008D02*
X12928634Y-12398484D01*
X13081015Y-12579436D02*
X13090539Y-12588960D01*
X13090539Y-12588960D02*
X13081015Y-12598484D01*
X13081015Y-12598484D02*
X13071491Y-12588960D01*
X13071491Y-12588960D02*
X13081015Y-12579436D01*
X13081015Y-12579436D02*
X13081015Y-12598484D01*
X13214348Y-12398484D02*
X13233396Y-12398484D01*
X13233396Y-12398484D02*
X13252444Y-12408008D01*
X13252444Y-12408008D02*
X13261967Y-12417531D01*
X13261967Y-12417531D02*
X13271491Y-12436579D01*
X13271491Y-12436579D02*
X13281015Y-12474674D01*
X13281015Y-12474674D02*
X13281015Y-12522293D01*
X13281015Y-12522293D02*
X13271491Y-12560388D01*
X13271491Y-12560388D02*
X13261967Y-12579436D01*
X13261967Y-12579436D02*
X13252444Y-12588960D01*
X13252444Y-12588960D02*
X13233396Y-12598484D01*
X13233396Y-12598484D02*
X13214348Y-12598484D01*
X13214348Y-12598484D02*
X13195301Y-12588960D01*
X13195301Y-12588960D02*
X13185777Y-12579436D01*
X13185777Y-12579436D02*
X13176253Y-12560388D01*
X13176253Y-12560388D02*
X13166729Y-12522293D01*
X13166729Y-12522293D02*
X13166729Y-12474674D01*
X13166729Y-12474674D02*
X13176253Y-12436579D01*
X13176253Y-12436579D02*
X13185777Y-12417531D01*
X13185777Y-12417531D02*
X13195301Y-12408008D01*
X13195301Y-12408008D02*
X13214348Y-12398484D01*
X13395301Y-12484198D02*
X13376253Y-12474674D01*
X13376253Y-12474674D02*
X13366729Y-12465150D01*
X13366729Y-12465150D02*
X13357206Y-12446103D01*
X13357206Y-12446103D02*
X13357206Y-12436579D01*
X13357206Y-12436579D02*
X13366729Y-12417531D01*
X13366729Y-12417531D02*
X13376253Y-12408008D01*
X13376253Y-12408008D02*
X13395301Y-12398484D01*
X13395301Y-12398484D02*
X13433396Y-12398484D01*
X13433396Y-12398484D02*
X13452444Y-12408008D01*
X13452444Y-12408008D02*
X13461967Y-12417531D01*
X13461967Y-12417531D02*
X13471491Y-12436579D01*
X13471491Y-12436579D02*
X13471491Y-12446103D01*
X13471491Y-12446103D02*
X13461967Y-12465150D01*
X13461967Y-12465150D02*
X13452444Y-12474674D01*
X13452444Y-12474674D02*
X13433396Y-12484198D01*
X13433396Y-12484198D02*
X13395301Y-12484198D01*
X13395301Y-12484198D02*
X13376253Y-12493722D01*
X13376253Y-12493722D02*
X13366729Y-12503246D01*
X13366729Y-12503246D02*
X13357206Y-12522293D01*
X13357206Y-12522293D02*
X13357206Y-12560388D01*
X13357206Y-12560388D02*
X13366729Y-12579436D01*
X13366729Y-12579436D02*
X13376253Y-12588960D01*
X13376253Y-12588960D02*
X13395301Y-12598484D01*
X13395301Y-12598484D02*
X13433396Y-12598484D01*
X13433396Y-12598484D02*
X13452444Y-12588960D01*
X13452444Y-12588960D02*
X13461967Y-12579436D01*
X13461967Y-12579436D02*
X13471491Y-12560388D01*
X13471491Y-12560388D02*
X13471491Y-12522293D01*
X13471491Y-12522293D02*
X13461967Y-12503246D01*
X13461967Y-12503246D02*
X13452444Y-12493722D01*
X13452444Y-12493722D02*
X13433396Y-12484198D01*
X13642920Y-12398484D02*
X13604825Y-12398484D01*
X13604825Y-12398484D02*
X13585777Y-12408008D01*
X13585777Y-12408008D02*
X13576253Y-12417531D01*
X13576253Y-12417531D02*
X13557206Y-12446103D01*
X13557206Y-12446103D02*
X13547682Y-12484198D01*
X13547682Y-12484198D02*
X13547682Y-12560388D01*
X13547682Y-12560388D02*
X13557206Y-12579436D01*
X13557206Y-12579436D02*
X13566729Y-12588960D01*
X13566729Y-12588960D02*
X13585777Y-12598484D01*
X13585777Y-12598484D02*
X13623872Y-12598484D01*
X13623872Y-12598484D02*
X13642920Y-12588960D01*
X13642920Y-12588960D02*
X13652444Y-12579436D01*
X13652444Y-12579436D02*
X13661967Y-12560388D01*
X13661967Y-12560388D02*
X13661967Y-12512769D01*
X13661967Y-12512769D02*
X13652444Y-12493722D01*
X13652444Y-12493722D02*
X13642920Y-12484198D01*
X13642920Y-12484198D02*
X13623872Y-12474674D01*
X13623872Y-12474674D02*
X13585777Y-12474674D01*
X13585777Y-12474674D02*
X13566729Y-12484198D01*
X13566729Y-12484198D02*
X13557206Y-12493722D01*
X13557206Y-12493722D02*
X13547682Y-12512769D01*
X13833396Y-12398484D02*
X13795301Y-12398484D01*
X13795301Y-12398484D02*
X13776253Y-12408008D01*
X13776253Y-12408008D02*
X13766729Y-12417531D01*
X13766729Y-12417531D02*
X13747682Y-12446103D01*
X13747682Y-12446103D02*
X13738158Y-12484198D01*
X13738158Y-12484198D02*
X13738158Y-12560388D01*
X13738158Y-12560388D02*
X13747682Y-12579436D01*
X13747682Y-12579436D02*
X13757206Y-12588960D01*
X13757206Y-12588960D02*
X13776253Y-12598484D01*
X13776253Y-12598484D02*
X13814348Y-12598484D01*
X13814348Y-12598484D02*
X13833396Y-12588960D01*
X13833396Y-12588960D02*
X13842920Y-12579436D01*
X13842920Y-12579436D02*
X13852444Y-12560388D01*
X13852444Y-12560388D02*
X13852444Y-12512769D01*
X13852444Y-12512769D02*
X13842920Y-12493722D01*
X13842920Y-12493722D02*
X13833396Y-12484198D01*
X13833396Y-12484198D02*
X13814348Y-12474674D01*
X13814348Y-12474674D02*
X13776253Y-12474674D01*
X13776253Y-12474674D02*
X13757206Y-12484198D01*
X13757206Y-12484198D02*
X13747682Y-12493722D01*
X13747682Y-12493722D02*
X13738158Y-12512769D01*
X13928634Y-12398484D02*
X13928634Y-12436579D01*
X14004825Y-12398484D02*
X14004825Y-12436579D01*
X14300063Y-12674674D02*
X14290539Y-12665150D01*
X14290539Y-12665150D02*
X14271491Y-12636579D01*
X14271491Y-12636579D02*
X14261968Y-12617531D01*
X14261968Y-12617531D02*
X14252444Y-12588960D01*
X14252444Y-12588960D02*
X14242920Y-12541341D01*
X14242920Y-12541341D02*
X14242920Y-12503246D01*
X14242920Y-12503246D02*
X14252444Y-12455627D01*
X14252444Y-12455627D02*
X14261968Y-12427055D01*
X14261968Y-12427055D02*
X14271491Y-12408008D01*
X14271491Y-12408008D02*
X14290539Y-12379436D01*
X14290539Y-12379436D02*
X14300063Y-12369912D01*
X14461968Y-12465150D02*
X14461968Y-12598484D01*
X14414348Y-12388960D02*
X14366729Y-12531817D01*
X14366729Y-12531817D02*
X14490539Y-12531817D01*
X14719110Y-12598484D02*
X14719110Y-12398484D01*
X14804825Y-12598484D02*
X14804825Y-12493722D01*
X14804825Y-12493722D02*
X14795301Y-12474674D01*
X14795301Y-12474674D02*
X14776253Y-12465150D01*
X14776253Y-12465150D02*
X14747682Y-12465150D01*
X14747682Y-12465150D02*
X14728634Y-12474674D01*
X14728634Y-12474674D02*
X14719110Y-12484198D01*
X14928634Y-12598484D02*
X14909587Y-12588960D01*
X14909587Y-12588960D02*
X14900063Y-12579436D01*
X14900063Y-12579436D02*
X14890539Y-12560388D01*
X14890539Y-12560388D02*
X14890539Y-12503246D01*
X14890539Y-12503246D02*
X14900063Y-12484198D01*
X14900063Y-12484198D02*
X14909587Y-12474674D01*
X14909587Y-12474674D02*
X14928634Y-12465150D01*
X14928634Y-12465150D02*
X14957206Y-12465150D01*
X14957206Y-12465150D02*
X14976253Y-12474674D01*
X14976253Y-12474674D02*
X14985777Y-12484198D01*
X14985777Y-12484198D02*
X14995301Y-12503246D01*
X14995301Y-12503246D02*
X14995301Y-12560388D01*
X14995301Y-12560388D02*
X14985777Y-12579436D01*
X14985777Y-12579436D02*
X14976253Y-12588960D01*
X14976253Y-12588960D02*
X14957206Y-12598484D01*
X14957206Y-12598484D02*
X14928634Y-12598484D01*
X15109587Y-12598484D02*
X15090539Y-12588960D01*
X15090539Y-12588960D02*
X15081015Y-12569912D01*
X15081015Y-12569912D02*
X15081015Y-12398484D01*
X15261968Y-12588960D02*
X15242920Y-12598484D01*
X15242920Y-12598484D02*
X15204825Y-12598484D01*
X15204825Y-12598484D02*
X15185777Y-12588960D01*
X15185777Y-12588960D02*
X15176253Y-12569912D01*
X15176253Y-12569912D02*
X15176253Y-12493722D01*
X15176253Y-12493722D02*
X15185777Y-12474674D01*
X15185777Y-12474674D02*
X15204825Y-12465150D01*
X15204825Y-12465150D02*
X15242920Y-12465150D01*
X15242920Y-12465150D02*
X15261968Y-12474674D01*
X15261968Y-12474674D02*
X15271491Y-12493722D01*
X15271491Y-12493722D02*
X15271491Y-12512769D01*
X15271491Y-12512769D02*
X15176253Y-12531817D01*
X15347682Y-12588960D02*
X15366730Y-12598484D01*
X15366730Y-12598484D02*
X15404825Y-12598484D01*
X15404825Y-12598484D02*
X15423872Y-12588960D01*
X15423872Y-12588960D02*
X15433396Y-12569912D01*
X15433396Y-12569912D02*
X15433396Y-12560388D01*
X15433396Y-12560388D02*
X15423872Y-12541341D01*
X15423872Y-12541341D02*
X15404825Y-12531817D01*
X15404825Y-12531817D02*
X15376253Y-12531817D01*
X15376253Y-12531817D02*
X15357206Y-12522293D01*
X15357206Y-12522293D02*
X15347682Y-12503246D01*
X15347682Y-12503246D02*
X15347682Y-12493722D01*
X15347682Y-12493722D02*
X15357206Y-12474674D01*
X15357206Y-12474674D02*
X15376253Y-12465150D01*
X15376253Y-12465150D02*
X15404825Y-12465150D01*
X15404825Y-12465150D02*
X15423872Y-12474674D01*
X15500063Y-12674674D02*
X15509587Y-12665150D01*
X15509587Y-12665150D02*
X15528634Y-12636579D01*
X15528634Y-12636579D02*
X15538158Y-12617531D01*
X15538158Y-12617531D02*
X15547682Y-12588960D01*
X15547682Y-12588960D02*
X15557206Y-12541341D01*
X15557206Y-12541341D02*
X15557206Y-12503246D01*
X15557206Y-12503246D02*
X15547682Y-12455627D01*
X15547682Y-12455627D02*
X15538158Y-12427055D01*
X15538158Y-12427055D02*
X15528634Y-12408008D01*
X15528634Y-12408008D02*
X15509587Y-12379436D01*
X15509587Y-12379436D02*
X15500063Y-12369912D01*
M02*
