%TF.GenerationSoftware,KiCad,Pcbnew,7.99.0-3522-gc5520b3eef-dirty*%
%TF.CreationDate,2023-12-17T14:55:38+00:00*%
%TF.ProjectId,lamp-controller,6c616d70-2d63-46f6-9e74-726f6c6c6572,rev?*%
%TF.SameCoordinates,Original*%
%TF.FileFunction,Drillmap*%
%TF.FilePolarity,Positive*%
%FSLAX45Y45*%
G04 Gerber Fmt 4.5, Leading zero omitted, Abs format (unit mm)*
G04 Created by KiCad (PCBNEW 7.99.0-3522-gc5520b3eef-dirty) date 2023-12-17 14:55:38*
%MOMM*%
%LPD*%
G01*
G04 APERTURE LIST*
%ADD10C,0.100000*%
%ADD11C,0.200000*%
G04 APERTURE END LIST*
D10*
X12960000Y-6930000D02*
X16450000Y-6930000D01*
X16450000Y-9580000D01*
X12960000Y-9580000D01*
X12960000Y-6930000D01*
D11*
X13215777Y-9896484D02*
X13215777Y-9696484D01*
X13215777Y-9696484D02*
X13263396Y-9696484D01*
X13263396Y-9696484D02*
X13291967Y-9706008D01*
X13291967Y-9706008D02*
X13311015Y-9725055D01*
X13311015Y-9725055D02*
X13320539Y-9744103D01*
X13320539Y-9744103D02*
X13330062Y-9782198D01*
X13330062Y-9782198D02*
X13330062Y-9810770D01*
X13330062Y-9810770D02*
X13320539Y-9848865D01*
X13320539Y-9848865D02*
X13311015Y-9867912D01*
X13311015Y-9867912D02*
X13291967Y-9886960D01*
X13291967Y-9886960D02*
X13263396Y-9896484D01*
X13263396Y-9896484D02*
X13215777Y-9896484D01*
X13415777Y-9896484D02*
X13415777Y-9763150D01*
X13415777Y-9801246D02*
X13425301Y-9782198D01*
X13425301Y-9782198D02*
X13434824Y-9772674D01*
X13434824Y-9772674D02*
X13453872Y-9763150D01*
X13453872Y-9763150D02*
X13472920Y-9763150D01*
X13539586Y-9896484D02*
X13539586Y-9763150D01*
X13539586Y-9696484D02*
X13530062Y-9706008D01*
X13530062Y-9706008D02*
X13539586Y-9715531D01*
X13539586Y-9715531D02*
X13549110Y-9706008D01*
X13549110Y-9706008D02*
X13539586Y-9696484D01*
X13539586Y-9696484D02*
X13539586Y-9715531D01*
X13663396Y-9896484D02*
X13644348Y-9886960D01*
X13644348Y-9886960D02*
X13634824Y-9867912D01*
X13634824Y-9867912D02*
X13634824Y-9696484D01*
X13768158Y-9896484D02*
X13749110Y-9886960D01*
X13749110Y-9886960D02*
X13739586Y-9867912D01*
X13739586Y-9867912D02*
X13739586Y-9696484D01*
X13996729Y-9896484D02*
X13996729Y-9696484D01*
X13996729Y-9696484D02*
X14063396Y-9839341D01*
X14063396Y-9839341D02*
X14130062Y-9696484D01*
X14130062Y-9696484D02*
X14130062Y-9896484D01*
X14311015Y-9896484D02*
X14311015Y-9791722D01*
X14311015Y-9791722D02*
X14301491Y-9772674D01*
X14301491Y-9772674D02*
X14282443Y-9763150D01*
X14282443Y-9763150D02*
X14244348Y-9763150D01*
X14244348Y-9763150D02*
X14225301Y-9772674D01*
X14311015Y-9886960D02*
X14291967Y-9896484D01*
X14291967Y-9896484D02*
X14244348Y-9896484D01*
X14244348Y-9896484D02*
X14225301Y-9886960D01*
X14225301Y-9886960D02*
X14215777Y-9867912D01*
X14215777Y-9867912D02*
X14215777Y-9848865D01*
X14215777Y-9848865D02*
X14225301Y-9829817D01*
X14225301Y-9829817D02*
X14244348Y-9820293D01*
X14244348Y-9820293D02*
X14291967Y-9820293D01*
X14291967Y-9820293D02*
X14311015Y-9810770D01*
X14406253Y-9763150D02*
X14406253Y-9963150D01*
X14406253Y-9772674D02*
X14425301Y-9763150D01*
X14425301Y-9763150D02*
X14463396Y-9763150D01*
X14463396Y-9763150D02*
X14482443Y-9772674D01*
X14482443Y-9772674D02*
X14491967Y-9782198D01*
X14491967Y-9782198D02*
X14501491Y-9801246D01*
X14501491Y-9801246D02*
X14501491Y-9858389D01*
X14501491Y-9858389D02*
X14491967Y-9877436D01*
X14491967Y-9877436D02*
X14482443Y-9886960D01*
X14482443Y-9886960D02*
X14463396Y-9896484D01*
X14463396Y-9896484D02*
X14425301Y-9896484D01*
X14425301Y-9896484D02*
X14406253Y-9886960D01*
X14587205Y-9877436D02*
X14596729Y-9886960D01*
X14596729Y-9886960D02*
X14587205Y-9896484D01*
X14587205Y-9896484D02*
X14577682Y-9886960D01*
X14577682Y-9886960D02*
X14587205Y-9877436D01*
X14587205Y-9877436D02*
X14587205Y-9896484D01*
X14587205Y-9772674D02*
X14596729Y-9782198D01*
X14596729Y-9782198D02*
X14587205Y-9791722D01*
X14587205Y-9791722D02*
X14577682Y-9782198D01*
X14577682Y-9782198D02*
X14587205Y-9772674D01*
X14587205Y-9772674D02*
X14587205Y-9791722D01*
M02*
