M48
; DRILL file {KiCad 7.99.0-3522-gc5520b3eef-dirty} date 2023-12-17T14:55:38+0000
; FORMAT={-:-/ absolute / inch / decimal}
; #@! TF.CreationDate,2023-12-17T14:55:38+00:00
; #@! TF.GenerationSoftware,Kicad,Pcbnew,7.99.0-3522-gc5520b3eef-dirty
; #@! TF.FileFunction,Plated,1,2,PTH
FMAT,2
INCH
; #@! TA.AperFunction,Plated,PTH,ViaDrill
T1C0.0157
; #@! TA.AperFunction,Plated,PTH,ComponentDrill
T2C0.0197
; #@! TA.AperFunction,Plated,PTH,ComponentDrill
T3C0.0236
; #@! TA.AperFunction,Plated,PTH,ComponentDrill
T4C0.0256
; #@! TA.AperFunction,Plated,PTH,ComponentDrill
T5C0.0394
; #@! TA.AperFunction,Plated,PTH,ComponentDrill
T6C0.0866
%
G90
G05
T1
X5.1575Y-2.7559
X5.1575Y-2.9134
X5.1575Y-2.9921
X5.1575Y-3.0709
X5.1575Y-3.3858
X5.1575Y-3.4646
X5.1575Y-3.5433
X5.1575Y-3.7402
X5.2362Y-3.7402
X5.2756Y-2.7559
X5.315Y-3.7402
X5.3543Y-2.7559
X5.384Y-2.953
X5.3937Y-3.7402
X5.4331Y-2.7559
X5.4724Y-3.7402
X5.4961Y-3.189
X5.5Y-3.3228
X5.5039Y-3.1063
X5.5118Y-2.7559
X5.5197Y-3.5118
X5.5433Y-3.0236
X5.5472Y-3.3228
X5.5512Y-3.6614
X5.5778Y-3.2283
X5.5906Y-2.7559
X5.6299Y-3.0217
X5.6378Y-3.6575
X5.6693Y-2.7559
X5.7382Y-3.1299
X5.7441Y-3.3819
X5.748Y-2.7559
X5.7622Y-3.2738
X5.7913Y-3.2382
X5.8031Y-3.3346
X5.8268Y-2.7559
X5.8268Y-3.1299
X5.8307Y-3.2047
X5.8474Y-3.3819
X5.9055Y-2.7559
X5.9055Y-3.7402
X5.9606Y-3.2598
X5.9843Y-2.7559
X5.9843Y-3.4055
X5.9843Y-3.7402
X6.0079Y-2.9567
X6.0103Y-3.1036
X6.0118Y-2.8701
X6.063Y-2.7559
X6.063Y-3.2598
X6.063Y-3.4055
X6.063Y-3.7402
X6.094Y-3.1299
X6.0946Y-3.1852
X6.1417Y-2.7559
X6.1417Y-2.874
X6.1417Y-3.0197
X6.1417Y-3.7402
X6.1811Y-3.4252
X6.2047Y-2.874
X6.2126Y-2.9646
X6.2205Y-2.7559
X6.2205Y-3.7402
X6.2913Y-3.1142
X6.2953Y-2.8701
X6.2992Y-3.7402
X6.3189Y-2.8543
X6.3189Y-3.0906
T2
X5.5866Y-3.7323
X5.626Y-3.7323
X5.6654Y-3.7323
T3
X5.3425Y-3.3976
X5.3425Y-3.4764
X6.3386Y-3.248
X6.3386Y-3.3268
T4
X5.6649Y-3.378
X5.6649Y-3.428
X5.6768Y-2.9343
X5.6768Y-2.9843
X5.7268Y-2.9343
X5.7268Y-2.9843
X5.7768Y-2.9343
X5.7768Y-2.9843
X5.8268Y-2.9343
X5.8268Y-2.9843
X5.8768Y-2.9343
X5.8768Y-2.9843
X5.9606Y-3.5866
X5.9606Y-3.6366
X5.9606Y-3.6866
X6.0827Y-3.5866
X6.0827Y-3.6366
X6.0827Y-3.6866
X6.2047Y-3.5866
X6.2047Y-3.6366
X6.2047Y-3.6866
T5
X5.1772Y-3.1693
X5.1772Y-3.2693
X5.3445Y-3.1683
X5.3445Y-3.2683
X6.4Y-3.5
X6.4Y-3.6
X6.4Y-3.7
X6.4016Y-2.8
X6.4016Y-2.9
X6.4016Y-3.0
X6.4016Y-3.1
T6
X5.2205Y-2.8417
X5.2205Y-3.6417
X5.8039Y-3.6417
T0
M30
