%TF.GenerationSoftware,KiCad,Pcbnew,7.99.0-3522-gc5520b3eef-dirty*%
%TF.CreationDate,2023-12-17T14:55:43+00:00*%
%TF.ProjectId,lamp-controller,6c616d70-2d63-46f6-9e74-726f6c6c6572,rev?*%
%TF.SameCoordinates,Original*%
%TF.FileFunction,Legend,Bot*%
%TF.FilePolarity,Positive*%
%FSLAX46Y46*%
G04 Gerber Fmt 4.6, Leading zero omitted, Abs format (unit mm)*
G04 Created by KiCad (PCBNEW 7.99.0-3522-gc5520b3eef-dirty) date 2023-12-17 14:55:43*
%MOMM*%
%LPD*%
G01*
G04 APERTURE LIST*
%ADD10C,0.075000*%
G04 APERTURE END LIST*
D10*
X138793515Y-91873719D02*
X138793515Y-92588004D01*
X138793515Y-92588004D02*
X138807800Y-92730861D01*
X138807800Y-92730861D02*
X138836372Y-92826100D01*
X138836372Y-92826100D02*
X138879229Y-92873719D01*
X138879229Y-92873719D02*
X138907800Y-92873719D01*
X138507801Y-92873719D02*
X138650658Y-92873719D01*
X138650658Y-92873719D02*
X138650658Y-91873719D01*
X138236372Y-92778480D02*
X138250658Y-92826100D01*
X138250658Y-92826100D02*
X138293515Y-92873719D01*
X138293515Y-92873719D02*
X138322087Y-92873719D01*
X138322087Y-92873719D02*
X138364944Y-92826100D01*
X138364944Y-92826100D02*
X138393515Y-92730861D01*
X138393515Y-92730861D02*
X138407801Y-92635623D01*
X138407801Y-92635623D02*
X138422087Y-92445147D01*
X138422087Y-92445147D02*
X138422087Y-92302290D01*
X138422087Y-92302290D02*
X138407801Y-92111814D01*
X138407801Y-92111814D02*
X138393515Y-92016576D01*
X138393515Y-92016576D02*
X138364944Y-91921338D01*
X138364944Y-91921338D02*
X138322087Y-91873719D01*
X138322087Y-91873719D02*
X138293515Y-91873719D01*
X138293515Y-91873719D02*
X138250658Y-91921338D01*
X138250658Y-91921338D02*
X138236372Y-91968957D01*
X138022087Y-91873719D02*
X138022087Y-92588004D01*
X138022087Y-92588004D02*
X138036372Y-92730861D01*
X138036372Y-92730861D02*
X138064944Y-92826100D01*
X138064944Y-92826100D02*
X138107801Y-92873719D01*
X138107801Y-92873719D02*
X138136372Y-92873719D01*
X137736373Y-92873719D02*
X137879230Y-92873719D01*
X137879230Y-92873719D02*
X137879230Y-91873719D01*
X137464944Y-92778480D02*
X137479230Y-92826100D01*
X137479230Y-92826100D02*
X137522087Y-92873719D01*
X137522087Y-92873719D02*
X137550659Y-92873719D01*
X137550659Y-92873719D02*
X137593516Y-92826100D01*
X137593516Y-92826100D02*
X137622087Y-92730861D01*
X137622087Y-92730861D02*
X137636373Y-92635623D01*
X137636373Y-92635623D02*
X137650659Y-92445147D01*
X137650659Y-92445147D02*
X137650659Y-92302290D01*
X137650659Y-92302290D02*
X137636373Y-92111814D01*
X137636373Y-92111814D02*
X137622087Y-92016576D01*
X137622087Y-92016576D02*
X137593516Y-91921338D01*
X137593516Y-91921338D02*
X137550659Y-91873719D01*
X137550659Y-91873719D02*
X137522087Y-91873719D01*
X137522087Y-91873719D02*
X137479230Y-91921338D01*
X137479230Y-91921338D02*
X137464944Y-91968957D01*
X137250659Y-91873719D02*
X137250659Y-92588004D01*
X137250659Y-92588004D02*
X137264944Y-92730861D01*
X137264944Y-92730861D02*
X137293516Y-92826100D01*
X137293516Y-92826100D02*
X137336373Y-92873719D01*
X137336373Y-92873719D02*
X137364944Y-92873719D01*
X136964945Y-92873719D02*
X137107802Y-92873719D01*
X137107802Y-92873719D02*
X137107802Y-91873719D01*
X136693516Y-92778480D02*
X136707802Y-92826100D01*
X136707802Y-92826100D02*
X136750659Y-92873719D01*
X136750659Y-92873719D02*
X136779231Y-92873719D01*
X136779231Y-92873719D02*
X136822088Y-92826100D01*
X136822088Y-92826100D02*
X136850659Y-92730861D01*
X136850659Y-92730861D02*
X136864945Y-92635623D01*
X136864945Y-92635623D02*
X136879231Y-92445147D01*
X136879231Y-92445147D02*
X136879231Y-92302290D01*
X136879231Y-92302290D02*
X136864945Y-92111814D01*
X136864945Y-92111814D02*
X136850659Y-92016576D01*
X136850659Y-92016576D02*
X136822088Y-91921338D01*
X136822088Y-91921338D02*
X136779231Y-91873719D01*
X136779231Y-91873719D02*
X136750659Y-91873719D01*
X136750659Y-91873719D02*
X136707802Y-91921338D01*
X136707802Y-91921338D02*
X136693516Y-91968957D01*
X136479231Y-91873719D02*
X136479231Y-92588004D01*
X136479231Y-92588004D02*
X136493516Y-92730861D01*
X136493516Y-92730861D02*
X136522088Y-92826100D01*
X136522088Y-92826100D02*
X136564945Y-92873719D01*
X136564945Y-92873719D02*
X136593516Y-92873719D01*
X136193517Y-92873719D02*
X136336374Y-92873719D01*
X136336374Y-92873719D02*
X136336374Y-91873719D01*
X135922088Y-92778480D02*
X135936374Y-92826100D01*
X135936374Y-92826100D02*
X135979231Y-92873719D01*
X135979231Y-92873719D02*
X136007803Y-92873719D01*
X136007803Y-92873719D02*
X136050660Y-92826100D01*
X136050660Y-92826100D02*
X136079231Y-92730861D01*
X136079231Y-92730861D02*
X136093517Y-92635623D01*
X136093517Y-92635623D02*
X136107803Y-92445147D01*
X136107803Y-92445147D02*
X136107803Y-92302290D01*
X136107803Y-92302290D02*
X136093517Y-92111814D01*
X136093517Y-92111814D02*
X136079231Y-92016576D01*
X136079231Y-92016576D02*
X136050660Y-91921338D01*
X136050660Y-91921338D02*
X136007803Y-91873719D01*
X136007803Y-91873719D02*
X135979231Y-91873719D01*
X135979231Y-91873719D02*
X135936374Y-91921338D01*
X135936374Y-91921338D02*
X135922088Y-91968957D01*
M02*
